<svg width="20" height="20" viewBox="0 0 20 20" fill="none" xmlns="http://www.w3.org/2000/svg">
<g clip-path="url(#clip0_298_758)">
<path d="M9.99984 1.66675C6.77484 1.66675 4.1665 4.27508 4.1665 7.50008C4.1665 11.8751 9.99984 18.3334 9.99984 18.3334C9.99984 18.3334 15.8332 11.8751 15.8332 7.50008C15.8332 4.27508 13.2248 1.66675 9.99984 1.66675ZM5.83317 7.50008C5.83317 5.20008 7.69984 3.33341 9.99984 3.33341C12.2998 3.33341 14.1665 5.20008 14.1665 7.50008C14.1665 9.90008 11.7665 13.4917 9.99984 15.7334C8.2665 13.5084 5.83317 9.87508 5.83317 7.50008Z" fill="black"/>
<path d="M9.99984 9.58341C11.1504 9.58341 12.0832 8.65067 12.0832 7.50008C12.0832 6.34949 11.1504 5.41675 9.99984 5.41675C8.84924 5.41675 7.9165 6.34949 7.9165 7.50008C7.9165 8.65067 8.84924 9.58341 9.99984 9.58341Z" fill="black"/>
</g>
<defs>
<clipPath id="clip0_298_758">
<rect width="20" height="20" fill="white"/>
</clipPath>
</defs>
</svg>
