<svg width="18" height="19" viewBox="0 0 18 19" fill="none" xmlns="http://www.w3.org/2000/svg">
<g clip-path="url(#clip0_298_764)">
<path d="M9.5 4.5H8V10.5L12.75 13.35L13.5 12.12L9.5 9.75V4.5ZM9 0.5C4.03 0.5 0 4.53 0 9.5C0 14.47 4.03 18.5 9 18.5C13.97 18.5 18 14.47 18 9.5C18 4.53 13.97 0.5 9 0.5ZM9 16.5C5.14 16.5 2 13.36 2 9.5C2 5.64 5.14 2.5 9 2.5C12.86 2.5 16 5.64 16 9.5C16 13.36 12.86 16.5 9 16.5Z" fill="black"/>
</g>
<defs>
<clipPath id="clip0_298_764">
<rect width="18" height="18" fill="white" transform="translate(0 0.5)"/>
</clipPath>
</defs>
</svg>
