<svg width="16" height="21" viewBox="0 0 16 21" fill="none" xmlns="http://www.w3.org/2000/svg">
<path d="M8 10.6611C6.9 10.6611 6 9.76107 6 8.66107C6 7.56107 6.9 6.66107 8 6.66107C9.1 6.66107 10 7.56107 10 8.66107C10 9.76107 9.1 10.6611 8 10.6611ZM14 8.86107C14 5.23107 11.35 2.66107 8 2.66107C4.65 2.66107 2 5.23107 2 8.86107C2 11.2011 3.95 14.3011 8 18.0011C12.05 14.3011 14 11.2011 14 8.86107ZM8 0.661072C12.2 0.661072 16 3.88107 16 8.86107C16 12.1811 13.33 16.1111 8 20.6611C2.67 16.1111 0 12.1811 0 8.86107C0 3.88107 3.8 0.661072 8 0.661072Z" fill="white"/>
</svg>
