<svg width="24" height="24" viewBox="0 0 24 24" fill="none" xmlns="http://www.w3.org/2000/svg">
<g clip-path="url(#clip0_2_2688)">
<path fill-rule="evenodd" clip-rule="evenodd" d="M0.292893 0.292863C0.683418 -0.0976616 1.31658 -0.0976616 1.70711 0.292863L10.5831 9.16886C10.583 9.1688 10.5832 9.16892 10.5831 9.16886C10.5854 9.1711 10.5878 9.17353 10.59 9.1758C10.59 9.17574 10.5901 9.17585 10.59 9.1758L14.824 13.4098C14.824 13.4097 14.8241 13.4098 14.824 13.4098C14.8263 13.412 14.8287 13.4144 14.8309 13.4167C14.8309 13.4166 14.831 13.4167 14.8309 13.4167L23.7071 22.2929C24.0976 22.6834 24.0976 23.3166 23.7071 23.7071C23.3166 24.0976 22.6834 24.0976 22.2929 23.7071L17.8261 19.2403C16.0962 20.3535 14.0848 20.966 12.0163 20.9998L12 21C8.10049 21 5.10448 18.7735 3.14546 16.6839C2.15683 15.6294 1.40207 14.5787 0.894336 13.7925C0.63985 13.3985 0.445792 13.0683 0.313971 12.834C0.248023 12.7167 0.19754 12.6233 0.162753 12.5575C0.145357 12.5247 0.131875 12.4987 0.122338 12.4801L0.11099 12.4579L0.107539 12.4511L0.10637 12.4488C0.106186 12.4484 0.105573 12.4472 1 12L0.105573 12.4472C-0.0397387 12.1566 -0.0347895 11.8135 0.118844 11.5271C1.25035 9.41847 2.7597 7.53963 4.56848 5.98266L0.292893 1.70708C-0.097631 1.31655 -0.097631 0.683387 0.292893 0.292863ZM5.9871 7.40128C4.45031 8.70134 3.14935 10.2581 2.14257 12.0031C2.25165 12.1915 2.39592 12.4311 2.57441 12.7074C3.03543 13.4213 3.71817 14.3706 4.60454 15.316C6.39395 17.2247 8.89512 18.9969 11.9918 19C13.5373 18.9733 15.0437 18.5524 16.3714 17.7856L14.0497 15.4639C13.891 15.5634 13.7251 15.6519 13.5531 15.7285C13.0625 15.9471 12.5328 16.0647 11.9957 16.0742C11.4586 16.0837 10.9252 15.9849 10.4271 15.7837C9.92902 15.5825 9.47657 15.2831 9.09674 14.9032C8.7169 14.5234 8.41747 14.0709 8.21629 13.5729C8.01511 13.0748 7.91631 12.5413 7.92579 12.0042C7.93526 11.4672 8.05282 10.9375 8.27145 10.4468C8.34805 10.2749 8.43652 10.109 8.53604 9.95023L5.9871 7.40128ZM10.0279 11.4421C9.96372 11.6345 9.92907 11.836 9.92548 12.0395C9.92074 12.3081 9.97014 12.5748 10.0707 12.8238C10.1713 13.0729 10.321 13.2991 10.511 13.489C10.7009 13.6789 10.9271 13.8287 11.1761 13.9292C11.4252 14.0298 11.6919 14.0792 11.9604 14.0745C12.164 14.0709 12.3655 14.0363 12.5579 13.9721L10.0279 11.4421ZM11.9977 4.99997C11.3682 4.99849 10.7408 5.0702 10.1279 5.21365C9.59016 5.33952 9.05219 5.00563 8.92632 4.46788C8.80044 3.93013 9.13434 3.39216 9.67209 3.26629C10.4355 3.08759 11.2171 2.99822 12.0011 2.99997C12.0015 2.99997 12.0019 2.99997 12.0023 2.99997L12 3.99997V2.99997C12.0004 2.99997 12.0008 2.99997 12.0011 2.99997C15.9001 3.0004 18.8957 5.22661 20.8545 7.31603C21.8432 8.37057 22.5979 9.42128 23.1057 10.2074C23.3601 10.6015 23.5542 10.9316 23.686 11.166C23.752 11.2832 23.8025 11.3767 23.8372 11.4424C23.8546 11.4753 23.8681 11.5012 23.8777 11.5198L23.889 11.542L23.8925 11.5488L23.8936 11.5512C23.8938 11.5515 23.8944 11.5528 23 12L22.1181 11.5286C22.0338 11.6863 21.947 11.8427 21.858 11.9977C21.7488 11.8092 21.6044 11.5693 21.4256 11.2925C20.9646 10.5787 20.2818 9.62937 19.3955 8.68391C17.6045 6.77353 15.1005 4.99997 12 4.99997L11.9977 4.99997ZM21.858 11.9977C21.3406 12.8981 20.7439 13.751 20.0748 14.5461C19.7193 14.9687 19.7736 15.5995 20.1962 15.9551C20.6187 16.3107 21.2496 16.2564 21.6052 15.8338C22.479 14.7953 23.2421 13.6684 23.8819 12.4714C24.0348 12.1853 24.0395 11.8429 23.8944 11.5528L23 12C22.1056 12.4472 22.1057 12.4475 22.1058 12.4477L22.1051 12.4463L22.099 12.4342C22.0929 12.4225 22.0831 12.4036 22.0695 12.3778C22.0423 12.3264 22 12.248 21.9429 12.1465C21.9175 12.1013 21.8892 12.0516 21.858 11.9977Z" fill="#2F363D"/>
</g>
<defs>
<clipPath id="clip0_2_2688">
<rect width="24" height="24" fill="white"/>
</clipPath>
</defs>
</svg>
