<?xml version="1.0" standalone="no"?>
<!DOCTYPE svg PUBLIC "-//W3C//DTD SVG 1.1//EN" "http://www.w3.org/Graphics/SVG/1.1/DTD/svg11.dtd" >
<svg xmlns="http://www.w3.org/2000/svg" xmlns:xlink="http://www.w3.org/1999/xlink" version="1.1">
<metadata>
Created by FontForge 20190801 at Tue Jul 24 14:38:31 2012
 By root
 
</metadata>
<defs>
<font id="Flexo-Medium" horiz-adv-x="1810" >
  <font-face 
    font-family="Flexo Medium"
    font-weight="550"
    font-stretch="normal"
    units-per-em="3333"
    panose-1="0 0 0 0 0 0 0 0 0 0"
    ascent="2633"
    descent="-700"
    x-height="1781"
    cap-height="2330"
    bbox="-536 -838 4042 3191"
    underline-thickness="167"
    underline-position="-396"
    stemh="244"
    stemv="306"
    unicode-range="U+0020-FB04"
  />
<missing-glyph horiz-adv-x="2147" 
d="M242 0v2400h1663v-2400h-1663zM974 1200l-565 874v-1748zM1639 171l-565 875l-566 -875h1131zM1639 2228h-1131l566 -874zM1739 2074l-565 -874l565 -874v1748z" />
    <glyph glyph-name="f_b" unicode="fb" horiz-adv-x="3116" 
d="M391 1781v182c0 341 177 530 533 530c273 0 542 -8 820 -24v-722c141 35 297 58 445 58c537 0 762 -230 762 -914c0 -696 -242 -915 -817 -915c-228 0 -485 42 -683 149c-8 103 -12 205 -12 315v1819h-454c-177 0 -287 -84 -287 -286v-192h389v-234h-389v-1547h-307v1547
h-309v234h309zM1753 290c101 -48 255 -71 381 -71c435 0 508 263 508 672c0 434 -50 670 -536 670c-116 0 -261 -27 -362 -61v-949c0 -82 3 -182 9 -261z" />
    <glyph glyph-name="f_f" unicode="ff" horiz-adv-x="2257" 
d="M82 1781h309v182c0 341 177 530 533 530c55 0 131 -5 190 -14l-23 -220h-106c-177 0 -287 -84 -287 -286v-192h785v182c0 341 176 530 533 530c54 0 131 -5 190 -14l-23 -220h-107c-177 0 -287 -84 -287 -286v-192h390v-234h-390v-1547h-306v1547h-785v-1547h-307v1547
h-309v234z" />
    <glyph glyph-name="f_f_b" unicode="ffb" horiz-adv-x="4207" 
d="M1789 1547v-1547h-306v1547h-785v-1547h-307v1547h-309v234h309v182c0 341 177 530 533 530c55 0 131 -5 190 -14l-23 -220h-106c-177 0 -287 -84 -287 -286v-192h785v182c0 341 176 530 533 530c273 0 542 -8 820 -24v-722c141 35 296 58 444 58
c537 0 762 -230 762 -914c0 -696 -242 -915 -816 -915c-229 0 -486 42 -684 149c-7 103 -12 205 -12 315v1819h-454c-177 0 -287 -84 -287 -286v-192h390v-234h-390zM2836 551c0 -82 3 -182 9 -261c100 -48 254 -71 381 -71c434 0 507 263 507 672c0 434 -50 670 -536 670
c-116 0 -261 -27 -361 -61v-949z" />
    <glyph glyph-name="f_f_h" unicode="ffh" horiz-adv-x="4219" 
d="M698 1781h785v182c0 341 176 530 533 530c273 0 542 -8 820 -24v-735c145 43 302 70 482 71c618 2 691 -275 691 -649v-1156h-306v1109c0 312 -59 445 -473 445c-127 0 -274 -27 -394 -75v-1479h-306v2259h-454c-177 0 -287 -84 -287 -286v-192h390v-234h-390v-1547h-306
v1547h-785v-1547h-307v1547h-309v234h309v182c0 341 177 530 533 530c55 0 131 -5 190 -14l-23 -220h-106c-177 0 -287 -84 -287 -286v-192z" />
    <glyph glyph-name="f_f_i" unicode="ffi" horiz-adv-x="3104" 
d="M391 1781v182c0 341 177 530 533 530c55 0 131 -5 190 -14l-23 -220h-106c-177 0 -287 -84 -287 -286v-192h785v182c0 341 176 530 533 530c54 0 131 -5 190 -14l-23 -220h-107c-177 0 -287 -84 -287 -286v-192h1069v-1781h-307v1547h-762v-1547h-306v1547h-785v-1547
h-307v1547h-309v234h309zM2704 2089c-145 0 -185 51 -185 201c0 151 43 203 185 203s185 -52 185 -203c0 -150 -40 -201 -185 -201z" />
    <glyph glyph-name="f_f_j" unicode="ffj" horiz-adv-x="3180" 
d="M698 1547v-1547h-307v1547h-309v234h309v182c0 341 177 530 533 530c55 0 131 -5 190 -14l-23 -220h-106c-177 0 -287 -84 -287 -286v-192h785v182c0 341 176 530 533 530c54 0 131 -5 190 -14l-23 -220h-107c-177 0 -287 -84 -287 -286v-192h1140v-1789
c0 -485 -195 -672 -632 -672c-25 0 -49 1 -74 3l25 230c205 18 374 62 374 377v1617h-833v-1547h-306v1547h-785zM2590 2290c0 151 43 203 185 203c143 0 186 -52 186 -203c0 -150 -40 -201 -186 -201c-145 0 -185 51 -185 201z" />
    <glyph glyph-name="f_f_k" unicode="ffk" horiz-adv-x="4013" 
d="M2836 976l727 805h357l-788 -851l834 -930h-383l-747 857v-857h-305v2259h-455c-177 0 -287 -84 -287 -286v-192h390v-234h-390v-1547h-306v1547h-785v-1547h-307v1547h-309v234h309v182c0 341 177 530 533 530c55 0 131 -5 190 -14l-23 -220h-106
c-177 0 -287 -84 -287 -286v-192h785v182c0 341 176 530 533 530c273 0 542 -8 820 -24v-1493z" />
    <glyph glyph-name="f_f_l" unicode="ffl" horiz-adv-x="3099" 
d="M2179 1781v-234h-390v-1547h-306v1547h-785v-1547h-307v1547h-309v234h309v182c0 341 177 530 533 530c55 0 131 -5 190 -14l-23 -220h-106c-177 0 -287 -84 -287 -286v-192h785v182c0 341 176 530 533 530c273 0 542 -8 820 -24v-1991c0 -179 42 -305 137 -427
l-264 -130c-117 133 -180 293 -180 540v1798h-453c-177 0 -287 -84 -287 -286v-192h390z" />
    <glyph glyph-name="f_h" unicode="fh" horiz-adv-x="3127" 
d="M82 1547v234h309v182c0 341 177 530 533 530c273 0 542 -8 820 -24v-735c146 43 303 70 482 71c618 2 691 -275 691 -649v-1156h-306v1109c0 312 -59 445 -472 445c-127 0 -275 -27 -395 -75v-1479h-306v2259h-453c-177 0 -287 -84 -287 -286v-192h389v-234h-389v-1547
h-307v1547h-309z" />
    <glyph glyph-name="fi" unicode="fi" horiz-adv-x="2013" 
d="M1767 0h-308v1547h-761v-1547h-307v1547h-309v234h309v182c0 341 177 530 533 530c55 0 131 -5 190 -14l-23 -220h-106c-177 0 -287 -84 -287 -286v-192h1069v-1781zM1612 2089c-145 0 -185 51 -185 201c0 151 43 203 185 203c143 0 186 -52 186 -203
c0 -150 -40 -201 -186 -201z" />
    <glyph glyph-name="f_j" unicode="fj" horiz-adv-x="2088" 
d="M698 1781h1139v-1789c0 -485 -195 -672 -632 -672c-24 0 -49 1 -73 3l25 230c204 18 374 62 374 377v1617h-833v-1547h-307v1547h-309v234h309v182c0 341 177 530 533 530c55 0 131 -5 190 -14l-23 -220h-106c-177 0 -287 -84 -287 -286v-192zM1499 2290
c0 151 43 203 185 203s185 -52 185 -203c0 -150 -40 -201 -185 -201s-185 51 -185 201z" />
    <glyph glyph-name="f_k" unicode="fk" horiz-adv-x="2922" 
d="M82 1781h309v182c0 341 177 530 533 530c273 0 542 -8 820 -24v-1493l727 805h358l-788 -851l834 -930h-384l-747 857v-857h-304v2259h-455c-177 0 -287 -84 -287 -286v-192h389v-234h-389v-1547h-307v1547h-309v234z" />
    <glyph glyph-name="fl" unicode="fl" horiz-adv-x="2007" 
d="M82 1781h309v182c0 341 177 530 533 530c273 0 542 -8 820 -24v-1991c0 -179 43 -305 137 -427l-263 -130c-117 133 -180 293 -180 540v1798h-453c-177 0 -287 -84 -287 -286v-192h389v-234h-389v-1547h-307v1547h-309v234z" />
    <glyph glyph-name=".notdef" horiz-adv-x="2147" 
d="M242 0v2400h1663v-2400h-1663zM974 1200l-565 874v-1748zM1639 171l-565 875l-566 -875h1131zM1639 2228h-1131l566 -874zM1739 2074l-565 -874l565 -874v1748z" />
    <glyph glyph-name="A" unicode="A" horiz-adv-x="2210" 
d="M414 0h-335l760 2131c54 152 146 223 272 223c125 0 218 -71 271 -223l749 -2131h-346l-220 646h-933zM717 898h762l-382 1124z" />
    <glyph glyph-name="B" unicode="B" horiz-adv-x="2140" 
d="M1000 2354c440 0 913 -79 913 -599c0 -270 -110 -476 -344 -563c218 -72 382 -231 382 -601c0 -517 -422 -615 -910 -615c-289 0 -538 20 -768 59v2263c200 33 468 56 727 56zM1016 1073h-419v-810c142 -18 274 -27 430 -27c358 0 599 51 599 412
c0 365 -261 425 -610 425zM597 1311h419c345 0 579 59 579 401c0 343 -246 384 -595 384c-110 0 -259 -8 -403 -26v-759z" />
    <glyph glyph-name="C" unicode="C" 
d="M1678 286l29 -252c-149 -33 -340 -58 -556 -58c-759 0 -945 362 -945 1189c0 828 187 1189 945 1189c215 0 407 -24 556 -57l-30 -253c-135 21 -285 37 -431 37c-673 0 -707 -352 -707 -916c0 -566 40 -916 707 -916c148 0 293 15 432 37z" />
    <glyph glyph-name="D" unicode="D" horiz-adv-x="2234" 
d="M931 2087c-112 0 -232 -12 -331 -25v-1794c99 -13 219 -25 331 -25c752 0 757 399 757 922s-5 922 -757 922zM274 34v2264c200 33 467 56 725 56c864 0 1016 -397 1016 -1189s-152 -1189 -1016 -1189c-258 0 -525 24 -725 58z" />
    <glyph glyph-name="E" unicode="E" horiz-adv-x="1825" 
d="M1634 2321v-251h-602c-381 0 -445 -72 -445 -406v-348h1001v-259h-1001v-392c0 -335 64 -405 445 -405h602v-252c-178 -8 -421 -14 -592 -14c-404 0 -780 21 -780 531v1279c0 510 376 532 780 532c155 0 411 -7 592 -15z" />
    <glyph glyph-name="F" unicode="F" horiz-adv-x="1757" 
d="M593 0h-326v1804c0 510 377 532 780 532c155 0 412 -6 593 -15v-251h-603c-381 0 -444 -72 -444 -406v-348h1000v-259h-1000v-1057z" />
    <glyph glyph-name="G" unicode="G" horiz-adv-x="2136" 
d="M1189 992v255h735v-866c0 -380 -326 -405 -768 -405c-757 0 -945 362 -945 1189c0 837 188 1189 945 1189c249 0 486 -17 703 -58l-28 -254c-191 26 -403 39 -579 39c-674 0 -708 -350 -708 -916c0 -563 35 -916 708 -916c331 0 350 101 350 249v494h-413z" />
    <glyph glyph-name="H" unicode="H" horiz-adv-x="2296" 
d="M1693 1326v1004h328v-2330h-328v1058h-1092v-1058h-326v2330h326v-1004h1092z" />
    <glyph glyph-name="I" unicode="I" horiz-adv-x="871" 
d="M272 0v2330h327v-2330h-327z" />
    <glyph glyph-name="J" unicode="J" horiz-adv-x="1327" 
d="M740 681v1649h328v-1586c0 -547 -154 -768 -672 -768c-117 0 -259 24 -353 61l28 247c88 -27 186 -43 300 -43c193 0 369 85 369 440z" />
    <glyph glyph-name="K" unicode="K" horiz-adv-x="2025" 
d="M599 2330v-1080l941 1080h386l-997 -1120l1020 -1210h-406l-944 1144v-1144h-326v2330h326z" />
    <glyph glyph-name="L" unicode="L" horiz-adv-x="1631" 
d="M1599 260v-254c-180 -7 -395 -12 -552 -12c-403 0 -780 21 -780 531v1805h327v-1665c0 -333 63 -405 444 -405h561z" />
    <glyph glyph-name="M" unicode="M" horiz-adv-x="2824" 
d="M797 2152l611 -1429l618 1425c60 138 149 206 246 206c140 0 205 -71 213 -231l110 -2123h-317l-94 1876l-590 -1414c-41 -97 -99 -147 -185 -147c-88 0 -147 49 -188 147l-593 1411l-96 -1873h-304l114 2125c8 159 73 229 212 229c96 0 183 -62 243 -202z" />
    <glyph glyph-name="N" unicode="N" horiz-adv-x="2341" 
d="M765 2144l1006 -1728v1914h295v-2119c0 -164 -77 -235 -200 -235c-121 0 -203 62 -290 212l-1005 1730v-1918h-295v2119c0 165 79 235 201 235c115 0 202 -62 288 -210z" />
    <glyph glyph-name="O" unicode="O" horiz-adv-x="2253" 
d="M1127 -24c-710 0 -912 345 -912 1189s202 1189 912 1189s911 -345 911 -1189s-201 -1189 -911 -1189zM1127 245c560 0 580 379 580 920c0 542 -20 920 -580 920c-562 0 -580 -378 -580 -920c0 -541 18 -920 580 -920z" />
    <glyph glyph-name="P" unicode="P" horiz-adv-x="2033" 
d="M598 927v-927h-325v2296c199 34 467 58 726 58c505 0 916 -101 916 -713c0 -598 -367 -728 -889 -728c-123 0 -317 8 -428 14zM598 2069v-879c152 -17 276 -19 401 -19c379 0 592 94 592 470c0 325 -150 455 -580 455c-121 0 -271 -8 -413 -27z" />
    <glyph glyph-name="Q" unicode="Q" horiz-adv-x="2253" 
d="M1127 -24c-710 0 -912 345 -912 1189s202 1189 912 1189s911 -345 911 -1189c0 -698 -138 -1055 -587 -1157c105 -164 249 -242 451 -342l-217 -155c-191 93 -441 194 -558 465zM1707 1165c0 542 -20 920 -580 920c-562 0 -580 -378 -580 -920c0 -541 18 -920 580 -920
c560 0 580 379 580 920z" />
    <glyph glyph-name="R" unicode="R" horiz-adv-x="2108" 
d="M599 0h-326v2296c200 34 468 58 726 58c501 0 916 -96 916 -704c0 -441 -209 -624 -531 -688l558 -962h-380l-519 932h-17c-123 0 -316 9 -427 15v-947zM599 2070v-860c152 -17 275 -18 400 -18c375 0 592 93 592 459c0 322 -154 447 -580 447c-121 0 -270 -9 -412 -28z
" />
    <glyph glyph-name="S" unicode="S" horiz-adv-x="1783" 
d="M1072 2082c-273 0 -587 -27 -587 -319c0 -293 158 -336 503 -433c399 -111 642 -267 642 -685c0 -490 -301 -669 -839 -669c-250 0 -436 22 -621 60l32 262c180 -26 405 -46 579 -46c301 0 512 66 512 381c0 276 -204 340 -475 422c-416 125 -659 238 -659 664
c0 479 289 635 807 635c221 0 449 -27 615 -59l-30 -255c-144 21 -316 42 -479 42z" />
    <glyph glyph-name="T" unicode="T" horiz-adv-x="1697" 
d="M1628 2330v-263h-616v-2067h-327v2067h-617v263h1560z" />
    <glyph glyph-name="U" unicode="U" horiz-adv-x="2226" 
d="M1960 2330v-1568c0 -622 -336 -786 -851 -786s-851 164 -851 786v1568h322v-1594c0 -336 146 -486 529 -486c385 0 529 150 529 486v1594h322z" />
    <glyph glyph-name="V" unicode="V" horiz-adv-x="2104" 
d="M2028 2330l-721 -2130c-54 -158 -134 -224 -255 -224s-202 65 -256 224l-720 2130h347l633 -1966l640 1966h332z" />
    <glyph glyph-name="W" unicode="W" horiz-adv-x="3012" 
d="M128 2330h329l407 -1955l425 1471c45 155 116 219 230 219s186 -64 230 -220l411 -1468l406 1953h319l-474 -2122c-36 -163 -118 -232 -238 -232c-121 0 -198 71 -244 231l-417 1465l-423 -1465c-46 -160 -123 -231 -244 -231c-120 0 -202 70 -238 231z" />
    <glyph glyph-name="X" unicode="X" horiz-adv-x="2090" 
d="M1047 1461l538 869h352l-715 -1132l759 -1198h-376l-574 919l-563 -919h-359l751 1187l-723 1143h373z" />
    <glyph glyph-name="Y" unicode="Y" horiz-adv-x="1931" 
d="M1126 903v-903h-328v903l-745 1427h352l561 -1105l573 1105h338z" />
    <glyph glyph-name="Z" unicode="Z" horiz-adv-x="1836" 
d="M1641 2061l-1093 -1792h1134v-269h-1363c-125 0 -191 45 -191 125c0 40 17 88 51 144l1096 1794h-1072v267h1299c127 0 189 -47 189 -125c0 -40 -17 -90 -50 -144z" />
    <glyph glyph-name="a" unicode="a" horiz-adv-x="1861" 
d="M274 1510l-26 232c198 32 417 63 673 63c386 0 696 -102 696 -550v-815c0 -110 -4 -212 -12 -315c-205 -107 -462 -149 -768 -149c-480 0 -684 166 -684 543c0 309 133 505 462 555c208 31 454 40 701 49v43c0 270 -103 392 -435 392c-210 0 -420 -23 -607 -48zM457 525
c0 -251 134 -311 420 -311c137 0 297 15 431 71c6 79 8 179 8 261v365c-182 -5 -419 -10 -587 -46c-194 -42 -272 -112 -272 -340z" />
    <glyph glyph-name="b" unicode="b" horiz-adv-x="1929" 
d="M252 440v2029h306v-722c140 35 296 58 444 58c537 0 762 -230 762 -914c0 -696 -242 -915 -816 -915c-229 0 -486 42 -684 149c-7 103 -12 205 -12 315zM558 1500v-949c0 -82 2 -182 9 -261c100 -48 254 -71 381 -71c434 0 507 263 507 672c0 434 -50 670 -536 670
c-116 0 -261 -27 -361 -61z" />
    <glyph glyph-name="c" unicode="c" horiz-adv-x="1536" 
d="M1373 272l29 -239c-147 -32 -305 -57 -507 -57c-597 0 -701 435 -701 933c0 583 134 896 781 896c172 0 308 -24 424 -56l-25 -230c-88 16 -202 33 -302 33c-517 0 -567 -164 -567 -643c0 -451 31 -676 565 -676c97 0 210 20 303 39z" />
    <glyph glyph-name="d" unicode="d" horiz-adv-x="1929" 
d="M1367 1747v722h305v-2029c0 -110 -4 -212 -12 -315c-197 -107 -454 -149 -683 -149c-575 0 -816 219 -816 915c0 684 225 914 762 914c148 0 303 -23 444 -58zM1367 1500c-100 34 -246 61 -361 61c-486 0 -536 -236 -536 -670c0 -409 73 -672 507 -672
c127 0 281 23 381 71c6 79 9 179 9 261v949z" />
    <glyph glyph-name="e" unicode="e" horiz-adv-x="1927" 
d="M936 -24c-590 0 -745 387 -745 915c0 646 197 914 785 914c621 0 772 -326 772 -833c0 -47 -1 -103 -5 -152c-204 -35 -627 -75 -875 -86l-372 -16c26 -355 168 -492 536 -492c235 0 451 24 634 48l27 -236c-199 -31 -417 -62 -757 -62zM489 937l418 19
c145 7 384 26 529 45c3 30 4 75 4 106c0 288 -118 459 -464 459c-413 0 -487 -233 -487 -629z" />
    <glyph glyph-name="f" unicode="f" horiz-adv-x="1165" 
d="M698 1973v-192h389v-234h-389v-1547h-307v1547h-309v234h309v182c0 341 177 530 533 530c55 0 131 -5 190 -14l-23 -220h-106c-177 0 -287 -84 -287 -286z" />
    <glyph glyph-name="g" unicode="g" horiz-adv-x="1944" 
d="M299 -613l26 232c187 -27 417 -52 624 -52c333 0 436 122 436 393v114c-141 -35 -296 -58 -445 -58c-530 0 -761 219 -761 894c0 679 248 895 816 895c228 0 486 -42 683 -149c8 -103 12 -205 12 -315v-1471c0 -448 -310 -550 -695 -550c-257 0 -498 34 -696 67z
M995 1562c-427 0 -507 -256 -507 -652c0 -424 57 -650 535 -650c116 0 262 27 362 61v909c0 82 -3 182 -9 261c-101 48 -254 71 -381 71z" />
    <glyph glyph-name="h" unicode="h" horiz-adv-x="1945" 
d="M1735 0h-306v1109c0 312 -59 445 -472 445c-128 0 -275 -27 -395 -75v-1479h-306v2469h306v-735c145 43 303 70 482 71c618 2 691 -275 691 -649v-1156z" />
    <glyph glyph-name="i" unicode="i" horiz-adv-x="801" 
d="M400 2089c-145 0 -185 51 -185 201c0 151 43 203 185 203c143 0 186 -52 186 -203c0 -150 -40 -201 -186 -201zM247 0v1781h308v-1781h-308z" />
    <glyph glyph-name="j" unicode="j" horiz-adv-x="810" 
d="M252 -70v1851h307v-1789c0 -485 -196 -672 -633 -672c-24 0 -48 1 -73 3l25 230c204 18 374 62 374 377zM405 2089c-145 0 -185 51 -185 201c0 151 43 203 185 203c143 0 186 -52 186 -203c0 -150 -40 -201 -186 -201z" />
    <glyph glyph-name="k" unicode="k" horiz-adv-x="1738" 
d="M561 2469v-1493l727 805h357l-788 -851l834 -930h-383l-747 857v-857h-305v2469h305z" />
    <glyph glyph-name="l" unicode="l" horiz-adv-x="786" 
d="M217 461v2008h306v-1991c0 -179 43 -305 137 -427l-263 -130c-117 133 -180 293 -180 540z" />
    <glyph glyph-name="m" unicode="m" horiz-adv-x="2953" 
d="M558 1221v-1221h-306v1338c0 110 5 212 12 315c191 87 475 152 737 152c216 0 359 -49 452 -129c172 78 392 129 617 129c545 0 625 -299 625 -655v-1150h-306v1108c0 305 -74 448 -403 448c-107 0 -268 -31 -396 -100c28 -92 36 -196 36 -306v-1150h-306v1108
c0 305 -74 448 -403 448c-102 0 -261 -32 -350 -74c-7 -78 -9 -178 -9 -261z" />
    <glyph glyph-name="n" unicode="n" horiz-adv-x="1994" 
d="M557 1221v-1221h-306v1338c0 110 4 212 12 315c202 93 476 152 804 152c617 0 679 -290 679 -655v-1150h-306v1107c0 313 -56 450 -465 450c-132 0 -314 -30 -409 -75c-7 -78 -9 -178 -9 -261z" />
    <glyph glyph-name="o" unicode="o" horiz-adv-x="1966" 
d="M983 -24c-578 0 -787 248 -787 915c0 666 209 914 787 914c579 0 787 -258 787 -914c0 -655 -208 -915 -787 -915zM983 226c368 0 480 155 480 665c0 509 -110 664 -480 664c-364 0 -478 -133 -478 -664s114 -665 478 -665z" />
    <glyph glyph-name="p" unicode="p" horiz-adv-x="1930" 
d="M558 34v-690h-305v1997c0 110 4 212 12 315c197 107 455 149 683 149c575 0 816 -219 816 -915c0 -684 -224 -914 -761 -914c-149 0 -304 23 -445 58zM558 281c100 -34 246 -61 362 -61c485 0 536 236 536 670c0 409 -73 672 -508 672c-127 0 -280 -23 -381 -71
c-6 -79 -9 -179 -9 -261v-949z" />
    <glyph glyph-name="q" unicode="q" horiz-adv-x="1930" 
d="M1674 1341v-1997h-305v690c-141 -35 -296 -58 -444 -58c-537 0 -762 230 -762 914c0 696 241 915 816 915c229 0 486 -42 683 -149c8 -103 12 -205 12 -315zM1369 1230c0 82 -3 182 -9 261c-100 48 -254 71 -381 71c-434 0 -507 -263 -507 -672c0 -434 50 -670 536 -670
c115 0 261 27 361 61v949z" />
    <glyph glyph-name="r" unicode="r" horiz-adv-x="1176" 
d="M556 0h-306v1341c0 110 4 212 12 315c198 107 455 149 684 149c59 0 114 -2 166 -7l-25 -251c-42 5 -89 7 -141 7c-127 0 -281 -23 -382 -71c-6 -79 -8 -179 -8 -261v-1222z" />
    <glyph glyph-name="s" unicode="s" horiz-adv-x="1599" 
d="M930 1557c-176 0 -445 -3 -445 -219c0 -214 199 -244 404 -309c333 -107 556 -183 556 -541c0 -401 -298 -512 -687 -512c-191 0 -402 21 -589 64l30 235c141 -25 321 -46 465 -46c178 0 469 -2 469 245c0 216 -170 245 -396 313c-282 85 -558 155 -558 529
c0 381 266 489 622 489c234 0 404 -20 604 -64l-29 -230c-136 25 -286 46 -446 46z" />
    <glyph glyph-name="t" unicode="t" horiz-adv-x="1207" 
d="M395 2234l307 50v-503h384v-234h-384v-1063c0 -216 80 -266 273 -266c39 0 76 2 114 5l24 -225c-70 -12 -158 -22 -227 -22c-345 0 -491 149 -491 475v1096h-314v234h314v453z" />
    <glyph glyph-name="u" unicode="u" horiz-adv-x="1986" 
d="M242 631v1150h306v-1107c0 -313 55 -450 463 -450c130 0 310 30 406 75c6 78 9 178 9 261v1221h305v-1338c0 -110 -4 -212 -12 -315c-202 -93 -474 -152 -800 -152c-615 0 -677 290 -677 655z" />
    <glyph glyph-name="v" unicode="v" horiz-adv-x="1872" 
d="M1779 1781l-600 -1598c-53 -140 -128 -207 -244 -207c-117 0 -195 66 -247 207l-594 1598h325l522 -1472l527 1472h311z" />
    <glyph glyph-name="w" unicode="w" horiz-adv-x="2798" 
d="M128 1781h314l356 -1469l397 1130c47 133 107 198 212 198c107 0 171 -65 216 -198l382 -1127l363 1466h302l-429 -1596c-38 -142 -115 -209 -227 -209c-115 0 -184 69 -233 209l-379 1081l-389 -1080c-50 -140 -117 -210 -232 -210s-193 68 -231 211z" />
    <glyph glyph-name="x" unicode="x" horiz-adv-x="1863" 
d="M940 1155l417 626h331l-587 -850l642 -931h-360l-465 693l-460 -693h-338l637 924l-588 857h353z" />
    <glyph glyph-name="y" unicode="y" horiz-adv-x="1754" 
d="M939 511l417 1270h311l-829 -2437h-311l273 779l-720 1658h326z" />
    <glyph glyph-name="z" unicode="z" horiz-adv-x="1786" 
d="M1572 1568l-987 -1317h978v-251h-1288c-81 0 -129 40 -129 100c0 33 14 73 46 115l990 1325h-961v241h1267c81 0 129 -40 129 -100c0 -32 -14 -72 -45 -113z" />
    <glyph glyph-name="zero" unicode="0" horiz-adv-x="2076" 
d="M1038 -24c-681 0 -820 380 -820 1154s139 1154 820 1154c682 0 821 -380 821 -1154s-139 -1154 -821 -1154zM1038 233c485 0 503 362 503 897s-18 898 -503 898s-501 -363 -501 -898s17 -897 501 -897z" />
    <glyph glyph-name="one" unicode="1" horiz-adv-x="1194" 
d="M608 0v1936c-164 -46 -373 -88 -541 -111l-14 254c257 40 472 115 615 181h254v-2260h-314z" />
    <glyph glyph-name="two" unicode="2" horiz-adv-x="1838" 
d="M212 1971l-30 244c203 37 445 69 699 69c454 0 782 -126 782 -546c0 -415 -239 -660 -656 -830c-377 -153 -450 -314 -494 -634h1149v-274h-1514c119 673 190 924 694 1137c311 132 502 270 502 538c0 271 -159 343 -609 343c-170 0 -380 -24 -523 -47z" />
    <glyph glyph-name="three" unicode="3" horiz-adv-x="1831" 
d="M800 2284c422 0 807 -86 807 -551c0 -261 -115 -444 -343 -543c206 -70 380 -227 380 -518c0 -535 -327 -696 -858 -696c-250 0 -461 29 -654 66l35 249c175 -23 368 -48 542 -48c409 0 605 76 605 412c0 228 -124 353 -331 377c-122 14 -257 19 -412 19h-76v236
c170 4 341 19 488 41c208 30 301 165 301 353c0 315 -217 341 -527 341c-193 0 -381 -22 -570 -48l-32 244c196 37 388 66 645 66z" />
    <glyph glyph-name="four" unicode="4" horiz-adv-x="1972" 
d="M1229 0v536h-899c-186 0 -236 78 -236 183c0 57 28 146 138 288l855 1103c99 127 181 174 284 174c94 0 169 -63 169 -203v-1299h299v-246h-299v-536h-311zM1230 1865l-825 -1083h825v1083z" />
    <glyph glyph-name="five" unicode="5" horiz-adv-x="1850" 
d="M566 1987l-42 -613c51 3 157 7 199 7c557 0 955 -83 955 -683c0 -522 -295 -722 -833 -722c-242 0 -471 25 -681 68l33 249c173 -27 364 -49 551 -49c433 0 600 78 600 489c0 355 -332 397 -702 397c-156 0 -282 -3 -432 -11l78 1141h1326v-273h-1052z" />
    <glyph glyph-name="six" unicode="6" horiz-adv-x="2014" 
d="M1056 1405c496 0 800 -134 800 -700c0 -585 -338 -729 -851 -729c-652 0 -800 360 -800 932c0 1047 227 1376 1253 1376c28 0 59 0 217 -3l26 -254c-476 -20 -1138 45 -1156 -662c152 20 350 40 511 40zM993 1161c-132 0 -328 -23 -467 -43c-7 -92 -7 -171 -7 -256
c0 -319 54 -628 477 -628c413 0 545 128 545 476c0 375 -194 451 -548 451z" />
    <glyph glyph-name="seven" unicode="7" horiz-adv-x="1704" 
d="M1604 1989l-906 -1989h-361l960 1989h-1207v271h1335c137 0 208 -60 208 -154c0 -35 -10 -74 -29 -117z" />
    <glyph glyph-name="eight" unicode="8" horiz-adv-x="2024" 
d="M1013 2284c421 0 791 -133 791 -552c0 -258 -62 -415 -347 -556c230 -110 380 -262 380 -566c0 -521 -375 -634 -824 -634c-479 0 -825 146 -825 636c0 300 144 444 380 561c-247 121 -344 282 -344 559c0 418 358 552 789 552zM1013 228c284 0 514 67 514 393
c0 286 -152 386 -586 423c-267 -39 -443 -149 -443 -423c0 -323 228 -393 515 -393zM1087 1296c254 50 420 136 420 385c0 303 -225 358 -494 358c-264 0 -488 -52 -488 -358c0 -234 142 -360 562 -385z" />
    <glyph glyph-name="nine" unicode="9" horiz-adv-x="2013" 
d="M952 855c-496 0 -800 134 -800 700c0 585 338 729 851 729c652 0 800 -360 800 -932c0 -1047 -228 -1376 -1254 -1376c-28 0 -58 0 -216 3l-26 254c475 20 1137 -45 1156 662c-152 -20 -351 -40 -511 -40zM1015 1099c132 0 327 23 466 43c8 92 8 171 8 256
c0 319 -54 628 -477 628c-414 0 -545 -128 -545 -476c0 -375 194 -451 548 -451z" />
    <glyph glyph-name="Aacute" unicode="&#xc1;" horiz-adv-x="2211" 
d="M414 0h-335l760 2131c54 152 146 223 272 223c125 0 219 -71 272 -223l749 -2131h-347l-220 646h-933zM978 2554l324 405h373l-438 -405h-259zM718 898h762l-382 1124z" />
    <glyph glyph-name="Abreve" unicode="&#x102;" horiz-adv-x="2211" 
d="M1341 2925h186c-19 -204 -147 -369 -423 -369c-275 0 -402 165 -422 369h186c16 -105 92 -199 236 -199c145 0 221 94 237 199zM79 0l760 2131c54 152 146 223 272 223c125 0 219 -71 272 -223l749 -2131h-347l-220 646h-933l-218 -646h-335zM1480 898l-382 1124
l-380 -1124h762z" />
    <glyph glyph-name="Acircumflex" unicode="&#xc2;" horiz-adv-x="2210" 
d="M414 0h-335l760 2131c54 151 145 223 272 223c124 0 218 -71 271 -223l749 -2131h-347l-220 646h-932zM984 2959h234l370 -405h-260l-223 258l-227 -258h-256zM717 898h762l-382 1124z" />
    <glyph glyph-name="Adieresis" unicode="&#xc4;" horiz-adv-x="2210" 
d="M414 0h-335l760 2131c54 151 145 223 272 223c125 0 218 -71 271 -223l749 -2131h-347l-220 646h-932zM812 2577c-98 0 -177 76 -177 174s79 175 177 175s171 -77 171 -175s-73 -174 -171 -174zM1405 2577c-98 0 -175 76 -175 174s77 175 175 175s172 -77 172 -175
s-74 -174 -172 -174zM717 898h762l-382 1124z" />
    <glyph glyph-name="Agrave" unicode="&#xc0;" horiz-adv-x="2210" 
d="M414 0h-335l760 2131c54 151 145 223 272 223c124 0 218 -71 271 -223l749 -2131h-347l-220 646h-932zM986 2574l-439 405h373l324 -405h-258zM717 898h762l-382 1124z" />
    <glyph glyph-name="Aogonek" unicode="&#x104;" horiz-adv-x="2210" 
d="M2131 0h-103c-73 -73 -189 -207 -189 -332c0 -96 58 -159 152 -159c65 0 121 20 160 46l53 -136c-75 -60 -185 -95 -276 -95c-173 0 -305 102 -305 274c0 159 124 313 222 402h-60l-220 646h-933l-218 -646h-335l760 2131c54 152 146 223 272 223c125 0 218 -71 271 -223
zM1479 898l-382 1124l-380 -1124h762z" />
    <glyph glyph-name="Aring" unicode="&#xc5;" horiz-adv-x="2211" 
d="M414 0h-335l760 2131c54 152 146 223 272 223c125 0 219 -71 272 -223l749 -2131h-347l-220 646h-933zM1106 2522c-184 0 -334 150 -334 334c0 185 150 335 334 335c185 0 335 -150 335 -335c0 -184 -150 -334 -335 -334zM1106 2669c104 0 188 83 188 187
s-84 188 -188 188s-187 -84 -187 -188s83 -187 187 -187zM718 898h762l-382 1124z" />
    <glyph glyph-name="Atilde" unicode="&#xc3;" horiz-adv-x="2211" 
d="M1355 2926h178c-19 -234 -138 -346 -255 -346c-194 0 -220 165 -316 165c-54 0 -89 -47 -106 -158h-179c19 234 138 347 256 347c193 0 219 -166 316 -166c54 0 88 47 106 158zM79 0l760 2131c54 152 146 223 272 223c125 0 218 -71 271 -223l750 -2131h-347l-220 646
h-933l-218 -646h-335zM1480 898l-382 1124l-380 -1124h762z" />
    <glyph glyph-name="AE" unicode="&#xc6;" horiz-adv-x="3043" 
d="M414 0h-335l738 2058c86 240 283 296 507 296c127 0 253 -37 342 -130c144 104 364 112 593 112c155 0 412 -7 593 -15v-251h-603c-381 0 -444 -72 -444 -406v-348h1000v-259h-1000v-392c0 -335 63 -405 444 -405h603v-252c-178 -8 -422 -14 -593 -14
c-403 0 -780 21 -780 531v121h-846zM1043 1851l-324 -953h760v925c0 191 -61 261 -194 261c-140 0 -195 -95 -242 -233z" />
    <glyph glyph-name="Cacute" unicode="&#x106;" 
d="M1677 286l30 -252c-149 -33 -340 -58 -557 -58c-759 0 -944 362 -944 1189c0 828 186 1189 944 1189c215 0 408 -24 557 -57l-30 -253c-135 21 -285 37 -431 37c-674 0 -707 -352 -707 -916c0 -566 39 -916 707 -916c147 0 293 15 431 37zM1552 2947l-438 -405h-260
l324 405h374z" />
    <glyph glyph-name="Ccaron" unicode="&#x10c;" horiz-adv-x="1811" 
d="M1678 286l29 -252c-148 -33 -339 -58 -556 -58c-759 0 -945 362 -945 1189c0 828 187 1189 945 1189c215 0 408 -24 556 -57l-29 -253c-136 21 -285 37 -431 37c-674 0 -707 -352 -707 -916c0 -566 39 -916 707 -916c147 0 292 15 431 37zM1045 2689l227 258h256
l-362 -405h-234l-370 405h260z" />
    <glyph glyph-name="Ccedilla" unicode="&#xc7;" 
d="M1707 2297l-30 -253c-135 21 -285 37 -431 37c-674 0 -707 -352 -707 -916c0 -566 39 -916 707 -916c147 0 293 15 431 37l30 -252c-134 -30 -301 -53 -491 -57l-90 -141c133 -7 259 -89 259 -232c0 -199 -175 -274 -363 -274c-86 0 -183 23 -251 62l53 139
c66 -32 139 -49 198 -49c68 0 145 25 145 108c0 112 -184 147 -281 147l144 242c-659 38 -824 404 -824 1186c0 828 186 1189 944 1189c215 0 408 -24 557 -57z" />
    <glyph glyph-name="Dcaron" unicode="&#x10e;" horiz-adv-x="2234" 
d="M931 2087c-112 0 -232 -12 -331 -25v-1794c99 -13 219 -25 331 -25c752 0 757 399 757 922s-5 922 -757 922zM274 34v2264c199 33 467 56 725 56c864 0 1016 -397 1016 -1189s-152 -1189 -1016 -1189c-258 0 -526 24 -725 58zM1056 2692l227 258h256l-362 -405h-234
l-369 405h260z" />
    <glyph glyph-name="Dcroat" unicode="&#x110;" horiz-adv-x="2321" 
d="M361 1087h-196v231h196v980c199 33 467 56 725 56c864 0 1016 -397 1016 -1189s-152 -1189 -1016 -1189c-258 0 -526 24 -725 58v1053zM687 1087v-819c99 -13 219 -25 331 -25c752 0 757 399 757 922s-5 922 -757 922c-112 0 -232 -12 -331 -25v-744h364v-231h-364z" />
    <glyph glyph-name="Eacute" unicode="&#xc9;" horiz-adv-x="1826" 
d="M1635 2321v-251h-603c-381 0 -444 -72 -444 -406v-348h1000v-259h-1000v-392c0 -335 63 -405 444 -405h603v-252c-178 -8 -422 -14 -593 -14c-403 0 -780 21 -780 531v1279c0 510 377 532 780 532c155 0 412 -7 593 -15zM801 2536l323 405h374l-438 -405h-259z" />
    <glyph glyph-name="Ecaron" unicode="&#x11a;" horiz-adv-x="1826" 
d="M1635 2321v-251h-603c-381 0 -444 -72 -444 -406v-348h1000v-259h-1000v-392c0 -335 63 -405 444 -405h603v-252c-178 -8 -422 -14 -593 -14c-403 0 -780 21 -780 531v1279c0 510 377 532 780 532c155 0 411 -7 593 -15zM498 2941h260l222 -258l227 258h256l-361 -405
h-235z" />
    <glyph glyph-name="Ecircumflex" unicode="&#xca;" horiz-adv-x="1826" 
d="M1635 2321v-251h-603c-381 0 -444 -72 -444 -406v-348h1000v-259h-1000v-392c0 -335 63 -405 444 -405h603v-252c-178 -8 -422 -14 -593 -14c-403 0 -780 21 -780 531v1279c0 510 377 532 780 532c155 0 412 -7 593 -15zM878 2941h235l369 -405h-260l-222 258l-227 -258
h-256z" />
    <glyph glyph-name="Edieresis" unicode="&#xcb;" horiz-adv-x="1826" 
d="M1635 2321v-251h-603c-381 0 -444 -72 -444 -406v-348h1000v-259h-1000v-392c0 -335 63 -405 444 -405h603v-252c-178 -8 -422 -14 -593 -14c-403 0 -780 21 -780 531v1279c0 510 377 532 780 532c155 0 412 -7 593 -15zM712 2561c-98 0 -177 76 -177 174s79 175 177 175
c97 0 171 -77 171 -175s-74 -174 -171 -174zM1305 2561c-99 0 -176 76 -176 174s77 175 176 175c98 0 172 -77 172 -175s-74 -174 -172 -174z" />
    <glyph glyph-name="Egrave" unicode="&#xc8;" horiz-adv-x="1826" 
d="M1634 2321v-251h-602c-381 0 -444 -72 -444 -406v-348h1000v-259h-1000v-392c0 -335 63 -405 444 -405h602v-252c-178 -8 -421 -14 -592 -14c-404 0 -780 21 -780 531v1279c0 510 376 532 780 532c155 0 411 -7 592 -15zM1014 2536l-439 405h374l324 -405h-259z" />
    <glyph glyph-name="Eogonek" unicode="&#x118;" horiz-adv-x="1826" 
d="M1635 2070h-603c-381 0 -444 -72 -444 -406v-348h1000v-259h-1000v-392c0 -335 63 -405 444 -405h603v-252c-62 -3 -130 -6 -202 -8c-71 -72 -189 -207 -189 -332c0 -96 58 -159 152 -159c65 0 121 20 160 46l53 -136c-75 -60 -185 -95 -276 -95
c-173 0 -305 102 -305 274c0 157 121 309 218 398c-73 -1 -143 -2 -204 -2c-403 0 -780 21 -780 531v1279c0 510 377 532 780 532c155 0 412 -7 593 -15v-251z" />
    <glyph glyph-name="Gbreve" unicode="&#x11e;" horiz-adv-x="2136" 
d="M1189 992v255h735v-866c0 -380 -325 -405 -768 -405c-757 0 -945 362 -945 1189c0 837 188 1189 945 1189c249 0 487 -17 703 -58l-28 -254c-191 26 -402 39 -579 39c-674 0 -707 -350 -707 -916c0 -563 35 -916 707 -916c331 0 350 101 350 249v494h-413zM701 2920h185
c17 -105 93 -199 237 -199s220 94 237 199h186c-20 -204 -147 -369 -423 -369c-275 0 -403 165 -422 369z" />
    <glyph glyph-name="Iacute" unicode="&#xcd;" horiz-adv-x="871" 
d="M272 0v2330h327v-2330h-327zM295 2544l324 405h374l-438 -405h-260z" />
    <glyph glyph-name="Icircumflex" unicode="&#xce;" horiz-adv-x="872" 
d="M315 2933h235l369 -405h-260l-223 258l-226 -258h-257zM272 0v2330h328v-2330h-328z" />
    <glyph glyph-name="Idieresis" unicode="&#xcf;" horiz-adv-x="871" 
d="M141 2554c-98 0 -177 76 -177 174s79 175 177 175s171 -77 171 -175s-73 -174 -171 -174zM734 2554c-98 0 -175 76 -175 174s77 175 175 175s172 -77 172 -175s-74 -174 -172 -174zM272 0v2330h327v-2330h-327z" />
    <glyph glyph-name="Idotaccent" unicode="&#x130;" horiz-adv-x="871" 
d="M437 2555c-101 0 -182 79 -182 181c0 103 81 182 182 182c103 0 180 -79 180 -182c0 -102 -77 -181 -180 -181zM272 0v2330h327v-2330h-327z" />
    <glyph glyph-name="Igrave" unicode="&#xcc;" horiz-adv-x="871" 
d="M317 2544l-439 405h374l323 -405h-258zM272 0v2330h327v-2330h-327z" />
    <glyph glyph-name="Lacute" unicode="&#x139;" horiz-adv-x="1630" 
d="M1599 260v-254c-180 -7 -395 -12 -552 -12c-403 0 -780 21 -780 531v1805h326v-1665c0 -333 64 -405 445 -405h561zM995 2949l-438 -405h-259l324 405h373z" />
    <glyph glyph-name="Lcaron" unicode="&#x13d;" horiz-adv-x="1630" 
d="M1599 260v-254c-180 -7 -395 -12 -552 -12c-404 0 -780 21 -780 531v1805h326v-1665c0 -333 64 -405 445 -405h561zM1285 2330l-246 -671h-206l172 671h280z" />
    <glyph glyph-name="Lslash" unicode="&#x141;" horiz-adv-x="1783" 
d="M419 1176v1154h327v-925l512 358v-261l-512 -358v-479c0 -333 63 -405 444 -405h561v-254c-180 -7 -395 -12 -552 -12c-403 0 -780 21 -780 531v390l-288 -201v261z" />
    <glyph glyph-name="Nacute" unicode="&#x143;" horiz-adv-x="2341" 
d="M765 2144l1006 -1728v1914h295v-2119c0 -164 -77 -235 -201 -235c-121 0 -202 62 -289 212l-1006 1730v-1918h-294v2119c0 165 79 235 200 235c115 0 203 -62 289 -210zM980 2539l323 405h374l-438 -405h-259z" />
    <glyph glyph-name="Ncaron" unicode="&#x147;" horiz-adv-x="2342" 
d="M765 2144l1007 -1728v1914h295v-2119c0 -164 -78 -235 -201 -235c-121 0 -202 63 -289 212l-1006 1730v-1918h-295v2119c0 165 80 235 201 235c115 0 202 -63 288 -210zM687 2934h261l222 -258l227 258h256l-362 -405h-234z" />
    <glyph glyph-name="Ntilde" unicode="&#xd1;" horiz-adv-x="2342" 
d="M765 2144l1007 -1728v1914h295v-2119c0 -164 -78 -235 -201 -235c-121 0 -202 63 -289 212l-1006 1730v-1918h-295v2119c0 165 80 235 201 235c115 0 202 -63 288 -210zM1431 2924h178c-19 -234 -138 -346 -256 -346c-194 0 -219 165 -315 165c-55 0 -89 -47 -107 -158
h-178c19 234 138 347 255 347c194 0 220 -166 316 -166c55 0 89 47 107 158z" />
    <glyph glyph-name="Oacute" unicode="&#xd3;" horiz-adv-x="2253" 
d="M1127 -24c-710 0 -912 345 -912 1189s202 1189 912 1189s911 -345 911 -1189s-201 -1189 -911 -1189zM1127 245c560 0 581 379 581 920c0 542 -21 920 -581 920c-562 0 -580 -378 -580 -920c0 -541 18 -920 580 -920zM920 2543l324 405h374l-438 -405h-260z" />
    <glyph glyph-name="Ocircumflex" unicode="&#xd4;" horiz-adv-x="2252" 
d="M1127 -24c-711 0 -912 345 -912 1189s201 1189 912 1189c709 0 910 -345 910 -1189s-201 -1189 -910 -1189zM1127 245c560 0 580 379 580 920c0 542 -20 920 -580 920c-562 0 -580 -378 -580 -920c0 -541 18 -920 580 -920zM1006 2948h234l369 -405h-260l-222 258
l-227 -258h-256z" />
    <glyph glyph-name="Odieresis" unicode="&#xd6;" horiz-adv-x="2252" 
d="M833 2547c-99 0 -177 76 -177 174s78 175 177 175c97 0 171 -77 171 -175s-74 -174 -171 -174zM1127 -24c-711 0 -912 345 -912 1189s201 1189 912 1189c709 0 910 -345 910 -1189s-201 -1189 -910 -1189zM1127 245c560 0 580 379 580 920c0 542 -20 920 -580 920
c-562 0 -580 -378 -580 -920c0 -541 18 -920 580 -920zM1425 2547c-98 0 -175 76 -175 174s77 175 175 175s173 -77 173 -175s-75 -174 -173 -174z" />
    <glyph glyph-name="Ograve" unicode="&#xd2;" horiz-adv-x="2253" 
d="M1127 -24c-710 0 -912 345 -912 1189s202 1189 912 1189s911 -345 911 -1189s-201 -1189 -911 -1189zM1127 245c560 0 581 379 581 920c0 542 -21 920 -581 920c-562 0 -580 -378 -580 -920c0 -541 18 -920 580 -920zM1094 2543l-439 405h374l324 -405h-259z" />
    <glyph glyph-name="Ohungarumlaut" unicode="&#x150;" horiz-adv-x="2253" 
d="M1127 -24c-710 0 -912 345 -912 1189s202 1189 912 1189s911 -345 911 -1189s-201 -1189 -911 -1189zM1127 245c560 0 580 379 580 920c0 542 -20 920 -580 920c-562 0 -580 -378 -580 -920c0 -541 18 -920 580 -920zM676 2551l307 404h362l-421 -404h-248zM1231 2551
l307 404h362l-421 -404h-248z" />
    <glyph glyph-name="Otilde" unicode="&#xd5;" horiz-adv-x="2252" 
d="M1375 2899h179c-20 -234 -139 -346 -256 -346c-194 0 -220 165 -316 165c-54 0 -89 -47 -106 -158h-179c20 234 139 347 256 347c193 0 219 -166 316 -166c54 0 88 47 106 158zM1127 2354c709 0 910 -345 910 -1189s-201 -1189 -910 -1189c-711 0 -912 345 -912 1189
s201 1189 912 1189zM1127 2085c-562 0 -580 -378 -580 -920c0 -541 18 -920 580 -920c560 0 580 379 580 920c0 542 -20 920 -580 920z" />
    <glyph glyph-name="Oslash" unicode="&#xd8;" horiz-adv-x="2252" 
d="M633 65l-134 -232l-206 127l145 252c-165 189 -223 498 -223 953c0 844 201 1189 911 1189c204 0 365 -29 493 -90l134 234l206 -128l-145 -252c164 -189 223 -499 223 -953c0 -844 -201 -1189 -911 -1189c-204 0 -366 29 -493 89zM1126 2085c-561 0 -580 -378 -580 -920
c0 -259 5 -481 71 -642l853 1484c-82 50 -194 78 -344 78zM1635 1808l-854 -1485c82 -51 194 -78 345 -78c561 0 581 379 581 920c0 260 -5 482 -72 643z" />
    <glyph glyph-name="OE" unicode="&#x152;" horiz-adv-x="3271" 
d="M3080 2070h-603c-381 0 -444 -72 -444 -406v-348h1001v-259h-1001v-392c0 -335 63 -405 444 -405h603v-252c-178 -8 -422 -14 -593 -14c-289 0 -565 11 -687 217c-137 -163 -351 -235 -673 -235c-710 0 -912 345 -912 1189s202 1189 912 1189c321 0 536 -73 673 -235
c123 205 398 217 687 217c156 0 412 -7 593 -15v-251zM1127 245c560 0 581 379 581 920c0 542 -21 920 -581 920c-562 0 -580 -378 -580 -920c0 -541 18 -920 580 -920z" />
    <glyph glyph-name="Racute" unicode="&#x154;" horiz-adv-x="2108" 
d="M598 0h-325v2296c199 34 467 58 726 58c500 0 916 -96 916 -704c0 -441 -209 -624 -531 -688l557 -962h-380l-519 932h-16c-123 0 -317 9 -428 15v-947zM598 2070v-860c152 -17 276 -18 401 -18c374 0 592 93 592 459c0 322 -155 447 -580 447c-121 0 -271 -9 -413 -28z
M1509 2950l-437 -406h-258l323 406h372z" />
    <glyph glyph-name="Rcaron" unicode="&#x158;" horiz-adv-x="2108" 
d="M598 0h-325v2296c199 34 467 58 726 58c500 0 916 -96 916 -704c0 -441 -209 -624 -531 -688l557 -962h-380l-519 932h-16c-123 0 -317 9 -428 15v-947zM598 2070v-860c152 -17 276 -18 401 -18c374 0 592 93 592 459c0 322 -155 447 -580 447c-121 0 -271 -9 -413 -28z
M1028 2692l227 258h256l-362 -405h-234l-370 405h260z" />
    <glyph glyph-name="Sacute" unicode="&#x15a;" horiz-adv-x="1784" 
d="M1073 2082c-273 0 -588 -27 -588 -319c0 -293 158 -336 504 -433c399 -111 642 -267 642 -685c0 -490 -302 -669 -839 -669c-251 0 -436 22 -621 60l31 262c180 -26 406 -46 580 -46c301 0 511 66 511 381c0 276 -204 340 -475 422c-415 125 -659 238 -659 664
c0 479 290 635 808 635c220 0 448 -27 614 -59l-29 -255c-145 21 -317 42 -479 42zM1449 2957l-438 -405h-260l324 405h374z" />
    <glyph glyph-name="Scaron" unicode="&#x160;" horiz-adv-x="1783" 
d="M1072 2082c-273 0 -587 -27 -587 -319c0 -293 158 -336 503 -433c399 -111 642 -267 642 -685c0 -490 -301 -669 -839 -669c-250 0 -436 22 -621 60l32 262c180 -26 405 -46 579 -46c301 0 512 66 512 381c0 276 -204 340 -475 422c-416 125 -659 238 -659 664
c0 479 289 635 807 635c221 0 449 -27 615 -59l-30 -255c-144 21 -316 42 -479 42zM924 2699l227 258h255l-361 -405h-234l-370 405h260z" />
    <glyph glyph-name="Scedilla" unicode="&#x15e;" horiz-adv-x="1784" 
d="M1581 2295l-29 -255c-145 21 -317 42 -480 42c-273 0 -587 -27 -587 -319c0 -293 158 -336 504 -433c399 -111 642 -267 642 -685c0 -408 -210 -601 -590 -653l-99 -156c132 -7 259 -89 259 -232c0 -199 -176 -274 -363 -274c-87 0 -183 23 -251 62l52 139
c67 -32 140 -49 198 -49c68 0 146 25 146 108c0 112 -185 147 -281 147l142 240c-17 0 -35 -1 -52 -1c-251 0 -436 22 -621 60l31 262c180 -26 406 -46 580 -46c301 0 511 66 511 381c0 276 -204 340 -475 422c-415 125 -659 238 -659 664c0 479 289 635 808 635
c220 0 448 -27 614 -59z" />
    <glyph glyph-name="uni0218" unicode="&#x218;" horiz-adv-x="1784" 
d="M1073 2082c-273 0 -587 -27 -587 -319c0 -293 157 -336 503 -433c399 -111 642 -267 642 -685c0 -490 -302 -669 -839 -669c-250 0 -436 22 -621 60l32 262c179 -26 405 -46 579 -46c301 0 511 66 511 381c0 276 -204 340 -475 422c-415 125 -658 238 -658 664
c0 479 289 635 807 635c220 0 448 -27 614 -59l-29 -255c-145 21 -317 42 -479 42zM1095 -211l-229 -624h-191l159 624h261z" />
    <glyph glyph-name="Tcaron" unicode="&#x164;" horiz-adv-x="1697" 
d="M1629 2330v-263h-617v-2067h-327v2067h-616v263h1560zM365 2914h260l223 -258l227 258h255l-361 -405h-235z" />
    <glyph glyph-name="uni0162" unicode="&#x162;" horiz-adv-x="1697" 
d="M1629 2330v-263h-617v-2067h-327v2067h-616v263h1560zM562 -825l159 624h261l-228 -624h-192z" />
    <glyph glyph-name="Uacute" unicode="&#xda;" horiz-adv-x="2227" 
d="M1961 2330v-1568c0 -622 -336 -786 -851 -786s-852 164 -852 786v1568h323v-1594c0 -336 145 -486 529 -486c385 0 529 150 529 486v1594h322zM911 2527l324 405h373l-438 -405h-259z" />
    <glyph glyph-name="Ucircumflex" unicode="&#xdb;" horiz-adv-x="2226" 
d="M1960 2330v-1568c0 -622 -336 -786 -851 -786s-851 164 -851 786v1568h322v-1594c0 -336 146 -486 529 -486c385 0 529 150 529 486v1594h322zM1005 2932h235l369 -405h-260l-222 258l-227 -258h-256z" />
    <glyph glyph-name="Udieresis" unicode="&#xdc;" horiz-adv-x="2226" 
d="M1960 2330v-1568c0 -622 -336 -786 -851 -786s-851 164 -851 786v1568h322v-1594c0 -336 146 -486 529 -486c385 0 529 150 529 486v1594h322zM815 2555c-98 0 -177 76 -177 174s79 175 177 175c97 0 171 -77 171 -175s-74 -174 -171 -174zM1408 2555
c-99 0 -176 76 -176 174s77 175 176 175c98 0 172 -77 172 -175s-74 -174 -172 -174z" />
    <glyph glyph-name="Ugrave" unicode="&#xd9;" horiz-adv-x="2226" 
d="M1960 2330v-1568c0 -622 -336 -786 -851 -786s-851 164 -851 786v1568h322v-1594c0 -336 146 -486 529 -486c385 0 529 150 529 486v1594h322zM1067 2527l-439 405h374l324 -405h-259z" />
    <glyph glyph-name="Uhungarumlaut" unicode="&#x170;" horiz-adv-x="2226" 
d="M1960 2330v-1568c0 -622 -336 -786 -851 -786s-851 164 -851 786v1568h322v-1594c0 -336 146 -486 529 -486c385 0 529 150 529 486v1594h322zM631 2555l307 404h361l-421 -404h-247zM1185 2555l308 404h362l-421 -404h-249z" />
    <glyph glyph-name="Uring" unicode="&#x16e;" horiz-adv-x="2227" 
d="M1961 2330v-1568c0 -622 -336 -786 -851 -786s-852 164 -852 786v1568h323v-1594c0 -336 145 -486 529 -486c385 0 529 150 529 486v1594h322zM1110 2466c-184 0 -335 150 -335 334c0 185 151 335 335 335s335 -150 335 -335c0 -184 -151 -334 -335 -334zM1110 2613
c104 0 188 83 188 187s-84 188 -188 188s-187 -84 -187 -188s83 -187 187 -187z" />
    <glyph glyph-name="Yacute" unicode="&#xdd;" horiz-adv-x="1931" 
d="M1126 903v-903h-327v903l-746 1427h352l561 -1105l573 1105h338zM785 2517l323 405h374l-438 -405h-259z" />
    <glyph glyph-name="Ydieresis" unicode="&#x178;" horiz-adv-x="1930" 
d="M690 2544c-98 0 -177 76 -177 174s79 175 177 175s171 -77 171 -175s-73 -174 -171 -174zM1283 2544c-98 0 -176 76 -176 174s78 175 176 175s172 -77 172 -175s-74 -174 -172 -174zM1125 903v-903h-327v903l-745 1427h352l560 -1105l573 1105h338z" />
    <glyph glyph-name="Zacute" unicode="&#x179;" horiz-adv-x="1836" 
d="M1641 2061l-1093 -1792h1134v-269h-1363c-124 0 -191 45 -191 125c0 40 17 88 51 144l1096 1794h-1072v267h1299c127 0 189 -47 189 -125c0 -40 -17 -90 -50 -144zM731 2527l324 405h374l-438 -405h-260z" />
    <glyph glyph-name="Zcaron" unicode="&#x17d;" horiz-adv-x="1835" 
d="M1640 2061l-1093 -1792h1135v-269h-1364c-124 0 -190 45 -190 125c0 40 16 89 50 144l1097 1794h-1073v267h1299c127 0 190 -47 190 -125c0 -40 -18 -90 -51 -144zM457 2932h261l222 -258l227 258h256l-362 -405h-234z" />
    <glyph glyph-name="Zdotaccent" unicode="&#x17b;" horiz-adv-x="1836" 
d="M1641 2061l-1093 -1792h1134v-269h-1363c-125 0 -191 45 -191 125c0 40 17 88 51 144l1096 1794h-1073v267h1300c127 0 189 -47 189 -125c0 -40 -17 -90 -50 -144zM928 2556c-102 0 -183 79 -183 181c0 103 81 182 183 182s179 -79 179 -182c0 -102 -77 -181 -179 -181z
" />
    <glyph glyph-name="Eth" unicode="&#xd0;" horiz-adv-x="2321" 
d="M361 1087h-196v231h196v980c199 33 467 56 725 56c864 0 1016 -397 1016 -1189s-152 -1189 -1016 -1189c-258 0 -526 24 -725 58v1053zM687 1087v-819c99 -13 219 -25 331 -25c752 0 757 399 757 922s-5 922 -757 922c-112 0 -232 -12 -331 -25v-744h364v-231h-364z" />
    <glyph glyph-name="Thorn" unicode="&#xde;" horiz-adv-x="2002" 
d="M254 0v2330h326v-424c130 12 267 18 401 18c498 0 916 -93 916 -693c0 -586 -375 -708 -889 -708c-124 0 -317 9 -428 15v-538h-326zM580 1639v-839c152 -17 276 -18 401 -18c372 0 591 85 591 449c0 314 -156 436 -579 436c-121 0 -271 -9 -413 -28z" />
    <glyph glyph-name="aacute" unicode="&#xe1;" horiz-adv-x="1861" 
d="M274 1510l-26 232c198 32 417 63 673 63c385 0 696 -102 696 -550v-815c0 -110 -4 -212 -12 -315c-205 -107 -462 -149 -769 -149c-479 0 -683 166 -683 543c0 309 132 505 462 555c208 31 453 40 701 49v43c0 270 -104 392 -436 392c-209 0 -419 -23 -606 -48zM456 525
c0 -251 135 -311 420 -311c137 0 298 15 431 71c7 79 9 179 9 261v365c-182 -5 -419 -10 -587 -46c-194 -42 -273 -112 -273 -340zM1406 2519l-410 -501h-242l303 501h349z" />
    <glyph glyph-name="abreve" unicode="&#x103;" horiz-adv-x="1861" 
d="M275 1510l-26 232c198 32 416 63 673 63c385 0 695 -102 695 -550v-815c0 -110 -4 -212 -12 -315c-205 -107 -462 -149 -768 -149c-479 0 -684 166 -684 543c0 309 133 505 463 555c207 31 453 40 701 49v43c0 270 -104 392 -436 392c-210 0 -420 -23 -606 -48zM457 525
c0 -251 135 -311 420 -311c137 0 297 15 431 71c6 79 9 179 9 261v365c-182 -5 -420 -10 -587 -46c-195 -42 -273 -112 -273 -340zM1191 2464h187c-20 -234 -148 -424 -423 -424s-403 190 -423 424h186c16 -120 93 -229 237 -229s220 109 236 229z" />
    <glyph glyph-name="acircumflex" unicode="&#xe2;" horiz-adv-x="1860" 
d="M274 1510l-26 232c198 32 416 63 673 63c385 0 695 -102 695 -550v-815c0 -110 -4 -212 -12 -315c-205 -107 -461 -149 -768 -149c-479 0 -683 166 -683 543c0 309 132 505 462 555c207 31 453 40 701 49v43c0 270 -104 392 -436 392c-209 0 -420 -23 -606 -48zM456 525
c0 -251 135 -311 420 -311c137 0 297 15 431 71c6 79 9 179 9 261v365c-182 -5 -420 -10 -587 -46c-194 -42 -273 -112 -273 -340zM1381 2008h-244l-208 319l-212 -319h-239l338 501h219z" />
    <glyph glyph-name="adieresis" unicode="&#xe4;" horiz-adv-x="1860" 
d="M274 1510l-26 232c198 32 416 63 673 63c385 0 695 -102 695 -550v-815c0 -110 -4 -212 -12 -315c-205 -107 -462 -149 -768 -149c-479 0 -683 166 -683 543c0 309 132 505 462 555c207 31 453 40 701 49v43c0 270 -104 392 -436 392c-209 0 -420 -23 -606 -48zM456 525
c0 -251 135 -311 420 -311c137 0 297 15 431 71c6 79 9 179 9 261v365c-182 -5 -420 -10 -587 -46c-195 -42 -273 -112 -273 -340zM640 2429c98 0 171 -77 171 -175s-73 -174 -171 -174s-177 76 -177 174s79 175 177 175zM1233 2429c98 0 172 -77 172 -175
s-74 -174 -172 -174s-175 76 -175 174s77 175 175 175z" />
    <glyph glyph-name="agrave" unicode="&#xe0;" horiz-adv-x="1860" 
d="M274 1510l-26 232c198 32 416 63 673 63c385 0 695 -102 695 -550v-815c0 -110 -4 -212 -12 -315c-205 -107 -461 -149 -768 -149c-479 0 -683 166 -683 543c0 309 132 505 462 555c207 31 453 40 701 49v43c0 270 -104 392 -436 392c-209 0 -420 -23 -606 -48zM456 525
c0 -251 135 -311 420 -311c137 0 297 15 431 71c6 79 9 179 9 261v365c-182 -5 -420 -10 -587 -46c-194 -42 -273 -112 -273 -340zM770 2522l302 -501h-242l-410 501h350z" />
    <glyph glyph-name="aogonek" unicode="&#x105;" horiz-adv-x="1861" 
d="M1617 1255v-815c0 -110 -4 -212 -12 -315c-72 -38 -150 -67 -234 -90c-71 -76 -159 -192 -159 -300c0 -96 58 -159 153 -159c64 0 120 20 159 46l53 -136c-74 -60 -185 -95 -276 -95c-173 0 -304 102 -304 274c0 121 72 240 150 329c-97 -12 -201 -18 -311 -18
c-479 0 -683 166 -683 543c0 309 133 505 462 555c208 31 453 40 701 49v43c0 270 -104 392 -436 392c-209 0 -419 -23 -606 -48l-26 232c198 32 417 63 673 63c386 0 696 -102 696 -550zM1316 546v365c-182 -5 -419 -10 -587 -46c-194 -42 -273 -112 -273 -340
c0 -251 135 -311 420 -311c138 0 298 15 431 71c7 79 9 179 9 261z" />
    <glyph glyph-name="aring" unicode="&#xe5;" horiz-adv-x="1860" 
d="M274 1510l-26 232c198 32 416 63 673 63c385 0 695 -102 695 -550v-815c0 -110 -4 -212 -12 -315c-205 -107 -461 -149 -768 -149c-479 0 -683 166 -683 543c0 309 132 505 462 555c207 31 453 40 701 49v43c0 270 -104 392 -436 392c-209 0 -420 -23 -606 -48zM456 525
c0 -251 135 -311 420 -311c137 0 297 15 431 71c6 79 9 179 9 261v365c-182 -5 -420 -10 -587 -46c-194 -42 -273 -112 -273 -340zM921 2644c184 0 334 -150 334 -335c0 -184 -150 -334 -334 -334c-185 0 -335 150 -335 334c0 185 150 335 335 335zM921 2497
c-104 0 -188 -84 -188 -188s84 -187 188 -187c103 0 187 83 187 187s-84 188 -187 188z" />
    <glyph glyph-name="atilde" unicode="&#xe3;" horiz-adv-x="1861" 
d="M274 1510l-26 232c198 32 417 63 673 63c386 0 696 -102 696 -550v-815c0 -110 -4 -212 -12 -315c-205 -107 -462 -149 -768 -149c-480 0 -684 166 -684 543c0 309 133 505 462 555c208 31 454 40 701 49v43c0 270 -103 392 -436 392c-209 0 -419 -23 -606 -48z
M1358 2445c-19 -244 -138 -362 -256 -362c-193 0 -219 173 -315 173c-55 0 -89 -50 -107 -165h-178c19 243 138 361 256 361c193 0 219 -172 315 -172c55 0 89 49 107 165h178zM1316 546v365c-182 -5 -419 -10 -587 -46c-194 -42 -272 -112 -272 -340
c0 -251 134 -311 419 -311c138 0 298 15 432 71c6 79 8 179 8 261z" />
    <glyph glyph-name="ae" unicode="&#xe6;" horiz-adv-x="3053" 
d="M1560 146l-3 -45c-199 -90 -440 -125 -720 -125c-480 0 -684 166 -684 543c0 309 133 505 463 555c207 31 453 40 701 49v43c0 270 -104 392 -436 392c-210 0 -420 -23 -607 -48l-26 232c198 32 417 63 673 63c252 0 469 -44 585 -206c121 141 312 206 596 206
c621 0 772 -326 772 -833c0 -47 -2 -103 -5 -152c-204 -35 -628 -75 -875 -86l-372 -16c25 -355 167 -492 536 -492c235 0 450 24 633 48l27 -236c-198 -31 -417 -62 -757 -62c-230 0 -391 61 -501 170zM1308 285c6 79 9 179 9 261v365c-183 -5 -420 -10 -588 -46
c-194 -42 -272 -112 -272 -340c0 -251 134 -311 420 -311c137 0 297 15 431 71zM1614 937l418 19c145 7 384 26 530 45c3 30 4 75 4 106c0 288 -118 459 -464 459c-414 0 -488 -233 -488 -629z" />
    <glyph glyph-name="cacute" unicode="&#x107;" horiz-adv-x="1536" 
d="M1374 272l28 -239c-147 -32 -305 -57 -506 -57c-597 0 -702 435 -702 933c0 583 134 896 781 896c172 0 308 -24 424 -56l-25 -230c-88 16 -202 33 -302 33c-517 0 -567 -164 -567 -643c0 -451 31 -676 566 -676c97 0 209 20 303 39zM1303 2519l-410 -501h-242l303 501
h349z" />
    <glyph glyph-name="ccaron" unicode="&#x10d;" horiz-adv-x="1536" 
d="M1373 272l29 -239c-147 -32 -305 -57 -507 -57c-597 0 -701 435 -701 933c0 583 134 896 781 896c171 0 308 -24 424 -56l-25 -230c-88 16 -202 33 -303 33c-516 0 -566 -164 -566 -643c0 -451 31 -676 565 -676c97 0 210 20 303 39zM858 2204l212 318h240l-339 -501
h-219l-345 501h243z" />
    <glyph glyph-name="ccedilla" unicode="&#xe7;" horiz-adv-x="1536" 
d="M1399 1749l-25 -230c-88 16 -202 33 -302 33c-517 0 -567 -164 -567 -643c0 -451 31 -676 566 -676c96 0 209 20 303 39l28 -239c-119 -26 -245 -47 -396 -54l-91 -143c133 -7 259 -89 259 -232c0 -199 -175 -274 -363 -274c-87 0 -183 23 -251 62l53 139
c66 -32 139 -49 198 -49c68 0 145 25 145 108c0 112 -184 147 -281 147l143 242c-529 35 -624 454 -624 930c0 583 134 896 781 896c172 0 308 -24 424 -56z" />
    <glyph glyph-name="dcaron" unicode="&#x10f;" horiz-adv-x="1929" 
d="M1367 1747v722h305v-2029c0 -110 -4 -212 -12 -315c-197 -107 -455 -149 -683 -149c-575 0 -816 219 -816 915c0 684 224 914 761 914c148 0 304 -23 445 -58zM1367 1500c-100 34 -246 61 -362 61c-485 0 -536 -236 -536 -670c0 -409 73 -672 508 -672
c126 0 280 23 381 71c6 79 9 179 9 261v949zM2293 2469l-245 -671h-207l172 671h280z" />
    <glyph glyph-name="dcroat" unicode="&#x111;" horiz-adv-x="1930" 
d="M1013 2021v188h355v260h305v-260h237v-188h-237v-1581c0 -110 -4 -212 -12 -315c-198 -107 -455 -149 -683 -149c-575 0 -817 219 -817 915c0 684 225 914 762 914c148 0 304 -23 445 -58v274h-355zM1368 1500c-101 34 -246 61 -362 61c-486 0 -536 -236 -536 -670
c0 -409 73 -672 508 -672c126 0 280 23 381 71c6 79 9 179 9 261v949z" />
    <glyph glyph-name="eacute" unicode="&#xe9;" horiz-adv-x="1928" 
d="M936 -24c-589 0 -745 387 -745 915c0 646 197 914 786 914c621 0 771 -326 771 -833c0 -47 -1 -103 -5 -152c-204 -35 -627 -75 -875 -86l-371 -16c25 -355 167 -492 536 -492c234 0 450 24 633 48l27 -236c-199 -31 -417 -62 -757 -62zM489 937l418 19
c145 7 384 26 529 45c3 30 4 75 4 106c0 288 -117 459 -463 459c-414 0 -488 -233 -488 -629zM1495 2514l-410 -501h-242l302 501h350z" />
    <glyph glyph-name="ecaron" unicode="&#x11b;" horiz-adv-x="1927" 
d="M936 -24c-590 0 -745 387 -745 915c0 646 197 914 785 914c621 0 772 -326 772 -833c0 -47 -2 -103 -5 -152c-204 -35 -627 -75 -875 -86l-372 -16c25 -355 167 -492 536 -492c235 0 451 24 634 48l26 -236c-198 -31 -416 -62 -756 -62zM488 937l419 19
c144 7 383 26 529 45c3 30 4 75 4 106c0 288 -118 459 -464 459c-414 0 -488 -233 -488 -629zM969 2194l212 318h239l-338 -501h-219l-345 501h243z" />
    <glyph glyph-name="ecircumflex" unicode="&#xea;" horiz-adv-x="1927" 
d="M936 -24c-590 0 -745 387 -745 915c0 646 197 914 785 914c621 0 772 -326 772 -833c0 -47 -2 -103 -5 -152c-204 -35 -627 -75 -875 -86l-372 -16c25 -355 167 -492 536 -492c235 0 451 24 634 48l26 -236c-198 -31 -416 -62 -756 -62zM488 937l419 19
c144 7 383 26 529 45c3 30 4 75 4 106c0 288 -118 459 -464 459c-414 0 -488 -233 -488 -629zM1452 2008h-243l-208 319l-212 -319h-239l338 501h219z" />
    <glyph glyph-name="edieresis" unicode="&#xeb;" horiz-adv-x="1927" 
d="M936 -24c-589 0 -745 387 -745 915c0 646 197 914 785 914c621 0 772 -326 772 -833c0 -47 -1 -103 -5 -152c-204 -35 -627 -75 -875 -86l-371 -16c25 -355 167 -492 535 -492c235 0 451 24 634 48l27 -236c-199 -31 -417 -62 -757 -62zM723 2429c98 0 172 -77 172 -175
s-74 -174 -172 -174s-177 76 -177 174s79 175 177 175zM489 937l418 19c145 7 384 26 529 45c3 30 4 75 4 106c0 288 -118 459 -464 459c-413 0 -487 -233 -487 -629zM1316 2429c98 0 173 -77 173 -175s-75 -174 -173 -174s-175 76 -175 174s77 175 175 175z" />
    <glyph glyph-name="egrave" unicode="&#xe8;" horiz-adv-x="1927" 
d="M936 -24c-590 0 -745 387 -745 915c0 646 197 914 785 914c621 0 772 -326 772 -833c0 -47 -2 -103 -5 -152c-204 -35 -627 -75 -875 -86l-372 -16c25 -355 167 -492 536 -492c235 0 451 24 634 48l26 -236c-198 -31 -416 -62 -756 -62zM488 937l419 19
c144 7 383 26 529 45c3 30 4 75 4 106c0 288 -118 459 -464 459c-414 0 -488 -233 -488 -629zM901 2522l303 -501h-242l-410 501h349z" />
    <glyph glyph-name="eogonek" unicode="&#x119;" horiz-adv-x="1927" 
d="M1666 274l27 -236c-107 -17 -220 -34 -354 -45c-71 -76 -172 -200 -172 -315c0 -96 58 -159 152 -159c65 0 121 20 160 46l53 -136c-74 -60 -185 -95 -276 -95c-173 0 -304 102 -304 274c0 143 99 282 191 373c-64 -3 -132 -5 -207 -5c-590 0 -745 387 -745 915
c0 646 197 914 785 914c621 0 772 -326 772 -833c0 -47 -2 -103 -5 -152c-204 -35 -627 -75 -875 -86l-372 -16c25 -355 167 -492 536 -492c235 0 451 24 634 48zM976 1566c-414 0 -488 -233 -488 -629l419 19c144 7 383 26 529 45c3 30 4 75 4 106c0 288 -118 459 -464 459
z" />
    <glyph glyph-name="gbreve" unicode="&#x11f;" horiz-adv-x="1945" 
d="M300 -613l26 232c186 -27 416 -52 624 -52c332 0 435 122 435 393v114c-140 -35 -296 -58 -444 -58c-530 0 -762 219 -762 894c0 679 249 895 817 895c228 0 485 -42 683 -149c8 -103 12 -205 12 -315v-1471c0 -448 -310 -550 -696 -550c-256 0 -497 34 -695 67z
M996 1562c-428 0 -508 -256 -508 -652c0 -424 57 -650 536 -650c116 0 261 27 361 61v909c0 82 -2 182 -8 261c-101 48 -255 71 -381 71zM1226 2464h186c-19 -234 -147 -424 -423 -424c-275 0 -403 190 -422 424h186c16 -120 92 -229 236 -229c145 0 221 109 237 229z" />
    <glyph glyph-name="iacute" unicode="&#xed;" horiz-adv-x="800" 
d="M247 0v1781h307v-1781h-307zM286 2044l302 501h350l-410 -501h-242z" />
    <glyph glyph-name="icircumflex" unicode="&#xee;" horiz-adv-x="800" 
d="M287 2555h220l345 -501h-243l-208 319l-212 -319h-240zM247 0v1781h307v-1781h-307z" />
    <glyph glyph-name="idieresis" unicode="&#xef;" horiz-adv-x="800" 
d="M106 2095c-98 0 -177 76 -177 174s79 175 177 175s171 -77 171 -175s-73 -174 -171 -174zM699 2095c-98 0 -175 76 -175 174s77 175 175 175s172 -77 172 -175s-74 -174 -172 -174zM247 0v1781h307v-1781h-307z" />
    <glyph glyph-name="igrave" unicode="&#xec;" horiz-adv-x="801" 
d="M274 2044l-410 501h349l302 -501h-241zM247 0v1781h308v-1781h-308z" />
    <glyph glyph-name="dotlessi" unicode="&#x131;" horiz-adv-x="800" 
d="M247 0v1781h307v-1781h-307z" />
    <glyph glyph-name="lacute" unicode="&#x13a;" horiz-adv-x="787" 
d="M217 461v2008h307v-1991c0 -179 42 -305 137 -427l-264 -130c-117 133 -180 293 -180 540zM247 2630l324 405h373l-438 -405h-259z" />
    <glyph glyph-name="lcaron" unicode="&#x13e;" horiz-adv-x="787" 
d="M217 461v2008h307v-1991c0 -179 42 -305 137 -427l-264 -130c-117 133 -180 293 -180 540zM693 1798l172 671h280l-245 -671h-207z" />
    <glyph glyph-name="lslash" unicode="&#x142;" horiz-adv-x="884" 
d="M583 1284v-806c0 -179 42 -305 137 -427l-264 -130c-117 133 -180 293 -180 540v575l-273 -220v268l273 220v1165h307v-917l285 231v-269z" />
    <glyph glyph-name="nacute" unicode="&#x144;" horiz-adv-x="1994" 
d="M557 1221v-1221h-306v1338c0 110 4 212 12 315c202 93 476 152 804 152c617 0 679 -290 679 -655v-1150h-306v1107c0 313 -56 450 -465 450c-132 0 -314 -30 -410 -75c-6 -78 -8 -178 -8 -261zM819 2026l303 501h349l-410 -501h-242z" />
    <glyph glyph-name="ncaron" unicode="&#x148;" horiz-adv-x="1994" 
d="M556 1221v-1221h-305v1338c0 110 4 212 12 315c202 93 476 152 804 152c616 0 679 -290 679 -655v-1150h-307v1107c0 313 -55 450 -464 450c-132 0 -315 -30 -410 -75c-6 -78 -9 -178 -9 -261zM546 2519h244l208 -318l212 318h239l-338 -501h-219z" />
    <glyph glyph-name="ntilde" unicode="&#xf1;" horiz-adv-x="1994" 
d="M557 1221v-1221h-306v1338c0 110 4 212 12 315c202 93 476 152 804 152c617 0 679 -290 679 -655v-1150h-306v1107c0 313 -56 450 -465 450c-132 0 -314 -30 -410 -75c-6 -78 -8 -178 -8 -261zM1263 2455h178c-19 -244 -138 -362 -255 -362c-194 0 -220 173 -316 173
c-54 0 -89 -50 -107 -165h-178c19 243 138 361 256 361c193 0 219 -172 315 -172c55 0 89 49 107 165z" />
    <glyph glyph-name="oacute" unicode="&#xf3;" horiz-adv-x="1966" 
d="M983 -24c-578 0 -787 248 -787 915c0 666 209 914 787 914c579 0 787 -258 787 -914c0 -655 -208 -915 -787 -915zM983 226c368 0 480 155 480 665c0 509 -110 664 -480 664c-364 0 -478 -133 -478 -664s114 -665 478 -665zM794 2035l302 501h350l-410 -501h-242z" />
    <glyph glyph-name="ocircumflex" unicode="&#xf4;" horiz-adv-x="1966" 
d="M983 -24c-579 0 -787 248 -787 915c0 666 208 914 787 914c578 0 787 -258 787 -914c0 -655 -209 -915 -787 -915zM983 226c367 0 479 155 479 665c0 509 -110 664 -479 664c-365 0 -479 -133 -479 -664s114 -665 479 -665zM869 2519h219l346 -501h-244l-208 319
l-212 -319h-239z" />
    <glyph glyph-name="odieresis" unicode="&#xf6;" horiz-adv-x="1966" 
d="M689 2080c-98 0 -177 76 -177 174s79 175 177 175c97 0 171 -77 171 -175s-74 -174 -171 -174zM983 -24c-578 0 -787 248 -787 915c0 666 209 914 787 914s787 -258 787 -914c0 -655 -209 -915 -787 -915zM983 226c367 0 480 155 480 665c0 509 -111 664 -480 664
c-365 0 -478 -133 -478 -664s113 -665 478 -665zM1281 2080c-98 0 -175 76 -175 174s77 175 175 175c99 0 173 -77 173 -175s-74 -174 -173 -174z" />
    <glyph glyph-name="ograve" unicode="&#xf2;" horiz-adv-x="1966" 
d="M983 -24c-579 0 -787 248 -787 915c0 666 208 914 787 914c578 0 787 -258 787 -914c0 -655 -209 -915 -787 -915zM983 226c367 0 479 155 479 665c0 509 -110 664 -479 664c-365 0 -479 -133 -479 -664s114 -665 479 -665zM945 2021l-410 501h350l302 -501h-242z" />
    <glyph glyph-name="ohungarumlaut" unicode="&#x151;" horiz-adv-x="1966" 
d="M983 -24c-578 0 -787 248 -787 915c0 666 209 914 787 914c579 0 787 -258 787 -914c0 -655 -208 -915 -787 -915zM983 226c368 0 480 155 480 665c0 509 -111 664 -480 664c-365 0 -478 -133 -478 -664s113 -665 478 -665zM550 2048l287 500h338l-393 -500h-232z
M1069 2048l287 500h338l-393 -500h-232z" />
    <glyph glyph-name="otilde" unicode="&#xf5;" horiz-adv-x="1966" 
d="M1232 2435h178c-19 -244 -138 -362 -255 -362c-194 0 -220 173 -316 173c-54 0 -89 -50 -106 -165h-179c19 243 138 361 256 361c193 0 219 -172 316 -172c54 0 88 49 106 165zM983 1805c578 0 787 -258 787 -914c0 -655 -209 -915 -787 -915c-579 0 -787 248 -787 915
c0 666 208 914 787 914zM983 1555c-365 0 -479 -133 -479 -664s114 -665 479 -665c367 0 479 155 479 665c0 509 -110 664 -479 664z" />
    <glyph glyph-name="oslash" unicode="&#xf8;" horiz-adv-x="1966" 
d="M561 46l-126 -203l-148 99l125 200c-153 142 -216 382 -216 749c0 666 209 914 787 914c171 0 310 -23 421 -72l127 204l148 -98l-126 -203c153 -143 217 -384 217 -745c0 -655 -208 -915 -787 -915c-172 0 -311 22 -422 70zM983 1555c-364 0 -478 -133 -478 -664
c0 -227 20 -381 72 -483l683 1094c-70 37 -161 53 -277 53zM1387 1371l-682 -1095c70 -36 161 -50 278 -50c368 0 480 155 480 665c0 222 -21 376 -76 480z" />
    <glyph glyph-name="oe" unicode="&#x153;" horiz-adv-x="3199" 
d="M983 1805c312 0 514 -78 632 -258c117 178 316 258 633 258c621 0 771 -326 771 -833c0 -47 -1 -103 -5 -152c-204 -35 -627 -75 -874 -86l-372 -16c25 -355 167 -492 536 -492c235 0 450 24 633 48l27 -236c-199 -31 -417 -62 -757 -62c-294 0 -477 100 -586 267
c-118 -187 -320 -267 -638 -267c-579 0 -787 248 -787 915c0 666 208 914 787 914zM983 1555c-365 0 -478 -133 -478 -664s113 -665 478 -665c367 0 479 155 479 665c0 509 -110 664 -479 664zM1760 937l418 19c145 7 384 26 529 45c3 30 4 75 4 106
c0 288 -117 459 -463 459c-414 0 -488 -233 -488 -629z" />
    <glyph glyph-name="racute" unicode="&#x155;" horiz-adv-x="1175" 
d="M555 0h-305v1341c0 110 4 212 12 315c198 107 455 149 683 149c59 0 114 -2 166 -7l-24 -251c-43 5 -89 7 -142 7c-126 0 -280 -23 -381 -71c-6 -79 -9 -179 -9 -261v-1222zM757 2529h349l-410 -501h-242z" />
    <glyph glyph-name="rcaron" unicode="&#x159;" horiz-adv-x="1175" 
d="M555 0h-305v1341c0 110 4 212 12 315c197 107 454 149 683 149c59 0 114 -2 166 -7l-25 -251c-42 5 -89 7 -141 7c-127 0 -281 -23 -381 -71c-6 -79 -9 -179 -9 -261v-1222zM468 2519l208 -318l212 318h239l-338 -501h-219l-345 501h243z" />
    <glyph glyph-name="sacute" unicode="&#x15b;" horiz-adv-x="1599" 
d="M930 1557c-177 0 -445 -3 -445 -219c0 -214 198 -243 404 -309c333 -106 555 -183 555 -541c0 -401 -298 -512 -686 -512c-191 0 -403 21 -590 64l30 235c142 -25 321 -46 466 -46c177 0 468 -2 468 245c0 216 -169 245 -395 313c-283 85 -559 155 -559 529
c0 381 266 489 622 489c234 0 404 -20 605 -64l-30 -230c-136 25 -285 46 -445 46zM1322 2539l-410 -501h-242l303 501h349z" />
    <glyph glyph-name="scaron" unicode="&#x161;" horiz-adv-x="1599" 
d="M930 1557c-176 0 -445 -3 -445 -219c0 -214 199 -244 404 -309c333 -107 556 -183 556 -541c0 -401 -298 -512 -687 -512c-191 0 -403 21 -589 64l30 235c141 -25 320 -46 465 -46c177 0 468 -2 468 245c0 216 -169 245 -395 313c-283 85 -558 155 -558 529
c0 381 265 489 622 489c234 0 403 -20 604 -64l-29 -230c-136 25 -286 46 -446 46zM806 2204l212 318h239l-338 -501h-219l-345 501h243z" />
    <glyph glyph-name="scedilla" unicode="&#x15f;" horiz-adv-x="1599" 
d="M964 -11l-98 -154c133 -7 259 -89 259 -232c0 -199 -175 -274 -363 -274c-87 0 -183 23 -251 62l52 139c67 -32 140 -49 199 -49c68 0 145 25 145 108c0 112 -184 147 -281 147l143 240h-11c-191 0 -403 21 -589 64l30 235c141 -25 321 -46 465 -46c177 0 469 -2 469 245
c0 216 -170 245 -396 313c-282 85 -558 155 -558 529c0 381 266 489 622 489c234 0 403 -20 604 -64l-29 -230c-136 25 -286 46 -446 46c-176 0 -445 -3 -445 -219c0 -214 199 -244 404 -309c333 -107 556 -183 556 -541c0 -327 -198 -461 -481 -499z" />
    <glyph glyph-name="uni0219" unicode="&#x219;" horiz-adv-x="1599" 
d="M930 1557c-176 0 -445 -3 -445 -219c0 -214 199 -244 404 -309c333 -107 556 -183 556 -541c0 -401 -298 -512 -687 -512c-191 0 -402 21 -589 64l30 235c141 -25 321 -46 465 -46c178 0 469 -2 469 245c0 216 -170 245 -396 313c-282 85 -558 155 -558 529
c0 381 266 489 622 489c234 0 404 -20 605 -64l-30 -230c-136 25 -286 46 -446 46zM1009 -204l-228 -624h-192l159 624h261z" />
    <glyph glyph-name="germandbls" unicode="&#xdf;" horiz-adv-x="2051" 
d="M552 1588v-1588h-306v1588c0 649 221 905 772 905c523 0 739 -238 739 -545c0 -474 -545 -403 -545 -695c0 -345 700 -151 700 -770c0 -378 -250 -507 -568 -507c-149 0 -338 25 -500 72l24 234c131 -30 287 -56 389 -56c121 0 345 6 345 243c0 427 -696 208 -696 784
c0 479 544 345 544 716c0 151 -121 274 -432 274c-338 0 -466 -155 -466 -655z" />
    <glyph glyph-name="tcaron" unicode="&#x165;" horiz-adv-x="1207" 
d="M395 2234l307 50v-503h384v-234h-384v-1063c0 -216 80 -266 272 -266c40 0 77 2 115 5l24 -225c-70 -12 -158 -22 -228 -22c-344 0 -490 149 -490 475v1096h-314v234h314v453zM890 1998l172 671h280l-245 -671h-207z" />
    <glyph glyph-name="uni0163" unicode="&#x163;" horiz-adv-x="1206" 
d="M395 2234l306 50v-503h385v-234h-385v-1063c0 -216 81 -266 273 -266c39 0 77 2 115 5l24 -225c-71 -12 -158 -22 -228 -22c-344 0 -490 149 -490 475v1096h-314v234h314v453zM469 -838l160 624h260l-228 -624h-192z" />
    <glyph glyph-name="uacute" unicode="&#xfa;" horiz-adv-x="1986" 
d="M242 631v1150h306v-1107c0 -313 55 -450 463 -450c130 0 310 30 406 75c6 78 8 178 8 261v1221h306v-1338c0 -110 -4 -212 -12 -315c-202 -93 -474 -152 -800 -152c-615 0 -677 290 -677 655zM820 2064l302 501h349l-410 -501h-241z" />
    <glyph glyph-name="ucircumflex" unicode="&#xfb;" horiz-adv-x="1986" 
d="M242 631v1150h306v-1107c0 -313 55 -450 463 -450c130 0 311 30 406 75c6 78 9 178 9 261v1221h305v-1338c0 -110 -4 -212 -12 -315c-202 -93 -474 -152 -800 -152c-615 0 -677 290 -677 655zM874 2575h219l345 -501h-243l-208 319l-212 -319h-240z" />
    <glyph glyph-name="udieresis" unicode="&#xfc;" horiz-adv-x="1986" 
d="M242 631v1150h307v-1107c0 -313 55 -450 462 -450c131 0 311 30 406 75c6 78 9 178 9 261v1221h305v-1338c0 -110 -4 -212 -12 -315c-202 -93 -473 -152 -800 -152c-615 0 -677 290 -677 655zM693 2116c-98 0 -177 76 -177 174s79 175 177 175c97 0 171 -77 171 -175
s-74 -174 -171 -174zM1285 2116c-98 0 -175 76 -175 174s77 175 175 175c99 0 173 -77 173 -175s-74 -174 -173 -174z" />
    <glyph glyph-name="ugrave" unicode="&#xf9;" horiz-adv-x="1986" 
d="M242 631v1150h306v-1107c0 -313 56 -450 463 -450c131 0 311 30 406 75c6 78 9 178 9 261v1221h305v-1338c0 -110 -4 -212 -12 -315c-202 -93 -474 -152 -800 -152c-615 0 -677 290 -677 655zM924 2044l-409 501h349l302 -501h-242z" />
    <glyph glyph-name="uhungarumlaut" unicode="&#x171;" horiz-adv-x="1986" 
d="M242 631v1150h307v-1107c0 -313 55 -450 462 -450c131 0 311 30 406 75c6 78 9 178 9 261v1221h305v-1338c0 -110 -4 -212 -12 -315c-202 -93 -473 -152 -800 -152c-615 0 -677 290 -677 655zM555 2074l287 500h338l-393 -500h-232zM1074 2074l287 500h338l-393 -500
h-232z" />
    <glyph glyph-name="uring" unicode="&#x16f;" horiz-adv-x="1986" 
d="M242 631v1150h307v-1107c0 -313 55 -450 462 -450c131 0 311 30 406 75c6 78 9 178 9 261v1221h305v-1338c0 -110 -4 -212 -12 -315c-202 -93 -473 -152 -800 -152c-615 0 -677 290 -677 655zM986 1951c-184 0 -334 150 -334 334c0 185 150 335 334 335
c185 0 335 -150 335 -335c0 -184 -150 -334 -335 -334zM986 2098c104 0 188 83 188 187s-84 188 -188 188c-103 0 -187 -84 -187 -188s84 -187 187 -187z" />
    <glyph glyph-name="yacute" unicode="&#xfd;" horiz-adv-x="1753" 
d="M939 511l417 1270h310l-829 -2437h-310l273 779l-720 1658h326zM740 2024l303 501h349l-410 -501h-242z" />
    <glyph glyph-name="ydieresis" unicode="&#xff;" horiz-adv-x="1753" 
d="M613 2086c-99 0 -177 76 -177 174s78 175 177 175c97 0 171 -77 171 -175s-74 -174 -171 -174zM1205 2086c-98 0 -175 76 -175 174s77 175 175 175s173 -77 173 -175s-75 -174 -173 -174zM938 511l418 1270h310l-829 -2437h-311l273 779l-719 1658h325z" />
    <glyph glyph-name="zacute" unicode="&#x17a;" horiz-adv-x="1786" 
d="M1571 1568l-986 -1317h977v-251h-1287c-82 0 -129 40 -129 100c0 33 14 72 46 115l990 1325h-961v241h1267c80 0 129 -40 129 -100c0 -32 -15 -71 -46 -113zM730 2044l303 501h349l-410 -501h-242z" />
    <glyph glyph-name="zcaron" unicode="&#x17e;" horiz-adv-x="1785" 
d="M1571 1568l-987 -1317h978v-251h-1287c-82 0 -129 40 -129 100c0 33 14 72 46 115l990 1325h-961v241h1267c80 0 129 -40 129 -100c0 -32 -15 -71 -46 -113zM459 2545h244l208 -318l212 318h239l-338 -501h-219z" />
    <glyph glyph-name="zdotaccent" unicode="&#x17c;" horiz-adv-x="1786" 
d="M1572 1568l-987 -1317h978v-251h-1287c-82 0 -129 40 -129 100c0 33 13 73 45 115l991 1325h-961v241h1267c80 0 129 -40 129 -100c0 -32 -15 -72 -46 -113zM921 2057c-102 0 -182 79 -182 181c0 103 80 182 182 182c103 0 180 -79 180 -182c0 -102 -77 -181 -180 -181z
" />
    <glyph glyph-name="eth" unicode="&#xf0;" horiz-adv-x="1933" 
d="M1309 2274l285 104l94 -159l-276 -100c217 -365 320 -805 320 -1234c0 -651 -209 -909 -787 -909c-579 0 -787 246 -787 909c0 634 208 880 787 880c139 0 253 -21 346 -67c-41 110 -93 217 -154 321l-286 -104l-91 159l277 101c-57 80 -118 157 -184 230l267 88
c69 -68 132 -141 189 -219zM1424 885c0 475 -110 630 -479 630c-365 0 -478 -133 -478 -630c0 -527 113 -659 478 -659c367 0 479 153 479 659z" />
    <glyph glyph-name="thorn" unicode="&#xfe;" horiz-adv-x="1924" 
d="M247 -656v2986h305v-583c141 35 296 58 444 58c537 0 762 -231 762 -915s-225 -914 -762 -914c-148 0 -303 23 -444 58v-690h-305zM552 1500v-1219c100 -34 246 -61 361 -61c486 0 536 236 536 670s-50 671 -536 671c-115 0 -261 -27 -361 -61z" />
    <glyph glyph-name="ordfeminine" unicode="&#xaa;" horiz-adv-x="1401" 
d="M257 2088l-18 163c136 23 286 44 459 44c263 0 474 -69 474 -372v-545c0 -74 -3 -143 -8 -212c-141 -74 -315 -103 -523 -103c-326 0 -465 113 -465 368c0 206 95 339 317 374c134 21 299 27 461 33v26c0 177 -69 258 -284 258c-139 0 -284 -16 -413 -34zM396 1435
c0 -165 87 -206 272 -206c89 0 194 11 283 47c1 52 3 118 3 172v241c-135 -5 -279 -9 -382 -31c-125 -27 -176 -73 -176 -223z" />
    <glyph glyph-name="ordmasculine" unicode="&#xba;" horiz-adv-x="1453" 
d="M726 1063c-393 0 -535 167 -535 616s142 616 535 616c394 0 536 -174 536 -616c0 -441 -142 -616 -536 -616zM726 1238c240 0 313 103 313 441s-72 441 -313 441c-237 0 -311 -89 -311 -441s74 -441 311 -441z" />
    <glyph glyph-name="onequarter" unicode="&#xbc;" horiz-adv-x="2456" 
d="M1917 0v313h-504c-124 0 -157 52 -157 121c0 35 18 91 84 177l499 644c61 78 114 107 181 107s119 -41 119 -133v-744h175v-172h-175v-313h-222zM488 2330h173v-1349h-222v1124c-95 -24 -212 -47 -315 -60l-11 176c160 25 289 69 375 109zM1975 2378l-1369 -2426h-234
l1368 2426h235zM1490 485h428v563z" />
    <glyph glyph-name="onehalf" unicode="&#xbd;" horiz-adv-x="2727" 
d="M1676 1148l-21 170c129 24 279 44 429 44c277 0 477 -76 477 -333c0 -248 -144 -396 -396 -498c-202 -83 -248 -172 -273 -342h669v-189h-927c73 410 116 562 420 691c174 74 280 151 280 301c0 148 -87 186 -335 186c-97 0 -229 -15 -323 -30zM119 2221
c160 25 289 69 375 109h172v-1349h-222v1124c-94 -24 -212 -47 -315 -60zM1746 2378h235l-1368 -2426h-234z" />
    <glyph glyph-name="threequarters" unicode="&#xbe;" horiz-adv-x="2701" 
d="M555 2342c257 0 491 -53 491 -336c0 -144 -62 -252 -181 -316c113 -48 203 -143 203 -304c0 -323 -198 -420 -521 -420c-148 0 -280 18 -403 42l24 173c121 -16 237 -31 334 -31c225 0 333 42 333 226c0 125 -67 194 -175 207c-64 8 -128 11 -218 11c-26 0 -54 -1 -85 -1
v167c118 2 217 10 302 23c108 16 159 90 159 192c0 171 -118 185 -288 185c-111 0 -230 -13 -350 -30l-23 170c125 24 246 42 398 42zM2162 0v313h-505c-123 0 -157 52 -157 121c0 35 17 91 84 177l500 644c60 78 113 107 181 107c66 0 119 -41 119 -133v-744h175v-172h-175
v-313h-222zM2219 2378l-1368 -2426h-234l1367 2426h235zM1734 485h428v563z" />
    <glyph glyph-name="period" unicode="." horiz-adv-x="785" 
d="M392 -24c-145 0 -185 51 -185 201c0 151 43 203 185 203c143 0 186 -52 186 -203c0 -150 -40 -201 -186 -201z" />
    <glyph glyph-name="comma" unicode="," horiz-adv-x="797" 
d="M91 -437l213 836h354l-307 -836h-260z" />
    <glyph glyph-name="colon" unicode=":" horiz-adv-x="865" 
d="M433 -24c-145 0 -185 51 -185 201c0 151 43 203 185 203s185 -52 185 -203c0 -150 -40 -201 -185 -201zM433 1210c-145 0 -185 50 -185 201s43 203 185 203s185 -52 185 -203s-40 -201 -185 -201z" />
    <glyph glyph-name="semicolon" unicode=";" horiz-adv-x="884" 
d="M522 1210c-145 0 -185 50 -185 201s43 203 185 203c143 0 186 -52 186 -203s-40 -201 -186 -201zM127 -437l213 836h354l-307 -836h-260z" />
    <glyph glyph-name="exclam" unicode="!" horiz-adv-x="859" 
d="M429 -24c-145 0 -185 51 -185 201c0 151 43 203 185 203c143 0 186 -52 186 -203c0 -150 -40 -201 -186 -201zM297 679l-52 1651h369l-53 -1651h-264z" />
    <glyph glyph-name="question" unicode="?" horiz-adv-x="1703" 
d="M812 679h-267l-5 208c-1 20 -3 62 -3 83c0 535 707 101 707 703c0 323 -117 408 -570 408c-190 0 -368 -20 -521 -49l-55 255c190 41 407 67 637 67c504 0 844 -85 844 -674c0 -811 -750 -443 -761 -803zM494 177c0 151 43 203 185 203c143 0 186 -52 186 -203
c0 -150 -40 -201 -186 -201c-145 0 -185 51 -185 201z" />
    <glyph glyph-name="exclamdown" unicode="&#xa1;" horiz-adv-x="833" 
d="M416 1379c-142 0 -185 52 -185 203c0 150 40 201 185 201c146 0 185 -51 185 -201c0 -151 -42 -203 -185 -203zM232 -571l53 1651h263l53 -1651h-369z" />
    <glyph glyph-name="questiondown" unicode="&#xbf;" horiz-adv-x="1704" 
d="M891 1080h267l6 -208c1 -20 2 -62 2 -83c0 -535 -707 -101 -707 -703c0 -323 117 -408 570 -408c191 0 368 20 522 49l54 -255c-189 -41 -407 -67 -636 -67c-505 0 -845 85 -845 674c0 811 750 443 761 803zM839 1582c0 150 40 201 185 201s185 -51 185 -201
c0 -151 -43 -203 -185 -203s-185 52 -185 203z" />
    <glyph glyph-name="quoteleft" unicode="&#x2018;" horiz-adv-x="762" 
d="M138 1675l291 794h247l-203 -794h-335z" />
    <glyph glyph-name="quoteright" unicode="&#x2019;" horiz-adv-x="762" 
d="M138 1675l203 794h335l-291 -794h-247z" />
    <glyph glyph-name="quotedblleft" unicode="&#x201c;" horiz-adv-x="1304" 
d="M138 1675l290 794h248l-203 -794h-335zM679 1675l291 794h248l-203 -794h-336z" />
    <glyph glyph-name="quotedblright" unicode="&#x201d;" horiz-adv-x="1304" 
d="M138 1675l203 794h335l-291 -794h-247zM680 1675l203 794h335l-290 -794h-248z" />
    <glyph glyph-name="quotesinglbase" unicode="&#x201a;" horiz-adv-x="757" 
d="M86 -415l203 794h335l-291 -794h-247z" />
    <glyph glyph-name="quotedblbase" unicode="&#x201e;" horiz-adv-x="1300" 
d="M86 -415l203 794h336l-291 -794h-248zM628 -415l203 794h336l-291 -794h-248z" />
    <glyph glyph-name="quotesingle" unicode="'" horiz-adv-x="708" 
d="M237 1572l-28 897h290l-28 -897h-234z" />
    <glyph glyph-name="quotedbl" unicode="&#x22;" horiz-adv-x="1215" 
d="M238 1572l-29 897h291l-28 -897h-234zM744 1572l-29 897h291l-28 -897h-234z" />
    <glyph glyph-name="guilsinglleft" unicode="&#x2039;" horiz-adv-x="1036" 
d="M452 862l430 -669h-302l-474 669l474 670h302z" />
    <glyph glyph-name="guilsinglright" unicode="&#x203a;" horiz-adv-x="1036" 
d="M930 862l-474 -669h-302l430 669l-429 670h301z" />
    <glyph glyph-name="guillemotleft" unicode="&#xab;" horiz-adv-x="1700" 
d="M452 862l430 -669h-302l-474 669l474 670h302zM1116 862l430 -669h-303l-473 669l473 670h302z" />
    <glyph glyph-name="guillemotright" unicode="&#xbb;" horiz-adv-x="1699" 
d="M930 862l-474 -669h-302l430 669l-430 670h302zM1593 862l-473 -669h-303l431 669l-431 670h303z" />
    <glyph glyph-name="hyphen" unicode="-" horiz-adv-x="1314" 
d="M227 755v261h860v-261h-860z" />
    <glyph glyph-name="endash" unicode="&#x2013;" horiz-adv-x="2061" 
d="M227 763v245h1607v-245h-1607z" />
    <glyph glyph-name="emdash" unicode="&#x2014;" horiz-adv-x="3614" 
d="M227 763v245h3160v-245h-3160z" />
    <glyph glyph-name="ellipsis" unicode="&#x2026;" horiz-adv-x="2917" 
d="M392 -24c-146 0 -185 51 -185 201c0 151 42 203 185 203c142 0 185 -52 185 -203c0 -150 -40 -201 -185 -201zM1459 -24c-146 0 -185 51 -185 201c0 151 42 203 185 203c142 0 184 -52 184 -203c0 -150 -40 -201 -184 -201zM2525 -24c-146 0 -185 51 -185 201
c0 151 42 203 185 203c142 0 185 -52 185 -203c0 -150 -40 -201 -185 -201z" />
    <glyph glyph-name="parenleft" unicode="(" horiz-adv-x="1013" 
d="M712 2430l176 -146c-337 -335 -398 -931 -398 -1357s61 -1022 398 -1357l-176 -145c-422 381 -535 942 -535 1502s113 1122 535 1503z" />
    <glyph glyph-name="parenright" unicode=")" horiz-adv-x="1011" 
d="M300 -575l-175 145c336 335 398 931 398 1357s-62 1022 -398 1357l175 146c422 -381 535 -943 535 -1503s-113 -1121 -535 -1502z" />
    <glyph glyph-name="bracketleft" unicode="[" horiz-adv-x="1016" 
d="M561 2172v-2476h343v-240h-629v2952h631v-236h-345z" />
    <glyph glyph-name="bracketright" unicode="]" horiz-adv-x="1016" 
d="M110 2172v236h631v-2952h-629v240h342v2476h-344z" />
    <glyph glyph-name="braceleft" unicode="{" horiz-adv-x="1023" 
d="M654 328v-175c0 -240 41 -427 281 -463l-25 -214c-337 40 -536 172 -536 629c0 479 -46 686 -255 721v215c209 34 255 242 255 721c0 456 199 588 536 628l25 -213c-240 -37 -281 -225 -281 -464v-175c0 -214 -9 -510 -231 -605c211 -102 231 -397 231 -605z" />
    <glyph glyph-name="braceright" unicode="}" horiz-adv-x="1024" 
d="M905 1041v-215c-208 -35 -255 -242 -255 -721c0 -457 -199 -589 -536 -629l-25 214c241 36 281 223 281 463v175c0 208 21 503 232 605c-223 95 -232 391 -232 605v175c0 239 -40 427 -281 464l25 213c337 -40 536 -172 536 -628c0 -479 47 -687 255 -721z" />
    <glyph glyph-name="periodcentered" unicode="&#xb7;" horiz-adv-x="809" 
d="M404 753c-145 0 -185 51 -185 201c0 151 43 203 185 203c143 0 186 -52 186 -203c0 -150 -40 -201 -186 -201z" />
    <glyph glyph-name="asterisk" unicode="*" horiz-adv-x="1537" 
d="M996 1150l-228 389l-225 -390l-194 109l230 397h-459v217h457l-229 397l195 111l225 -393l228 393l192 -111l-230 -397h459v-217h-460l230 -399z" />
    <glyph glyph-name="dagger" unicode="&#x2020;" horiz-adv-x="1811" 
d="M748 1727v649h303v-649h637v-260h-637v-1887h-303v1887h-625v260h625z" />
    <glyph glyph-name="daggerdbl" unicode="&#x2021;" horiz-adv-x="1889" 
d="M792 -420v1147h-627v257h627v558h-627v260h627v574h302v-574h629v-260h-629v-558h629v-257h-629v-1147h-302z" />
    <glyph glyph-name="section" unicode="&#xa7;" horiz-adv-x="1821" 
d="M1067 1467c276 -110 606 -257 606 -599c0 -188 -131 -338 -322 -449c133 -113 196 -241 196 -372c0 -414 -399 -531 -745 -531c-237 0 -404 20 -605 64l32 239c172 -30 337 -50 515 -50c164 0 488 0 488 264c0 190 -214 273 -453 368c-294 118 -629 256 -629 636
c0 192 115 341 311 450c-115 102 -165 210 -165 336c0 312 240 531 654 531c236 0 405 -19 604 -64l-30 -232c-172 32 -334 50 -517 50c-250 0 -404 -93 -404 -263c0 -191 231 -285 464 -378zM1141 556c133 69 243 156 243 284c0 141 -88 240 -346 355
c-128 57 -245 87 -376 154c-127 -63 -229 -154 -229 -286c0 -134 62 -240 303 -349c136 -62 257 -89 405 -158z" />
    <glyph glyph-name="paragraph" unicode="&#xb6;" horiz-adv-x="2092" 
d="M1131 2113v-2626h-251v1485c-462 6 -769 304 -769 668c0 464 321 690 832 690h869v-2843h-250v2626h-431z" />
    <glyph glyph-name="bullet" unicode="&#x2022;" horiz-adv-x="1281" 
d="M641 658c-255 0 -461 206 -461 461c0 254 206 461 461 461c253 0 460 -207 460 -461c0 -255 -207 -461 -460 -461z" />
    <glyph glyph-name="dollar" unicode="$" horiz-adv-x="1673" 
d="M163 288c175 -25 394 -45 562 -45c292 0 496 64 496 370c0 268 -198 331 -460 410c-404 122 -639 232 -639 645c0 408 215 574 608 609v313h230v-307c195 -4 394 -28 541 -56l-29 -248c-140 21 -307 41 -465 41c-263 0 -570 -26 -570 -309c0 -284 154 -327 489 -421
c387 -108 622 -260 622 -665c0 -410 -216 -595 -608 -638v-317h-230v306c-231 2 -405 23 -578 58z" />
    <glyph glyph-name="cent" unicode="&#xa2;" horiz-adv-x="1438" 
d="M1302 530l28 -231c-117 -26 -241 -47 -390 -54v-306h-216v310c-478 53 -565 450 -565 899c0 503 102 798 565 858v315h216v-303c155 -2 280 -26 387 -55l-24 -223c-86 15 -196 33 -293 33c-501 0 -550 -160 -550 -625c0 -436 30 -655 549 -655c93 0 203 19 293 37z" />
    <glyph glyph-name="Euro" unicode="&#x20ac;" horiz-adv-x="1804" 
d="M1625 281l24 -244c-131 -35 -295 -61 -476 -61c-555 0 -745 267 -784 870h-255l42 194h206c-1 29 -1 59 -1 90c0 40 0 78 1 116h-228l43 194h194c43 584 235 844 782 844c180 0 345 -25 476 -60l-25 -246c-125 23 -269 42 -384 42c-405 0 -504 -219 -528 -580h754
l-43 -194h-718v-206h672l-42 -194h-624c22 -378 118 -606 529 -606c117 0 257 18 385 41z" />
    <glyph glyph-name="sterling" unicode="&#xa3;" horiz-adv-x="1940" 
d="M488 1021h-338v241h302c-17 117 -30 248 -30 407c0 492 360 615 795 615c286 0 426 -97 578 -241l-162 -190c-121 102 -241 162 -404 162c-381 0 -484 -133 -484 -426c0 -107 14 -214 29 -327h516v-241h-487c6 -71 11 -145 11 -224c0 -188 -56 -365 -127 -526h530
c181 0 381 16 532 38l29 -250c-164 -34 -456 -59 -744 -59h-558c-114 0 -161 56 -161 125c0 109 193 310 193 644c0 87 -9 168 -20 252z" />
    <glyph glyph-name="yen" unicode="&#xa5;" horiz-adv-x="1805" 
d="M434 2260l470 -1053l480 1053h315l-519 -1122h283v-209h-380l-24 -53v-167h404v-206h-404v-503h-318v503h-398v206h398v167l-25 53h-373v209h278l-514 1122h327z" />
    <glyph glyph-name="florin" unicode="&#x192;" horiz-adv-x="1536" 
d="M609 1410l50 369c44 323 280 505 602 505c64 0 143 -9 203 -21l-33 -243c-46 9 -98 13 -146 13c-230 0 -306 -172 -334 -377l-34 -246h430l-32 -241h-431l-135 -980c-59 -428 -309 -642 -659 -642c-35 0 -72 2 -105 6l33 241h39c200 0 347 105 381 358l138 1017h-369
l32 241h370z" />
    <glyph glyph-name="currency" unicode="&#xa4;" horiz-adv-x="2058" 
d="M1630 701l240 -231l-188 -188l-237 240c-122 -82 -267 -130 -417 -130c-159 0 -302 49 -420 131l-237 -241l-184 188l240 234c-83 118 -130 260 -130 410c0 157 49 301 131 419l-241 237l184 185l241 -240c119 82 263 130 416 130c157 0 300 -47 418 -127l236 236
l188 -184l-240 -233c86 -120 136 -267 136 -423s-51 -297 -136 -413zM1028 655c243 0 465 199 465 461c0 253 -203 465 -465 465c-249 0 -461 -203 -461 -465c0 -247 198 -461 461 -461z" />
    <glyph glyph-name="plus" unicode="+" horiz-adv-x="1934" 
d="M822 1120v677h287v-677h676v-279h-676v-681h-287v681h-673v279h673z" />
    <glyph glyph-name="minus" unicode="&#x2212;" horiz-adv-x="1934" 
d="M149 839v279h1636v-279h-1636z" />
    <glyph glyph-name="multiply" unicode="&#xd7;" horiz-adv-x="1805" 
d="M1099 981l537 -537l-195 -199l-539 538l-537 -538l-196 196l538 537l-538 538l199 196l536 -537l537 537l192 -195z" />
    <glyph glyph-name="divide" unicode="&#xf7;" horiz-adv-x="1934" 
d="M967 85c-115 0 -208 93 -208 209s93 208 208 208s209 -92 209 -208s-94 -209 -209 -209zM967 1455c-115 0 -208 93 -208 209c0 115 93 207 208 207s209 -92 209 -207c0 -116 -94 -209 -209 -209zM149 839v279h1636v-279h-1636z" />
    <glyph glyph-name="equal" unicode="=" horiz-adv-x="2121" 
d="M242 491v279h1636v-279h-1636zM242 1188v279h1636v-279h-1636z" />
    <glyph glyph-name="notequal" unicode="&#x2260;" horiz-adv-x="2122" 
d="M242 490v279h614l183 418h-797v279h919l233 531h225l-233 -531h493v-279h-615l-184 -418h799v-279h-921l-232 -530h-224l232 530h-492z" />
    <glyph glyph-name="approxequal" unicode="&#x2248;" horiz-adv-x="2164" 
d="M1921 842v-280c-117 -124 -307 -177 -466 -177c-317 0 -443 211 -747 211c-159 0 -348 -54 -466 -178v281c118 124 307 177 466 177c316 0 444 -211 747 -211c159 0 349 54 466 177zM1921 1539v-282c-117 -124 -307 -177 -466 -177c-317 0 -443 212 -747 212
c-159 0 -348 -54 -466 -178v281c118 124 307 177 466 177c316 0 444 -211 747 -211c159 0 349 54 466 178z" />
    <glyph glyph-name="plusminus" unicode="&#xb1;" horiz-adv-x="1994" 
d="M849 1356v576h296v-576h670v-276h-670v-583h-296v583h-670v276h670zM179 25v279h1636v-279h-1636z" />
    <glyph glyph-name="less" unicode="&#x3c;" horiz-adv-x="2012" 
d="M141 846v265l1635 731v-299l-1273 -564l1273 -565v-299z" />
    <glyph glyph-name="greater" unicode="&#x3e;" horiz-adv-x="2012" 
d="M236 414l1273 565l-1273 564v299l1635 -731v-265l-1635 -731v299z" />
    <glyph glyph-name="lessequal" unicode="&#x2264;" horiz-adv-x="2067" 
d="M194 1077v253l1634 670v-297l-1256 -500l1256 -499v-297zM194 -43v280h1634v-280h-1634z" />
    <glyph glyph-name="greaterequal" unicode="&#x2265;" horiz-adv-x="2068" 
d="M239 704l1256 499l-1256 500v297l1634 -670v-253l-1634 -670v297zM239 -43v280h1634v-280h-1634z" />
    <glyph glyph-name="fraction" unicode="&#x2044;" horiz-adv-x="531" 
d="M-536 -48l1368 2426h235l-1369 -2426h-234z" />
    <glyph glyph-name="logicalnot" unicode="&#xac;" horiz-adv-x="2100" 
d="M1840 1310v-989h-300v710h-1336v279h1636z" />
    <glyph glyph-name="asciitilde" unicode="~" horiz-adv-x="2048" 
d="M1584 1336h275c-34 -378 -223 -564 -448 -564c-383 0 -497 294 -725 294c-120 0 -187 -90 -221 -281h-275c33 378 222 564 447 564c383 0 498 -295 726 -295c119 0 186 91 221 282z" />
    <glyph glyph-name="infinity" unicode="&#x221e;" horiz-adv-x="2727" 
d="M679 1536c202 0 399 -121 576 -337c188 233 381 460 668 460c387 0 606 -324 606 -681c0 -355 -219 -681 -606 -681c-288 0 -482 229 -668 458c-176 -216 -374 -330 -576 -330c-298 0 -512 267 -512 553c0 288 214 558 512 558zM679 689c118 0 240 69 417 289
c-177 222 -299 293 -417 293c-141 0 -250 -110 -250 -293c0 -182 109 -289 250 -289zM1923 566c191 0 334 146 334 412c0 268 -143 414 -334 414c-201 0 -390 -247 -503 -414c113 -167 302 -412 503 -412z" />
    <glyph glyph-name="mu" unicode="&#xb5;" horiz-adv-x="2043" 
d="M301 -656v2437h286v-1116c0 -239 120 -423 357 -423c307 0 455 303 455 723v816h288v-1138c0 -230 0 -400 157 -453v-214c-272 0 -368 180 -405 369h-2c-101 -242 -280 -369 -493 -369c-144 0 -256 52 -358 166v-798h-285z" />
    <glyph glyph-name="pi" unicode="&#x3c0;" horiz-adv-x="2273" 
d="M2151 1518h-433c-34 -199 -50 -464 -50 -685c0 -401 122 -606 418 -606l-22 -251c-566 0 -684 319 -684 734c0 240 23 542 62 808h-584c-45 -719 -119 -1268 -196 -1518h-323c134 448 192 888 243 1517h-110c-125 0 -205 -20 -328 -79l-74 172c110 114 279 171 509 171
h1602z" />
    <glyph glyph-name="partialdiff" unicode="&#x2202;" horiz-adv-x="1793" 
d="M746 -24c-407 0 -607 333 -607 704c0 485 271 831 737 831c197 0 351 -112 423 -204c-8 583 -163 899 -523 899c-154 0 -251 -43 -365 -112l-58 190c128 90 285 156 501 156c516 0 746 -466 746 -1142c0 -777 -312 -1322 -854 -1322zM896 1284
c-290 0 -447 -291 -447 -603c0 -243 107 -486 331 -486c328 0 471 451 501 841c-89 144 -206 248 -385 248z" />
    <glyph glyph-name="Delta" unicode="&#x2206;" horiz-adv-x="2175" 
d="M2060 200v-200h-1943v194l806 2136h348zM1720 252l-633 1720l-640 -1720h1273z" />
    <glyph glyph-name="Omega" unicode="&#x2126;" horiz-adv-x="2490" 
d="M172 0v259h451c-222 220 -403 559 -403 982c0 655 451 1113 1038 1113c618 0 1015 -523 1015 -1100c0 -436 -189 -786 -406 -995h451v-259h-872v198c257 163 516 515 516 1014c0 411 -238 882 -707 882c-444 0 -723 -396 -723 -889c0 -470 259 -846 516 -1007v-198h-876z
" />
    <glyph glyph-name="summation" unicode="&#x2211;" horiz-adv-x="2021" 
d="M134 2400h1737v-262h-1316l847 -1119l-912 -1178h1435v-285h-1831v207l940 1217l-900 1209v211z" />
    <glyph glyph-name="product" unicode="&#x220f;" horiz-adv-x="2585" 
d="M2470 2400v-274h-384v-2570h-316v2570h-952v-2570h-315v2570h-388v274h2355z" />
    <glyph glyph-name="integral" unicode="&#x222b;" horiz-adv-x="1197" 
d="M1213 2433c-45 32 -114 60 -180 60c-284 0 -308 -367 -308 -620c0 -534 60 -1066 60 -1620c0 -340 -111 -839 -565 -839c-108 0 -245 45 -305 81l59 230c48 -29 136 -63 223 -63c221 0 296 235 296 606c0 508 -57 1126 -57 1632c0 377 95 830 585 830
c92 0 204 -42 255 -76z" />
    <glyph glyph-name="radical" unicode="&#x221a;" horiz-adv-x="1872" 
d="M1796 2848l-694 -3040h-279l-476 1384l-228 -90l-67 214l500 197l400 -1241l579 2576h265z" />
    <glyph glyph-name="ampersand" unicode="&#x26;" horiz-adv-x="2232" 
d="M2129 0h-376l-170 199c-163 -155 -376 -223 -673 -223c-516 0 -762 217 -762 659c0 329 213 506 505 639c-122 148 -253 306 -253 543c0 397 267 537 607 537c304 0 584 -134 584 -505c0 -331 -245 -507 -529 -632l514 -583c71 126 109 279 124 468l289 -13
c-29 -289 -96 -495 -219 -683zM1300 1814c0 230 -125 302 -304 302c-167 0 -305 -83 -305 -309c0 -174 113 -298 215 -411c190 93 394 208 394 418zM1405 405l-593 683c-206 -119 -352 -227 -352 -482c0 -294 261 -390 489 -390c210 0 359 90 456 189z" />
    <glyph glyph-name="numbersign" unicode="#" horiz-adv-x="1904" 
d="M219 1646h373c9 72 87 612 96 684h237l-96 -684h408c9 72 88 612 97 684h237l-97 -684h297v-232h-329l-69 -495h305v-232h-339l-97 -687h-238l98 687h-409l-97 -687h-237l97 687h-324v232h358l69 495h-340v232zM1137 919l68 495h-409l-69 -495h410z" />
    <glyph glyph-name="percent" unicode="%" horiz-adv-x="2787" 
d="M652 966c-414 0 -499 226 -499 688s85 688 499 688s499 -226 499 -688s-85 -688 -499 -688zM652 1144c264 0 274 206 274 510c0 303 -10 510 -274 510s-273 -207 -273 -510c0 -304 9 -510 273 -510zM2126 -12c-413 0 -498 226 -498 689c0 461 85 688 498 688
c415 0 500 -227 500 -688c0 -463 -85 -689 -500 -689zM2126 167c264 0 274 206 274 510c0 303 -10 510 -274 510c-263 0 -272 -207 -272 -510c0 -304 10 -510 272 -510zM587 -48l1368 2426h235l-1369 -2426h-234z" />
    <glyph glyph-name="perthousand" unicode="&#x2030;" horiz-adv-x="3961" 
d="M652 966c-414 0 -499 226 -499 688s85 688 499 688s499 -226 499 -688s-85 -688 -499 -688zM652 1144c263 0 274 206 274 510c0 303 -11 510 -274 510c-264 0 -273 -207 -273 -510c0 -304 9 -510 273 -510zM2128 -12c-413 0 -498 226 -498 689c0 461 85 688 498 688
c415 0 500 -227 500 -688c0 -463 -85 -689 -500 -689zM2128 167c264 0 274 206 274 510c0 303 -9 510 -274 510c-263 0 -272 -207 -272 -510c0 -304 9 -510 272 -510zM3301 -12c-414 0 -499 226 -499 689c0 461 85 688 499 688c415 0 499 -227 499 -688
c0 -463 -84 -689 -499 -689zM3301 167c263 0 274 206 274 510c0 303 -11 510 -274 510c-264 0 -272 -207 -272 -510c0 -304 8 -510 272 -510zM589 -48l1367 2426h235l-1368 -2426h-234z" />
    <glyph glyph-name="at" unicode="@" horiz-adv-x="3039" 
d="M2821 1318c31 -125 47 -269 47 -427c0 -844 -479 -1189 -1343 -1189c-868 0 -1342 345 -1342 1189c0 867 497 1189 1377 1189c344 0 630 -129 630 -546v-719c0 -110 -4 -212 -12 -315c-163 -91 -412 -149 -676 -149c-468 0 -656 181 -656 540c0 299 145 482 460 543
c146 28 402 41 584 50c0 264 -84 346 -347 346c-659 0 -1051 -217 -1051 -939c0 -711 382 -939 1033 -939c653 0 1035 228 1035 939c0 126 -11 244 -33 341zM1890 921v350c-129 -3 -364 -16 -469 -44c-189 -50 -272 -123 -272 -330c0 -244 138 -308 392 -308
c96 0 248 29 340 71c6 79 9 179 9 261z" />
    <glyph glyph-name="underscore" unicode="_" horiz-adv-x="1670" 
d="M-10 -470v167h1690v-167h-1690z" />
    <glyph glyph-name="slash" unicode="/" horiz-adv-x="1431" 
d="M92 -268l945 2680h279l-946 -2680h-278z" />
    <glyph glyph-name="backslash" unicode="\" horiz-adv-x="1431" 
d="M1061 -268l-946 2680h279l945 -2680h-278z" />
    <glyph glyph-name="bar" unicode="|" horiz-adv-x="815" 
d="M274 -656v3125h267v-3125h-267z" />
    <glyph glyph-name="brokenbar" unicode="&#xa6;" horiz-adv-x="751" 
d="M242 -471v1076h267v-1076h-267zM242 1209v1075h267v-1075h-267z" />
    <glyph glyph-name="asciicircum" unicode="^" horiz-adv-x="1678" 
d="M699 2330h281l560 -1268h-290l-410 927l-412 -927h-290z" />
    <glyph glyph-name="uni2192" unicode="&#x2192;" horiz-adv-x="2345" 
d="M2196 978l-740 -795h-316l541 656h-1532v279h1532l-541 655h316z" />
    <glyph glyph-name="uni2193" unicode="&#x2193;" horiz-adv-x="1889" 
d="M1740 1011v-316l-795 -740l-796 740v316l656 -541v1532h280v-1532z" />
    <glyph glyph-name="uni2190" unicode="&#x2190;" horiz-adv-x="2345" 
d="M664 839l541 -656h-316l-740 795l740 795h316l-541 -655h1532v-279h-1532z" />
    <glyph glyph-name="uni2191" unicode="&#x2191;" horiz-adv-x="1888" 
d="M1084 1487v-1532h-280v1532l-655 -540v316l795 739l795 -739v-316z" />
    <glyph glyph-name="copyright" unicode="&#xa9;" horiz-adv-x="2718" 
d="M1723 921h222c-27 -292 -278 -475 -570 -475c-414 0 -615 319 -615 723c0 361 211 715 615 715c250 0 529 -136 570 -435h-222c-27 161 -168 247 -348 247c-219 0 -379 -193 -379 -527c0 -333 145 -525 379 -525c171 0 318 104 348 277zM1359 2354
c660 0 1189 -525 1189 -1185c0 -661 -529 -1193 -1189 -1193c-661 0 -1189 532 -1189 1193c0 660 528 1185 1189 1185zM1359 2159c-552 0 -983 -432 -983 -990c0 -565 431 -998 983 -998c551 0 982 433 982 998c0 558 -431 990 -982 990z" />
    <glyph glyph-name="registered" unicode="&#xae;" horiz-adv-x="1759" 
d="M757 1569v-336h-154v826h294c232 0 323 -88 323 -243c0 -113 -57 -195 -165 -224l177 -359h-173l-162 336h-140zM157 1633c0 402 321 721 723 721c401 0 722 -319 722 -721s-321 -724 -722 -724c-402 0 -723 322 -723 724zM1455 1633c0 327 -252 580 -575 580
s-576 -253 -576 -580c0 -331 253 -584 576 -584s575 253 575 584zM877 1930h-120v-232h124c129 0 188 37 188 118c0 85 -63 114 -192 114z" />
    <glyph glyph-name="trademark" unicode="&#x2122;" horiz-adv-x="3230" 
d="M2950 933h-222v1111h-2l-458 -1111h-148l-456 1111h-2v-1111h-223v1397h331l430 -1042l422 1042h328v-1397zM1239 2330v-192h-438v-1205h-221v1205h-439v192h1098z" />
    <glyph glyph-name="uni2113" unicode="&#x2113;" horiz-adv-x="1649" 
d="M388 914c0 834 42 1503 604 1503c266 0 390 -220 390 -481c0 -401 -341 -785 -698 -1077c32 -426 109 -666 376 -666c140 0 237 81 364 209l115 -130c-144 -195 -329 -296 -545 -296c-393 0 -546 333 -593 705l-224 -137l-83 166zM680 1142c278 270 453 514 453 804
c0 133 -34 271 -162 271c-314 0 -279 -705 -291 -1075z" />
    <glyph glyph-name="degree" unicode="&#xb0;" horiz-adv-x="1282" 
d="M641 1377c-270 0 -489 219 -489 489c0 269 219 488 489 488c269 0 489 -219 489 -488c0 -270 -220 -489 -489 -489zM641 1575c162 0 291 128 291 291c0 161 -129 290 -291 290s-291 -129 -291 -290c0 -163 129 -291 291 -291z" />
    <glyph glyph-name="estimated" unicode="&#x212e;" horiz-adv-x="2743" 
d="M2229 496h206c-253 -308 -577 -520 -1055 -520c-721 0 -1212 472 -1212 1095c0 580 466 1095 1212 1095c761 0 1160 -471 1216 -1095h-1898v-741c184 -155 411 -236 682 -236c357 0 638 133 849 402zM698 1809v-619h1368v619c-200 159 -422 240 -686 240
c-266 0 -498 -81 -682 -240z" />
    <glyph glyph-name="lozenge" unicode="&#x25ca;" horiz-adv-x="1819" 
d="M1681 1167l-637 -1245h-267l-638 1245l638 1241h267zM911 219l468 948l-468 951l-468 -951z" />
    <glyph glyph-name="dieresis" unicode="&#xa8;" horiz-adv-x="1332" 
d="M372 1946c-98 0 -177 76 -177 174s79 175 177 175s171 -77 171 -175s-73 -174 -171 -174zM965 1946c-98 0 -175 76 -175 174s77 175 175 175s172 -77 172 -175s-74 -174 -172 -174z" />
    <glyph glyph-name="acute" unicode="&#xb4;" horiz-adv-x="799" 
d="M103 1893l302 501h350l-410 -501h-242z" />
    <glyph glyph-name="grave" unicode="`" horiz-adv-x="798" 
d="M454 1893l-410 501h350l302 -501h-242z" />
    <glyph glyph-name="circumflex" unicode="&#x2c6;" horiz-adv-x="1135" 
d="M455 2394h219l345 -501h-243l-208 319l-212 -319h-240z" />
    <glyph glyph-name="caron" unicode="&#x2c7;" horiz-adv-x="1075" 
d="M86 2394h244l208 -318l212 318h239l-338 -501h-219z" />
    <glyph glyph-name="breve" unicode="&#x2d8;" horiz-adv-x="1095" 
d="M784 2356h186c-20 -234 -147 -424 -423 -424c-275 0 -403 190 -422 424h185c17 -120 93 -229 237 -229s220 109 237 229z" />
    <glyph glyph-name="tilde" unicode="&#x2dc;" horiz-adv-x="1193" 
d="M847 2309h178c-20 -244 -138 -362 -256 -362c-194 0 -219 173 -315 173c-55 0 -89 -50 -107 -165h-179c20 243 139 361 256 361c194 0 219 -172 316 -172c54 0 89 49 107 165z" />
    <glyph glyph-name="hungarumlaut" unicode="&#x2dd;" horiz-adv-x="1291" 
d="M103 1882l287 500h338l-393 -500h-232zM621 1882l287 500h339l-393 -500h-233z" />
    <glyph glyph-name="ring" unicode="&#x2da;" horiz-adv-x="977" 
d="M488 1844c-184 0 -334 150 -334 334c0 185 150 335 334 335c185 0 335 -150 335 -335c0 -184 -150 -334 -335 -334zM488 1991c104 0 188 83 188 187s-84 188 -188 188c-103 0 -187 -84 -187 -188s84 -187 187 -187z" />
    <glyph glyph-name="dotaccent" unicode="&#x2d9;" horiz-adv-x="670" 
d="M337 1957c-102 0 -183 79 -183 181c0 103 81 182 183 182s179 -79 179 -182c0 -102 -77 -181 -179 -181z" />
    <glyph glyph-name="macron" unicode="&#xaf;" horiz-adv-x="1415" 
d="M231 2009v209h952v-209h-952z" />
    <glyph glyph-name="cedilla" unicode="&#xb8;" horiz-adv-x="731" 
d="M139 -279l166 279h189l-115 -180c133 -7 259 -89 259 -232c0 -199 -175 -274 -363 -274c-87 0 -183 23 -251 62l53 139c66 -32 139 -49 198 -49c68 0 145 25 145 108c0 112 -184 147 -281 147z" />
    <glyph glyph-name="ogonek" unicode="&#x2db;" horiz-adv-x="722" 
d="M617 -455l53 -136c-75 -60 -185 -95 -276 -95c-173 0 -305 102 -305 274c0 165 133 325 234 412h181c-71 -70 -199 -212 -199 -342c0 -96 58 -159 152 -159c65 0 120 20 160 46z" />
    <glyph glyph-name="space" unicode=" " horiz-adv-x="900" 
 />
    <glyph glyph-name="uni200A" unicode="&#x200a;" horiz-adv-x="73" 
 />
    <glyph glyph-name="uni2070" unicode="&#x2070;" horiz-adv-x="1264" 
d="M632 1350c-414 0 -499 227 -499 688c0 462 85 689 499 689s500 -227 500 -689c0 -461 -86 -688 -500 -688zM632 1530c264 0 274 204 274 508s-10 510 -274 510s-273 -206 -273 -510s9 -508 273 -508z" />
    <glyph glyph-name="onesuperior" unicode="&#xb9;" horiz-adv-x="751" 
d="M358 1367v1123c-94 -24 -212 -47 -315 -61l-10 177c160 24 289 69 374 108h173v-1347h-222z" />
    <glyph glyph-name="twosuperior" unicode="&#xb2;" horiz-adv-x="1126" 
d="M134 2510l-21 171c128 23 279 44 429 44c277 0 477 -78 477 -334c0 -248 -145 -396 -396 -498c-203 -82 -248 -173 -274 -342h669v-189h-927c73 410 117 564 420 692c175 74 281 151 281 301c0 146 -88 185 -335 185c-98 0 -230 -16 -323 -30z" />
    <glyph glyph-name="threesuperior" unicode="&#xb3;" horiz-adv-x="1120" 
d="M493 2727c256 0 491 -53 491 -336c0 -145 -63 -253 -182 -316c114 -49 204 -144 204 -304c0 -323 -199 -421 -521 -421c-148 0 -281 19 -404 43l25 172c120 -15 237 -30 333 -30c226 0 334 42 334 226c0 124 -67 193 -176 206c-70 9 -141 11 -245 11h-58v166
c118 3 218 11 302 24c109 16 159 90 159 192c0 171 -118 185 -287 185c-112 0 -230 -14 -351 -31l-22 171c125 23 245 42 398 42z" />
    <glyph glyph-name="uni2074" unicode="&#x2074;" horiz-adv-x="1197" 
d="M719 1362v313h-504c-125 0 -158 52 -158 122c0 35 18 91 84 176l500 644c61 78 114 108 181 108s119 -42 119 -134v-743h175v-173h-175v-313h-222zM720 2410l-428 -562h428v562z" />
    <glyph glyph-name="uni2075" unicode="&#x2075;" horiz-adv-x="1131" 
d="M375 2527l-22 -328c30 1 76 3 96 3c336 0 577 -50 577 -414c0 -314 -179 -435 -506 -435c-143 0 -285 16 -420 44l24 172c111 -16 231 -30 339 -30c238 0 331 43 331 270c0 194 -185 218 -391 218c-90 0 -185 -3 -273 -8l48 696h813v-188h-616z" />
    <glyph glyph-name="uni2076" unicode="&#x2076;" horiz-adv-x="1225" 
d="M642 2211c302 0 487 -82 487 -424c0 -353 -205 -440 -517 -440c-396 0 -487 216 -487 558c0 623 137 819 752 819c17 0 53 -1 145 -3l18 -175c-273 -13 -637 23 -675 -357c85 11 191 22 277 22zM605 2039c-70 0 -174 -12 -253 -23c-3 -44 -3 -86 -3 -137
c0 -179 29 -352 258 -352c226 0 298 71 298 263c0 207 -106 249 -300 249z" />
    <glyph glyph-name="uni2077" unicode="&#x2077;" horiz-adv-x="1039" 
d="M976 2534l-532 -1169h-253l561 1161h-697v187h799c93 0 142 -41 142 -105c0 -21 -7 -46 -20 -74z" />
    <glyph glyph-name="uni2078" unicode="&#x2078;" horiz-adv-x="1231" 
d="M615 2727c257 0 482 -81 482 -337c0 -147 -34 -241 -188 -324c127 -68 208 -160 208 -331c0 -316 -228 -385 -502 -385c-291 0 -501 89 -501 385c0 171 78 259 208 328c-134 74 -187 170 -187 327c0 255 218 337 480 337zM615 1526c155 0 281 37 281 215
c0 157 -84 212 -322 233c-144 -22 -239 -82 -239 -233c0 -176 124 -215 280 -215zM657 2150c137 27 227 75 227 211c0 164 -122 194 -269 194c-143 0 -265 -28 -265 -194c0 -128 79 -196 307 -211z" />
    <glyph glyph-name="uni2079" unicode="&#x2079;" horiz-adv-x="1224" 
d="M580 1866c-302 0 -488 82 -488 424c0 353 206 440 518 440c396 0 486 -216 486 -558c0 -623 -136 -819 -751 -819c-17 0 -53 1 -145 3l-18 175c273 13 637 -23 675 357c-85 -11 -191 -22 -277 -22zM617 2038c70 0 174 12 253 23c3 44 3 86 3 137c0 179 -29 352 -258 352
c-226 0 -298 -71 -298 -263c0 -207 105 -249 300 -249z" />
    <glyph glyph-name="uni2080" unicode="&#x2080;" horiz-adv-x="1264" 
d="M632 -398c-414 0 -499 227 -499 688c0 462 85 689 499 689s500 -227 500 -689c0 -461 -86 -688 -500 -688zM632 -218c264 0 274 204 274 508s-10 510 -274 510s-273 -206 -273 -510s9 -508 273 -508z" />
    <glyph glyph-name="uni2081" unicode="&#x2081;" horiz-adv-x="751" 
d="M358 -381v1123c-94 -24 -212 -47 -315 -61l-10 177c160 24 289 69 374 108h173v-1347h-222z" />
    <glyph glyph-name="uni2082" unicode="&#x2082;" horiz-adv-x="1126" 
d="M134 762l-21 171c128 23 279 44 429 44c277 0 477 -78 477 -334c0 -248 -145 -396 -396 -498c-203 -82 -248 -173 -274 -342h669v-189h-927c73 410 117 564 420 692c175 74 281 151 281 301c0 146 -88 185 -335 185c-98 0 -230 -16 -323 -30z" />
    <glyph glyph-name="uni2083" unicode="&#x2083;" horiz-adv-x="1120" 
d="M493 979c256 0 491 -53 491 -336c0 -145 -63 -253 -182 -316c114 -49 204 -144 204 -304c0 -323 -199 -421 -521 -421c-148 0 -281 19 -404 43l25 172c120 -15 237 -30 333 -30c226 0 334 42 334 226c0 124 -67 193 -176 206c-70 9 -141 11 -245 11h-58v166
c118 3 218 11 302 24c109 16 159 90 159 192c0 171 -118 185 -287 185c-112 0 -230 -14 -351 -31l-22 171c125 23 245 42 398 42z" />
    <glyph glyph-name="uni2084" unicode="&#x2084;" horiz-adv-x="1197" 
d="M719 -386v313h-504c-125 0 -158 52 -158 122c0 35 18 91 84 176l500 644c61 78 114 108 181 108s119 -42 119 -134v-743h175v-173h-175v-313h-222zM720 662l-428 -562h428v562z" />
    <glyph glyph-name="uni2085" unicode="&#x2085;" horiz-adv-x="1131" 
d="M375 779l-22 -328c30 1 76 3 96 3c336 0 577 -50 577 -414c0 -314 -179 -435 -506 -435c-143 0 -285 16 -420 44l24 172c111 -16 231 -30 339 -30c238 0 331 43 331 270c0 194 -185 218 -391 218c-90 0 -185 -3 -273 -8l48 696h813v-188h-616z" />
    <glyph glyph-name="uni2086" unicode="&#x2086;" horiz-adv-x="1225" 
d="M642 463c302 0 487 -82 487 -424c0 -353 -205 -440 -517 -440c-396 0 -487 216 -487 558c0 623 137 819 752 819c17 0 53 -1 145 -3l18 -175c-273 -13 -637 23 -675 -357c85 11 191 22 277 22zM605 291c-70 0 -174 -12 -253 -23c-3 -44 -3 -86 -3 -137
c0 -179 29 -352 258 -352c226 0 298 71 298 263c0 207 -106 249 -300 249z" />
    <glyph glyph-name="uni2087" unicode="&#x2087;" horiz-adv-x="1039" 
d="M976 786l-532 -1169h-253l561 1161h-697v187h799c93 0 142 -41 142 -105c0 -21 -7 -46 -20 -74z" />
    <glyph glyph-name="uni2088" unicode="&#x2088;" horiz-adv-x="1231" 
d="M615 979c257 0 482 -81 482 -337c0 -147 -34 -241 -188 -324c127 -68 208 -160 208 -331c0 -316 -228 -385 -502 -385c-291 0 -501 89 -501 385c0 171 78 259 208 328c-134 74 -187 170 -187 327c0 255 218 337 480 337zM615 -222c155 0 281 37 281 215
c0 157 -84 212 -322 233c-144 -22 -239 -82 -239 -233c0 -176 124 -215 280 -215zM657 402c137 27 227 75 227 211c0 164 -122 194 -269 194c-143 0 -265 -28 -265 -194c0 -128 79 -196 307 -211z" />
    <glyph glyph-name="uni2089" unicode="&#x2089;" horiz-adv-x="1224" 
d="M580 118c-302 0 -488 82 -488 424c0 353 206 440 518 440c396 0 486 -216 486 -558c0 -623 -136 -819 -751 -819c-17 0 -53 1 -145 3l-18 175c273 13 637 -23 675 357c-85 -11 -191 -22 -277 -22zM617 290c70 0 174 12 253 23c3 44 3 86 3 137c0 179 -29 352 -258 352
c-226 0 -298 -71 -298 -263c0 -207 105 -249 300 -249z" />
    <glyph glyph-name="zero.numerator" horiz-adv-x="1264" 
d="M632 965c-414 0 -499 227 -499 688c0 462 85 689 499 689s500 -227 500 -689c0 -461 -86 -688 -500 -688zM632 1145c264 0 274 204 274 508s-10 510 -274 510s-273 -206 -273 -510s9 -508 273 -508z" />
    <glyph glyph-name="one.numerator" horiz-adv-x="751" 
d="M358 982v1123c-94 -24 -212 -47 -315 -61l-10 177c160 24 289 69 374 108h173v-1347h-222z" />
    <glyph glyph-name="two.numerator" horiz-adv-x="1126" 
d="M134 2125l-21 171c128 23 279 44 429 44c277 0 477 -78 477 -334c0 -248 -145 -396 -396 -498c-203 -82 -248 -173 -274 -342h669v-189h-927c73 410 117 564 420 692c175 74 281 151 281 301c0 146 -88 185 -335 185c-98 0 -230 -16 -323 -30z" />
    <glyph glyph-name="three.numerator" horiz-adv-x="1120" 
d="M493 2342c256 0 491 -53 491 -336c0 -145 -63 -253 -182 -316c114 -49 204 -144 204 -304c0 -323 -199 -421 -521 -421c-148 0 -281 19 -404 43l25 172c120 -15 237 -30 333 -30c226 0 334 42 334 226c0 124 -67 193 -176 206c-70 9 -141 11 -245 11h-58v166
c118 3 218 11 302 24c109 16 159 90 159 192c0 171 -118 185 -287 185c-112 0 -230 -14 -351 -31l-22 171c125 23 245 42 398 42z" />
    <glyph glyph-name="four.numerator" horiz-adv-x="1197" 
d="M719 977v313h-504c-125 0 -158 52 -158 122c0 35 18 91 84 176l500 644c61 78 114 108 181 108s119 -42 119 -134v-743h175v-173h-175v-313h-222zM720 2025l-428 -562h428v562z" />
    <glyph glyph-name="five.numerator" horiz-adv-x="1131" 
d="M375 2142l-22 -328c30 1 76 3 96 3c336 0 577 -50 577 -414c0 -314 -179 -435 -506 -435c-143 0 -285 16 -420 44l24 172c111 -16 231 -30 339 -30c238 0 331 43 331 270c0 194 -185 218 -391 218c-90 0 -185 -3 -273 -8l48 696h813v-188h-616z" />
    <glyph glyph-name="six.numerator" horiz-adv-x="1225" 
d="M642 1826c302 0 487 -82 487 -424c0 -353 -205 -440 -517 -440c-396 0 -487 216 -487 558c0 623 137 819 752 819c17 0 53 -1 145 -3l18 -175c-273 -13 -637 23 -675 -357c85 11 191 22 277 22zM605 1654c-70 0 -174 -12 -253 -23c-3 -44 -3 -86 -3 -137
c0 -179 29 -352 258 -352c226 0 298 71 298 263c0 207 -106 249 -300 249z" />
    <glyph glyph-name="seven.numerator" horiz-adv-x="1039" 
d="M976 2149l-532 -1169h-253l561 1161h-697v187h799c93 0 142 -41 142 -105c0 -21 -7 -46 -20 -74z" />
    <glyph glyph-name="eight.numerator" horiz-adv-x="1231" 
d="M615 2342c257 0 482 -81 482 -337c0 -147 -34 -241 -188 -324c127 -68 208 -160 208 -331c0 -316 -228 -385 -502 -385c-291 0 -501 89 -501 385c0 171 78 259 208 328c-134 74 -187 170 -187 327c0 255 218 337 480 337zM615 1141c155 0 281 37 281 215
c0 157 -84 212 -322 233c-144 -22 -239 -82 -239 -233c0 -176 124 -215 280 -215zM657 1765c137 27 227 75 227 211c0 164 -122 194 -269 194c-143 0 -265 -28 -265 -194c0 -128 79 -196 307 -211z" />
    <glyph glyph-name="nine.numerator" horiz-adv-x="1224" 
d="M580 1481c-302 0 -488 82 -488 424c0 353 206 440 518 440c396 0 486 -216 486 -558c0 -623 -136 -819 -751 -819c-17 0 -53 1 -145 3l-18 175c273 13 637 -23 675 357c-85 -11 -191 -22 -277 -22zM617 1653c70 0 174 12 253 23c3 44 3 86 3 137c0 179 -29 352 -258 352
c-226 0 -298 -71 -298 -263c0 -207 105 -249 300 -249z" />
    <glyph glyph-name="zero.denominator" horiz-adv-x="1264" 
d="M632 -12c-414 0 -499 227 -499 688c0 462 85 689 499 689s500 -227 500 -689c0 -461 -86 -688 -500 -688zM632 168c264 0 274 204 274 508s-10 510 -274 510s-273 -206 -273 -510s9 -508 273 -508z" />
    <glyph glyph-name="one.denominator" horiz-adv-x="751" 
d="M358 5v1123c-94 -24 -212 -47 -315 -61l-10 177c160 24 289 69 374 108h173v-1347h-222z" />
    <glyph glyph-name="two.denominator" horiz-adv-x="1126" 
d="M134 1148l-21 171c128 23 279 44 429 44c277 0 477 -78 477 -334c0 -248 -145 -396 -396 -498c-203 -82 -248 -173 -274 -342h669v-189h-927c73 410 117 564 420 692c175 74 281 151 281 301c0 146 -88 185 -335 185c-98 0 -230 -16 -323 -30z" />
    <glyph glyph-name="three.denominator" horiz-adv-x="1120" 
d="M493 1365c256 0 491 -53 491 -336c0 -145 -63 -253 -182 -316c114 -49 204 -144 204 -304c0 -323 -199 -421 -521 -421c-148 0 -281 19 -404 43l25 172c120 -15 237 -30 333 -30c226 0 334 42 334 226c0 124 -67 193 -176 206c-70 9 -141 11 -245 11h-58v166
c118 3 218 11 302 24c109 16 159 90 159 192c0 171 -118 185 -287 185c-112 0 -230 -14 -351 -31l-22 171c125 23 245 42 398 42z" />
    <glyph glyph-name="four.denominator" horiz-adv-x="1197" 
d="M719 0v313h-504c-125 0 -158 52 -158 122c0 35 18 91 84 176l500 644c61 78 114 108 181 108s119 -42 119 -134v-743h175v-173h-175v-313h-222zM720 1048l-428 -562h428v562z" />
    <glyph glyph-name="five.denominator" horiz-adv-x="1131" 
d="M375 1165l-22 -328c30 1 76 3 96 3c336 0 577 -50 577 -414c0 -314 -179 -435 -506 -435c-143 0 -285 16 -420 44l24 172c111 -16 231 -30 339 -30c238 0 331 43 331 270c0 194 -185 218 -391 218c-90 0 -185 -3 -273 -8l48 696h813v-188h-616z" />
    <glyph glyph-name="six.denominator" horiz-adv-x="1225" 
d="M642 849c302 0 487 -82 487 -424c0 -353 -205 -440 -517 -440c-396 0 -487 216 -487 558c0 623 137 819 752 819c17 0 53 -1 145 -3l18 -175c-273 -13 -637 23 -675 -357c85 11 191 22 277 22zM605 677c-70 0 -174 -12 -253 -23c-3 -44 -3 -86 -3 -137
c0 -179 29 -352 258 -352c226 0 298 71 298 263c0 207 -106 249 -300 249z" />
    <glyph glyph-name="seven.denominator" horiz-adv-x="1039" 
d="M976 1172l-532 -1169h-253l561 1161h-697v187h799c93 0 142 -41 142 -105c0 -21 -7 -46 -20 -74z" />
    <glyph glyph-name="eight.denominator" horiz-adv-x="1231" 
d="M615 1365c257 0 482 -81 482 -337c0 -147 -34 -241 -188 -324c127 -68 208 -160 208 -331c0 -316 -228 -385 -502 -385c-291 0 -501 89 -501 385c0 171 78 259 208 328c-134 74 -187 170 -187 327c0 255 218 337 480 337zM615 164c155 0 281 37 281 215
c0 157 -84 212 -322 233c-144 -22 -239 -82 -239 -233c0 -176 124 -215 280 -215zM657 788c137 27 227 75 227 211c0 164 -122 194 -269 194c-143 0 -265 -28 -265 -194c0 -128 79 -196 307 -211z" />
    <glyph glyph-name="nine.denominator" horiz-adv-x="1224" 
d="M580 504c-302 0 -488 82 -488 424c0 353 206 440 518 440c396 0 486 -216 486 -558c0 -623 -136 -819 -751 -819c-17 0 -53 1 -145 3l-18 175c273 13 637 -23 675 357c-85 -11 -191 -22 -277 -22zM617 676c70 0 174 12 253 23c3 44 3 86 3 137c0 179 -29 352 -258 352
c-226 0 -298 -71 -298 -263c0 -207 105 -249 300 -249z" />
    <glyph glyph-name="zero.onum" horiz-adv-x="1911" 
d="M956 -24c-627 0 -755 320 -755 972c0 654 128 974 755 974c628 0 755 -320 755 -974c0 -652 -128 -972 -755 -972zM956 225c431 0 449 291 449 723c0 434 -17 725 -449 725s-449 -291 -449 -725c0 -432 17 -723 449 -723z" />
    <glyph glyph-name="one.onum" horiz-adv-x="1132" 
d="M571 0v1585c-153 -42 -348 -82 -507 -103l-14 248c245 37 449 108 582 170h242v-1900h-303z" />
    <glyph glyph-name="two.onum" horiz-adv-x="1715" 
d="M203 1631l-32 234c189 31 415 57 654 57c423 0 727 -107 727 -468c0 -354 -226 -561 -612 -702c-339 -123 -420 -252 -459 -494h1070v-258h-1413c115 580 184 795 650 971c290 110 470 222 470 430c0 213 -148 269 -568 269c-159 0 -355 -20 -487 -39z" />
    <glyph glyph-name="three.onum" horiz-adv-x="1687" 
d="M740 1922c387 0 741 -80 741 -510c0 -231 -102 -398 -297 -492c182 -68 331 -212 331 -473c0 -493 -300 -641 -789 -641c-227 0 -423 26 -604 61l34 243c175 -23 347 -45 500 -45c367 0 542 68 542 367c0 202 -112 312 -293 334c-110 13 -221 18 -375 18h-78v231
c163 4 320 18 453 37c183 27 267 147 267 313c0 279 -195 302 -472 302c-176 0 -350 -19 -526 -44l-31 238c183 35 362 61 597 61z" />
    <glyph glyph-name="four.onum" horiz-adv-x="1812" 
d="M1118 -172v487h-809c-176 0 -223 75 -223 175c0 54 25 136 126 267l778 1003c92 118 170 162 266 162c91 0 162 -60 162 -193v-1173h272v-241h-272v-487h-300zM1119 1507l-724 -951h724v951z" />
    <glyph glyph-name="five.onum" horiz-adv-x="1706" 
d="M535 1634l-37 -540c45 3 138 6 172 6c512 0 877 -76 877 -629c0 -481 -271 -666 -766 -666c-221 0 -433 24 -630 63l34 243c160 -26 336 -45 507 -45c389 0 538 70 538 436c0 315 -298 353 -630 353c-142 0 -266 -3 -402 -11l72 1056h1223v-266h-958z" />
    <glyph glyph-name="six.onum" horiz-adv-x="1853" 
d="M972 1293c456 0 736 -123 736 -645c0 -539 -310 -672 -783 -672c-600 0 -736 331 -736 857c0 959 209 1260 1150 1260c25 0 60 0 204 -3l26 -247c-446 -23 -1024 30 -1053 -585c137 18 313 35 456 35zM914 1054c-116 0 -290 -20 -416 -38c-6 -76 -7 -146 -7 -226
c0 -285 50 -563 426 -563c370 0 488 115 488 426c0 334 -174 401 -491 401z" />
    <glyph glyph-name="seven.onum" horiz-adv-x="1568" 
d="M1476 1641l-827 -1814h-346l873 1809h-1093v264h1223c129 0 197 -58 197 -149c0 -33 -8 -69 -27 -110z" />
    <glyph glyph-name="eight.onum" horiz-adv-x="1862" 
d="M932 2093c388 0 728 -123 728 -512c0 -232 -57 -377 -305 -505c208 -101 335 -237 335 -514c0 -481 -345 -586 -758 -586c-440 0 -759 135 -759 587c0 275 123 404 335 511c-222 111 -303 256 -303 507c0 389 330 512 727 512zM932 222c254 0 459 59 459 349
c0 254 -137 344 -523 378c-233 -38 -396 -137 -396 -378c0 -287 203 -349 460 -349zM999 1194c216 45 374 125 374 342c0 268 -201 317 -441 317c-237 0 -436 -47 -436 -317c0 -208 128 -320 503 -342z" />
    <glyph glyph-name="nine.onum" horiz-adv-x="1852" 
d="M875 605c-455 0 -735 123 -735 645c0 539 310 672 782 672c600 0 737 -331 737 -857c0 -959 -209 -1260 -1150 -1260c-25 0 -61 0 -204 3l-26 247c445 23 1024 -30 1053 585c-138 -18 -313 -35 -457 -35zM933 844c116 0 291 20 417 38c6 76 6 146 6 226
c0 285 -49 563 -426 563c-370 0 -487 -115 -487 -426c0 -334 173 -401 490 -401z" />
    <glyph glyph-name="dollar.onum" horiz-adv-x="1543" 
d="M152 278c162 -25 366 -42 519 -42c261 0 443 57 443 329c0 225 -174 293 -413 365c-369 112 -588 214 -588 594c0 374 196 528 553 561v286h226v-279c177 -4 357 -26 494 -53l-28 -242c-132 20 -286 39 -431 39c-236 0 -510 -24 -510 -273c0 -261 170 -298 438 -374
c356 -100 573 -241 573 -615c0 -375 -197 -546 -553 -587v-290h-226v279c-207 2 -366 22 -527 55z" />
    <glyph glyph-name="cent.onum" horiz-adv-x="1329" 
d="M1203 499l26 -228c-107 -24 -221 -43 -355 -50v-278h-213v282c-435 52 -514 416 -514 826c0 459 93 731 514 788v287h213v-275c140 -3 255 -24 352 -51l-23 -219c-101 16 -194 29 -273 29c-449 0 -492 -142 -492 -559c0 -391 26 -588 490 -588c85 0 189 19 275 36z" />
    <glyph glyph-name="Euro.onum" horiz-adv-x="1666" 
d="M142 1131l44 194h175c41 532 218 768 720 768c166 0 320 -23 442 -56l-24 -241c-118 22 -254 40 -356 40c-358 0 -450 -193 -473 -511h689l-44 -194h-652v-170h615l-43 -193h-566c21 -333 110 -535 474 -535c103 0 235 18 356 39l24 -239c-122 -33 -275 -57 -442 -57
c-510 0 -685 244 -721 792h-236l43 193h185v73c0 33 0 65 1 97h-211z" />
    <glyph glyph-name="sterling.onum" horiz-adv-x="1789" 
d="M446 929h-308v236h273c-14 104 -25 221 -25 361c0 455 331 568 731 568c264 0 395 -90 538 -226l-158 -186c-113 95 -223 152 -370 152c-338 0 -431 -119 -431 -379c0 -95 11 -191 25 -290h471v-236h-443c6 -63 10 -128 10 -196c0 -168 -49 -323 -112 -469h470
c164 0 348 14 492 36l28 -245c-154 -31 -423 -55 -686 -55h-508c-110 0 -155 54 -155 122c0 103 176 283 176 586c0 75 -8 147 -18 221z" />
    <glyph glyph-name="yen.onum" horiz-adv-x="1671" 
d="M415 2073l421 -946l433 946h304l-473 -1021h254v-207h-349l-19 -41v-142h368v-204h-368v-458h-306v458h-362v204h362v142l-19 41h-343v207h248l-467 1021h316z" />
    <glyph glyph-name="zero.tnum" horiz-adv-x="1970" 
d="M985 -24c-681 0 -820 380 -820 1154s139 1154 820 1154c682 0 821 -380 821 -1154s-139 -1154 -821 -1154zM985 233c485 0 503 362 503 897s-18 898 -503 898s-501 -363 -501 -898s17 -897 501 -897z" />
    <glyph glyph-name="one.tnum" horiz-adv-x="1970" 
d="M996 0v1936c-164 -46 -373 -88 -541 -111l-14 254c257 40 472 115 615 181h254v-2260h-314z" />
    <glyph glyph-name="two.tnum" horiz-adv-x="1970" 
d="M278 1971l-30 244c203 37 445 69 699 69c454 0 782 -126 782 -546c0 -415 -239 -660 -656 -830c-377 -153 -450 -314 -494 -634h1149v-274h-1514c119 673 190 924 694 1137c311 132 502 270 502 538c0 271 -159 343 -609 343c-170 0 -380 -24 -523 -47z" />
    <glyph glyph-name="three.tnum" horiz-adv-x="1970" 
d="M870 2284c422 0 807 -86 807 -551c0 -261 -115 -444 -343 -543c206 -70 380 -227 380 -518c0 -535 -327 -696 -858 -696c-250 0 -461 29 -654 66l35 249c175 -23 368 -48 542 -48c409 0 605 76 605 412c0 228 -124 353 -331 377c-122 14 -257 19 -412 19h-76v236
c170 4 341 19 488 41c208 30 301 165 301 353c0 315 -217 341 -527 341c-193 0 -381 -22 -570 -48l-32 244c196 37 388 66 645 66z" />
    <glyph glyph-name="four.tnum" horiz-adv-x="1970" 
d="M1228 0v536h-899c-186 0 -236 78 -236 183c0 57 28 146 138 288l855 1103c99 127 181 174 284 174c94 0 169 -63 169 -203v-1299h299v-246h-299v-536h-311zM1229 1865l-825 -1083h825v1083z" />
    <glyph glyph-name="five.tnum" horiz-adv-x="1970" 
d="M626 1987l-42 -613c51 3 157 7 199 7c557 0 955 -83 955 -683c0 -522 -295 -722 -833 -722c-242 0 -471 25 -681 68l33 249c173 -27 364 -49 551 -49c433 0 600 78 600 489c0 355 -332 397 -702 397c-156 0 -282 -3 -432 -11l78 1141h1326v-273h-1052z" />
    <glyph glyph-name="six.tnum" horiz-adv-x="1970" 
d="M1034 1405c496 0 800 -134 800 -700c0 -585 -338 -729 -851 -729c-652 0 -800 360 -800 932c0 1047 227 1376 1253 1376c28 0 59 0 217 -3l26 -254c-476 -20 -1138 45 -1156 -662c152 20 350 40 511 40zM971 1161c-132 0 -328 -23 -467 -43c-7 -92 -7 -171 -7 -256
c0 -319 54 -628 477 -628c413 0 545 128 545 476c0 375 -194 451 -548 451z" />
    <glyph glyph-name="seven.tnum" horiz-adv-x="1970" 
d="M1737 1989l-906 -1989h-361l960 1989h-1207v271h1335c137 0 208 -60 208 -154c0 -35 -10 -74 -29 -117z" />
    <glyph glyph-name="eight.tnum" horiz-adv-x="1970" 
d="M986 2284c421 0 791 -133 791 -552c0 -258 -62 -415 -347 -556c230 -110 380 -262 380 -566c0 -521 -375 -634 -824 -634c-479 0 -825 146 -825 636c0 300 144 444 380 561c-247 121 -344 282 -344 559c0 418 358 552 789 552zM986 228c284 0 514 67 514 393
c0 286 -152 386 -586 423c-267 -39 -443 -149 -443 -423c0 -323 228 -393 515 -393zM1060 1296c254 50 420 136 420 385c0 303 -225 358 -494 358c-264 0 -488 -52 -488 -358c0 -234 142 -360 562 -385z" />
    <glyph glyph-name="nine.tnum" horiz-adv-x="1970" 
d="M930 855c-496 0 -800 134 -800 700c0 585 338 729 851 729c652 0 800 -360 800 -932c0 -1047 -228 -1376 -1254 -1376c-28 0 -58 0 -216 3l-26 254c475 20 1137 -45 1156 662c-152 -20 -351 -40 -511 -40zM993 1099c132 0 327 23 466 43c8 92 8 171 8 256
c0 319 -54 628 -477 628c-414 0 -545 -128 -545 -476c0 -375 194 -451 548 -451z" />
    <glyph glyph-name="dollar.tnum" horiz-adv-x="1970" 
d="M312 288c175 -25 394 -45 562 -45c292 0 496 64 496 370c0 268 -198 331 -460 410c-404 122 -639 232 -639 645c0 408 215 574 608 609v313h230v-307c195 -4 394 -28 541 -56l-29 -248c-140 21 -307 41 -465 41c-263 0 -570 -26 -570 -309c0 -284 154 -327 489 -421
c387 -108 622 -260 622 -665c0 -410 -216 -595 -608 -638v-317h-230v306c-231 2 -405 23 -578 58z" />
    <glyph glyph-name="cent.tnum" horiz-adv-x="1970" 
d="M1568 530l28 -231c-117 -26 -241 -47 -390 -54v-306h-216v310c-478 53 -565 450 -565 899c0 503 102 798 565 858v315h216v-303c155 -2 280 -26 387 -55l-24 -223c-86 15 -196 33 -293 33c-501 0 -550 -160 -550 -625c0 -436 30 -655 549 -655c93 0 203 19 293 37z" />
    <glyph glyph-name="Euro.tnum" horiz-adv-x="1970" 
d="M1708 281l24 -244c-131 -35 -295 -61 -476 -61c-555 0 -745 267 -784 870h-255l42 194h206c-1 29 -1 59 -1 90c0 40 0 78 1 116h-228l43 194h194c43 584 235 844 782 844c180 0 345 -25 476 -60l-25 -246c-125 23 -269 42 -384 42c-405 0 -504 -219 -528 -580h754
l-43 -194h-718v-206h672l-42 -194h-624c22 -378 118 -606 529 -606c117 0 257 18 385 41z" />
    <glyph glyph-name="sterling.tnum" horiz-adv-x="1970" 
d="M503 1021h-338v241h302c-17 117 -30 248 -30 407c0 492 360 615 795 615c286 0 426 -97 578 -241l-162 -190c-121 102 -241 162 -404 162c-381 0 -484 -133 -484 -426c0 -107 14 -214 29 -327h516v-241h-487c6 -71 11 -145 11 -224c0 -188 -56 -365 -127 -526h530
c181 0 381 16 532 38l29 -250c-164 -34 -456 -59 -744 -59h-558c-114 0 -161 56 -161 125c0 109 193 310 193 644c0 87 -9 168 -20 252z" />
    <glyph glyph-name="yen.tnum" horiz-adv-x="1970" 
d="M517 2260l470 -1053l480 1053h315l-519 -1122h283v-209h-380l-24 -53v-167h404v-206h-404v-503h-318v503h-398v206h398v167l-25 53h-373v209h278l-514 1122h327z" />
    <glyph glyph-name="period.tnum" horiz-adv-x="985" 
d="M492 -24c-145 0 -185 51 -185 201c0 151 43 203 185 203c143 0 186 -52 186 -203c0 -150 -40 -201 -186 -201z" />
    <glyph glyph-name="comma.tnum" horiz-adv-x="985" 
d="M185 -437l213 836h354l-307 -836h-260z" />
    <glyph glyph-name="colon.tnum" horiz-adv-x="985" 
d="M493 -24c-145 0 -185 51 -185 201c0 151 43 203 185 203s185 -52 185 -203c0 -150 -40 -201 -185 -201zM493 1210c-145 0 -185 50 -185 201s43 203 185 203s185 -52 185 -203s-40 -201 -185 -201z" />
    <glyph glyph-name="semicolon.tnum" horiz-adv-x="985" 
d="M573 1210c-145 0 -185 50 -185 201s43 203 185 203c143 0 186 -52 186 -203s-40 -201 -186 -201zM178 -437l213 836h354l-307 -836h-260z" />
    <glyph glyph-name="zero.onum_tnum" 
d="M905 -24c-627 0 -755 320 -755 972c0 654 128 974 755 974c628 0 755 -320 755 -974c0 -652 -128 -972 -755 -972zM905 225c431 0 449 291 449 723c0 434 -17 725 -449 725s-449 -291 -449 -725c0 -432 17 -723 449 -723z" />
    <glyph glyph-name="one.onum_tnum" 
d="M910 0v1585c-153 -42 -348 -82 -507 -103l-14 248c245 37 449 108 582 170h242v-1900h-303z" />
    <glyph glyph-name="two.onum_tnum" 
d="M251 1631l-32 234c189 31 415 57 654 57c423 0 727 -107 727 -468c0 -354 -226 -561 -612 -702c-339 -123 -420 -252 -459 -494h1070v-258h-1413c115 580 184 795 650 971c290 110 470 222 470 430c0 213 -148 269 -568 269c-159 0 -355 -20 -487 -39z" />
    <glyph glyph-name="three.onum_tnum" 
d="M802 1922c387 0 741 -80 741 -510c0 -231 -102 -398 -297 -492c182 -68 331 -212 331 -473c0 -493 -300 -641 -789 -641c-227 0 -423 26 -604 61l34 243c175 -23 347 -45 500 -45c367 0 542 68 542 367c0 202 -112 312 -293 334c-110 13 -221 18 -375 18h-78v231
c163 4 320 18 453 37c183 27 267 147 267 313c0 279 -195 302 -472 302c-176 0 -350 -19 -526 -44l-31 238c183 35 362 61 597 61z" />
    <glyph glyph-name="four.onum_tnum" 
d="M1117 -172v487h-809c-176 0 -223 75 -223 175c0 54 25 136 126 267l778 1003c92 118 170 162 266 162c91 0 162 -60 162 -193v-1173h272v-241h-272v-487h-300zM1118 1507l-724 -951h724v951z" />
    <glyph glyph-name="five.onum_tnum" 
d="M587 1634l-37 -540c45 3 138 6 172 6c512 0 877 -76 877 -629c0 -481 -271 -666 -766 -666c-221 0 -433 24 -630 63l34 243c160 -26 336 -45 507 -45c389 0 538 70 538 436c0 315 -298 353 -630 353c-142 0 -266 -3 -402 -11l72 1056h1223v-266h-958z" />
    <glyph glyph-name="six.onum_tnum" 
d="M950 1293c456 0 736 -123 736 -645c0 -539 -310 -672 -783 -672c-600 0 -736 331 -736 857c0 959 209 1260 1150 1260c25 0 60 0 204 -3l26 -247c-446 -23 -1024 30 -1053 -585c137 18 313 35 456 35zM892 1054c-116 0 -290 -20 -416 -38c-6 -76 -7 -146 -7 -226
c0 -285 50 -563 426 -563c370 0 488 115 488 426c0 334 -174 401 -491 401z" />
    <glyph glyph-name="seven.onum_tnum" 
d="M1597 1641l-827 -1814h-346l873 1809h-1093v264h1223c129 0 197 -58 197 -149c0 -33 -8 -69 -27 -110z" />
    <glyph glyph-name="eight.onum_tnum" 
d="M906 2093c388 0 728 -123 728 -512c0 -232 -57 -377 -305 -505c208 -101 335 -237 335 -514c0 -481 -345 -586 -758 -586c-440 0 -759 135 -759 587c0 275 123 404 335 511c-222 111 -303 256 -303 507c0 389 330 512 727 512zM906 222c254 0 459 59 459 349
c0 254 -137 344 -523 378c-233 -38 -396 -137 -396 -378c0 -287 203 -349 460 -349zM973 1194c216 45 374 125 374 342c0 268 -201 317 -441 317c-237 0 -436 -47 -436 -317c0 -208 128 -320 503 -342z" />
    <glyph glyph-name="nine.onum_tnum" 
d="M854 605c-455 0 -735 123 -735 645c0 539 310 672 782 672c600 0 737 -331 737 -857c0 -959 -209 -1260 -1150 -1260c-25 0 -61 0 -204 3l-26 247c445 23 1024 -30 1053 585c-138 -18 -313 -35 -457 -35zM912 844c116 0 291 20 417 38c6 76 6 146 6 226
c0 285 -49 563 -426 563c-370 0 -487 -115 -487 -426c0 -334 173 -401 490 -401z" />
    <glyph glyph-name="dollar.onum_tnum" 
d="M286 278c162 -25 366 -42 519 -42c261 0 443 57 443 329c0 225 -174 293 -413 365c-369 112 -588 214 -588 594c0 374 196 528 553 561v286h226v-279c177 -4 357 -26 494 -53l-28 -242c-132 20 -286 39 -431 39c-236 0 -510 -24 -510 -273c0 -261 170 -298 438 -374
c356 -100 573 -241 573 -615c0 -375 -197 -546 -553 -587v-290h-226v279c-207 2 -366 22 -527 55z" />
    <glyph glyph-name="cent.onum_tnum" 
d="M1444 499l26 -228c-107 -24 -221 -43 -355 -50v-278h-213v282c-435 52 -514 416 -514 826c0 459 93 731 514 788v287h213v-275c140 -3 255 -24 352 -51l-23 -219c-101 16 -194 29 -273 29c-449 0 -492 -142 -492 -559c0 -391 26 -588 490 -588c85 0 189 19 275 36z" />
    <glyph glyph-name="Euro.onum_tnum" 
d="M214 1131l44 194h175c41 532 218 768 720 768c166 0 320 -23 442 -56l-24 -241c-118 22 -254 40 -356 40c-358 0 -450 -193 -473 -511h689l-44 -194h-652v-170h615l-43 -193h-566c21 -333 110 -535 474 -535c103 0 235 18 356 39l24 -239c-122 -33 -275 -57 -442 -57
c-510 0 -685 244 -721 792h-236l43 193h185v73c0 33 0 65 1 97h-211z" />
    <glyph glyph-name="sterling.onum_tnum" 
d="M457 929h-308v236h273c-14 104 -25 221 -25 361c0 455 331 568 731 568c264 0 395 -90 538 -226l-158 -186c-113 95 -223 152 -370 152c-338 0 -431 -119 -431 -379c0 -95 11 -191 25 -290h471v-236h-443c6 -63 10 -128 10 -196c0 -168 -49 -323 -112 -469h470
c164 0 348 14 492 36l28 -245c-154 -31 -423 -55 -686 -55h-508c-110 0 -155 54 -155 122c0 103 176 283 176 586c0 75 -8 147 -18 221z" />
    <glyph glyph-name="yen.onum_tnum" 
d="M485 2073l421 -946l433 946h304l-473 -1021h254v-207h-349l-19 -41v-142h368v-204h-368v-458h-306v458h-362v204h362v142l-19 41h-343v207h248l-467 1021h316z" />
    <glyph glyph-name="parenleft.case" horiz-adv-x="1013" 
d="M712 2663l176 -146c-337 -335 -398 -931 -398 -1357s61 -1022 398 -1357l-176 -145c-422 381 -535 942 -535 1502s113 1122 535 1503z" />
    <glyph glyph-name="parenright.case" horiz-adv-x="1011" 
d="M300 -342l-175 145c336 335 398 931 398 1357s-62 1022 -398 1357l175 146c422 -381 535 -943 535 -1503s-113 -1121 -535 -1502z" />
    <glyph glyph-name="bracketleft.case" horiz-adv-x="1016" 
d="M561 2405v-2476h343v-240h-629v2952h631v-236h-345z" />
    <glyph glyph-name="bracketright.case" horiz-adv-x="1016" 
d="M110 2405v236h631v-2952h-629v240h342v2476h-344z" />
    <glyph glyph-name="braceleft.case" horiz-adv-x="1023" 
d="M654 561v-175c0 -240 41 -427 281 -463l-25 -214c-337 40 -536 172 -536 629c0 479 -46 686 -255 721v215c209 34 255 242 255 721c0 456 199 588 536 628l25 -213c-240 -37 -281 -225 -281 -464v-175c0 -214 -9 -510 -231 -605c211 -102 231 -397 231 -605z" />
    <glyph glyph-name="braceright.case" horiz-adv-x="1024" 
d="M905 1274v-215c-208 -35 -255 -242 -255 -721c0 -457 -199 -589 -536 -629l-25 214c241 36 281 223 281 463v175c0 208 21 503 232 605c-223 95 -232 391 -232 605v175c0 239 -40 427 -281 464l25 213c337 -40 536 -172 536 -628c0 -479 47 -687 255 -721z" />
    <glyph glyph-name="questiondown.case" horiz-adv-x="1704" 
d="M891 1639h267l6 -208c1 -20 2 -62 2 -83c0 -535 -707 -101 -707 -703c0 -323 117 -408 570 -408c191 0 368 20 522 49l54 -255c-189 -41 -407 -67 -636 -67c-505 0 -845 85 -845 674c0 811 750 443 761 803zM839 2141c0 150 40 201 185 201s185 -51 185 -201
c0 -151 -43 -203 -185 -203s-185 52 -185 203z" />
    <glyph glyph-name="exclamdown.case" horiz-adv-x="833" 
d="M416 1938c-142 0 -185 52 -185 203c0 150 40 201 185 201c146 0 185 -51 185 -201c0 -151 -42 -203 -185 -203zM232 -12l53 1651h263l53 -1651h-369z" />
    <glyph glyph-name="at.case" horiz-adv-x="3039" 
d="M2821 1592c31 -125 47 -269 47 -427c0 -844 -479 -1189 -1343 -1189c-868 0 -1342 345 -1342 1189c0 867 497 1189 1377 1189c344 0 630 -129 630 -546v-719c0 -110 -4 -212 -12 -315c-163 -91 -412 -149 -676 -149c-468 0 -656 181 -656 540c0 299 145 482 460 543
c146 28 402 41 584 50c0 264 -84 346 -347 346c-659 0 -1051 -217 -1051 -939c0 -711 382 -939 1033 -939c653 0 1035 228 1035 939c0 126 -11 244 -33 341zM1890 1195v350c-129 -3 -364 -16 -469 -44c-189 -50 -272 -123 -272 -330c0 -244 138 -308 392 -308
c96 0 248 29 340 71c6 79 9 179 9 261z" />
    <glyph glyph-name="guilsinglleft.case" horiz-adv-x="1036" 
d="M452 1164l430 -669h-302l-474 669l474 670h302z" />
    <glyph glyph-name="guilsinglright.case" horiz-adv-x="1036" 
d="M930 1164l-474 -669h-302l430 669l-429 670h301z" />
    <glyph glyph-name="guillemotleft.case" horiz-adv-x="1701" 
d="M452 1164l430 -669h-302l-474 669l474 670h302zM1116 1164l430 -669h-303l-473 669l473 670h302z" />
    <glyph glyph-name="guillemotright.case" horiz-adv-x="1699" 
d="M930 1164l-474 -669h-302l430 669l-430 670h302zM1593 1164l-473 -669h-303l431 669l-431 670h303z" />
    <glyph glyph-name="hyphen.case" horiz-adv-x="1314" 
d="M227 1034v261h860v-261h-860z" />
    <glyph glyph-name="endash.case" horiz-adv-x="2061" 
d="M227 1042v245h1607v-245h-1607z" />
    <glyph glyph-name="emdash.case" horiz-adv-x="3614" 
d="M227 1042v245h3160v-245h-3160z" />
    <glyph glyph-name="periodcentered.case" horiz-adv-x="809" 
d="M404 963c-145 0 -185 51 -185 201c0 151 43 203 185 203c143 0 186 -52 186 -203c0 -150 -40 -201 -186 -201z" />
    <glyph glyph-name="uni21E8" unicode="&#x21e8;" horiz-adv-x="2665" 
d="M1552 525h-1363v908h1363v555l1043 -1009l-1043 -1010v556zM2364 979l-649 617v-326h-1365v-582h1365v-326z" />
    <glyph glyph-name="uni03BC" unicode="&#x3bc;" horiz-adv-x="2043" 
d="M301 -656v2437h286v-1116c0 -239 120 -423 357 -423c307 0 455 303 455 723v816h288v-1138c0 -230 0 -400 157 -453v-214c-272 0 -368 180 -405 369h-2c-101 -242 -280 -369 -493 -369c-144 0 -256 52 -358 166v-798h-285z" />
    <glyph glyph-name="uni03A9" unicode="&#x3a9;" horiz-adv-x="2490" 
d="M172 0v259h451c-222 220 -403 559 -403 982c0 655 451 1113 1038 1113c618 0 1015 -523 1015 -1100c0 -436 -189 -786 -406 -995h451v-259h-872v198c257 163 516 515 516 1014c0 411 -238 882 -707 882c-444 0 -723 -396 -723 -889c0 -470 259 -846 516 -1007v-198h-876z
" />
    <glyph glyph-name="uni021A" unicode="&#x21a;" horiz-adv-x="1697" 
d="M1628 2330v-263h-617v-2067h-327v2067h-616v263h1560zM561 -825l159 624h261l-228 -624h-192z" />
    <glyph glyph-name="uni021B" unicode="&#x21b;" horiz-adv-x="1207" 
d="M395 2234l306 50v-503h385v-234h-385v-1063c0 -216 81 -266 273 -266c39 0 77 2 115 5l24 -225c-71 -12 -158 -22 -228 -22c-344 0 -490 149 -490 475v1096h-314v234h314v453zM469 -838l160 624h260l-228 -624h-192z" />
    <glyph glyph-name="uni2215" unicode="&#x2215;" horiz-adv-x="531" 
d="M-536 -48l1368 2426h235l-1369 -2426h-234z" />
    <glyph glyph-name="uni2219" unicode="&#x2219;" horiz-adv-x="809" 
d="M404 753c-145 0 -185 51 -185 201c0 151 43 203 185 203c143 0 186 -52 186 -203c0 -150 -40 -201 -186 -201z" />
    <glyph glyph-name="uni00AD" unicode="&#xad;" horiz-adv-x="1314" 
d="M227 755v261h860v-261h-860z" />
    <glyph glyph-name="uni2010" unicode="&#x2010;" horiz-adv-x="1314" 
d="M227 755v261h860v-261h-860z" />
    <glyph glyph-name="uni02C9" unicode="&#x2c9;" horiz-adv-x="1415" 
d="M231 2009v209h952v-209h-952z" />
    <glyph glyph-name="uni00A0" unicode="&#xa0;" horiz-adv-x="900" 
 />
    </font>
</defs>
</svg>
