<svg width="16" height="16" viewBox="0 0 16 16" fill="none" xmlns="http://www.w3.org/2000/svg">
<path d="M8.00016 0C4.3335 0 1.3335 3 1.3335 6.66667C1.3335 11.6 7.40016 15.7333 7.60016 15.8667C7.7335 15.9333 7.86683 16 8.00016 16C8.1335 16 8.26683 15.9333 8.40016 15.8667C8.60016 15.7333 14.6668 11.6 14.6668 6.66667C14.6668 3 11.6668 0 8.00016 0ZM8.00016 14.5333C6.7335 13.6 2.66683 10.2667 2.66683 6.66667C2.66683 3.73333 5.06683 1.33333 8.00016 1.33333C10.9335 1.33333 13.3335 3.73333 13.3335 6.66667C13.3335 10.2667 9.26683 13.6 8.00016 14.5333Z" fill="#202121"/>
<path d="M8.00016 4C6.5335 4 5.3335 5.2 5.3335 6.66667C5.3335 8.13333 6.5335 9.33333 8.00016 9.33333C9.46683 9.33333 10.6668 8.13333 10.6668 6.66667C10.6668 5.2 9.46683 4 8.00016 4ZM8.00016 8C7.26683 8 6.66683 7.4 6.66683 6.66667C6.66683 5.93333 7.26683 5.33333 8.00016 5.33333C8.7335 5.33333 9.3335 5.93333 9.3335 6.66667C9.3335 7.4 8.7335 8 8.00016 8Z" fill="#202121"/>
</svg>
