<svg width="12" height="12" viewBox="0 0 12 12" fill="none" xmlns="http://www.w3.org/2000/svg">
<path d="M11.4528 0.823607L11.4891 0.89618L11.4971 0.904172C11.4978 0.912311 11.4985 0.921596 11.499 0.932079C11.4999 0.953736 11.5 0.974539 11.5 1V11C11.5 11.1864 11.4401 11.3028 11.3714 11.3714C11.3028 11.4401 11.1864 11.5 11 11.5C10.8136 11.5 10.6972 11.4401 10.6286 11.3714C10.5599 11.3028 10.5 11.1864 10.5 11V3.4V2.19289L9.64645 3.04645L1.34645 11.3464C1.27596 11.4169 1.22535 11.4499 1.18443 11.4681C1.14569 11.4853 1.09166 11.5 1 11.5C0.908342 11.5 0.854314 11.4853 0.815569 11.4681C0.774651 11.4499 0.724036 11.4169 0.653553 11.3464C0.448816 11.1417 0.448816 10.8583 0.653553 10.6536L8.95355 2.35355L9.80711 1.5H8.6H1C0.813624 1.5 0.697164 1.44006 0.628553 1.37145C0.559943 1.30284 0.5 1.18638 0.5 1C0.5 0.813624 0.559943 0.697164 0.628553 0.628553C0.697164 0.559943 0.813624 0.5 1 0.5H11C11.0255 0.5 11.0463 0.500062 11.0679 0.501047C11.0784 0.501523 11.0877 0.502169 11.0958 0.502935L11.1038 0.510927L11.1764 0.547213C11.2796 0.598831 11.4012 0.72037 11.4528 0.823607Z" fill="#262626" stroke="#262626"/>
</svg>
