<svg width="16" height="16" viewBox="0 0 16 16" fill="none" xmlns="http://www.w3.org/2000/svg">
<path d="M12.6663 1.99996H11.333V1.33329C11.333 0.933293 11.0663 0.666626 10.6663 0.666626C10.2663 0.666626 9.99967 0.933293 9.99967 1.33329V1.99996H5.99967V1.33329C5.99967 0.933293 5.73301 0.666626 5.33301 0.666626C4.93301 0.666626 4.66634 0.933293 4.66634 1.33329V1.99996H3.33301C2.19967 1.99996 1.33301 2.86663 1.33301 3.99996V13.3333C1.33301 14.4666 2.19967 15.3333 3.33301 15.3333H12.6663C13.7997 15.3333 14.6663 14.4666 14.6663 13.3333V3.99996C14.6663 2.86663 13.7997 1.99996 12.6663 1.99996ZM3.33301 3.33329H4.66634V3.99996C4.66634 4.39996 4.93301 4.66663 5.33301 4.66663C5.73301 4.66663 5.99967 4.39996 5.99967 3.99996V3.33329H9.99967V3.99996C9.99967 4.39996 10.2663 4.66663 10.6663 4.66663C11.0663 4.66663 11.333 4.39996 11.333 3.99996V3.33329H12.6663C13.0663 3.33329 13.333 3.59996 13.333 3.99996V5.99996H2.66634V3.99996C2.66634 3.59996 2.93301 3.33329 3.33301 3.33329ZM12.6663 14H3.33301C2.93301 14 2.66634 13.7333 2.66634 13.3333V7.33329H13.333V13.3333C13.333 13.7333 13.0663 14 12.6663 14Z" fill="#202121"/>
</svg>
