<svg width="20" height="20" viewBox="0 0 20 20" fill="none" xmlns="http://www.w3.org/2000/svg">
<path d="M15.8333 2.50004H14.1666V1.66671C14.1666 1.16671 13.8333 0.833374 13.3333 0.833374C12.8333 0.833374 12.5 1.16671 12.5 1.66671V2.50004H7.49996V1.66671C7.49996 1.16671 7.16663 0.833374 6.66663 0.833374C6.16663 0.833374 5.83329 1.16671 5.83329 1.66671V2.50004H4.16663C2.74996 2.50004 1.66663 3.58337 1.66663 5.00004V16.6667C1.66663 18.0834 2.74996 19.1667 4.16663 19.1667H15.8333C17.25 19.1667 18.3333 18.0834 18.3333 16.6667V5.00004C18.3333 3.58337 17.25 2.50004 15.8333 2.50004ZM4.16663 4.16671H5.83329V5.00004C5.83329 5.50004 6.16663 5.83337 6.66663 5.83337C7.16663 5.83337 7.49996 5.50004 7.49996 5.00004V4.16671H12.5V5.00004C12.5 5.50004 12.8333 5.83337 13.3333 5.83337C13.8333 5.83337 14.1666 5.50004 14.1666 5.00004V4.16671H15.8333C16.3333 4.16671 16.6666 4.50004 16.6666 5.00004V7.50004H3.33329V5.00004C3.33329 4.50004 3.66663 4.16671 4.16663 4.16671ZM15.8333 17.5H4.16663C3.66663 17.5 3.33329 17.1667 3.33329 16.6667V9.16671H16.6666V16.6667C16.6666 17.1667 16.3333 17.5 15.8333 17.5Z" fill="#828282"/>
</svg>
