<svg width="20" height="20" viewBox="0 0 20 20" fill="none" xmlns="http://www.w3.org/2000/svg">
<path d="M17.5001 4.16665H14.1667V3.33331C14.1667 1.91665 13.0834 0.833313 11.6667 0.833313H8.33342C6.91675 0.833313 5.83342 1.91665 5.83342 3.33331V4.16665H2.50008C2.00008 4.16665 1.66675 4.49998 1.66675 4.99998C1.66675 5.49998 2.00008 5.83331 2.50008 5.83331H3.33341V16.6666C3.33341 18.0833 4.41675 19.1666 5.83342 19.1666H14.1667C15.5834 19.1666 16.6667 18.0833 16.6667 16.6666V5.83331H17.5001C18.0001 5.83331 18.3334 5.49998 18.3334 4.99998C18.3334 4.49998 18.0001 4.16665 17.5001 4.16665ZM7.50008 3.33331C7.50008 2.83331 7.83342 2.49998 8.33342 2.49998H11.6667C12.1667 2.49998 12.5001 2.83331 12.5001 3.33331V4.16665H7.50008V3.33331ZM15.0001 16.6666C15.0001 17.1666 14.6667 17.5 14.1667 17.5H5.83342C5.33341 17.5 5.00008 17.1666 5.00008 16.6666V5.83331H15.0001V16.6666Z" fill="#404040"/>
<path d="M8.33333 8.33331C7.83333 8.33331 7.5 8.66665 7.5 9.16665V14.1666C7.5 14.6666 7.83333 15 8.33333 15C8.83333 15 9.16667 14.6666 9.16667 14.1666V9.16665C9.16667 8.66665 8.83333 8.33331 8.33333 8.33331Z" fill="#404040"/>
<path d="M11.6668 8.33331C11.1668 8.33331 10.8335 8.66665 10.8335 9.16665V14.1666C10.8335 14.6666 11.1668 15 11.6668 15C12.1668 15 12.5002 14.6666 12.5002 14.1666V9.16665C12.5002 8.66665 12.1668 8.33331 11.6668 8.33331Z" fill="#404040"/>
</svg>
