<svg width="16" height="16" viewBox="0 0 16 16" fill="none" xmlns="http://www.w3.org/2000/svg">
<g clip-path="url(#clip0_761_1806)">
<path d="M8.00033 0.666748C3.93366 0.666748 0.666992 3.93341 0.666992 8.00008C0.666992 12.0667 3.93366 15.3334 8.00033 15.3334C12.067 15.3334 15.3337 12.0667 15.3337 8.00008C15.3337 3.93341 12.067 0.666748 8.00033 0.666748ZM8.00033 14.0001C4.66699 14.0001 2.00033 11.3334 2.00033 8.00008C2.00033 4.66675 4.66699 2.00008 8.00033 2.00008C11.3337 2.00008 14.0003 4.66675 14.0003 8.00008C14.0003 11.3334 11.3337 14.0001 8.00033 14.0001Z" fill="#262626"/>
<path d="M10.934 8.7335L8.66732 7.60016V4.00016C8.66732 3.60016 8.40065 3.3335 8.00065 3.3335C7.60065 3.3335 7.33398 3.60016 7.33398 4.00016V8.00016C7.33398 8.26683 7.46732 8.46683 7.73398 8.60016L10.4007 9.9335C10.4673 10.0002 10.534 10.0002 10.6673 10.0002C10.934 10.0002 11.134 9.86683 11.2673 9.60016C11.4007 9.3335 11.2673 8.9335 10.934 8.7335Z" fill="#262626"/>
</g>
<defs>
<clipPath id="clip0_761_1806">
<rect width="16" height="16" fill="white"/>
</clipPath>
</defs>
</svg>
