<svg width="14" height="16" viewBox="0 0 14 16" fill="none" xmlns="http://www.w3.org/2000/svg">
<path d="M11.6666 2.00002H10.3333V1.33335C10.3333 0.933354 10.0666 0.666687 9.66658 0.666687C9.26658 0.666687 8.99992 0.933354 8.99992 1.33335V2.00002H4.99992V1.33335C4.99992 0.933354 4.73325 0.666687 4.33325 0.666687C3.93325 0.666687 3.66658 0.933354 3.66658 1.33335V2.00002H2.33325C1.19992 2.00002 0.333252 2.86669 0.333252 4.00002V13.3334C0.333252 14.4667 1.19992 15.3334 2.33325 15.3334H11.6666C12.7999 15.3334 13.6666 14.4667 13.6666 13.3334V4.00002C13.6666 2.86669 12.7999 2.00002 11.6666 2.00002ZM2.33325 3.33335H3.66658V4.00002C3.66658 4.40002 3.93325 4.66669 4.33325 4.66669C4.73325 4.66669 4.99992 4.40002 4.99992 4.00002V3.33335H8.99992V4.00002C8.99992 4.40002 9.26658 4.66669 9.66658 4.66669C10.0666 4.66669 10.3333 4.40002 10.3333 4.00002V3.33335H11.6666C12.0666 3.33335 12.3333 3.60002 12.3333 4.00002V6.00002H1.66659V4.00002C1.66659 3.60002 1.93325 3.33335 2.33325 3.33335ZM11.6666 14H2.33325C1.93325 14 1.66659 13.7334 1.66659 13.3334V7.33335H12.3333V13.3334C12.3333 13.7334 12.0666 14 11.6666 14Z" fill="#fff"/>
</svg>
