<svg width="22" height="22" viewBox="0 0 22 22" fill="none" xmlns="http://www.w3.org/2000/svg">
<path d="M14.6667 12.8334H7.33333C4.76667 12.8334 2.75 14.85 2.75 17.4167V19.25C2.75 19.8 3.11667 20.1667 3.66667 20.1667C4.21667 20.1667 4.58333 19.8 4.58333 19.25V17.4167C4.58333 15.8584 5.775 14.6667 7.33333 14.6667H14.6667C16.225 14.6667 17.4167 15.8584 17.4167 17.4167V19.25C17.4167 19.8 17.7833 20.1667 18.3333 20.1667C18.8833 20.1667 19.25 19.8 19.25 19.25V17.4167C19.25 14.85 17.2333 12.8334 14.6667 12.8334Z" fill="#828282"/>
<path d="M11.0003 11C13.567 11 15.5837 8.98337 15.5837 6.41671C15.5837 3.85004 13.567 1.83337 11.0003 1.83337C8.43366 1.83337 6.41699 3.85004 6.41699 6.41671C6.41699 8.98337 8.43366 11 11.0003 11ZM11.0003 3.66671C12.5587 3.66671 13.7503 4.85837 13.7503 6.41671C13.7503 7.97504 12.5587 9.16671 11.0003 9.16671C9.44199 9.16671 8.25033 7.97504 8.25033 6.41671C8.25033 4.85837 9.44199 3.66671 11.0003 3.66671Z" fill="#828282"/>
</svg>
