<svg width="20" height="20" viewBox="0 0 20 20" fill="none" xmlns="http://www.w3.org/2000/svg">
<g clip-path="url(#clip0_120_9080)">
<path d="M10 0.833374C4.91671 0.833374 0.833374 4.91671 0.833374 10C0.833374 15.0834 4.91671 19.1667 10 19.1667C15.0834 19.1667 19.1667 15.0834 19.1667 10C19.1667 4.91671 15.0834 0.833374 10 0.833374ZM10 17.5C5.83337 17.5 2.50004 14.1667 2.50004 10C2.50004 5.83337 5.83337 2.50004 10 2.50004C14.1667 2.50004 17.5 5.83337 17.5 10C17.5 14.1667 14.1667 17.5 10 17.5Z" fill="#828282"/>
<path d="M10.0001 9.16675C9.50008 9.16675 9.16675 9.50008 9.16675 10.0001V13.3334C9.16675 13.8334 9.50008 14.1667 10.0001 14.1667C10.5001 14.1667 10.8334 13.8334 10.8334 13.3334V10.0001C10.8334 9.50008 10.5001 9.16675 10.0001 9.16675Z" fill="#828282"/>
<path d="M10.0001 5.83337C9.50008 5.83337 9.16675 6.16671 9.16675 6.66671C9.16675 7.16671 9.58341 7.50004 10.0001 7.50004C10.4167 7.50004 10.8334 7.16671 10.8334 6.66671C10.8334 6.16671 10.5001 5.83337 10.0001 5.83337Z" fill="#828282"/>
</g>
<defs>
<clipPath id="clip0_120_9080">
<rect width="20" height="20" fill="white"/>
</clipPath>
</defs>
</svg>
