<svg width="42" height="43" viewBox="0 0 42 43" fill="none" xmlns="http://www.w3.org/2000/svg">
<circle opacity="0.3" cx="21" cy="21.5" r="20.5" stroke="white"/>
<path fill-rule="evenodd" clip-rule="evenodd" d="M18 14H23.775C26.2603 14 28.275 16.0147 28.275 18.5V24.275C28.275 26.7603 26.2603 28.775 23.775 28.775H18C15.5147 28.775 13.5 26.7603 13.5 24.275V18.5C13.5 16.0147 15.5147 14 18 14ZM27.15 18.5C27.1459 16.6378 25.6372 15.1291 23.775 15.125H18C16.1377 15.1291 14.6291 16.6378 14.625 18.5V24.275C14.6291 26.1372 16.1377 27.6459 18 27.65H23.775C25.6372 27.6459 27.1459 26.1372 27.15 24.275V18.5Z" fill="white"/>
<path d="M23.775 15.125L23.7756 14.875H23.775V15.125ZM27.15 18.5H27.4L27.4 18.4994L27.15 18.5ZM18 15.125V14.875L17.9994 14.875L18 15.125ZM14.625 18.5L14.375 18.4994V18.5H14.625ZM14.625 24.275H14.375L14.375 24.2756L14.625 24.275ZM18 27.65L17.9994 27.9H18V27.65ZM23.775 27.65V27.9L23.7756 27.9L23.775 27.65ZM27.15 24.275L27.4 24.2756V24.275H27.15ZM23.775 13.75H18V14.25H23.775V13.75ZM28.525 18.5C28.525 15.8766 26.3984 13.75 23.775 13.75V14.25C26.1222 14.25 28.025 16.1528 28.025 18.5H28.525ZM28.525 24.275V18.5H28.025V24.275H28.525ZM23.775 29.025C26.3984 29.025 28.525 26.8984 28.525 24.275H28.025C28.025 26.6222 26.1222 28.525 23.775 28.525V29.025ZM18 29.025H23.775V28.525H18V29.025ZM13.25 24.275C13.25 26.8984 15.3766 29.025 18 29.025V28.525C15.6528 28.525 13.75 26.6222 13.75 24.275H13.25ZM13.25 18.5V24.275H13.75V18.5H13.25ZM18 13.75C15.3766 13.75 13.25 15.8766 13.25 18.5H13.75C13.75 16.1528 15.6528 14.25 18 14.25V13.75ZM23.7744 15.375C25.4991 15.3788 26.8962 16.7759 26.9 18.5006L27.4 18.4994C27.3956 16.4996 25.7754 14.8794 23.7756 14.875L23.7744 15.375ZM18 15.375H23.775V14.875H18V15.375ZM14.875 18.5006C14.8788 16.7759 16.2759 15.3788 18.0006 15.375L17.9994 14.875C15.9996 14.8794 14.3794 16.4996 14.375 18.4994L14.875 18.5006ZM14.875 24.275V18.5H14.375V24.275H14.875ZM18.0006 27.4C16.2759 27.3962 14.8788 25.9991 14.875 24.2744L14.375 24.2756C14.3794 26.2754 15.9996 27.8956 17.9994 27.9L18.0006 27.4ZM23.775 27.4H18V27.9H23.775V27.4ZM26.9 24.2744C26.8962 25.9991 25.4991 27.3962 23.7744 27.4L23.7756 27.9C25.7754 27.8956 27.3956 26.2754 27.4 24.2756L26.9 24.2744ZM26.9 18.5V24.275H27.4V18.5H26.9Z" fill="white"/>
<path fill-rule="evenodd" clip-rule="evenodd" d="M17.6626 21.3875C17.6667 19.6081 19.1082 18.1666 20.8876 18.1625C22.667 18.1666 24.1085 19.6081 24.1126 21.3875C24.1126 23.1686 22.6687 24.6125 20.8876 24.6125C19.1065 24.6125 17.6626 23.1686 17.6626 21.3875ZM22.9876 21.3875C22.9876 20.2277 22.0474 19.2875 20.8876 19.2875C19.7295 19.2916 18.7917 20.2294 18.7876 21.3875C18.7876 22.5473 19.7278 23.4875 20.8876 23.4875C22.0474 23.4875 22.9876 22.5473 22.9876 21.3875Z" fill="white"/>
<path d="M20.8876 18.1625L20.8882 17.9125L20.887 17.9125L20.8876 18.1625ZM17.6626 21.3875L17.4126 21.3869V21.3875H17.6626ZM24.1126 21.3875H24.3626L24.3626 21.3869L24.1126 21.3875ZM20.8876 19.2875V19.0375L20.8867 19.0375L20.8876 19.2875ZM18.7876 21.3875L18.5376 21.3866V21.3875H18.7876ZM20.887 17.9125C18.97 17.9169 17.417 19.4699 17.4126 21.3869L17.9126 21.3881C17.9164 19.7463 19.2464 18.4163 20.8882 18.4125L20.887 17.9125ZM24.3626 21.3869C24.3582 19.4699 22.8052 17.9169 20.8882 17.9125L20.887 18.4125C22.5288 18.4163 23.8588 19.7463 23.8626 21.3881L24.3626 21.3869ZM20.8876 24.8625C22.8068 24.8625 24.3626 23.3067 24.3626 21.3875H23.8626C23.8626 23.0305 22.5306 24.3625 20.8876 24.3625V24.8625ZM17.4126 21.3875C17.4126 23.3067 18.9684 24.8625 20.8876 24.8625V24.3625C19.2446 24.3625 17.9126 23.0305 17.9126 21.3875H17.4126ZM20.8876 19.5375C21.9093 19.5375 22.7376 20.3657 22.7376 21.3875H23.2376C23.2376 20.0896 22.1855 19.0375 20.8876 19.0375V19.5375ZM19.0376 21.3884C19.0412 20.3677 19.8678 19.5411 20.8885 19.5375L20.8867 19.0375C19.5912 19.0421 18.5422 20.0911 18.5376 21.3866L19.0376 21.3884ZM20.8876 23.2375C19.8659 23.2375 19.0376 22.4092 19.0376 21.3875H18.5376C18.5376 22.6853 19.5897 23.7375 20.8876 23.7375V23.2375ZM22.7376 21.3875C22.7376 22.4092 21.9093 23.2375 20.8876 23.2375V23.7375C22.1855 23.7375 23.2376 22.6853 23.2376 21.3875H22.7376Z" fill="white"/>
<path d="M23.6323 17.3787C23.6323 16.9293 23.9967 16.5649 24.4461 16.5649C24.8955 16.5649 25.2598 16.9293 25.2598 17.3787C25.2598 17.8281 24.8955 18.1924 24.4461 18.1924C23.9967 18.1924 23.6323 17.8281 23.6323 17.3787Z" fill="white"/>
</svg>
