<svg width="42" height="43" viewBox="0 0 42 43" fill="none" xmlns="http://www.w3.org/2000/svg">
<circle opacity="0.3" cx="21" cy="21.5" r="20.5" stroke="white"/>
<mask id="mask0_208_944" style="mask-type:luminance" maskUnits="userSpaceOnUse" x="19" y="18" width="9" height="10">
<path fill-rule="evenodd" clip-rule="evenodd" d="M19.5298 18.5493H27.745V27.5H19.5298V18.5493Z" fill="white"/>
</mask>
<g mask="url(#mask0_208_944)">
<path fill-rule="evenodd" clip-rule="evenodd" d="M27.7409 27.1182C27.7427 25.6848 27.75 24.2514 27.7383 22.8181C27.7332 22.1903 27.7107 21.5608 27.5787 20.9429C27.3624 19.9298 26.8757 19.1389 25.9088 18.77C25.2638 18.524 24.5894 18.5082 23.9158 18.6035C23.3499 18.6837 22.8287 18.8992 22.3538 19.2998C22.3538 19.1541 22.3533 19.0574 22.3539 18.9608C22.3554 18.744 22.2545 18.646 22.0466 18.647C21.3079 18.6505 20.5692 18.6496 19.8304 18.6476C19.6271 18.647 19.5295 18.731 19.5298 18.9596C19.5337 21.7101 19.5322 24.4607 19.5323 27.2112C19.5323 27.3167 19.5185 27.4289 19.6405 27.4809C19.6534 27.4979 22.3204 27.5042 22.3203 27.4869C22.4952 27.4083 22.4414 27.2425 22.4417 27.1075C22.4442 25.7509 22.436 24.3942 22.4433 23.0376C22.4455 22.6134 22.4612 22.1848 22.6444 21.7898C22.8616 21.3218 23.3109 21.119 23.9438 21.202C24.3792 21.259 24.6572 21.5538 24.7437 22.0675C24.7757 22.2572 24.7997 22.4513 24.8008 22.6435C24.8093 24.1357 24.8105 25.628 24.8166 27.1202C24.8173 27.258 24.7759 27.4207 24.9534 27.49C24.9473 27.5096 27.6327 27.4977 27.6334 27.4788C27.7779 27.3945 27.7407 27.2476 27.7409 27.1182Z" fill="white"/>
</g>
<path fill-rule="evenodd" clip-rule="evenodd" d="M17.6688 18.5C16.889 18.5066 16.109 18.5051 15.3291 18.5008C15.1088 18.4995 14.9996 18.5756 15 18.8264C15.0049 21.6228 15.003 24.4193 15.0036 27.2158C15.0036 27.3223 14.9873 27.4392 15.1184 27.4877C15.1234 27.5048 17.8726 27.5037 17.88 27.4868C18.0247 27.4304 17.9956 27.2992 17.9956 27.1858C17.9969 24.4091 17.9947 21.6322 18 18.8555C18.0004 18.6035 17.9141 18.498 17.6688 18.5Z" fill="white"/>
<path fill-rule="evenodd" clip-rule="evenodd" d="M16.5 14.75C15.6716 14.75 15 15.4216 15 16.25C15 17.0785 15.6716 17.75 16.5 17.75C17.3284 17.75 18 17.0785 18 16.25C18 15.4216 17.3284 14.75 16.5 14.75Z" fill="white"/>
</svg>
