<svg width="22" height="16" viewBox="0 0 22 16" fill="none" xmlns="http://www.w3.org/2000/svg">
<path d="M3.20898 0.679729C2.93536 0.694729 2.66702 0.821776 2.47852 1.05278C0.930516 2.94878 0 5.36704 0 8.00004C0 10.633 0.930516 13.0513 2.47852 14.9473C2.85652 15.4093 3.55066 15.4513 3.97266 15.0293C4.33166 14.6703 4.36692 14.0971 4.04492 13.7051C2.76792 12.1501 2 10.163 2 8.00004C2 5.83704 2.76792 3.85092 4.04492 2.29692C4.36692 1.90492 4.33166 1.3317 3.97266 0.972698C3.76166 0.761698 3.48261 0.664729 3.20898 0.679729ZM18.791 0.679729C18.5174 0.664729 18.2383 0.761698 18.0273 0.972698C17.6683 1.3317 17.6331 1.90492 17.9551 2.29692C19.2321 3.85092 20 5.83704 20 8.00004C20 10.163 19.2321 12.1492 17.9551 13.7032C17.6331 14.0952 17.6683 14.6684 18.0273 15.0274C18.4493 15.4494 19.1445 15.4103 19.5215 14.9473C21.0695 13.0523 22 10.633 22 8.00004C22 5.36704 21.0695 2.94878 19.5215 1.05278C19.333 0.821776 19.0646 0.694729 18.791 0.679729ZM6.04297 3.52348C5.76559 3.53898 5.49681 3.66815 5.32031 3.91215C4.49031 5.06315 4 6.47604 4 8.00004C4 9.52404 4.49031 10.9369 5.32031 12.0879C5.67331 12.5759 6.39236 12.6077 6.81836 12.1817L6.82227 12.1778C7.17327 11.8268 7.19911 11.282 6.91211 10.877C6.33811 10.063 6 9.07004 6 8.00004C6 6.93004 6.33811 5.93709 6.91211 5.12309C7.19811 4.71709 7.17327 4.17331 6.82227 3.82231L6.81836 3.8184C6.60536 3.6054 6.32034 3.50798 6.04297 3.52348ZM15.957 3.52348C15.6797 3.50798 15.3946 3.6054 15.1816 3.8184L15.1777 3.82231C14.8267 4.17331 14.8009 4.71809 15.0879 5.12309C15.6619 5.93709 16 6.93004 16 8.00004C16 9.07004 15.6619 10.063 15.0879 10.877C14.8019 11.283 14.8267 11.8268 15.1777 12.1778L15.1816 12.1817C15.6076 12.6077 16.3277 12.5759 16.6797 12.0879C17.5107 10.9379 18 9.52404 18 8.00004C18 6.47604 17.5097 5.06315 16.6797 3.91215C16.5032 3.66815 16.2344 3.53898 15.957 3.52348ZM11 5.00004C10.2044 5.00004 9.44129 5.31611 8.87868 5.87872C8.31607 6.44133 8 7.20439 8 8.00004C8 8.79569 8.31607 9.55875 8.87868 10.1214C9.44129 10.684 10.2044 11 11 11C11.7956 11 12.5587 10.684 13.1213 10.1214C13.6839 9.55875 14 8.79569 14 8.00004C14 7.20439 13.6839 6.44133 13.1213 5.87872C12.5587 5.31611 11.7956 5.00004 11 5.00004Z" fill="#17181B"/>
</svg>
