<svg width="20" height="20" viewBox="0 0 20 20" fill="none" xmlns="http://www.w3.org/2000/svg">
<path d="M9.99996 0C5.41663 0 1.66663 3.75 1.66663 8.33333C1.66663 14.5 9.24996 19.6667 9.49996 19.8333C9.66663 19.9167 9.83329 20 9.99996 20C10.1666 20 10.3333 19.9167 10.5 19.8333C10.75 19.6667 18.3333 14.5 18.3333 8.33333C18.3333 3.75 14.5833 0 9.99996 0ZM9.99996 18.1667C8.41663 17 3.33329 12.8333 3.33329 8.33333C3.33329 4.66667 6.33329 1.66667 9.99996 1.66667C13.6666 1.66667 16.6666 4.66667 16.6666 8.33333C16.6666 12.8333 11.5833 17 9.99996 18.1667Z" fill="#828282"/>
<path d="M9.99996 5C8.16663 5 6.66663 6.5 6.66663 8.33333C6.66663 10.1667 8.16663 11.6667 9.99996 11.6667C11.8333 11.6667 13.3333 10.1667 13.3333 8.33333C13.3333 6.5 11.8333 5 9.99996 5ZM9.99996 10C9.08329 10 8.33329 9.25 8.33329 8.33333C8.33329 7.41667 9.08329 6.66667 9.99996 6.66667C10.9166 6.66667 11.6666 7.41667 11.6666 8.33333C11.6666 9.25 10.9166 10 9.99996 10Z" fill="#828282"/>
</svg>
