<svg width="190" height="377" viewBox="0 0 190 377" fill="none" xmlns="http://www.w3.org/2000/svg">
<circle cx="1.25" cy="76.25" r="1.25" fill="#BDBDBD"/>
<circle cx="1.25" cy="113.75" r="1.25" fill="#BDBDBD"/>
<circle cx="1.25" cy="1.25" r="1.25" fill="#BDBDBD"/>
<circle cx="1.25" cy="38.75" r="1.25" fill="#BDBDBD"/>
<circle cx="1.25" cy="151.25" r="1.25" fill="#BDBDBD"/>
<circle cx="1.25" cy="188.75" r="1.25" fill="#BDBDBD"/>
<circle cx="1.25" cy="226.25" r="1.25" fill="#BDBDBD"/>
<circle cx="1.25" cy="263.75" r="1.25" fill="#BDBDBD"/>
<circle cx="1.25" cy="338.25" r="1.25" fill="#BDBDBD"/>
<circle cx="1.25" cy="301.25" r="1.25" fill="#BDBDBD"/>
<circle cx="1.25" cy="375.75" r="1.25" fill="#BDBDBD"/>
<circle cx="38.75" cy="76.25" r="1.25" fill="#BDBDBD"/>
<circle cx="38.75" cy="113.75" r="1.25" fill="#BDBDBD"/>
<circle cx="76.25" cy="76.25" r="1.25" fill="#BDBDBD"/>
<circle cx="76.25" cy="113.75" r="1.25" fill="#BDBDBD"/>
<circle cx="38.75" cy="1.25" r="1.25" fill="#BDBDBD"/>
<circle cx="38.75" cy="38.75" r="1.25" fill="#BDBDBD"/>
<circle cx="76.25" cy="1.25" r="1.25" fill="#BDBDBD"/>
<circle cx="76.25" cy="38.75" r="1.25" fill="#BDBDBD"/>
<circle cx="38.75" cy="151.25" r="1.25" fill="#BDBDBD"/>
<circle cx="38.75" cy="188.75" r="1.25" fill="#BDBDBD"/>
<circle cx="38.75" cy="226.25" r="1.25" fill="#BDBDBD"/>
<circle cx="38.75" cy="263.75" r="1.25" fill="#BDBDBD"/>
<circle cx="38.75" cy="338.25" r="1.25" fill="#BDBDBD"/>
<circle cx="38.75" cy="301.25" r="1.25" fill="#BDBDBD"/>
<circle cx="38.75" cy="375.75" r="1.25" fill="#BDBDBD"/>
<circle cx="76.25" cy="151.25" r="1.25" fill="#BDBDBD"/>
<circle cx="76.25" cy="188.75" r="1.25" fill="#BDBDBD"/>
<circle cx="76.25" cy="226.25" r="1.25" fill="#BDBDBD"/>
<circle cx="76.25" cy="263.75" r="1.25" fill="#BDBDBD"/>
<circle cx="76.25" cy="338.25" r="1.25" fill="#BDBDBD"/>
<circle cx="76.25" cy="301.25" r="1.25" fill="#BDBDBD"/>
<circle cx="76.25" cy="375.75" r="1.25" fill="#BDBDBD"/>
<circle cx="113.75" cy="76.25" r="1.25" fill="#BDBDBD"/>
<circle cx="113.75" cy="113.75" r="1.25" fill="#BDBDBD"/>
<circle cx="151.25" cy="76.25" r="1.25" fill="#BDBDBD"/>
<circle cx="188.25" cy="76.25" r="1.25" fill="#BDBDBD"/>
<circle cx="151.25" cy="113.75" r="1.25" fill="#BDBDBD"/>
<circle cx="188.25" cy="113.75" r="1.25" fill="#BDBDBD"/>
<circle cx="113.75" cy="1.25" r="1.25" fill="#BDBDBD"/>
<circle cx="113.75" cy="38.75" r="1.25" fill="#BDBDBD"/>
<circle cx="151.25" cy="1.25" r="1.25" fill="#BDBDBD"/>
<circle cx="188.25" cy="1.25" r="1.25" fill="#BDBDBD"/>
<circle cx="151.25" cy="38.75" r="1.25" fill="#BDBDBD"/>
<circle cx="188.25" cy="38.75" r="1.25" fill="#BDBDBD"/>
<circle cx="113.75" cy="151.25" r="1.25" fill="#BDBDBD"/>
<circle cx="113.75" cy="188.75" r="1.25" fill="#BDBDBD"/>
<circle cx="113.75" cy="226.25" r="1.25" fill="#BDBDBD"/>
<circle cx="113.75" cy="263.75" r="1.25" fill="#BDBDBD"/>
<circle cx="113.75" cy="338.25" r="1.25" fill="#BDBDBD"/>
<circle cx="113.75" cy="301.25" r="1.25" fill="#BDBDBD"/>
<circle cx="113.75" cy="375.75" r="1.25" fill="#BDBDBD"/>
<circle cx="151.25" cy="151.25" r="1.25" fill="#BDBDBD"/>
<circle cx="188.25" cy="151.25" r="1.25" fill="#BDBDBD"/>
<circle cx="151.25" cy="188.75" r="1.25" fill="#BDBDBD"/>
<circle cx="188.25" cy="188.75" r="1.25" fill="#BDBDBD"/>
<circle cx="151.25" cy="226.25" r="1.25" fill="#BDBDBD"/>
<circle cx="188.25" cy="226.25" r="1.25" fill="#BDBDBD"/>
<circle cx="151.25" cy="263.75" r="1.25" fill="#BDBDBD"/>
<circle cx="188.25" cy="263.75" r="1.25" fill="#BDBDBD"/>
<circle cx="151.25" cy="338.25" r="1.25" fill="#BDBDBD"/>
<circle cx="188.25" cy="338.25" r="1.25" fill="#BDBDBD"/>
<circle cx="151.25" cy="301.25" r="1.25" fill="#BDBDBD"/>
<circle cx="188.25" cy="301.25" r="1.25" fill="#BDBDBD"/>
<circle cx="151.25" cy="375.75" r="1.25" fill="#BDBDBD"/>
<circle cx="188.25" cy="375.75" r="1.25" fill="#BDBDBD"/>
</svg>
