<svg width="18" height="18" viewBox="0 0 18 18" fill="none" xmlns="http://www.w3.org/2000/svg">
<path d="M12 10.5H6C3.9 10.5 2.25 12.15 2.25 14.25V15.75C2.25 16.2 2.55 16.5 3 16.5C3.45 16.5 3.75 16.2 3.75 15.75V14.25C3.75 12.975 4.725 12 6 12H12C13.275 12 14.25 12.975 14.25 14.25V15.75C14.25 16.2 14.55 16.5 15 16.5C15.45 16.5 15.75 16.2 15.75 15.75V14.25C15.75 12.15 14.1 10.5 12 10.5Z" fill="black"/>
<path d="M9 9C11.1 9 12.75 7.35 12.75 5.25C12.75 3.15 11.1 1.5 9 1.5C6.9 1.5 5.25 3.15 5.25 5.25C5.25 7.35 6.9 9 9 9ZM9 3C10.275 3 11.25 3.975 11.25 5.25C11.25 6.525 10.275 7.5 9 7.5C7.725 7.5 6.75 6.525 6.75 5.25C6.75 3.975 7.725 3 9 3Z" fill="black"/>
</svg>
