<svg width="20" height="20" viewBox="0 0 20 20" fill="none" xmlns="http://www.w3.org/2000/svg">
<path d="M19.1667 7.50004C19.0834 7.16671 18.8334 7.00004 18.5 6.91671L13.1667 6.16671L10.75 1.33337C10.5 0.750041 9.50004 0.750041 9.25004 1.33337L6.83337 6.08337L1.58337 6.91671C1.25004 6.91671 1.00004 7.16671 0.833374 7.50004C0.750041 7.83337 0.833374 8.16671 1.08337 8.33337L4.91671 12.0834L4.00004 17.4167C3.91671 17.75 4.08337 18.0834 4.33337 18.25C4.58337 18.4167 4.91671 18.5 5.25004 18.3334L10 15.8334L14.75 18.3334C14.9167 18.3334 15 18.3334 15.1667 18.3334C15.3334 18.3334 15.5 18.25 15.6667 18.1667C15.9167 18 16.0834 17.6667 16 17.3334L15.0834 12L18.9167 8.25004C19.1667 8.08337 19.25 7.75004 19.1667 7.50004ZM13.5834 11.1667C13.4167 11.4167 13.3334 11.6667 13.3334 11.9167L14 16L10.3334 14.0834C10.0834 13.9167 9.83337 13.9167 9.58337 14.0834L5.91671 16L6.66671 11.9167C6.66671 11.6667 6.58337 11.4167 6.41671 11.1667L3.41671 8.33337L7.50004 7.75004C7.75004 7.75004 8.00004 7.50004 8.16671 7.33337L10 3.58337L11.8334 7.25004C11.9167 7.50004 12.1667 7.66671 12.5 7.66671L16.5834 8.25004L13.5834 11.1667Z" fill="#828282"/>
</svg>
