<svg width="42" height="43" viewBox="0 0 42 43" fill="none" xmlns="http://www.w3.org/2000/svg">
<circle opacity="0.3" cx="21" cy="21.5" r="20.5" stroke="white"/>
<path d="M14.505 16.0533C15.0338 16.6444 15.6219 17.1797 16.26 17.6508C16.8557 18.0455 17.4949 18.3702 18.165 18.6183C18.7026 18.8151 19.2575 18.9608 19.8225 19.0533L20.5725 19.1133C20.3911 18.2974 20.5539 17.4429 21.0225 16.7508C21.5113 16.0862 22.2409 15.6393 23.055 15.5058C23.6662 15.4707 24.2761 15.5948 24.825 15.8658C25.515 16.2708 25.575 16.4208 25.575 16.4208C25.9835 16.3471 26.3815 16.2237 26.76 16.0533L27.405 15.7083C27.2916 16.0973 27.0887 16.4543 26.8125 16.7508C26.445 17.0883 26.1075 17.3358 26.1075 17.3358C26.441 17.3315 26.7711 17.268 27.0825 17.1483L27.8325 16.8783C27.5874 17.2341 27.3059 17.5634 26.9925 17.8608C26.6325 18.1458 26.34 18.4083 26.34 18.4083C26.4304 19.9401 26.079 21.4655 25.3275 22.8033C24.7634 23.8913 23.9516 24.8316 22.9575 25.5483C21.9904 26.2537 20.8786 26.7353 19.7025 26.9583C18.7872 27.1255 17.8523 27.1584 16.9275 27.0558C16.1853 26.9429 15.4582 26.7467 14.76 26.4708C14.3032 26.3261 13.8763 26.0999 13.5 25.8033C14.3601 25.9217 15.236 25.837 16.0575 25.5558C16.6901 25.308 17.2896 24.9831 17.8425 24.5883C17.4238 24.5846 17.0112 24.4873 16.635 24.3033C16.1697 24.0836 15.7731 23.7413 15.4875 23.3133C15.366 23.1303 15.2606 22.9371 15.1725 22.7358L15.12 22.5483C15.3235 22.5984 15.5335 22.6161 15.7425 22.6008L16.4325 22.4958C15.8335 22.3841 15.288 22.0784 14.88 21.6258C14.4384 21.1487 14.1736 20.5345 14.13 19.8858V19.5783C14.3622 19.718 14.6155 19.8193 14.88 19.8783C15.0604 19.9292 15.2476 19.952 15.435 19.9458C14.86 19.5773 14.4347 19.0164 14.235 18.3633C14.0107 17.5883 14.1081 16.7557 14.505 16.0533Z" fill="white"/>
</svg>
