<svg width="24" height="24" viewBox="0 0 24 24" fill="none" xmlns="http://www.w3.org/2000/svg">
<path d="M4.20898 4.67973C3.93536 4.69473 3.66702 4.82178 3.47852 5.05278C1.93052 6.94878 1 9.36704 1 12C1 14.633 1.93052 17.0513 3.47852 18.9473C3.85652 19.4093 4.55066 19.4513 4.97266 19.0293C5.33166 18.6703 5.36692 18.0971 5.04492 17.7051C3.76792 16.1501 3 14.163 3 12C3 9.83704 3.76792 7.85092 5.04492 6.29692C5.36692 5.90492 5.33166 5.3317 4.97266 4.9727C4.76166 4.7617 4.48261 4.66473 4.20898 4.67973ZM19.791 4.67973C19.5174 4.66473 19.2383 4.7617 19.0273 4.9727C18.6683 5.3317 18.6331 5.90492 18.9551 6.29692C20.2321 7.85092 21 9.83704 21 12C21 14.163 20.2321 16.1492 18.9551 17.7032C18.6331 18.0952 18.6683 18.6684 19.0273 19.0274C19.4493 19.4494 20.1445 19.4103 20.5215 18.9473C22.0695 17.0523 23 14.633 23 12C23 9.36704 22.0695 6.94878 20.5215 5.05278C20.333 4.82178 20.0646 4.69473 19.791 4.67973ZM7.04297 7.52348C6.76559 7.53898 6.49681 7.66815 6.32031 7.91215C5.49031 9.06315 5 10.476 5 12C5 13.524 5.49031 14.9369 6.32031 16.0879C6.67331 16.5759 7.39236 16.6077 7.81836 16.1817L7.82227 16.1778C8.17327 15.8268 8.19911 15.282 7.91211 14.877C7.33811 14.063 7 13.07 7 12C7 10.93 7.33811 9.93709 7.91211 9.12309C8.19811 8.71709 8.17327 8.17331 7.82227 7.82231L7.81836 7.8184C7.60536 7.6054 7.32034 7.50798 7.04297 7.52348ZM16.957 7.52348C16.6797 7.50798 16.3946 7.6054 16.1816 7.8184L16.1777 7.82231C15.8267 8.17331 15.8009 8.71809 16.0879 9.12309C16.6619 9.93709 17 10.93 17 12C17 13.07 16.6619 14.063 16.0879 14.877C15.8019 15.283 15.8267 15.8268 16.1777 16.1778L16.1816 16.1817C16.6076 16.6077 17.3277 16.5759 17.6797 16.0879C18.5107 14.9379 19 13.524 19 12C19 10.476 18.5097 9.06315 17.6797 7.91215C17.5032 7.66815 17.2344 7.53898 16.957 7.52348ZM12 9.00004C11.2044 9.00004 10.4413 9.31611 9.87868 9.87872C9.31607 10.4413 9 11.2044 9 12C9 12.7957 9.31607 13.5588 9.87868 14.1214C10.4413 14.684 11.2044 15 12 15C12.7956 15 13.5587 14.684 14.1213 14.1214C14.6839 13.5588 15 12.7957 15 12C15 11.2044 14.6839 10.4413 14.1213 9.87872C13.5587 9.31611 12.7956 9.00004 12 9.00004Z" fill="white"/>
</svg>
