<svg width="60" height="60" viewBox="0 0 60 60" fill="none" xmlns="http://www.w3.org/2000/svg">
<circle cx="30" cy="30" r="29.5" stroke="white"/>
<path d="M30 18C23.3778 18 18 23.3778 18 30C18 32.4889 18.7556 34.9333 20.2222 36.9778C20.3111 37.1111 20.3111 37.2889 20.2667 37.4222L18.4 41.6L22.6222 39.8222C22.6667 39.7778 22.7556 39.7778 22.8444 39.7778C22.9333 39.7778 23.0222 39.8222 23.1111 39.8667C25.1556 41.2444 27.5111 42 30 42C36.6222 42 42 36.6222 42 30C42 23.3778 36.6222 18 30 18ZM36.5333 35.2444C36.3556 35.5556 36.1778 35.8222 35.9111 36.0444C35.5111 36.4444 35.0222 36.7556 34.4444 36.8889H34.4C33.1556 36.5333 31.7333 35.8222 30.2667 34.7556C29.3333 34.0889 28.4444 33.2889 27.5556 32.4C26.6667 31.5111 25.9111 30.6222 25.2 29.6889C24.1333 28.2222 23.4222 26.8 23.0667 25.5556V25.5111C23.2444 24.9778 23.5111 24.4444 23.9111 24.0444C24.1333 23.8222 24.4444 23.6 24.7111 23.4222C25.2 23.1556 25.7333 23.0222 26.2667 23.0222C26.4 23.0222 26.4889 23.0222 26.6222 23.0222C26.6667 23.0222 26.7111 23.0667 26.7111 23.1111C26.8444 23.4222 26.9333 23.6889 27.0667 23.9111C27.3778 24.7111 27.6 25.3333 28.5778 26.4444C28.6222 26.4889 28.6222 26.5333 28.5778 26.5778C28.4 27.0667 28.1333 27.5111 27.7778 27.8667C27.6889 27.9556 27.6444 28 27.5556 28.0444C27.3333 28.2222 27.2 28.4889 27.2 28.7556C27.2 29.0222 27.2889 29.2889 27.4667 29.5111C27.6444 29.6889 28.7556 30.8 28.8889 30.9778C29.0667 31.1556 30.1333 32.2222 30.3556 32.4C30.5333 32.5778 30.8444 32.6667 31.1111 32.6667C31.3778 32.6667 31.6444 32.5333 31.8222 32.3111C31.8667 32.2222 31.9556 32.1778 32.0444 32.0889C32.4 31.7333 32.8444 31.4667 33.3333 31.2889C33.3778 31.2889 33.4222 31.2889 33.4667 31.2889C34.5778 32.2222 35.2 32.4889 36 32.8C36.2222 32.8889 36.4889 32.9778 36.8 33.1556C36.8444 33.1556 36.8889 33.2 36.8889 33.2444C36.9778 33.9556 36.8444 34.6667 36.5333 35.2444Z" fill="white"/>
</svg>
