<?xml version="1.0" standalone="no"?>
<!DOCTYPE svg PUBLIC "-//W3C//DTD SVG 1.1//EN" "http://www.w3.org/Graphics/SVG/1.1/DTD/svg11.dtd" >
<svg xmlns="http://www.w3.org/2000/svg" xmlns:xlink="http://www.w3.org/1999/xlink" version="1.1">
<metadata>
Created by FontForge 20190801 at Tue Jul 24 14:38:24 2012
 By root
 
</metadata>
<defs>
<font id="Flexo-Regular" horiz-adv-x="1970" >
  <font-face 
    font-family="Flexo"
    font-weight="400"
    font-stretch="normal"
    units-per-em="3333"
    panose-1="0 0 0 0 0 0 0 0 0 0"
    ascent="2633"
    descent="-700"
    x-height="1781"
    cap-height="2330"
    bbox="-526 -852 3974 3182"
    underline-thickness="167"
    underline-position="-396"
    stemh="201"
    stemv="242"
    unicode-range="U+0020-FB04"
  />
<missing-glyph horiz-adv-x="2168" 
d="M253 0v2400h1663v-2400h-1663zM985 1200l-565 874v-1748zM1650 171l-565 875l-566 -875h1131zM1650 2228h-1131l566 -874zM1750 2074l-565 -874l565 -874v1748z" />
    <glyph glyph-name="f_b" unicode="fb" horiz-adv-x="3091" 
d="M405 1781v191c0 338 172 521 514 521c250 0 498 -9 750 -24v-731c158 41 324 67 493 67c531 0 747 -233 747 -914c0 -694 -237 -915 -803 -915c-225 0 -473 40 -669 143c-6 98 -9 200 -9 304v1878h-460c-198 0 -320 -88 -320 -319v-201h400v-192h-400v-1589h-243v1589
h-316v192h316zM1676 257c122 -55 292 -80 430 -80c442 0 559 236 559 714c0 499 -86 713 -581 713c-137 0 -304 -32 -415 -70v-997c0 -84 3 -195 7 -280z" />
    <glyph glyph-name="f_f" unicode="ff" horiz-adv-x="2193" 
d="M89 1781h316v191c0 338 172 521 514 521c43 0 105 -4 152 -12l-19 -180h-84c-198 0 -320 -88 -320 -319v-201h822v191c0 338 172 521 514 521c43 0 105 -4 152 -12l-19 -180h-84c-198 0 -320 -88 -320 -319v-201h400v-192h-400v-1589h-243v1589h-822v-1589h-243v1589
h-316v192z" />
    <glyph glyph-name="f_f_b" unicode="ffb" horiz-adv-x="4156" 
d="M1713 1589v-1589h-243v1589h-822v-1589h-243v1589h-316v192h316v191c0 338 172 521 514 521c43 0 105 -4 152 -12l-19 -180h-84c-198 0 -320 -88 -320 -319v-201h822v191c0 338 172 521 514 521c250 0 498 -9 750 -24v-731c158 41 324 67 493 67c531 0 747 -233 747 -914
c0 -694 -237 -915 -803 -915c-225 0 -473 40 -669 143c-6 98 -9 200 -9 304v1878h-460c-198 0 -320 -88 -320 -319v-201h400v-192h-400zM2734 537c0 -84 3 -195 7 -280c122 -55 292 -80 430 -80c442 0 559 236 559 714c0 499 -86 713 -581 713c-137 0 -304 -32 -415 -70
v-997z" />
    <glyph glyph-name="f_f_h" unicode="ffh" horiz-adv-x="4166" 
d="M648 1781h822v191c0 338 172 521 514 521c250 0 498 -9 750 -24v-738c159 44 325 73 518 74c609 3 688 -260 688 -637v-1168h-242v1118c0 337 -65 481 -519 481c-138 0 -306 -28 -445 -78v-1521h-242v2301h-459c-198 0 -320 -88 -320 -319v-201h400v-192h-400v-1589h-243
v1589h-822v-1589h-243v1589h-316v192h316v191c0 338 172 521 514 521c43 0 105 -4 152 -12l-19 -180h-84c-198 0 -320 -88 -320 -319v-201z" />
    <glyph glyph-name="f_f_i" unicode="ffi" horiz-adv-x="3000" 
d="M405 1781v191c0 338 172 521 514 521c43 0 105 -4 152 -12l-19 -180h-84c-198 0 -320 -88 -320 -319v-201h822v191c0 338 172 521 514 521c43 0 105 -4 152 -12l-19 -180h-84c-198 0 -320 -88 -320 -319v-201h1036v-1781h-243v1589h-793v-1589h-243v1589h-822v-1589h-243
v1589h-316v192h316zM2627 2139c-116 0 -146 45 -146 176s33 178 146 178s147 -47 147 -178s-31 -176 -147 -176z" />
    <glyph glyph-name="f_f_j" unicode="ffj" horiz-adv-x="3078" 
d="M648 1589v-1589h-243v1589h-316v192h316v191c0 338 172 521 514 521c43 0 105 -4 152 -12l-19 -180h-84c-198 0 -320 -88 -320 -319v-201h822v191c0 338 172 521 514 521c43 0 105 -4 152 -12l-19 -180h-84c-198 0 -320 -88 -320 -319v-201h1109v-1799
c0 -478 -185 -662 -584 -662c-19 0 -39 0 -58 2l19 185c204 16 380 67 380 420v1662h-866v-1589h-243v1589h-822zM2555 2315c0 131 33 178 146 178s146 -47 146 -178s-30 -176 -146 -176s-146 45 -146 176z" />
    <glyph glyph-name="f_f_k" unicode="ffk" horiz-adv-x="3915" 
d="M2734 961l775 820h293l-834 -870l886 -911h-317l-803 840v-840h-241v2301h-460c-198 0 -320 -88 -320 -319v-201h400v-192h-400v-1589h-243v1589h-822v-1589h-243v1589h-316v192h316v191c0 338 172 521 514 521c43 0 105 -4 152 -12l-19 -180h-84
c-198 0 -320 -88 -320 -319v-201h822v191c0 338 172 521 514 521c250 0 498 -9 750 -24v-1508z" />
    <glyph glyph-name="f_f_l" unicode="ffl" horiz-adv-x="3009" 
d="M2113 1781v-192h-400v-1589h-243v1589h-822v-1589h-243v1589h-316v192h316v191c0 338 172 521 514 521c43 0 105 -4 152 -12l-19 -180h-84c-198 0 -320 -88 -320 -319v-201h822v191c0 338 172 521 514 521c250 0 498 -9 750 -24v-1991c0 -192 47 -329 143 -451l-205 -106
c-117 133 -180 293 -180 540v1840h-459c-198 0 -320 -88 -320 -319v-201h400z" />
    <glyph glyph-name="f_h" unicode="fh" horiz-adv-x="3101" 
d="M89 1589v192h316v191c0 338 172 521 514 521c250 0 498 -9 750 -24v-738c159 44 325 73 518 74c609 3 688 -260 688 -637v-1168h-242v1118c0 337 -65 481 -519 481c-138 0 -306 -28 -445 -78v-1521h-242v2301h-459c-198 0 -320 -88 -320 -319v-201h400v-192h-400v-1589
h-243v1589h-316z" />
    <glyph glyph-name="fi" unicode="fi" horiz-adv-x="1935" 
d="M1684 0h-243v1589h-793v-1589h-243v1589h-316v192h316v191c0 338 172 521 514 521c43 0 105 -4 152 -12l-19 -180h-84c-198 0 -320 -88 -320 -319v-201h1036v-1781zM1562 2139c-116 0 -146 45 -146 176s33 178 146 178s147 -47 147 -178s-31 -176 -147 -176z" />
    <glyph glyph-name="f_j" unicode="fj" horiz-adv-x="2013" 
d="M648 1781h1109v-1799c0 -478 -185 -662 -584 -662c-19 0 -39 0 -58 2l20 185c203 16 379 67 379 420v1662h-866v-1589h-243v1589h-316v192h316v191c0 338 172 521 514 521c43 0 105 -4 152 -12l-19 -180h-84c-198 0 -320 -88 -320 -319v-201zM1490 2315
c0 131 33 178 146 178s146 -47 146 -178s-30 -176 -146 -176s-146 45 -146 176z" />
    <glyph glyph-name="f_k" unicode="fk" horiz-adv-x="2850" 
d="M89 1781h316v191c0 338 172 521 514 521c250 0 498 -9 750 -24v-1508l775 820h293l-834 -870l886 -911h-317l-803 840v-840h-241v2301h-460c-198 0 -320 -88 -320 -319v-201h400v-192h-400v-1589h-243v1589h-316v192z" />
    <glyph glyph-name="fl" unicode="fl" horiz-adv-x="1944" 
d="M89 1781h316v191c0 338 172 521 514 521c250 0 498 -9 750 -24v-1991c0 -192 47 -329 143 -451l-205 -106c-117 133 -180 293 -180 540v1840h-459c-198 0 -320 -88 -320 -319v-201h400v-192h-400v-1589h-243v1589h-316v192z" />
    <glyph glyph-name=".notdef" horiz-adv-x="2168" 
d="M253 0v2400h1663v-2400h-1663zM985 1200l-565 874v-1748zM1650 171l-565 875l-566 -875h1131zM1650 2228h-1131l566 -874zM1750 2074l-565 -874l565 -874v1748z" />
    <glyph glyph-name="A" unicode="A" horiz-adv-x="2195" 
d="M354 0h-263l807 2179c43 117 109 175 204 175s163 -57 206 -175l796 -2179h-274l-240 670h-996zM668 875h849l-424 1184z" />
    <glyph glyph-name="B" unicode="B" horiz-adv-x="2139" 
d="M992 2354c442 0 905 -76 905 -584c0 -288 -108 -491 -344 -578c220 -72 383 -228 383 -615c0 -506 -413 -601 -900 -601c-284 0 -525 19 -755 56v2269c206 33 462 53 711 53zM1008 1094h-472v-877c167 -20 316 -30 483 -30c397 0 660 54 660 448s-286 459 -671 459z
M537 1290h471c384 0 636 66 636 436s-278 418 -652 418c-118 0 -287 -9 -455 -30v-824z" />
    <glyph glyph-name="C" unicode="C" horiz-adv-x="1765" 
d="M1660 231l23 -202c-147 -31 -327 -53 -531 -53c-753 0 -935 362 -935 1189c0 828 183 1189 935 1189c201 0 384 -21 531 -51l-24 -205c-127 19 -272 37 -407 37c-715 0 -773 -343 -773 -970c0 -629 69 -970 773 -970c137 0 274 16 408 36z" />
    <glyph glyph-name="D" unicode="D" horiz-adv-x="2234" 
d="M921 2139c-117 0 -262 -14 -383 -29v-1889c121 -16 266 -30 383 -30c818 0 822 421 822 974s-4 974 -822 974zM282 31v2270c205 33 462 53 708 53c860 0 1011 -397 1011 -1189s-151 -1189 -1011 -1189c-246 0 -503 21 -708 55z" />
    <glyph glyph-name="E" unicode="E" horiz-adv-x="1796" 
d="M1611 2322v-201h-584c-429 0 -499 -77 -499 -446v-384h1035v-209h-1035v-430c0 -368 70 -443 499 -443h584v-204c-185 -8 -396 -11 -574 -11c-394 0 -766 20 -766 514v1312c0 494 372 516 766 516c149 0 383 -6 574 -14z" />
    <glyph glyph-name="F" unicode="F" horiz-adv-x="1745" 
d="M532 0h-256v1820c0 494 371 516 766 516c148 0 383 -3 573 -14v-201h-583c-429 0 -500 -77 -500 -446v-384h1035v-209h-1035v-1082z" />
    <glyph glyph-name="G" unicode="G" horiz-adv-x="2124" 
d="M1233 1015v207h678v-860c0 -362 -320 -386 -754 -386c-750 0 -935 362 -935 1189c0 837 185 1189 935 1189c243 0 477 -16 684 -53l-23 -206c-185 25 -397 39 -561 39c-715 0 -773 -339 -773 -969c0 -624 61 -970 773 -970c380 0 400 116 400 286v534h-424z" />
    <glyph glyph-name="H" unicode="H" horiz-adv-x="2296" 
d="M1754 1300v1030h257v-2330h-257v1085h-1211v-1085h-257v2330h257v-1030h1211z" />
    <glyph glyph-name="I" unicode="I" horiz-adv-x="822" 
d="M283 0v2330h257v-2330h-257z" />
    <glyph glyph-name="J" unicode="J" horiz-adv-x="1299" 
d="M769 675v1655h258v-1595c0 -541 -150 -759 -650 -759c-115 0 -241 23 -327 54l23 198c78 -22 175 -38 282 -38c229 0 414 91 414 485z" />
    <glyph glyph-name="K" unicode="K" horiz-adv-x="1976" 
d="M538 2330v-1080l1013 1080h314l-1068 -1123l1095 -1207h-329l-1025 1144v-1144h-257v2330h257z" />
    <glyph glyph-name="L" unicode="L" horiz-adv-x="1614" 
d="M1573 209v-206c-187 -7 -368 -9 -531 -9c-395 0 -766 20 -766 514v1822h257v-1678c0 -366 70 -443 500 -443h540z" />
    <glyph glyph-name="M" unicode="M" horiz-adv-x="2834" 
d="M723 2192l692 -1539l699 1536c51 112 117 165 194 165c104 0 159 -55 166 -180l126 -2174h-253l-111 1951l-672 -1508c-37 -83 -79 -128 -150 -128s-114 45 -151 128l-671 1507l-114 -1950h-243l132 2175c8 125 60 179 164 179c76 0 141 -49 192 -162z" />
    <glyph glyph-name="N" unicode="N" horiz-adv-x="2340" 
d="M671 2187l1148 -1848v1991h236v-2171c0 -128 -64 -183 -158 -183s-158 55 -228 168l-1147 1849v-1993h-236v2171c0 129 65 183 158 183c90 0 158 -56 227 -167z" />
    <glyph glyph-name="O" unicode="O" horiz-adv-x="2260" 
d="M1130 -24c-703 0 -902 345 -902 1189s199 1189 902 1189s901 -345 901 -1189s-198 -1189 -901 -1189zM1130 193c616 0 641 403 641 972c0 571 -25 972 -641 972c-618 0 -641 -401 -641 -972c0 -569 23 -972 641 -972z" />
    <glyph glyph-name="P" unicode="P" horiz-adv-x="2031" 
d="M538 952v-952h-257v2299c206 34 462 55 712 55c498 0 906 -100 906 -702c0 -588 -363 -716 -879 -716c-128 0 -367 10 -482 16zM538 2113v-946c186 -20 320 -21 455 -21c416 0 650 100 650 506c0 350 -169 492 -638 492c-131 0 -301 -9 -467 -31z" />
    <glyph glyph-name="Q" unicode="Q" horiz-adv-x="2260" 
d="M1130 -24c-704 0 -902 345 -902 1189s198 1189 902 1189c702 0 901 -345 901 -1189c0 -727 -148 -1084 -637 -1168c105 -171 261 -256 474 -357l-180 -129c-191 93 -441 194 -558 465zM1771 1165c0 571 -26 972 -641 972c-619 0 -641 -401 -641 -972
c0 -569 22 -972 641 -972c615 0 641 403 641 972z" />
    <glyph glyph-name="R" unicode="R" horiz-adv-x="2092" 
d="M537 0h-256v2299c205 34 462 55 711 55c495 0 906 -93 906 -691c0 -454 -227 -631 -573 -686l571 -977h-300l-541 956h-36c-127 0 -367 10 -482 16v-972zM537 2114v-926c187 -20 320 -21 455 -21c413 0 650 102 650 496c0 347 -171 482 -638 482c-131 0 -300 -9 -467 -31
z" />
    <glyph glyph-name="S" unicode="S" horiz-adv-x="1746" 
d="M1050 2135c-339 0 -640 -45 -640 -357c0 -307 133 -360 535 -475c378 -108 648 -260 648 -671c0 -480 -296 -656 -827 -656c-249 0 -414 19 -596 55l25 210c184 -27 391 -44 561 -44c333 0 570 76 570 423c0 290 -198 369 -516 465c-413 124 -657 232 -657 648
c0 468 285 621 795 621c209 0 423 -24 589 -53l-23 -206c-142 21 -307 40 -464 40z" />
    <glyph glyph-name="T" unicode="T" horiz-adv-x="1681" 
d="M1606 2330v-212h-637v-2118h-257v2118h-638v212h1532z" />
    <glyph glyph-name="U" unicode="U" horiz-adv-x="2227" 
d="M1949 2330v-1577c0 -616 -332 -777 -841 -777c-507 0 -840 161 -840 777v1577h254v-1603c0 -361 166 -531 586 -531c424 0 586 170 586 531v1603h255z" />
    <glyph glyph-name="V" unicode="V" horiz-adv-x="2085" 
d="M1996 2330l-760 -2178c-43 -124 -101 -176 -194 -176c-92 0 -154 53 -197 176l-755 2178h273l681 -2023l690 2023h262z" />
    <glyph glyph-name="W" unicode="W" horiz-adv-x="3031" 
d="M400 2330l451 -2010l502 1572c39 121 91 173 179 173c87 0 142 -53 179 -173l484 -1571l446 2009h250l-502 -2173c-29 -127 -93 -181 -185 -181s-151 57 -189 180l-489 1574l-502 -1574c-39 -123 -97 -180 -189 -180s-156 56 -185 180l-510 2174h260z" />
    <glyph glyph-name="X" unicode="X" horiz-adv-x="2028" 
d="M1014 1410l570 920h280l-711 -1132l755 -1198h-298l-607 973l-600 -973h-283l746 1188l-718 1142h295z" />
    <glyph glyph-name="Y" unicode="Y" horiz-adv-x="1886" 
d="M1069 906v-906h-259v906l-743 1424h279l597 -1163l608 1163h268z" />
    <glyph glyph-name="Z" unicode="Z" horiz-adv-x="1796" 
d="M1612 2099l-1162 -1884h1199v-215h-1370c-105 0 -158 38 -158 102c0 36 17 80 47 129l1163 1885h-1133v214h1303c107 0 157 -39 157 -102c0 -36 -16 -81 -46 -129z" />
    <glyph glyph-name="a" unicode="a" horiz-adv-x="1859" 
d="M281 1551l-22 192c203 32 409 62 662 62c379 0 679 -97 679 -541v-841c0 -104 -4 -206 -10 -304c-210 -104 -460 -143 -744 -143c-477 0 -694 146 -694 532c0 309 130 504 448 552c217 33 489 43 761 52v79c0 291 -99 411 -485 411c-206 0 -405 -24 -595 -51zM393 514
c0 -274 144 -340 479 -340c155 0 329 20 482 80c5 85 7 196 7 280v396c-204 -4 -489 -10 -676 -48c-203 -41 -292 -122 -292 -368z" />
    <glyph glyph-name="b" unicode="b" horiz-adv-x="1924" 
d="M261 423v2046h242v-731c157 41 323 67 492 67c532 0 747 -233 747 -914c0 -694 -237 -915 -803 -915c-224 0 -473 40 -669 143c-6 98 -9 200 -9 304zM503 1534v-997c0 -84 2 -195 7 -280c121 -55 291 -80 429 -80c443 0 559 236 559 714c0 499 -86 713 -581 713
c-136 0 -304 -32 -414 -70z" />
    <glyph glyph-name="c" unicode="c" horiz-adv-x="1501" 
d="M1360 224l23 -196c-142 -29 -282 -52 -466 -52c-600 0 -711 422 -711 934c0 583 132 895 775 895c157 0 288 -21 399 -51l-20 -186c-79 14 -200 30 -297 30c-557 0 -611 -195 -611 -688c0 -463 41 -724 608 -724c91 0 214 20 300 38z" />
    <glyph glyph-name="d" unicode="d" horiz-adv-x="1926" 
d="M1415 1738v731h242v-2046c0 -104 -4 -206 -10 -304c-196 -103 -444 -143 -669 -143c-565 0 -803 221 -803 915c0 681 216 914 747 914c170 0 335 -26 493 -67zM1415 1534c-111 38 -278 70 -415 70c-495 0 -580 -214 -580 -713c0 -478 116 -714 558 -714
c138 0 309 25 430 80c4 85 7 196 7 280v997z" />
    <glyph glyph-name="e" unicode="e" horiz-adv-x="1934" 
d="M940 -24c-583 0 -737 387 -737 915c0 646 194 914 779 914c603 0 766 -315 766 -802c0 -50 -2 -116 -5 -169c-204 -34 -626 -74 -875 -84l-422 -17c30 -365 140 -552 589 -552c232 0 446 25 629 50l22 -196c-204 -31 -409 -59 -746 -59zM440 917l471 22
c156 7 424 28 588 49c3 36 4 88 4 125c0 302 -132 494 -521 494c-448 0 -542 -230 -542 -690z" />
    <glyph glyph-name="f" unicode="f" horiz-adv-x="1128" 
d="M648 1982v-201h400v-192h-400v-1589h-243v1589h-316v192h316v191c0 338 172 521 514 521c43 0 105 -4 152 -12l-19 -180h-84c-198 0 -320 -88 -320 -319z" />
    <glyph glyph-name="g" unicode="g" horiz-adv-x="1936" 
d="M314 -616l22 193c190 -29 401 -54 606 -54c386 0 485 120 485 412v148c-158 -41 -323 -67 -492 -67c-528 0 -748 222 -748 894c0 676 242 895 803 895c225 0 473 -40 669 -143c6 -98 10 -200 10 -304v-1497c0 -444 -300 -541 -679 -541c-253 0 -473 31 -676 64zM990 1604
c-438 0 -558 -231 -558 -694c0 -488 90 -693 580 -693c137 0 304 32 415 70v957c0 84 -3 195 -7 280c-121 55 -292 80 -430 80z" />
    <glyph glyph-name="h" unicode="h" horiz-adv-x="1938" 
d="M1712 0h-242v1118c0 337 -65 481 -518 481c-139 0 -307 -28 -445 -78v-1521h-242v2469h242v-738c158 44 324 73 518 74c608 3 687 -260 687 -637v-1168z" />
    <glyph glyph-name="i" unicode="i" horiz-adv-x="745" 
d="M372 2139c-116 0 -146 45 -146 176s33 178 146 178s147 -47 147 -178s-31 -176 -147 -176zM251 0v1781h243v-1781h-243z" />
    <glyph glyph-name="j" unicode="j" horiz-adv-x="755" 
d="M256 -73v1854h242v-1799c0 -478 -185 -662 -584 -662c-19 0 -39 0 -58 2l20 185c203 16 380 67 380 420zM377 2139c-116 0 -146 45 -146 176s33 178 146 178s147 -47 147 -178s-31 -176 -147 -176z" />
    <glyph glyph-name="k" unicode="k" horiz-adv-x="1687" 
d="M506 2469v-1508l775 820h293l-834 -870l886 -911h-317l-803 840v-840h-241v2469h241z" />
    <glyph glyph-name="l" unicode="l" horiz-adv-x="747" 
d="M229 461v2008h243v-1991c0 -192 47 -329 143 -451l-206 -106c-117 133 -180 293 -180 540z" />
    <glyph glyph-name="m" unicode="m" horiz-adv-x="3002" 
d="M503 1235v-1235h-242v1352c0 104 3 206 10 304c191 82 483 149 732 149c226 0 370 -54 461 -144c178 87 410 144 654 144c534 0 613 -296 613 -648v-1157h-242v1114c0 338 -84 486 -447 486c-129 0 -316 -37 -468 -118c33 -96 43 -207 43 -325v-1157h-243v1114
c0 338 -83 486 -447 486c-112 0 -307 -37 -417 -86c-5 -84 -7 -195 -7 -279z" />
    <glyph glyph-name="n" unicode="n" horiz-adv-x="2003" 
d="M502 1235v-1235h-242v1352c0 104 3 206 9 304c202 88 484 149 804 149c607 0 669 -287 669 -648v-1157h-243v1113c0 336 -60 488 -507 488c-148 0 -372 -37 -483 -87c-5 -84 -7 -195 -7 -279z" />
    <glyph glyph-name="o" unicode="o" horiz-adv-x="1986" 
d="M993 -24c-574 0 -782 248 -782 915c0 666 208 914 782 914c575 0 782 -257 782 -914c0 -654 -207 -915 -782 -915zM993 181c407 0 538 168 538 710c0 541 -128 709 -538 709c-401 0 -537 -144 -537 -709c0 -564 136 -710 537 -710z" />
    <glyph glyph-name="p" unicode="p" horiz-adv-x="1926" 
d="M503 43v-699h-241v2014c0 104 3 206 9 304c196 103 444 143 669 143c566 0 803 -221 803 -915c0 -681 -216 -914 -747 -914c-169 0 -335 26 -493 67zM503 247c111 -38 278 -70 415 -70c495 0 581 214 581 713c0 478 -117 714 -559 714c-138 0 -308 -25 -430 -80
c-4 -85 -7 -196 -7 -280v-997z" />
    <glyph glyph-name="q" unicode="q" horiz-adv-x="1926" 
d="M1658 1358v-2014h-242v699c-158 -41 -323 -67 -493 -67c-531 0 -747 233 -747 914c0 694 238 915 803 915c225 0 473 -40 669 -143c6 -98 10 -200 10 -304zM1416 1244c0 84 -3 195 -7 280c-121 55 -292 80 -430 80c-442 0 -558 -236 -558 -714c0 -499 85 -713 580 -713
c137 0 304 32 415 70v997z" />
    <glyph glyph-name="r" unicode="r" horiz-adv-x="1170" 
d="M501 0h-242v1358c0 104 3 206 10 304c196 103 444 143 668 143c59 0 114 -2 166 -8l-20 -206c-44 5 -92 7 -146 7c-137 0 -308 -26 -429 -81c-5 -84 -7 -196 -7 -280v-1237z" />
    <glyph glyph-name="s" unicode="s" horiz-adv-x="1573" 
d="M903 1601c-204 0 -483 -5 -483 -250c0 -238 183 -264 439 -343c358 -111 560 -202 560 -531c0 -393 -292 -501 -680 -501c-191 0 -379 18 -567 59l24 191c146 -24 310 -42 458 -42c209 0 517 0 517 279c0 226 -158 266 -436 349c-280 84 -558 150 -558 516
c0 372 257 477 616 477c224 0 390 -20 580 -59l-24 -188c-133 23 -283 43 -446 43z" />
    <glyph glyph-name="t" unicode="t" horiz-adv-x="1172" 
d="M412 2245l242 39v-503h397v-192h-397v-1114c0 -254 87 -300 303 -300c33 0 65 2 97 5l20 -185c-60 -10 -134 -19 -193 -19c-329 0 -469 142 -469 466v1147h-326v192h326v464z" />
    <glyph glyph-name="u" unicode="u" horiz-adv-x="1996" 
d="M252 624v1157h243v-1113c0 -336 60 -488 506 -488c146 0 367 37 478 87c5 84 7 195 7 279v1235h242v-1352c0 -104 -3 -206 -9 -304c-202 -88 -482 -149 -800 -149c-606 0 -667 287 -667 648z" />
    <glyph glyph-name="v" unicode="v" horiz-adv-x="1863" 
d="M1756 1781l-636 -1632c-45 -116 -100 -173 -190 -173c-93 0 -152 57 -196 173l-627 1632h259l567 -1516l575 1516h248z" />
    <glyph glyph-name="w" unicode="w" horiz-adv-x="2837" 
d="M392 1781l393 -1514l471 1205c44 112 88 168 171 168c86 0 134 -57 176 -168l451 -1203l401 1512h240l-454 -1630c-33 -119 -94 -175 -182 -175c-90 0 -142 60 -186 175l-449 1175l-467 -1175c-46 -115 -94 -175 -184 -175c-91 0 -154 57 -186 176l-444 1629h249z" />
    <glyph glyph-name="x" unicode="x" horiz-adv-x="1805" 
d="M909 1117l443 664h266l-579 -849l636 -932h-287l-495 738l-491 -738h-271l632 926l-582 855h283z" />
    <glyph glyph-name="y" unicode="y" horiz-adv-x="1720" 
d="M922 442l448 1339h246l-829 -2437h-246l270 781l-720 1656h259z" />
    <glyph glyph-name="z" unicode="z" horiz-adv-x="1749" 
d="M1548 1603l-1066 -1399h1050v-204h-1293c-70 0 -108 33 -108 82c0 28 12 62 39 97l1067 1404h-1028v198h1269c70 0 109 -33 109 -82c0 -28 -13 -62 -39 -96z" />
    <glyph glyph-name="zero" unicode="0" horiz-adv-x="2079" 
d="M1039 -24c-672 0 -808 380 -808 1154s136 1154 808 1154s810 -380 810 -1154s-138 -1154 -810 -1154zM1039 185c536 0 559 385 559 945c0 561 -23 945 -559 945s-557 -384 -557 -945c0 -560 21 -945 557 -945z" />
    <glyph glyph-name="one" unicode="1" horiz-adv-x="1164" 
d="M633 0v1993c-184 -53 -394 -97 -561 -122l-12 207c245 39 475 117 621 182h200v-2260h-248z" />
    <glyph glyph-name="two" unicode="2" horiz-adv-x="1794" 
d="M200 2021l-24 198c197 35 433 65 677 65c456 0 770 -131 770 -532c0 -418 -246 -656 -654 -823c-397 -163 -483 -354 -533 -709h1186v-220h-1480c116 656 194 902 686 1110c314 133 544 294 544 582c0 289 -175 376 -633 376c-188 0 -405 -26 -539 -47z" />
    <glyph glyph-name="three" unicode="3" horiz-adv-x="1799" 
d="M765 2284c415 0 795 -83 795 -537c0 -276 -119 -463 -356 -557c197 -57 395 -224 395 -529c0 -527 -325 -685 -850 -685c-238 0 -446 25 -631 61l28 204c170 -22 358 -48 532 -48c445 0 661 92 661 451c0 248 -152 391 -383 415c-110 12 -240 16 -377 16
c-30 0 -61 -1 -92 -1v193c161 3 332 19 469 39c230 34 350 186 350 387c0 350 -240 378 -586 378c-191 0 -370 -21 -553 -47l-26 199c195 36 367 61 624 61z" />
    <glyph glyph-name="four" unicode="4" horiz-adv-x="1975" 
d="M1273 0v547h-965c-163 0 -205 71 -205 160c0 54 31 133 123 252l908 1171c83 106 157 154 246 154c79 0 140 -52 140 -172v-1364h310v-201h-310v-547h-247zM1274 1957l-929 -1209h929v1209z" />
    <glyph glyph-name="five" unicode="5" horiz-adv-x="1821" 
d="M509 2041l-48 -687c51 3 195 8 238 8c552 0 948 -81 948 -672c0 -517 -291 -714 -823 -714c-236 0 -456 23 -660 63l28 204c167 -28 357 -48 541 -48c468 0 655 98 655 524c0 386 -327 437 -763 437c-150 0 -270 -3 -412 -11l76 1115h1295v-219h-1075z" />
    <glyph glyph-name="six" unicode="6" horiz-adv-x="2012" 
d="M1059 1388c488 0 786 -133 786 -692c0 -578 -332 -720 -840 -720c-643 0 -788 358 -788 927c0 1051 229 1381 1258 1381c23 0 51 0 187 -3l21 -205c-534 -19 -1165 31 -1194 -734c179 23 408 46 570 46zM993 1186c-137 0 -359 -27 -520 -49c-8 -108 -8 -193 -8 -282
c0 -339 62 -669 531 -669c452 0 601 142 601 515c0 407 -209 485 -604 485z" />
    <glyph glyph-name="seven" unicode="7" horiz-adv-x="1686" 
d="M1574 2026l-929 -2026h-282l973 2043h-1253v217h1333c125 0 185 -51 185 -130c0 -31 -9 -65 -27 -104z" />
    <glyph glyph-name="eight" unicode="8" horiz-adv-x="2023" 
d="M1011 2284c453 0 779 -160 779 -549c0 -262 -74 -429 -360 -560c229 -95 395 -251 395 -573c0 -514 -372 -626 -814 -626c-468 0 -812 145 -812 629c0 320 161 470 392 569c-261 119 -355 289 -355 561c0 388 311 549 775 549zM1011 182c314 0 568 73 568 432
c0 315 -204 421 -620 452c-302 -38 -515 -141 -515 -452c0 -351 255 -432 567 -432zM1065 1271c274 46 487 138 487 419c0 326 -251 392 -541 392c-287 0 -535 -63 -535 -392c0 -270 199 -394 589 -419z" />
    <glyph glyph-name="nine" unicode="9" horiz-adv-x="2008" 
d="M943 872c-488 0 -786 133 -786 692c0 578 332 720 840 720c643 0 788 -358 788 -927c0 -1051 -229 -1381 -1257 -1381c-24 0 -52 0 -188 3l-21 205c535 19 1165 -31 1195 734c-180 -23 -409 -46 -571 -46zM1009 1074c137 0 359 27 520 49c8 108 8 193 8 282
c0 339 -61 669 -531 669c-452 0 -601 -142 -601 -515c0 -407 209 -485 604 -485z" />
    <glyph glyph-name="Aacute" unicode="&#xc1;" horiz-adv-x="2195" 
d="M355 0h-264l807 2179c43 117 110 175 205 175c94 0 162 -58 205 -175l796 -2179h-273l-240 670h-996zM999 2563l314 387h313l-416 -387h-211zM668 875h849l-424 1184z" />
    <glyph glyph-name="Abreve" unicode="&#x102;" horiz-adv-x="2195" 
d="M1341 2914h158c-20 -192 -141 -347 -403 -347s-382 155 -402 347h156c17 -107 96 -202 246 -202c149 0 228 95 245 202zM91 0l807 2179c43 117 109 175 205 175c94 0 162 -57 205 -175l796 -2179h-274l-240 670h-996l-240 -670h-263zM1517 875l-424 1184l-425 -1184h849z
" />
    <glyph glyph-name="Acircumflex" unicode="&#xc2;" horiz-adv-x="2195" 
d="M355 0h-263l806 2179c43 118 110 175 205 175s162 -58 205 -175l796 -2179h-273l-240 670h-996zM987 2950h214l342 -387h-214l-232 267l-235 -267h-210zM669 875h849l-424 1184z" />
    <glyph glyph-name="Adieresis" unicode="&#xc4;" horiz-adv-x="2195" 
d="M354 0h-263l807 2179c43 117 109 175 204 175s163 -57 206 -175l796 -2179h-274l-240 670h-996zM833 2599c-85 0 -154 67 -154 152s69 153 154 153s151 -68 151 -153s-66 -152 -151 -152zM1368 2599c-85 0 -153 67 -153 152s68 153 153 153c86 0 152 -68 152 -153
s-66 -152 -152 -152zM668 875h849l-424 1184z" />
    <glyph glyph-name="Agrave" unicode="&#xc0;" horiz-adv-x="2195" 
d="M355 0h-263l806 2179c43 118 110 175 205 175s162 -58 205 -175l796 -2179h-273l-240 670h-996zM999 2583l-417 387h313l314 -387h-210zM669 875h849l-424 1184z" />
    <glyph glyph-name="Aogonek" unicode="&#x104;" horiz-adv-x="2195" 
d="M2166 -451l45 -117c-70 -56 -173 -87 -258 -87c-165 0 -290 98 -290 264c0 155 119 305 214 391h-46l-240 670h-996l-240 -670h-263l806 2179c43 118 110 175 205 175s162 -58 205 -175l796 -2179h-77c-71 -73 -178 -203 -178 -324c0 -101 63 -167 163 -167
c63 0 117 18 154 40zM669 875h849l-424 1184z" />
    <glyph glyph-name="Aring" unicode="&#xc5;" horiz-adv-x="2195" 
d="M354 0h-263l807 2179c43 117 109 175 205 175c94 0 162 -57 205 -175l796 -2179h-274l-240 670h-996zM1098 2531c-180 0 -326 146 -326 326c0 179 146 325 326 325c179 0 325 -146 325 -325c0 -180 -146 -326 -325 -326zM1098 2664c106 0 193 85 193 193
c0 106 -87 192 -193 192c-107 0 -193 -86 -193 -192c0 -108 86 -193 193 -193zM668 875h849l-424 1184z" />
    <glyph glyph-name="Atilde" unicode="&#xc3;" horiz-adv-x="2195" 
d="M1350 2911h152c-21 -213 -129 -316 -237 -316c-187 0 -209 161 -308 161c-57 0 -93 -47 -111 -154h-152c20 213 128 316 236 316c187 0 209 -161 309 -161c57 0 93 47 111 154zM92 0l806 2179c43 118 110 175 205 175s162 -58 205 -175l796 -2179h-273l-240 670h-996
l-240 -670h-263zM1517 875l-424 1184l-425 -1184h849z" />
    <glyph glyph-name="AE" unicode="&#xc6;" horiz-adv-x="3042" 
d="M354 0h-263l773 2083c79 214 268 271 466 271c125 0 254 -38 339 -153c139 126 372 135 615 135c148 0 382 -6 573 -14v-201h-583c-430 0 -500 -77 -500 -446v-384h1035v-209h-1035v-430c0 -368 70 -443 500 -443h583v-204c-185 -8 -395 -11 -573 -11
c-395 0 -766 20 -766 514v162h-923zM1027 1871l-359 -996h850v968c0 217 -68 293 -221 293c-169 0 -219 -122 -270 -265z" />
    <glyph glyph-name="Cacute" unicode="&#x106;" horiz-adv-x="1765" 
d="M1660 231l24 -202c-147 -31 -327 -53 -531 -53c-753 0 -936 362 -936 1189c0 828 184 1189 936 1189c201 0 384 -21 531 -51l-24 -205c-127 19 -273 37 -407 37c-716 0 -774 -343 -774 -970c0 -629 70 -970 774 -970c137 0 274 16 407 36zM1513 2938l-417 -387h-211
l315 387h313z" />
    <glyph glyph-name="Ccaron" unicode="&#x10c;" horiz-adv-x="1765" 
d="M1660 231l24 -202c-148 -31 -327 -53 -532 -53c-752 0 -935 362 -935 1189c0 828 184 1189 935 1189c201 0 384 -21 532 -51l-25 -205c-126 19 -272 37 -407 37c-715 0 -773 -343 -773 -970c0 -629 69 -970 773 -970c138 0 275 16 408 36zM1044 2671l235 267h209
l-334 -387h-214l-342 387h213z" />
    <glyph glyph-name="Ccedilla" unicode="&#xc7;" horiz-adv-x="1765" 
d="M1684 2303l-24 -205c-127 19 -273 37 -407 37c-716 0 -774 -343 -774 -970c0 -629 70 -970 774 -970c137 0 274 16 407 36l24 -202c-133 -28 -292 -48 -472 -52l-85 -134c136 -7 257 -87 257 -228c0 -193 -167 -264 -346 -264c-82 0 -171 20 -234 55l45 122
c60 -28 131 -45 191 -45c71 0 157 26 157 118c0 115 -181 155 -277 155l132 222c-668 32 -835 398 -835 1187c0 828 184 1189 936 1189c201 0 384 -21 531 -51z" />
    <glyph glyph-name="Dcaron" unicode="&#x10e;" horiz-adv-x="2235" 
d="M922 2139c-118 0 -263 -14 -384 -29v-1889c121 -16 266 -30 384 -30c817 0 821 421 821 974s-4 974 -821 974zM282 31v2270c205 33 462 53 708 53c860 0 1012 -397 1012 -1189s-152 -1189 -1012 -1189c-246 0 -503 21 -708 55zM1053 2674l236 267h209l-334 -387h-214
l-343 387h214z" />
    <glyph glyph-name="Dcroat" unicode="&#x110;" horiz-adv-x="2330" 
d="M377 1109h-203v189h203v1003c205 33 462 53 708 53c860 0 1012 -397 1012 -1189s-152 -1189 -1012 -1189c-246 0 -503 21 -708 55v1078zM633 1109v-888c121 -16 266 -30 384 -30c817 0 821 421 821 974s-4 974 -821 974c-118 0 -263 -14 -384 -29v-812h376v-189h-376z
" />
    <glyph glyph-name="Eacute" unicode="&#xc9;" horiz-adv-x="1796" 
d="M1610 2322v-201h-583c-429 0 -499 -77 -499 -446v-384h1035v-209h-1035v-430c0 -368 70 -443 499 -443h583v-204c-184 -8 -395 -11 -573 -11c-395 0 -766 20 -766 514v1312c0 494 371 516 766 516c149 0 383 -6 573 -14zM824 2545l314 387h313l-416 -387h-211z" />
    <glyph glyph-name="Ecaron" unicode="&#x11a;" horiz-adv-x="1795" 
d="M1610 2322v-201h-583c-430 0 -500 -77 -500 -446v-384h1035v-209h-1035v-430c0 -368 70 -443 500 -443h583v-204c-185 -8 -396 -11 -573 -11c-395 0 -766 20 -766 514v1312c0 494 371 516 766 516c148 0 382 -6 573 -14zM527 2932h213l233 -267l235 267h209l-334 -387
h-214z" />
    <glyph glyph-name="Ecircumflex" unicode="&#xca;" horiz-adv-x="1796" 
d="M1610 2322v-201h-583c-429 0 -499 -77 -499 -446v-384h1035v-209h-1035v-430c0 -368 70 -443 499 -443h583v-204c-184 -8 -395 -11 -573 -11c-395 0 -766 20 -766 514v1312c0 494 371 516 766 516c149 0 383 -6 573 -14zM881 2932h215l341 -387h-213l-233 267l-235 -267
h-209z" />
    <glyph glyph-name="Edieresis" unicode="&#xcb;" horiz-adv-x="1796" 
d="M1610 2322v-201h-583c-429 0 -499 -77 -499 -446v-384h1035v-209h-1035v-430c0 -368 70 -443 499 -443h583v-204c-184 -8 -395 -11 -573 -11c-395 0 -766 20 -766 514v1312c0 494 371 516 766 516c149 0 383 -6 573 -14zM736 2583c-85 0 -154 67 -154 152s69 153 154 153
s150 -68 150 -153s-65 -152 -150 -152zM1271 2583c-85 0 -153 67 -153 152s68 153 153 153c86 0 152 -68 152 -153s-66 -152 -152 -152z" />
    <glyph glyph-name="Egrave" unicode="&#xc8;" horiz-adv-x="1795" 
d="M1610 2322v-201h-583c-429 0 -500 -77 -500 -446v-384h1035v-209h-1035v-430c0 -368 71 -443 500 -443h583v-204c-184 -8 -395 -11 -573 -11c-395 0 -766 20 -766 514v1312c0 494 371 516 766 516c148 0 382 -6 573 -14zM1024 2545l-418 387h313l315 -387h-210z" />
    <glyph glyph-name="Eogonek" unicode="&#x118;" horiz-adv-x="1796" 
d="M1610 2121h-583c-429 0 -499 -77 -499 -446v-384h1035v-209h-1035v-430c0 -368 70 -443 499 -443h583v-204c-66 -3 -135 -5 -204 -7c-71 -73 -176 -202 -176 -322c0 -101 63 -167 163 -167c63 0 117 18 154 40l45 -117c-70 -56 -173 -87 -258 -87
c-165 0 -290 98 -290 264c0 152 114 300 209 387c-75 -1 -148 -2 -216 -2c-395 0 -766 20 -766 514v1312c0 494 371 516 766 516c149 0 383 -6 573 -14v-201z" />
    <glyph glyph-name="Gbreve" unicode="&#x11e;" horiz-adv-x="2124" 
d="M1233 1015v207h678v-860c0 -362 -320 -386 -754 -386c-750 0 -935 362 -935 1189c0 837 185 1189 935 1189c243 0 477 -16 684 -53l-23 -206c-185 25 -398 39 -561 39c-715 0 -773 -339 -773 -969c0 -624 61 -970 773 -970c380 0 400 116 400 286v534h-424zM720 2909h157
c17 -107 96 -202 245 -202c150 0 229 95 246 202h157c-20 -192 -140 -347 -403 -347c-261 0 -382 155 -402 347z" />
    <glyph glyph-name="Iacute" unicode="&#xcd;" horiz-adv-x="822" 
d="M283 0v2330h257v-2330h-257zM302 2553l314 387h313l-416 -387h-211z" />
    <glyph glyph-name="Icircumflex" unicode="&#xce;" horiz-adv-x="822" 
d="M301 2924h214l342 -387h-213l-233 267l-235 -267h-209zM283 0v2330h257v-2330h-257z" />
    <glyph glyph-name="Idieresis" unicode="&#xcf;" horiz-adv-x="823" 
d="M146 2576c-85 0 -154 67 -154 152s69 153 154 153s151 -68 151 -153s-66 -152 -151 -152zM681 2576c-85 0 -153 67 -153 152s68 153 153 153c86 0 152 -68 152 -153s-66 -152 -152 -152zM283 0v2330h258v-2330h-258z" />
    <glyph glyph-name="Idotaccent" unicode="&#x130;" horiz-adv-x="822" 
d="M412 2578c-88 0 -159 70 -159 159s71 158 159 158c90 0 158 -69 158 -158s-68 -159 -158 -159zM283 0v2330h257v-2330h-257z" />
    <glyph glyph-name="Igrave" unicode="&#xcc;" horiz-adv-x="823" 
d="M311 2553l-417 387h313l315 -387h-211zM283 0v2330h258v-2330h-258z" />
    <glyph glyph-name="Lacute" unicode="&#x139;" horiz-adv-x="1614" 
d="M1573 209v-206c-187 -7 -368 -9 -531 -9c-395 0 -766 20 -766 514v1822h257v-1678c0 -366 71 -443 500 -443h540zM927 2940l-417 -387h-211l315 387h313z" />
    <glyph glyph-name="Lcaron" unicode="&#x13d;" horiz-adv-x="1614" 
d="M1574 209v-206c-187 -7 -369 -9 -532 -9c-395 0 -766 20 -766 514v1822h257v-1678c0 -366 71 -443 500 -443h541zM1191 2330l-244 -686h-169l183 686h230z" />
    <glyph glyph-name="Lslash" unicode="&#x141;" horiz-adv-x="1764" 
d="M426 1161v1169h257v-984l504 362v-221l-504 -361v-474c0 -366 71 -443 500 -443h541v-206c-188 -7 -369 -9 -532 -9c-395 0 -766 20 -766 514v434l-283 -203v219z" />
    <glyph glyph-name="Nacute" unicode="&#x143;" horiz-adv-x="2341" 
d="M672 2187l1148 -1848v1991h236v-2171c0 -128 -65 -183 -158 -183c-94 0 -158 55 -228 168l-1148 1849v-1993h-236v2171c0 129 66 183 158 183c91 0 158 -55 228 -167zM1010 2548l315 387h313l-417 -387h-211z" />
    <glyph glyph-name="Ncaron" unicode="&#x147;" horiz-adv-x="2340" 
d="M671 2187l1148 -1848v1991h236v-2171c0 -128 -64 -183 -158 -183s-158 55 -228 168l-1147 1849v-1993h-236v2171c0 129 65 183 158 183c90 0 158 -56 227 -167zM723 2925h213l233 -267l235 267h209l-334 -387h-214z" />
    <glyph glyph-name="Ntilde" unicode="&#xd1;" horiz-adv-x="2340" 
d="M671 2187l1148 -1848v1991h236v-2171c0 -128 -64 -183 -158 -183s-158 55 -228 168l-1147 1849v-1993h-236v2171c0 129 65 183 158 183c90 0 158 -56 227 -167zM1432 2909h152c-20 -213 -129 -316 -237 -316c-187 0 -209 161 -308 161c-57 0 -93 -47 -111 -154h-152
c20 213 128 316 237 316c186 0 208 -161 308 -161c57 0 93 47 111 154z" />
    <glyph glyph-name="Oacute" unicode="&#xd3;" horiz-adv-x="2260" 
d="M1130 -24c-703 0 -902 345 -902 1189s199 1189 902 1189s901 -345 901 -1189s-198 -1189 -901 -1189zM1130 193c616 0 641 403 641 972c0 571 -25 972 -641 972c-618 0 -641 -401 -641 -972c0 -569 23 -972 641 -972zM953 2552l315 387h313l-417 -387h-211z" />
    <glyph glyph-name="Ocircumflex" unicode="&#xd4;" horiz-adv-x="2260" 
d="M1130 -24c-703 0 -902 345 -902 1189s199 1189 902 1189s901 -345 901 -1189s-198 -1189 -901 -1189zM1130 193c616 0 641 403 641 972c0 571 -25 972 -641 972c-619 0 -641 -401 -641 -972c0 -569 22 -972 641 -972zM1019 2939h215l342 -387h-214l-232 267l-235 -267
h-210z" />
    <glyph glyph-name="Odieresis" unicode="&#xd6;" horiz-adv-x="2260" 
d="M864 2569c-86 0 -154 67 -154 152s68 153 154 153c85 0 150 -68 150 -153s-65 -152 -150 -152zM1130 -24c-703 0 -902 345 -902 1189s199 1189 902 1189s901 -345 901 -1189s-198 -1189 -901 -1189zM1130 193c616 0 641 403 641 972c0 571 -25 972 -641 972
c-619 0 -641 -401 -641 -972c0 -569 22 -972 641 -972zM1399 2569c-85 0 -153 67 -153 152s68 153 153 153s151 -68 151 -153s-66 -152 -151 -152z" />
    <glyph glyph-name="Ograve" unicode="&#xd2;" horiz-adv-x="2260" 
d="M1130 -24c-703 0 -902 345 -902 1189s199 1189 902 1189s901 -345 901 -1189s-198 -1189 -901 -1189zM1130 193c616 0 641 403 641 972c0 571 -25 972 -641 972c-618 0 -641 -401 -641 -972c0 -569 23 -972 641 -972zM1115 2552l-417 387h313l315 -387h-211z" />
    <glyph glyph-name="Ohungarumlaut" unicode="&#x150;" horiz-adv-x="2260" 
d="M1130 -24c-703 0 -902 345 -902 1189s199 1189 902 1189s901 -345 901 -1189s-198 -1189 -901 -1189zM1130 193c616 0 641 403 641 972c0 571 -25 972 -641 972c-618 0 -641 -401 -641 -972c0 -569 23 -972 641 -972zM737 2560l298 386h306l-404 -386h-200zM1233 2560
l300 386h306l-405 -386h-201z" />
    <glyph glyph-name="Otilde" unicode="&#xd5;" horiz-adv-x="2260" 
d="M1380 2884h152c-20 -213 -128 -316 -237 -316c-186 0 -208 161 -308 161c-56 0 -92 -47 -110 -154h-153c20 213 129 316 237 316c186 0 209 -161 309 -161c56 0 92 47 110 154zM1130 2354c703 0 901 -345 901 -1189s-198 -1189 -901 -1189s-902 345 -902 1189
s199 1189 902 1189zM1130 2137c-619 0 -641 -401 -641 -972c0 -569 22 -972 641 -972c616 0 641 403 641 972c0 571 -25 972 -641 972z" />
    <glyph glyph-name="Oslash" unicode="&#xd8;" horiz-adv-x="2260" 
d="M603 85l-129 -217l-168 105l142 239c-162 189 -220 499 -220 953c0 844 199 1189 902 1189c223 0 395 -35 526 -109l129 217l168 -105l-142 -239c162 -189 220 -499 220 -953c0 -844 -198 -1189 -901 -1189c-224 0 -396 35 -527 109zM1130 2137
c-619 0 -641 -401 -641 -972c0 -296 6 -546 98 -719l947 1593c-94 63 -223 98 -404 98zM1672 1884l-947 -1593c93 -64 223 -98 405 -98c616 0 641 403 641 972c0 296 -7 546 -99 719z" />
    <glyph glyph-name="OE" unicode="&#x152;" horiz-adv-x="3295" 
d="M3110 2121h-583c-429 0 -500 -77 -500 -446v-384h1035v-209h-1035v-430c0 -368 71 -443 500 -443h583v-204c-184 -8 -395 -11 -573 -11c-309 0 -602 12 -704 266c-133 -197 -354 -284 -703 -284c-703 0 -902 345 -902 1189s199 1189 902 1189c349 0 570 -88 704 -285
c101 252 395 267 703 267c148 0 382 -6 573 -14v-201zM1130 193c616 0 641 403 641 972c0 571 -25 972 -641 972c-619 0 -641 -401 -641 -972c0 -569 22 -972 641 -972z" />
    <glyph glyph-name="Racute" unicode="&#x154;" horiz-adv-x="2092" 
d="M537 0h-256v2299c205 34 462 55 711 55c495 0 906 -93 906 -691c0 -454 -227 -631 -573 -686l570 -977h-299l-542 956h-35c-128 0 -367 10 -482 16v-972zM537 2114v-926c187 -20 320 -21 455 -21c413 0 650 102 650 496c0 347 -171 482 -638 482c-131 0 -300 -9 -467 -31
zM1458 2941l-417 -388h-210l315 388h312z" />
    <glyph glyph-name="Rcaron" unicode="&#x158;" horiz-adv-x="2092" 
d="M537 0h-256v2299c205 34 462 55 711 55c495 0 906 -93 906 -691c0 -454 -227 -631 -573 -686l570 -977h-299l-542 956h-35c-128 0 -367 10 -482 16v-972zM537 2114v-926c187 -20 320 -21 455 -21c413 0 650 102 650 496c0 347 -171 482 -638 482c-131 0 -300 -9 -467 -31
zM1016 2674l236 267h209l-334 -387h-214l-343 387h214z" />
    <glyph glyph-name="Sacute" unicode="&#x15a;" horiz-adv-x="1746" 
d="M1050 2135c-339 0 -640 -45 -640 -357c0 -307 133 -360 535 -475c378 -108 648 -260 648 -671c0 -480 -297 -656 -827 -656c-249 0 -414 19 -596 55l25 210c184 -27 391 -44 561 -44c333 0 570 76 570 423c0 290 -198 369 -516 465c-414 124 -657 232 -657 648
c0 468 285 621 795 621c209 0 423 -24 589 -53l-23 -206c-142 21 -307 40 -464 40zM1387 2948l-417 -387h-211l315 387h313z" />
    <glyph glyph-name="Scaron" unicode="&#x160;" horiz-adv-x="1746" 
d="M1050 2135c-339 0 -640 -45 -640 -357c0 -307 133 -360 535 -475c378 -108 647 -260 647 -671c0 -480 -296 -656 -826 -656c-249 0 -414 19 -596 55l25 210c184 -27 391 -44 561 -44c333 0 570 76 570 423c0 290 -198 369 -516 465c-414 124 -657 232 -657 648
c0 468 285 621 795 621c209 0 423 -24 589 -53l-24 -206c-141 21 -306 40 -463 40zM902 2681l235 267h209l-334 -387h-214l-342 387h213z" />
    <glyph glyph-name="Scedilla" unicode="&#x15e;" horiz-adv-x="1746" 
d="M1537 2301l-23 -206c-142 21 -307 40 -464 40c-339 0 -640 -45 -640 -357c0 -307 133 -360 535 -475c378 -108 648 -260 648 -671c0 -403 -210 -592 -591 -641l-94 -148c136 -7 257 -87 257 -228c0 -193 -167 -264 -346 -264c-82 0 -171 20 -235 55l46 122
c60 -28 131 -45 191 -45c71 0 157 26 157 118c0 115 -181 155 -277 155l131 221c-22 0 -44 -1 -66 -1c-249 0 -414 19 -596 55l25 210c184 -27 391 -44 561 -44c333 0 570 76 570 423c0 290 -198 369 -516 465c-414 124 -657 232 -657 648c0 468 285 621 795 621
c209 0 423 -24 589 -53z" />
    <glyph glyph-name="uni0218" unicode="&#x218;" horiz-adv-x="1746" 
d="M1049 2135c-338 0 -640 -45 -640 -357c0 -307 134 -360 536 -475c378 -108 647 -260 647 -671c0 -480 -296 -656 -826 -656c-249 0 -414 19 -597 55l26 210c184 -27 391 -44 561 -44c333 0 570 76 570 423c0 290 -198 369 -516 465c-414 124 -658 232 -658 648
c0 468 285 621 795 621c210 0 424 -24 590 -53l-24 -206c-142 21 -306 40 -464 40zM1046 -211l-228 -638h-157l170 638h215z" />
    <glyph glyph-name="Tcaron" unicode="&#x164;" horiz-adv-x="1682" 
d="M1607 2330v-212h-637v-2118h-258v2118h-638v212h1533zM394 2905h213l232 -267l236 267h209l-334 -387h-214z" />
    <glyph glyph-name="uni0162" unicode="&#x162;" horiz-adv-x="1681" 
d="M1607 2330v-212h-638v-2118h-257v2118h-638v212h1533zM563 -839l170 638h214l-227 -638h-157z" />
    <glyph glyph-name="Uacute" unicode="&#xda;" horiz-adv-x="2226" 
d="M1948 2330v-1577c0 -616 -332 -777 -840 -777s-840 161 -840 777v1577h254v-1603c0 -361 165 -531 586 -531c424 0 586 170 586 531v1603h254zM939 2536l314 387h313l-416 -387h-211z" />
    <glyph glyph-name="Ucircumflex" unicode="&#xdb;" horiz-adv-x="2226" 
d="M1948 2330v-1577c0 -616 -332 -777 -840 -777s-840 161 -840 777v1577h254v-1603c0 -361 165 -531 586 -531c424 0 586 170 586 531v1603h254zM1015 2923h215l341 -387h-213l-233 267l-235 -267h-209z" />
    <glyph glyph-name="Udieresis" unicode="&#xdc;" horiz-adv-x="2226" 
d="M1948 2330v-1577c0 -616 -332 -777 -840 -777s-840 161 -840 777v1577h254v-1603c0 -361 165 -531 586 -531c424 0 586 170 586 531v1603h254zM842 2577c-85 0 -154 67 -154 152s69 153 154 153s150 -68 150 -153s-65 -152 -150 -152zM1377 2577c-85 0 -153 67 -153 152
s68 153 153 153c86 0 152 -68 152 -153s-66 -152 -152 -152z" />
    <glyph glyph-name="Ugrave" unicode="&#xd9;" horiz-adv-x="2226" 
d="M1948 2330v-1577c0 -616 -332 -777 -840 -777s-840 161 -840 777v1577h254v-1603c0 -361 165 -531 586 -531c424 0 586 170 586 531v1603h254zM1085 2536l-418 387h313l315 -387h-210z" />
    <glyph glyph-name="Uhungarumlaut" unicode="&#x170;" horiz-adv-x="2227" 
d="M1949 2330v-1577c0 -616 -332 -777 -841 -777c-507 0 -840 161 -840 777v1577h254v-1603c0 -361 166 -531 586 -531c424 0 586 170 586 531v1603h255zM688 2564l298 386h306l-404 -386h-200zM1184 2564l299 386h306l-404 -386h-201z" />
    <glyph glyph-name="Uring" unicode="&#x16e;" horiz-adv-x="2227" 
d="M1949 2330v-1577c0 -616 -332 -777 -841 -777c-507 0 -840 161 -840 777v1577h254v-1603c0 -361 166 -531 586 -531c425 0 587 170 587 531v1603h254zM1109 2475c-179 0 -325 146 -325 326c0 179 146 325 325 325c180 0 326 -146 326 -325c0 -180 -146 -326 -326 -326z
M1109 2608c107 0 193 85 193 193c0 106 -86 192 -193 192s-193 -86 -193 -192c0 -108 86 -193 193 -193z" />
    <glyph glyph-name="Yacute" unicode="&#xdd;" horiz-adv-x="1886" 
d="M1069 906v-906h-259v906l-743 1424h279l597 -1163l608 1163h268zM794 2526l315 387h313l-417 -387h-211z" />
    <glyph glyph-name="Ydieresis" unicode="&#x178;" horiz-adv-x="1886" 
d="M696 2566c-85 0 -154 67 -154 152s69 153 154 153s150 -68 150 -153s-65 -152 -150 -152zM1231 2566c-85 0 -153 67 -153 152s68 153 153 153c86 0 152 -68 152 -153s-66 -152 -152 -152zM1068 906v-906h-258v906l-743 1424h279l597 -1163l607 1163h269z" />
    <glyph glyph-name="Zacute" unicode="&#x179;" horiz-adv-x="1796" 
d="M1611 2099l-1161 -1884h1199v-215h-1370c-105 0 -158 38 -158 102c0 36 16 80 46 129l1164 1885h-1133v214h1303c107 0 157 -39 157 -102c0 -36 -17 -81 -47 -129zM741 2536l315 387h313l-417 -387h-211z" />
    <glyph glyph-name="Zcaron" unicode="&#x17d;" horiz-adv-x="1796" 
d="M1611 2099l-1161 -1884h1199v-215h-1370c-106 0 -158 38 -158 102c0 36 16 80 46 129l1164 1885h-1133v214h1303c107 0 157 -39 157 -102c0 -36 -17 -81 -47 -129zM474 2923h214l232 -267l236 267h209l-335 -387h-214z" />
    <glyph glyph-name="Zdotaccent" unicode="&#x17b;" horiz-adv-x="1796" 
d="M1612 2099l-1162 -1884h1199v-215h-1370c-105 0 -158 38 -158 102c0 36 17 80 47 129l1163 1885h-1132v214h1302c107 0 157 -39 157 -102c0 -36 -16 -81 -46 -129zM908 2579c-89 0 -160 70 -160 159s71 158 160 158s157 -69 157 -158s-68 -159 -157 -159z" />
    <glyph glyph-name="Eth" unicode="&#xd0;" horiz-adv-x="2330" 
d="M377 1109h-203v189h203v1003c205 33 462 53 708 53c860 0 1012 -397 1012 -1189s-152 -1189 -1012 -1189c-246 0 -503 21 -708 55v1078zM633 1109v-888c121 -16 266 -30 384 -30c817 0 821 421 821 974s-4 974 -821 974c-118 0 -263 -14 -384 -29v-812h376v-189h-376z
" />
    <glyph glyph-name="Thorn" unicode="&#xde;" horiz-adv-x="2003" 
d="M263 0v2330h256v-441c147 15 302 24 455 24c494 0 906 -95 906 -682c0 -575 -367 -697 -879 -697c-128 0 -367 11 -482 17v-551h-256zM519 1671v-906c186 -19 320 -21 455 -21c412 0 650 94 650 487c0 337 -173 472 -638 472c-131 0 -300 -10 -467 -32z" />
    <glyph glyph-name="aacute" unicode="&#xe1;" horiz-adv-x="1859" 
d="M281 1551l-22 192c204 32 409 62 662 62c380 0 679 -97 679 -541v-841c0 -104 -3 -206 -10 -304c-210 -104 -460 -143 -744 -143c-477 0 -694 146 -694 532c0 309 130 504 448 552c217 33 489 43 761 52v79c0 291 -99 411 -485 411c-206 0 -405 -24 -595 -51zM393 514
c0 -274 144 -340 479 -340c155 0 329 20 482 80c5 85 7 196 7 280v396c-204 -4 -489 -10 -676 -48c-202 -41 -292 -122 -292 -368zM1367 2508l-390 -478h-197l294 478h293z" />
    <glyph glyph-name="abreve" unicode="&#x103;" horiz-adv-x="1859" 
d="M281 1551l-21 192c203 32 409 62 661 62c380 0 679 -97 679 -541v-841c0 -104 -3 -206 -9 -304c-210 -104 -460 -143 -745 -143c-477 0 -694 146 -694 532c0 309 131 504 448 552c218 33 490 43 762 52v79c0 291 -100 411 -486 411c-206 0 -404 -24 -595 -51zM394 514
c0 -274 144 -340 478 -340c156 0 330 20 482 80c5 85 8 196 8 280v396c-204 -4 -490 -10 -676 -48c-203 -41 -292 -122 -292 -368zM1196 2451h157c-20 -220 -140 -399 -403 -399c-261 0 -381 179 -402 399h157c17 -121 96 -231 245 -231c150 0 229 110 246 231z" />
    <glyph glyph-name="acircumflex" unicode="&#xe2;" horiz-adv-x="1859" 
d="M281 1551l-22 192c204 32 410 62 662 62c380 0 679 -97 679 -541v-841c0 -104 -3 -206 -9 -304c-211 -104 -461 -143 -745 -143c-477 0 -694 146 -694 532c0 309 130 504 448 552c217 33 489 43 761 52v79c0 291 -99 411 -485 411c-206 0 -405 -24 -595 -51zM394 514
c0 -274 143 -340 478 -340c156 0 329 20 482 80c5 85 7 196 7 280v396c-204 -4 -489 -10 -676 -48c-202 -41 -291 -122 -291 -368zM1337 2020h-199l-218 330l-220 -330h-195l312 478h201z" />
    <glyph glyph-name="adieresis" unicode="&#xe4;" horiz-adv-x="1859" 
d="M281 1551l-22 192c204 32 410 62 662 62c380 0 679 -97 679 -541v-841c0 -104 -3 -206 -9 -304c-211 -104 -460 -143 -745 -143c-477 0 -694 146 -694 532c0 309 130 504 448 552c217 33 489 43 761 52v79c0 291 -99 411 -485 411c-206 0 -405 -24 -595 -51zM394 514
c0 -274 143 -340 478 -340c156 0 330 20 482 80c5 85 7 196 7 280v396c-204 -4 -489 -10 -676 -48c-202 -41 -291 -122 -291 -368zM664 2407c85 0 151 -68 151 -153s-66 -152 -151 -152s-153 67 -153 152s68 153 153 153zM1200 2407c85 0 151 -68 151 -153
s-66 -152 -151 -152c-86 0 -153 67 -153 152s67 153 153 153z" />
    <glyph glyph-name="agrave" unicode="&#xe0;" horiz-adv-x="1859" 
d="M281 1551l-22 192c204 32 410 62 662 62c380 0 679 -97 679 -541v-841c0 -104 -3 -206 -9 -304c-211 -104 -461 -143 -745 -143c-477 0 -694 146 -694 532c0 309 130 504 448 552c217 33 489 43 761 52v79c0 291 -99 411 -485 411c-206 0 -405 -24 -595 -51zM394 514
c0 -274 143 -340 478 -340c156 0 329 20 482 80c5 85 7 196 7 280v396c-204 -4 -489 -10 -676 -48c-202 -41 -291 -122 -291 -368zM746 2511l293 -478h-196l-390 478h293z" />
    <glyph glyph-name="aogonek" unicode="&#x105;" horiz-adv-x="1859" 
d="M1600 1264v-841c0 -104 -3 -206 -9 -304c-81 -40 -168 -71 -260 -93c-66 -75 -141 -181 -141 -283c0 -101 63 -167 163 -167c63 0 117 18 154 40l45 -117c-70 -56 -173 -87 -258 -87c-165 0 -290 98 -290 264c0 117 67 232 142 318c-95 -12 -195 -18 -299 -18
c-477 0 -695 146 -695 532c0 309 131 504 448 552c218 33 490 43 762 52v79c0 291 -100 411 -485 411c-207 0 -405 -24 -596 -51l-21 192c203 32 409 62 662 62c379 0 678 -97 678 -541zM1362 534v396c-204 -4 -489 -10 -676 -48c-203 -41 -292 -122 -292 -368
c0 -274 144 -340 479 -340c155 0 329 20 482 80c4 85 7 196 7 280z" />
    <glyph glyph-name="aring" unicode="&#xe5;" horiz-adv-x="1859" 
d="M281 1551l-22 192c204 32 410 62 662 62c380 0 679 -97 679 -541v-841c0 -104 -3 -206 -9 -304c-211 -104 -461 -143 -745 -143c-477 0 -694 146 -694 532c0 309 130 504 448 552c217 33 489 43 761 52v79c0 291 -99 411 -485 411c-206 0 -405 -24 -595 -51zM394 514
c0 -274 143 -340 478 -340c156 0 329 20 482 80c5 85 7 196 7 280v396c-204 -4 -489 -10 -676 -48c-202 -41 -291 -122 -291 -368zM917 2635c180 0 326 -146 326 -325c0 -180 -146 -326 -326 -326c-179 0 -325 146 -325 326c0 179 146 325 325 325zM917 2502
c-107 0 -193 -86 -193 -192c0 -108 86 -193 193 -193s194 85 194 193c0 106 -87 192 -194 192z" />
    <glyph glyph-name="atilde" unicode="&#xe3;" horiz-adv-x="1859" 
d="M281 1551l-22 192c204 32 410 62 662 62c380 0 679 -97 679 -541v-841c0 -104 -3 -206 -9 -304c-211 -104 -460 -143 -745 -143c-477 0 -694 146 -694 532c0 309 130 504 448 552c217 33 489 43 761 52v79c0 291 -99 411 -485 411c-206 0 -405 -24 -595 -51zM1330 2429
c-20 -223 -129 -330 -237 -330c-187 0 -209 168 -308 168c-57 0 -93 -48 -111 -160h-152c20 222 128 329 236 329c187 0 209 -167 309 -167c57 0 93 47 111 160h152zM1361 534v396c-204 -4 -489 -10 -676 -48c-202 -41 -291 -122 -291 -368c0 -274 143 -340 478 -340
c156 0 330 20 482 80c5 85 7 196 7 280z" />
    <glyph glyph-name="ae" unicode="&#xe6;" horiz-adv-x="3093" 
d="M1564 187l-3 -83c-206 -92 -446 -128 -715 -128c-477 0 -694 146 -694 532c0 309 131 504 448 552c218 33 490 43 762 52v79c0 291 -100 411 -486 411c-206 0 -404 -24 -595 -51l-21 192c203 32 409 62 662 62c268 0 495 -49 598 -245c116 169 313 245 621 245
c603 0 766 -315 766 -802c0 -50 -2 -116 -5 -169c-204 -34 -626 -74 -875 -84l-422 -17c30 -365 140 -552 589 -552c232 0 446 25 629 50l22 -196c-204 -31 -409 -59 -746 -59c-256 0 -425 77 -535 211zM1355 254c4 85 7 196 7 280v396c-204 -4 -490 -10 -676 -48
c-203 -41 -292 -122 -292 -368c0 -274 144 -340 478 -340c156 0 330 20 483 80zM2070 939c156 7 424 28 588 49c3 36 4 88 4 125c0 302 -132 494 -521 494c-448 0 -542 -230 -542 -690z" />
    <glyph glyph-name="cacute" unicode="&#x107;" horiz-adv-x="1501" 
d="M1360 224l23 -196c-142 -29 -282 -52 -466 -52c-599 0 -711 422 -711 934c0 583 132 895 776 895c156 0 287 -21 398 -51l-19 -186c-80 14 -201 30 -298 30c-557 0 -611 -195 -611 -688c0 -463 41 -724 608 -724c92 0 215 20 300 38zM1269 2508l-390 -478h-197l294 478
h293z" />
    <glyph glyph-name="ccaron" unicode="&#x10d;" horiz-adv-x="1501" 
d="M1360 224l24 -196c-143 -29 -283 -52 -467 -52c-599 0 -711 422 -711 934c0 583 132 895 776 895c157 0 287 -21 399 -51l-20 -186c-80 14 -201 30 -297 30c-558 0 -612 -195 -612 -688c0 -463 41 -724 608 -724c92 0 215 20 300 38zM861 2181l220 330h195l-312 -478
h-201l-319 478h199z" />
    <glyph glyph-name="ccedilla" unicode="&#xe7;" horiz-adv-x="1501" 
d="M1381 1754l-20 -186c-79 14 -201 30 -297 30c-557 0 -612 -195 -612 -688c0 -463 42 -724 608 -724c92 0 215 20 301 38l23 -196c-124 -25 -246 -46 -395 -51l-86 -134c136 -7 257 -87 257 -228c0 -193 -167 -264 -346 -264c-82 0 -171 20 -234 55l45 122
c60 -28 131 -45 191 -45c71 0 157 26 157 118c0 115 -181 155 -276 155l132 223c-523 40 -623 445 -623 931c0 583 132 895 776 895c157 0 287 -21 399 -51z" />
    <glyph glyph-name="dcaron" unicode="&#x10f;" horiz-adv-x="1926" 
d="M1415 1738v731h242v-2046c0 -104 -4 -206 -10 -304c-196 -103 -444 -143 -669 -143c-565 0 -803 221 -803 915c0 681 216 914 748 914c169 0 334 -26 492 -67zM1415 1534c-111 38 -278 70 -415 70c-494 0 -580 -214 -580 -713c0 -478 116 -714 558 -714
c138 0 309 25 430 80c5 85 7 196 7 280v997zM2256 2469l-244 -686h-169l183 686h230z" />
    <glyph glyph-name="dcroat" unicode="&#x111;" horiz-adv-x="1925" 
d="M1054 2035v160h361v274h241v-274h245v-160h-245v-1612c0 -104 -3 -206 -9 -304c-196 -103 -444 -143 -669 -143c-566 0 -803 221 -803 915c0 681 216 914 747 914c169 0 335 -26 493 -67v297h-361zM1415 1534c-111 38 -278 70 -415 70c-495 0 -581 -214 -581 -713
c0 -478 117 -714 559 -714c138 0 309 25 430 80c4 85 7 196 7 280v997z" />
    <glyph glyph-name="eacute" unicode="&#xe9;" horiz-adv-x="1934" 
d="M940 -24c-583 0 -737 387 -737 915c0 646 194 914 778 914c604 0 767 -315 767 -802c0 -50 -2 -116 -5 -169c-204 -34 -626 -74 -875 -84l-422 -17c30 -365 140 -552 589 -552c232 0 446 25 629 50l22 -196c-204 -31 -409 -59 -746 -59zM440 917l471 22
c156 7 424 28 588 49c3 36 4 88 4 125c0 302 -132 494 -522 494c-447 0 -541 -230 -541 -690zM1464 2503l-390 -478h-197l294 478h293z" />
    <glyph glyph-name="ecaron" unicode="&#x11b;" horiz-adv-x="1935" 
d="M940 -24c-582 0 -737 387 -737 915c0 646 195 914 779 914c604 0 766 -315 766 -802c0 -50 -1 -116 -5 -169c-204 -34 -625 -74 -874 -84l-422 -17c30 -365 140 -552 589 -552c232 0 445 25 628 50l23 -196c-204 -31 -409 -59 -747 -59zM441 917l470 22
c157 7 424 28 589 49c3 36 4 88 4 125c0 302 -133 494 -522 494c-447 0 -541 -230 -541 -690zM976 2171l220 330h196l-313 -478h-200l-320 478h200z" />
    <glyph glyph-name="ecircumflex" unicode="&#xea;" horiz-adv-x="1935" 
d="M940 -24c-582 0 -737 387 -737 915c0 646 195 914 779 914c604 0 766 -315 766 -802c0 -50 -1 -116 -5 -169c-204 -34 -625 -74 -874 -84l-422 -17c30 -365 140 -552 589 -552c232 0 445 25 628 50l23 -196c-204 -31 -409 -59 -747 -59zM441 917l470 22
c157 7 424 28 589 49c3 36 4 88 4 125c0 302 -133 494 -522 494c-447 0 -541 -230 -541 -690zM1424 2020h-199l-218 330l-220 -330h-195l312 478h201z" />
    <glyph glyph-name="edieresis" unicode="&#xeb;" horiz-adv-x="1935" 
d="M940 -24c-583 0 -737 387 -737 915c0 646 195 914 779 914c604 0 766 -315 766 -802c0 -50 -1 -116 -5 -169c-204 -34 -625 -74 -874 -84l-422 -17c30 -365 140 -552 589 -552c232 0 445 25 628 50l23 -196c-204 -31 -409 -59 -747 -59zM758 2407c85 0 150 -68 150 -153
s-65 -152 -150 -152c-86 0 -154 67 -154 152s68 153 154 153zM441 917l470 22c157 7 424 28 589 49c3 36 4 88 4 125c0 302 -133 494 -522 494c-447 0 -541 -230 -541 -690zM1293 2407c85 0 151 -68 151 -153s-66 -152 -151 -152s-153 67 -153 152s68 153 153 153z" />
    <glyph glyph-name="egrave" unicode="&#xe8;" horiz-adv-x="1935" 
d="M940 -24c-582 0 -737 387 -737 915c0 646 195 914 779 914c604 0 766 -315 766 -802c0 -50 -1 -116 -5 -169c-204 -34 -625 -74 -874 -84l-422 -17c30 -365 140 -552 589 -552c232 0 445 25 628 50l23 -196c-204 -31 -409 -59 -747 -59zM441 917l470 22
c157 7 424 28 589 49c3 36 4 88 4 125c0 302 -133 494 -522 494c-447 0 -541 -230 -541 -690zM886 2511l294 -478h-197l-389 478h292z" />
    <glyph glyph-name="eogonek" unicode="&#x119;" horiz-adv-x="1934" 
d="M1664 231l22 -196c-116 -18 -232 -35 -371 -45c-70 -76 -159 -193 -159 -304c0 -101 63 -167 163 -167c63 0 117 18 154 40l45 -117c-70 -56 -173 -87 -258 -87c-165 0 -290 98 -290 264c0 138 95 273 183 361c-65 -2 -136 -4 -213 -4c-583 0 -737 387 -737 915
c0 646 194 914 779 914c603 0 766 -315 766 -802c0 -50 -2 -116 -5 -169c-204 -34 -626 -74 -875 -84l-422 -17c30 -365 140 -552 589 -552c232 0 446 25 629 50zM982 1607c-448 0 -542 -230 -542 -690l471 22c156 7 424 28 589 49c3 36 4 88 4 125c0 302 -133 494 -522 494
z" />
    <glyph glyph-name="gbreve" unicode="&#x11f;" horiz-adv-x="1935" 
d="M314 -616l21 193c190 -29 401 -54 606 -54c386 0 485 120 485 412v148c-157 -41 -323 -67 -492 -67c-527 0 -747 222 -747 894c0 676 241 895 803 895c224 0 473 -40 669 -143c6 -98 9 -200 9 -304v-1497c0 -444 -299 -541 -679 -541c-252 0 -472 31 -675 64zM990 1604
c-438 0 -559 -231 -559 -694c0 -488 90 -693 581 -693c136 0 304 32 414 70v957c0 84 -2 195 -7 280c-121 55 -291 80 -429 80zM1226 2451h158c-20 -220 -141 -399 -403 -399s-382 179 -402 399h156c17 -121 96 -231 246 -231c149 0 228 110 245 231z" />
    <glyph glyph-name="iacute" unicode="&#xed;" horiz-adv-x="745" 
d="M251 0v1781h243v-1781h-243zM280 2056l294 478h293l-390 -478h-197z" />
    <glyph glyph-name="icircumflex" unicode="&#xee;" horiz-adv-x="745" 
d="M269 2544h201l319 -478h-199l-218 330l-220 -330h-195zM251 0v1781h243v-1781h-243z" />
    <glyph glyph-name="idieresis" unicode="&#xef;" horiz-adv-x="745" 
d="M106 2117c-85 0 -154 67 -154 152s69 153 154 153s151 -68 151 -153s-66 -152 -151 -152zM641 2117c-85 0 -153 67 -153 152s68 153 153 153c86 0 152 -68 152 -153s-66 -152 -152 -152zM251 0v1781h243v-1781h-243z" />
    <glyph glyph-name="igrave" unicode="&#xec;" horiz-adv-x="745" 
d="M268 2056l-390 478h293l294 -478h-197zM251 0v1781h243v-1781h-243z" />
    <glyph glyph-name="dotlessi" unicode="&#x131;" horiz-adv-x="745" 
d="M251 0v1781h243v-1781h-243z" />
    <glyph glyph-name="lacute" unicode="&#x13a;" horiz-adv-x="747" 
d="M229 461v2008h243v-1991c0 -192 47 -329 143 -451l-206 -106c-117 133 -180 293 -180 540zM250 2639l314 387h313l-416 -387h-211z" />
    <glyph glyph-name="lcaron" unicode="&#x13e;" horiz-adv-x="746" 
d="M229 461v2008h242v-1991c0 -192 47 -329 143 -451l-205 -106c-117 133 -180 293 -180 540zM657 1783l184 686h230l-245 -686h-169z" />
    <glyph glyph-name="lslash" unicode="&#x142;" horiz-adv-x="808" 
d="M509 1272v-794c0 -192 46 -329 143 -451l-206 -106c-117 133 -180 293 -180 540v609l-259 -216v225l259 216v1174h243v-971l267 224v-227z" />
    <glyph glyph-name="nacute" unicode="&#x144;" horiz-adv-x="2003" 
d="M502 1235v-1235h-242v1352c0 104 4 206 10 304c202 88 484 149 804 149c607 0 668 -287 668 -648v-1157h-242v1113c0 336 -61 488 -508 488c-148 0 -372 -37 -483 -87c-5 -84 -7 -195 -7 -279zM851 2038l294 478h292l-389 -478h-197z" />
    <glyph glyph-name="ncaron" unicode="&#x148;" horiz-adv-x="2003" 
d="M502 1235v-1235h-242v1352c0 104 3 206 9 304c202 88 484 149 804 149c608 0 669 -287 669 -648v-1157h-242v1113c0 336 -61 488 -508 488c-148 0 -372 -37 -483 -87c-5 -84 -7 -195 -7 -279zM584 2508h200l217 -330l220 330h196l-313 -478h-200z" />
    <glyph glyph-name="ntilde" unicode="&#xf1;" horiz-adv-x="2003" 
d="M502 1235v-1235h-242v1352c0 104 4 206 10 304c202 88 484 149 804 149c607 0 668 -287 668 -648v-1157h-242v1113c0 336 -61 488 -508 488c-148 0 -372 -37 -483 -87c-5 -84 -7 -195 -7 -279zM1268 2439h152c-21 -223 -129 -330 -237 -330c-187 0 -209 168 -308 168
c-57 0 -93 -48 -111 -160h-152c20 222 128 329 236 329c187 0 209 -167 309 -167c57 0 93 47 111 160z" />
    <glyph glyph-name="oacute" unicode="&#xf3;" horiz-adv-x="1986" 
d="M993 -24c-575 0 -782 248 -782 915c0 666 207 914 782 914c574 0 782 -257 782 -914c0 -654 -208 -915 -782 -915zM993 181c407 0 538 168 538 710c0 541 -128 709 -538 709c-402 0 -537 -144 -537 -709c0 -564 135 -710 537 -710zM831 2047l294 478h293l-390 -478h-197z
" />
    <glyph glyph-name="ocircumflex" unicode="&#xf4;" horiz-adv-x="1986" 
d="M993 -24c-574 0 -782 248 -782 915c0 666 208 914 782 914c575 0 782 -257 782 -914c0 -654 -207 -915 -782 -915zM993 181c407 0 538 168 538 710c0 541 -128 709 -538 709c-402 0 -537 -144 -537 -709c0 -564 135 -710 537 -710zM889 2508h200l320 -478h-200l-217 330
l-220 -330h-196z" />
    <glyph glyph-name="odieresis" unicode="&#xf6;" horiz-adv-x="1986" 
d="M726 2102c-85 0 -153 67 -153 152s68 153 153 153s151 -68 151 -153s-66 -152 -151 -152zM993 -24c-575 0 -782 248 -782 915c0 666 207 914 782 914s782 -257 782 -914c0 -654 -207 -915 -782 -915zM993 181c407 0 538 168 538 710c0 541 -128 709 -538 709
c-402 0 -537 -144 -537 -709c0 -564 135 -710 537 -710zM1262 2102c-86 0 -153 67 -153 152s67 153 153 153c85 0 151 -68 151 -153s-66 -152 -151 -152z" />
    <glyph glyph-name="ograve" unicode="&#xf2;" horiz-adv-x="1985" 
d="M992 -24c-574 0 -781 248 -781 915c0 666 207 914 781 914c575 0 782 -257 782 -914c0 -654 -207 -915 -782 -915zM992 181c407 0 538 168 538 710c0 541 -127 709 -538 709c-401 0 -537 -144 -537 -709c0 -564 136 -710 537 -710zM972 2033l-389 478h292l294 -478h-197z
" />
    <glyph glyph-name="ohungarumlaut" unicode="&#x151;" horiz-adv-x="1985" 
d="M993 -24c-575 0 -782 248 -782 915c0 666 207 914 782 914c574 0 781 -257 781 -914c0 -654 -207 -915 -781 -915zM993 181c406 0 538 168 538 710c0 541 -128 709 -538 709c-402 0 -537 -144 -537 -709c0 -564 135 -710 537 -710zM613 2059l279 478h286l-377 -478h-188z
M1077 2059l280 478h286l-378 -478h-188z" />
    <glyph glyph-name="otilde" unicode="&#xf5;" horiz-adv-x="1985" 
d="M1244 2419h152c-20 -223 -129 -330 -237 -330c-187 0 -209 168 -308 168c-57 0 -92 -48 -111 -160h-152c20 222 128 329 237 329c186 0 209 -167 308 -167c57 0 93 47 111 160zM992 1805c575 0 782 -257 782 -914c0 -654 -207 -915 -782 -915c-574 0 -781 248 -781 915
c0 666 207 914 781 914zM992 1600c-401 0 -537 -144 -537 -709c0 -564 136 -710 537 -710c407 0 538 168 538 710c0 541 -127 709 -538 709z" />
    <glyph glyph-name="oslash" unicode="&#xf8;" horiz-adv-x="1985" 
d="M546 59l-123 -191l-129 88l125 192c-147 143 -208 381 -208 743c0 666 207 914 782 914c184 0 331 -27 445 -85l125 192l128 -87l-126 -195c148 -143 209 -382 209 -739c0 -654 -207 -915 -781 -915c-186 0 -333 26 -447 83zM993 181c406 0 537 168 537 710
c0 252 -28 423 -99 534l-765 -1181c81 -46 188 -63 327 -63zM552 354l766 1180c-80 46 -186 66 -325 66c-402 0 -538 -144 -538 -709c0 -258 28 -428 97 -537z" />
    <glyph glyph-name="oe" unicode="&#x153;" horiz-adv-x="3262" 
d="M992 1805c340 0 547 -93 659 -310c110 215 314 310 658 310c604 0 766 -315 766 -802c0 -50 -1 -116 -5 -169c-204 -34 -625 -74 -874 -84l-422 -17c30 -365 140 -552 589 -552c232 0 445 25 628 50l23 -196c-204 -31 -409 -59 -747 -59c-321 0 -508 122 -610 321
c-112 -225 -320 -321 -665 -321c-574 0 -781 248 -781 915c0 666 207 914 781 914zM992 1600c-401 0 -537 -144 -537 -709c0 -564 136 -710 537 -710c407 0 538 168 538 710c0 541 -128 709 -538 709zM1768 917l470 22c157 7 424 28 589 49c3 36 4 88 4 125
c0 302 -133 494 -522 494c-447 0 -541 -230 -541 -690z" />
    <glyph glyph-name="racute" unicode="&#x155;" horiz-adv-x="1169" 
d="M500 0h-241v1358c0 104 3 206 9 304c196 103 444 143 669 143c59 0 114 -2 166 -8l-21 -206c-43 5 -92 7 -145 7c-138 0 -309 -26 -430 -81c-4 -84 -7 -196 -7 -280v-1237zM774 2518h293l-390 -478h-197z" />
    <glyph glyph-name="rcaron" unicode="&#x159;" horiz-adv-x="1170" 
d="M501 0h-242v1358c0 104 3 206 9 304c196 103 445 143 669 143c59 0 114 -2 166 -8l-20 -206c-44 5 -93 7 -146 7c-138 0 -308 -26 -429 -81c-5 -84 -7 -196 -7 -280v-1237zM456 2508l217 -330l220 330h196l-313 -478h-200l-320 478h200z" />
    <glyph glyph-name="sacute" unicode="&#x15b;" horiz-adv-x="1573" 
d="M903 1601c-204 0 -483 -5 -483 -250c0 -238 183 -264 439 -343c358 -111 560 -202 560 -531c0 -393 -292 -501 -680 -501c-191 0 -379 18 -567 59l24 191c145 -24 310 -42 458 -42c209 0 517 0 517 279c0 226 -158 266 -436 349c-280 84 -558 150 -558 516
c0 372 257 477 616 477c224 0 390 -20 580 -59l-24 -188c-133 23 -283 43 -446 43zM1273 2528l-390 -478h-196l293 478h293z" />
    <glyph glyph-name="scaron" unicode="&#x161;" horiz-adv-x="1573" 
d="M903 1601c-204 0 -483 -5 -483 -250c0 -238 183 -264 438 -343c359 -111 561 -202 561 -531c0 -393 -293 -501 -680 -501c-191 0 -379 18 -567 59l24 191c145 -24 310 -42 458 -42c209 0 516 0 516 279c0 226 -157 266 -435 349c-280 84 -559 150 -559 516
c0 372 258 477 617 477c224 0 390 -20 580 -59l-24 -188c-133 23 -284 43 -446 43zM794 2181l220 330h196l-313 -478h-200l-320 478h200z" />
    <glyph glyph-name="scedilla" unicode="&#x15f;" horiz-adv-x="1573" 
d="M935 -12l-92 -146c136 -7 257 -87 257 -228c0 -193 -167 -264 -346 -264c-82 0 -171 20 -235 55l46 122c60 -28 131 -45 191 -45c71 0 157 26 157 118c0 115 -181 155 -277 155l131 221h-28c-191 0 -379 18 -567 59l24 191c146 -24 310 -42 458 -42c209 0 517 0 517 279
c0 226 -158 266 -436 349c-280 84 -558 150 -558 516c0 372 257 477 616 477c224 0 390 -20 580 -59l-24 -188c-133 23 -283 43 -446 43c-204 0 -483 -5 -483 -250c0 -238 183 -264 439 -343c358 -111 560 -202 560 -531c0 -324 -198 -454 -484 -489z" />
    <glyph glyph-name="uni0219" unicode="&#x219;" horiz-adv-x="1573" 
d="M902 1601c-204 0 -483 -5 -483 -250c0 -238 184 -264 439 -343c358 -111 561 -202 561 -531c0 -393 -293 -501 -681 -501c-191 0 -379 18 -567 59l24 191c146 -24 310 -42 459 -42c208 0 516 0 516 279c0 226 -158 266 -435 349c-280 84 -559 150 -559 516
c0 372 257 477 617 477c224 0 389 -20 580 -59l-25 -188c-133 23 -283 43 -446 43zM972 -204l-228 -638h-157l170 638h215z" />
    <glyph glyph-name="germandbls" unicode="&#xdf;" horiz-adv-x="2050" 
d="M497 1596v-1596h-242v1596c0 643 217 897 758 897c513 0 723 -232 723 -530c0 -473 -557 -390 -557 -709c0 -361 716 -186 716 -787c0 -367 -241 -491 -546 -491c-142 0 -316 23 -475 67l20 192c131 -30 269 -54 366 -54c137 0 389 4 389 272c0 444 -713 249 -713 801
c0 473 556 335 556 731c0 167 -137 303 -479 303c-373 0 -516 -164 -516 -692z" />
    <glyph glyph-name="tcaron" unicode="&#x165;" horiz-adv-x="1173" 
d="M412 2245l243 39v-503h397v-192h-397v-1114c0 -254 86 -300 303 -300c33 0 64 2 97 5l19 -185c-59 -10 -133 -19 -192 -19c-330 0 -470 142 -470 466v1147h-325v192h325v464zM854 2004l183 686h230l-245 -686h-168z" />
    <glyph glyph-name="uni0163" unicode="&#x163;" horiz-adv-x="1173" 
d="M412 2245l243 39v-503h397v-192h-397v-1114c0 -254 87 -300 303 -300c33 0 65 2 97 5l20 -185c-60 -10 -134 -19 -193 -19c-330 0 -470 142 -470 466v1147h-325v192h325v464zM475 -852l170 638h215l-228 -638h-157z" />
    <glyph glyph-name="uacute" unicode="&#xfa;" horiz-adv-x="1996" 
d="M252 624v1157h242v-1113c0 -336 61 -488 507 -488c145 0 367 37 478 87c5 84 7 195 7 279v1235h242v-1352c0 -104 -4 -206 -10 -304c-202 -88 -481 -149 -799 -149c-606 0 -667 287 -667 648zM851 2076l294 478h292l-389 -478h-197z" />
    <glyph glyph-name="ucircumflex" unicode="&#xfb;" horiz-adv-x="1996" 
d="M252 624v1157h242v-1113c0 -336 60 -488 506 -488c146 0 368 37 479 87c4 84 7 195 7 279v1235h242v-1352c0 -104 -4 -206 -10 -304c-202 -88 -481 -149 -799 -149c-606 0 -667 287 -667 648zM887 2564h200l320 -478h-200l-217 330l-220 -330h-196z" />
    <glyph glyph-name="udieresis" unicode="&#xfc;" horiz-adv-x="1996" 
d="M252 624v1157h242v-1113c0 -336 60 -488 506 -488c146 0 368 37 479 87c4 84 7 195 7 279v1235h242v-1352c0 -104 -4 -206 -10 -304c-202 -88 -481 -149 -799 -149c-606 0 -667 287 -667 648zM723 2138c-85 0 -154 67 -154 152s69 153 154 153s150 -68 150 -153
s-65 -152 -150 -152zM1258 2138c-85 0 -153 67 -153 152s68 153 153 153c86 0 152 -68 152 -153s-66 -152 -152 -152z" />
    <glyph glyph-name="ugrave" unicode="&#xf9;" horiz-adv-x="1995" 
d="M252 624v1157h242v-1113c0 -336 60 -488 506 -488c146 0 368 37 478 87c5 84 7 195 7 279v1235h242v-1352c0 -104 -3 -206 -9 -304c-202 -88 -481 -149 -799 -149c-607 0 -667 287 -667 648zM943 2056l-390 478h293l294 -478h-197z" />
    <glyph glyph-name="uhungarumlaut" unicode="&#x171;" horiz-adv-x="1996" 
d="M252 624v1157h242v-1113c0 -336 60 -488 506 -488c146 0 368 37 479 87c4 84 7 195 7 279v1235h242v-1352c0 -104 -4 -206 -10 -304c-202 -88 -481 -149 -799 -149c-606 0 -667 287 -667 648zM607 2085l279 478h286l-377 -478h-188zM1071 2085l280 478h286l-378 -478
h-188z" />
    <glyph glyph-name="uring" unicode="&#x16f;" horiz-adv-x="1996" 
d="M252 624v1157h242v-1113c0 -336 60 -488 506 -488c146 0 368 37 479 87c4 84 7 195 7 279v1235h242v-1352c0 -104 -4 -206 -10 -304c-202 -88 -481 -149 -799 -149c-606 0 -667 287 -667 648zM989 1960c-180 0 -326 146 -326 326c0 179 146 325 326 325
c179 0 325 -146 325 -325c0 -180 -146 -326 -325 -326zM989 2093c106 0 193 85 193 193c0 106 -87 192 -193 192c-107 0 -193 -86 -193 -192c0 -108 86 -193 193 -193z" />
    <glyph glyph-name="yacute" unicode="&#xfd;" horiz-adv-x="1719" 
d="M922 442l448 1339h245l-829 -2437h-246l271 781l-720 1656h259zM748 2036l294 478h292l-389 -478h-197z" />
    <glyph glyph-name="ydieresis" unicode="&#xff;" horiz-adv-x="1720" 
d="M621 2108c-85 0 -154 67 -154 152s69 153 154 153s150 -68 150 -153s-65 -152 -150 -152zM1156 2108c-85 0 -153 67 -153 152s68 153 153 153c86 0 152 -68 152 -153s-66 -152 -152 -152zM922 442l448 1339h246l-829 -2437h-246l270 781l-720 1656h259z" />
    <glyph glyph-name="zacute" unicode="&#x17a;" horiz-adv-x="1749" 
d="M1548 1603l-1066 -1399h1050v-204h-1293c-70 0 -108 33 -108 82c0 28 13 62 39 97l1067 1404h-1028v198h1269c70 0 109 -33 109 -82c0 -28 -13 -62 -39 -96zM737 2056l294 478h292l-389 -478h-197z" />
    <glyph glyph-name="zcaron" unicode="&#x17e;" horiz-adv-x="1749" 
d="M1548 1603l-1065 -1399h1049v-204h-1292c-71 0 -109 33 -109 82c0 28 13 62 39 97l1068 1404h-1029v198h1270c70 0 108 -33 108 -82c0 -28 -13 -61 -39 -96zM471 2534h200l217 -330l220 330h196l-313 -478h-200z" />
    <glyph glyph-name="zdotaccent" unicode="&#x17c;" horiz-adv-x="1749" 
d="M1548 1603l-1066 -1399h1049v-204h-1292c-71 0 -108 33 -108 82c0 28 12 62 39 97l1067 1404h-1029v198h1270c70 0 109 -33 109 -82c0 -28 -13 -62 -39 -96zM929 2080c-89 0 -159 70 -159 159s70 158 159 158s158 -69 158 -158s-69 -159 -158 -159z" />
    <glyph glyph-name="eth" unicode="&#xf0;" horiz-adv-x="1950" 
d="M1331 2260l283 103l80 -136l-278 -101c214 -368 317 -815 317 -1246c0 -647 -207 -904 -781 -904c-575 0 -782 245 -782 904c0 640 207 885 782 885c174 0 310 -29 414 -93c-44 127 -101 252 -170 373l-286 -104l-78 137l281 102c-56 85 -119 166 -188 243l212 70
c71 -72 136 -150 194 -233zM1490 880c0 513 -128 680 -538 680c-402 0 -537 -143 -537 -680c0 -557 135 -699 537 -699c406 0 538 164 538 699z" />
    <glyph glyph-name="thorn" unicode="&#xfe;" horiz-adv-x="1920" 
d="M256 -656v2986h242v-592c157 41 323 67 492 67c532 0 747 -233 747 -914c0 -682 -215 -915 -747 -915c-169 0 -335 26 -492 67v-699h-242zM498 1534v-1287c110 -38 278 -70 414 -70c495 0 581 215 581 714s-86 713 -581 713c-136 0 -304 -32 -414 -70z" />
    <glyph glyph-name="ordfeminine" unicode="&#xaa;" horiz-adv-x="1402" 
d="M266 2113l-15 139c139 23 280 43 449 43c257 0 460 -66 460 -364v-556c0 -69 -3 -139 -7 -204c-144 -71 -312 -99 -503 -99c-323 0 -470 99 -470 359c0 205 92 338 306 371c140 21 318 27 494 33v48c0 188 -64 266 -310 266c-135 0 -272 -17 -404 -36zM361 1435
c0 -177 92 -220 307 -220c99 0 210 13 309 52c2 55 3 126 3 181v256c-141 -4 -318 -8 -434 -32c-126 -25 -185 -79 -185 -237z" />
    <glyph glyph-name="ordmasculine" unicode="&#xba;" horiz-adv-x="1464" 
d="M732 1072c-388 0 -528 167 -528 612s140 611 528 611s528 -172 528 -611c0 -437 -140 -612 -528 -612zM732 1220c261 0 346 110 346 464s-82 463 -346 463c-258 0 -345 -94 -345 -463c0 -368 87 -464 345 -464z" />
    <glyph glyph-name="onequarter" unicode="&#xbc;" horiz-adv-x="2418" 
d="M1903 0v319h-545c-109 0 -137 47 -137 106c0 34 21 83 76 155l528 683c51 65 98 95 157 95c56 0 99 -34 99 -114v-782h181v-143h-181v-319h-178zM500 2331h138v-1344h-178v1156c-104 -28 -224 -53 -326 -67l-9 146c151 24 289 70 375 109zM1932 2378l-1369 -2426h-201
l1368 2426h202zM1410 462h493v644z" />
    <glyph glyph-name="onehalf" unicode="&#xbd;" horiz-adv-x="2673" 
d="M1632 1175l-18 142c125 22 269 41 413 41c277 0 467 -80 467 -324c0 -249 -147 -392 -392 -492c-217 -89 -269 -196 -298 -387h690v-155h-900c70 398 117 546 413 672c176 75 306 166 306 328c0 158 -97 205 -352 205c-108 0 -243 -16 -329 -30zM130 2222
c152 24 289 70 375 109h138v-1344h-178v1156c-104 -28 -224 -53 -326 -67zM1737 2378h201l-1369 -2426h-200z" />
    <glyph glyph-name="threequarters" unicode="&#xbe;" horiz-adv-x="2666" 
d="M548 2342c251 0 481 -51 481 -327c0 -152 -64 -262 -187 -322c109 -45 210 -145 210 -310c0 -318 -196 -413 -512 -413c-142 0 -270 16 -387 39l20 144c125 -17 231 -30 324 -30c249 0 368 52 368 250c0 135 -84 215 -207 229c-61 7 -124 9 -199 9c-28 0 -58 0 -90 -1
v139c109 2 209 10 288 22c123 19 190 103 190 213c0 192 -133 207 -325 207c-110 0 -222 -13 -337 -30l-19 142c123 23 231 39 382 39zM2151 0v319h-545c-109 0 -137 47 -137 106c0 34 19 83 75 155l529 683c50 65 98 95 157 95c55 0 99 -34 99 -114v-782h181v-143h-181
v-319h-178zM2178 2378l-1368 -2426h-200l1367 2426h201zM1657 462h494v644z" />
    <glyph glyph-name="period" unicode="." horiz-adv-x="733" 
d="M366 -24c-116 0 -146 45 -146 176s33 178 146 178s147 -47 147 -178s-31 -176 -147 -176z" />
    <glyph glyph-name="comma" unicode="," horiz-adv-x="752" 
d="M93 -437l222 836h286l-299 -836h-209z" />
    <glyph glyph-name="colon" unicode=":" horiz-adv-x="802" 
d="M401 -24c-116 0 -146 45 -146 176s33 178 146 178s146 -47 146 -178s-30 -176 -146 -176zM401 1235c-116 0 -146 45 -146 176s33 178 146 178s146 -47 146 -178s-30 -176 -146 -176z" />
    <glyph glyph-name="semicolon" unicode=";" horiz-adv-x="847" 
d="M500 1235c-116 0 -146 45 -146 176s33 178 146 178s147 -47 147 -178s-31 -176 -147 -176zM130 -437l223 836h286l-299 -836h-210z" />
    <glyph glyph-name="exclam" unicode="!" horiz-adv-x="797" 
d="M398 -24c-115 0 -145 45 -145 176s33 178 145 178c114 0 147 -47 147 -178s-30 -176 -147 -176zM293 679l-43 1651h296l-42 -1651h-211z" />
    <glyph glyph-name="question" unicode="?" horiz-adv-x="1676" 
d="M758 679h-214l-4 202c0 20 -2 61 -2 84c0 509 740 92 740 717c0 361 -129 453 -633 453c-179 0 -348 -20 -504 -48l-44 205c188 39 389 62 612 62c497 0 831 -82 831 -660c0 -824 -770 -416 -778 -823zM505 152c0 131 33 178 146 178s147 -47 147 -178
s-31 -176 -147 -176s-146 45 -146 176z" />
    <glyph glyph-name="exclamdown" unicode="&#xa1;" horiz-adv-x="765" 
d="M383 1429c-114 0 -147 47 -147 178s30 176 147 176c115 0 145 -45 145 -176s-33 -178 -145 -178zM235 -571l42 1651h211l43 -1651h-296z" />
    <glyph glyph-name="questiondown" unicode="&#xbf;" horiz-adv-x="1676" 
d="M918 1080h213l5 -202c0 -20 1 -61 1 -84c0 -509 -739 -92 -739 -717c0 -361 129 -453 632 -453c179 0 348 20 505 48l43 -205c-188 -39 -388 -62 -611 -62c-498 0 -832 82 -832 660c0 824 771 416 779 823zM878 1607c0 131 30 176 147 176c115 0 145 -45 145 -176
s-33 -178 -145 -178c-114 0 -147 47 -147 178z" />
    <glyph glyph-name="quoteleft" unicode="&#x2018;" horiz-adv-x="723" 
d="M144 1675l285 794h199l-212 -794h-272z" />
    <glyph glyph-name="quoteright" unicode="&#x2019;" horiz-adv-x="723" 
d="M144 1675l212 794h272l-285 -794h-199z" />
    <glyph glyph-name="quotedblleft" unicode="&#x201c;" horiz-adv-x="1204" 
d="M144 1675l284 794h199l-211 -794h-272zM626 1675l284 794h199l-211 -794h-272z" />
    <glyph glyph-name="quotedblright" unicode="&#x201d;" horiz-adv-x="1204" 
d="M144 1675l211 794h272l-284 -794h-199zM626 1675l211 794h272l-284 -794h-199z" />
    <glyph glyph-name="quotesinglbase" unicode="&#x201a;" horiz-adv-x="716" 
d="M89 -415l211 794h272l-284 -794h-199z" />
    <glyph glyph-name="quotedblbase" unicode="&#x201e;" horiz-adv-x="1197" 
d="M89 -415l211 794h272l-284 -794h-199zM571 -415l211 794h271l-283 -794h-199z" />
    <glyph glyph-name="quotesingle" unicode="'" horiz-adv-x="682" 
d="M245 1572l-27 897h246l-26 -897h-193z" />
    <glyph glyph-name="quotedbl" unicode="&#x22;" horiz-adv-x="1146" 
d="M246 1572l-28 897h247l-26 -897h-193zM709 1572l-27 897h246l-26 -897h-193z" />
    <glyph glyph-name="guilsinglleft" unicode="&#x2039;" horiz-adv-x="1001" 
d="M408 862l422 -655h-246l-464 655l464 656h246z" />
    <glyph glyph-name="guilsinglright" unicode="&#x203a;" horiz-adv-x="1000" 
d="M880 862l-464 -655h-246l422 655l-421 656h245z" />
    <glyph glyph-name="guillemotleft" unicode="&#xab;" horiz-adv-x="1607" 
d="M408 862l422 -655h-246l-464 655l464 656h246zM1013 862l423 -655h-247l-464 655l464 656h246z" />
    <glyph glyph-name="guillemotright" unicode="&#xbb;" horiz-adv-x="1606" 
d="M880 862l-464 -655h-246l422 655l-421 656h245zM1486 862l-464 -655h-246l422 655l-422 656h246z" />
    <glyph glyph-name="hyphen" unicode="-" horiz-adv-x="1332" 
d="M238 780v211h856v-211h-856z" />
    <glyph glyph-name="endash" unicode="&#x2013;" horiz-adv-x="2083" 
d="M238 787v198h1607v-198h-1607z" />
    <glyph glyph-name="emdash" unicode="&#x2014;" horiz-adv-x="3636" 
d="M238 787v198h3160v-198h-3160z" />
    <glyph glyph-name="ellipsis" unicode="&#x2026;" horiz-adv-x="2866" 
d="M366 -24c-115 0 -146 45 -146 176s34 178 146 178c113 0 147 -47 147 -178s-31 -176 -147 -176zM1433 -24c-115 0 -146 45 -146 176s34 178 146 178c113 0 146 -47 146 -178s-31 -176 -146 -176zM2499 -24c-115 0 -146 45 -146 176s34 178 146 178
c113 0 147 -47 147 -178s-31 -176 -147 -176z" />
    <glyph glyph-name="parenleft" unicode="(" horiz-adv-x="993" 
d="M712 2430l144 -120c-347 -343 -415 -948 -415 -1383c0 -434 68 -1039 415 -1382l-144 -120c-410 384 -520 943 -520 1502s110 1119 520 1503z" />
    <glyph glyph-name="parenright" unicode=")" horiz-adv-x="993" 
d="M282 -575l-144 120c347 343 415 948 415 1382c0 435 -68 1040 -415 1383l144 120c409 -384 520 -944 520 -1503s-111 -1118 -520 -1502z" />
    <glyph glyph-name="bracketleft" unicode="[" horiz-adv-x="989" 
d="M518 2213v-2559h351v-198h-581v2952h583v-195h-353z" />
    <glyph glyph-name="bracketright" unicode="]" horiz-adv-x="990" 
d="M118 2213v195h583v-2952h-581v198h351v2559h-353z" />
    <glyph glyph-name="braceleft" unicode="{" horiz-adv-x="1001" 
d="M617 318v-177c0 -250 60 -446 287 -486l-21 -179c-301 49 -492 186 -492 615c0 485 -49 705 -261 752v181c212 46 261 265 261 752c0 428 191 565 492 614l21 -178c-227 -41 -287 -239 -287 -487v-177c0 -216 -16 -520 -241 -615c218 -102 241 -405 241 -615z" />
    <glyph glyph-name="braceright" unicode="}" horiz-adv-x="1001" 
d="M870 1024v-181c-211 -47 -261 -267 -261 -752c0 -429 -191 -566 -491 -615l-21 179c226 40 286 236 286 486v177c0 210 24 513 242 615c-225 95 -242 399 -242 615v177c0 248 -60 446 -286 487l21 178c300 -49 491 -186 491 -614c0 -487 50 -706 261 -752z" />
    <glyph glyph-name="periodcentered" unicode="&#xb7;" horiz-adv-x="757" 
d="M378 778c-116 0 -146 45 -146 176s33 178 146 178s147 -47 147 -178s-31 -176 -147 -176z" />
    <glyph glyph-name="asterisk" unicode="*" horiz-adv-x="1559" 
d="M1024 1161l-245 416l-241 -418l-160 91l247 426h-494v178h492l-245 424l161 92l240 -420l245 420l157 -91l-246 -425h493v-178h-494l247 -428z" />
    <glyph glyph-name="dagger" unicode="&#x2020;" horiz-adv-x="1795" 
d="M771 1702v674h241v-674h651v-210h-651v-1912h-241v1912h-639v210h639z" />
    <glyph glyph-name="daggerdbl" unicode="&#x2021;" horiz-adv-x="1878" 
d="M819 -420v1172h-642v208h642v608h-642v210h642v598h239v-598h643v-210h-643v-608h643v-208h-643v-1172h-239z" />
    <glyph glyph-name="section" unicode="&#xa7;" horiz-adv-x="1808" 
d="M1050 1453c272 -108 598 -253 598 -580c0 -187 -144 -339 -353 -458c149 -118 224 -254 224 -386c0 -401 -390 -513 -728 -513c-229 0 -390 19 -580 61l26 198c169 -29 324 -50 495 -50c173 0 531 3 531 293c0 208 -227 296 -483 397c-291 115 -622 253 -622 623
c0 186 110 337 337 454c-138 111 -188 221 -188 349c0 303 234 513 635 513c229 0 392 -18 580 -59l-25 -193c-170 32 -317 50 -496 50c-274 0 -446 -105 -446 -292c0 -209 246 -308 495 -407zM708 688c142 -63 248 -85 408 -158c155 78 297 174 297 316
c0 149 -87 253 -366 375c-135 59 -243 85 -382 155c-151 -72 -278 -170 -278 -314c0 -145 60 -257 321 -374z" />
    <glyph glyph-name="paragraph" unicode="&#xb6;" horiz-adv-x="2060" 
d="M1091 2149v-2662h-205v1510c-468 4 -764 296 -764 656c0 456 311 677 805 677h841v-2843h-205v2662h-472z" />
    <glyph glyph-name="bullet" unicode="&#x2022;" horiz-adv-x="1302" 
d="M650 663c-252 0 -455 204 -455 456s203 456 455 456s456 -204 456 -456s-204 -456 -456 -456z" />
    <glyph glyph-name="dollar" unicode="$" horiz-adv-x="1661" 
d="M170 233c179 -27 380 -43 544 -43c323 0 553 74 553 411c0 281 -192 358 -501 451c-401 120 -637 226 -637 630c0 403 217 565 613 596v315h192v-309c192 -3 386 -25 538 -51l-23 -200c-137 21 -298 39 -450 39c-327 0 -621 -44 -621 -347c0 -297 130 -349 520 -461
c366 -104 627 -253 627 -652c0 -406 -217 -587 -612 -627v-318h-192v309c-240 0 -399 18 -576 53z" />
    <glyph glyph-name="cent" unicode="&#xa2;" horiz-adv-x="1435" 
d="M1293 483l22 -189c-121 -25 -241 -46 -388 -50v-307h-181v312c-479 53 -573 439 -573 900c0 507 102 802 573 859v315h181v-305c151 0 277 -21 385 -50l-19 -180c-77 13 -195 29 -288 29c-540 0 -593 -189 -593 -668c0 -448 40 -702 589 -702c89 0 209 20 292 36z" />
    <glyph glyph-name="Euro" unicode="&#x20ac;" horiz-adv-x="1762" 
d="M1597 226l19 -196c-126 -31 -277 -54 -447 -54c-549 0 -733 272 -769 884h-254l37 167h211c-1 33 -1 68 -1 103c0 44 0 87 1 129h-228l37 168h199c40 593 227 857 767 857c167 0 321 -21 447 -52l-20 -199c-112 20 -259 39 -366 39c-442 0 -550 -232 -575 -645h773
l-37 -168h-742c-1 -42 -1 -85 -1 -129v-103h691l-37 -167h-648c23 -431 132 -672 576 -672c110 0 249 18 367 38z" />
    <glyph glyph-name="sterling" unicode="&#xa3;" horiz-adv-x="1913" 
d="M507 1043h-346v196h316c-19 127 -35 267 -35 442c0 483 355 603 783 603c261 0 407 -85 548 -218l-129 -152c-121 99 -249 153 -407 153c-424 0 -540 -146 -540 -467c0 -120 17 -236 36 -361h528v-196h-502c9 -80 15 -164 15 -255c0 -233 -59 -388 -144 -570h595
c174 0 362 15 515 36l24 -200c-176 -32 -454 -54 -729 -54h-576c-90 0 -128 44 -128 101c0 95 200 319 200 659c0 99 -11 190 -24 283z" />
    <glyph glyph-name="yen" unicode="&#xa5;" horiz-adv-x="1767" 
d="M381 2260l503 -1111l512 1111h252l-551 -1184h313v-176h-395l-10 -21v-205h405v-174h-405v-500h-251v500h-396v174h396v205l-10 21h-386v176h305l-544 1184h262z" />
    <glyph glyph-name="florin" unicode="&#x192;" horiz-adv-x="1510" 
d="M621 1394l55 397c42 302 260 493 574 493c52 0 125 -8 174 -18l-26 -199c-39 8 -85 12 -126 12c-232 0 -332 -161 -363 -382l-42 -303h437l-26 -196h-438l-143 -1032c-57 -414 -299 -619 -613 -619c-30 0 -65 1 -92 5l27 197h33c196 0 360 119 397 392l145 1057h-373
l27 196h373z" />
    <glyph glyph-name="currency" unicode="&#xa4;" horiz-adv-x="2011" 
d="M1573 701l235 -227l-154 -153l-232 235c-120 -86 -265 -136 -416 -136c-160 0 -305 51 -421 136l-232 -235l-150 154l234 228c-86 117 -136 260 -136 412c0 157 51 301 138 417l-236 233l150 151l236 -236c118 86 263 136 417 136c157 0 300 -50 416 -133l232 232
l154 -150l-235 -228c90 -118 143 -265 143 -422s-55 -300 -143 -414zM1004 637c255 0 487 206 487 479c0 264 -212 484 -487 484c-260 0 -482 -211 -482 -484c0 -257 207 -479 482 -479z" />
    <glyph glyph-name="plus" unicode="+" horiz-adv-x="1943" 
d="M854 1093v695h232v-695h696v-225h-696v-699h-232v699h-692v225h692z" />
    <glyph glyph-name="minus" unicode="&#x2212;" horiz-adv-x="1943" 
d="M162 866v225h1620v-225h-1620z" />
    <glyph glyph-name="multiply" unicode="&#xd7;" horiz-adv-x="1818" 
d="M1069 981l565 -564l-160 -163l-566 566l-564 -566l-160 160l565 564l-564 565l162 160l564 -564l563 563l156 -158z" />
    <glyph glyph-name="divide" unicode="&#xf7;" horiz-adv-x="1943" 
d="M972 103c-101 0 -182 82 -182 182c0 102 81 183 182 183s183 -81 183 -183c0 -100 -82 -182 -183 -182zM972 1489c-101 0 -182 82 -182 183s81 182 182 182s183 -81 183 -182s-82 -183 -183 -183zM162 867v224h1620v-224h-1620z" />
    <glyph glyph-name="equal" unicode="=" horiz-adv-x="2131" 
d="M255 525v224h1620v-224h-1620zM255 1209v224h1620v-224h-1620z" />
    <glyph glyph-name="notequal" unicode="&#x2260;" horiz-adv-x="2131" 
d="M255 524v224h616l202 460h-818v223h916l244 556h185l-244 -556h519v-223h-617l-202 -460h819v-224h-917l-243 -555h-185l243 555h-518z" />
    <glyph glyph-name="approxequal" unicode="&#x2248;" horiz-adv-x="2170" 
d="M1914 819v-227c-113 -122 -301 -174 -458 -174c-313 0 -440 211 -742 211c-158 0 -345 -53 -459 -174v227c114 121 301 173 459 173c312 0 440 -210 742 -210c157 0 345 53 458 174zM1914 1502v-228c-113 -121 -301 -173 -458 -173c-313 0 -440 210 -742 210
c-158 0 -345 -52 -459 -173v227c114 122 301 174 459 174c312 0 440 -211 742 -211c157 0 345 53 458 174z" />
    <glyph glyph-name="plusminus" unicode="&#xb1;" horiz-adv-x="2007" 
d="M884 1310v604h241v-604h689v-219h-689v-614h-241v614h-690v219h690zM194 43v223h1620v-223h-1620z" />
    <glyph glyph-name="less" unicode="&#x3c;" horiz-adv-x="1989" 
d="M152 869v219l1595 745v-244l-1316 -609l1316 -611v-245z" />
    <glyph glyph-name="greater" unicode="&#x3e;" horiz-adv-x="1990" 
d="M242 369l1317 611l-1317 609v244l1596 -745v-219l-1596 -745v245z" />
    <glyph glyph-name="lessequal" unicode="&#x2264;" horiz-adv-x="2047" 
d="M208 1080v212l1592 682v-245l-1301 -543l1301 -543v-245zM208 -17v225h1592v-225h-1592z" />
    <glyph glyph-name="greaterequal" unicode="&#x2265;" horiz-adv-x="2048" 
d="M247 643l1300 543l-1300 543v245l1592 -682v-212l-1592 -682v245zM247 -17v225h1592v-225h-1592z" />
    <glyph glyph-name="fraction" unicode="&#x2044;" horiz-adv-x="518" 
d="M-526 -48l1368 2426h202l-1369 -2426h-201z" />
    <glyph glyph-name="logicalnot" unicode="&#xac;" horiz-adv-x="2119" 
d="M1843 1293v-954h-245v730h-1375v224h1620z" />
    <glyph glyph-name="asciitilde" unicode="~" horiz-adv-x="2034" 
d="M1609 1309h225c-30 -340 -209 -511 -423 -511c-370 0 -512 299 -749 299c-131 0 -201 -91 -236 -285h-225c31 340 210 510 423 510c370 0 512 -300 750 -300c129 0 200 92 235 287z" />
    <glyph glyph-name="infinity" unicode="&#x221e;" horiz-adv-x="2691" 
d="M666 1507c199 0 394 -125 570 -347c198 247 385 470 662 470c368 0 576 -311 576 -651s-208 -652 -576 -652c-278 0 -468 227 -662 467c-174 -222 -372 -340 -570 -340c-282 0 -483 253 -483 525s201 528 483 528zM666 668c126 0 256 73 444 311
c-188 238 -318 313 -444 313c-154 0 -273 -117 -273 -313s119 -311 273 -311zM1898 546c203 0 355 152 355 433c0 280 -152 433 -355 433c-215 0 -412 -262 -527 -433c115 -172 312 -433 527 -433z" />
    <glyph glyph-name="mu" unicode="&#xb5;" horiz-adv-x="1986" 
d="M315 -656v2437h230v-1142c0 -245 123 -443 373 -443c309 0 474 314 474 737v848h232v-1170c0 -232 0 -408 153 -459v-176c-250 0 -327 191 -356 389h-2c-93 -250 -286 -389 -500 -389c-153 0 -266 56 -375 181v-813h-229z" />
    <glyph glyph-name="pi" unicode="&#x3c0;" horiz-adv-x="2272" 
d="M2148 1567h-445c-36 -212 -56 -500 -56 -735c0 -434 120 -649 428 -649l-18 -207c-528 0 -641 318 -641 729c0 254 26 581 70 862h-667c-45 -748 -118 -1317 -196 -1567h-265c134 447 192 906 244 1567h-133c-123 0 -207 -17 -334 -77l-59 137c101 103 262 154 486 154
h1611z" />
    <glyph glyph-name="partialdiff" unicode="&#x2202;" horiz-adv-x="1768" 
d="M731 -24c-389 0 -581 325 -581 687c0 476 262 816 712 816c219 0 388 -133 457 -236h2c-4 647 -166 979 -556 979c-149 0 -244 -43 -349 -105l-47 156c116 82 261 142 469 142c498 0 721 -461 721 -1129c0 -768 -303 -1310 -828 -1310zM882 1293
c-314 0 -485 -301 -485 -629c0 -255 120 -508 365 -508c350 0 509 459 539 859c-95 159 -225 278 -419 278z" />
    <glyph glyph-name="Delta" unicode="&#x2206;" horiz-adv-x="2141" 
d="M2015 175v-175h-1889v169l806 2161h294zM1745 206l-675 1853l-682 -1853h1357z" />
    <glyph glyph-name="Omega" unicode="&#x2126;" horiz-adv-x="2464" 
d="M185 0v210h480c-237 223 -431 584 -431 1032c0 655 439 1112 1011 1112c602 0 989 -522 989 -1099c0 -462 -204 -836 -435 -1045h480v-210h-815v166c257 167 524 530 524 1047c0 436 -250 929 -746 929c-470 0 -761 -414 -761 -936c0 -487 265 -875 523 -1040v-166h-819z
" />
    <glyph glyph-name="summation" unicode="&#x2211;" horiz-adv-x="1999" 
d="M142 2400h1699v-212h-1366l890 -1176l-950 -1226h1481v-231h-1794v181l963 1247l-923 1239v178z" />
    <glyph glyph-name="product" unicode="&#x220f;" horiz-adv-x="2580" 
d="M2456 2400v-222h-393v-2622h-250v2622h-1043v-2622h-250v2622h-396v222h2332z" />
    <glyph glyph-name="integral" unicode="&#x222b;" horiz-adv-x="1160" 
d="M1174 2464c-39 27 -104 52 -164 52c-308 0 -332 -382 -332 -640c0 -533 60 -1070 60 -1624c0 -333 -105 -821 -539 -821c-98 0 -222 39 -276 70l50 195c44 -25 128 -59 209 -59c228 0 318 247 318 628c0 509 -57 1130 -57 1636c0 369 90 812 558 812
c79 0 185 -35 226 -63z" />
    <glyph glyph-name="radical" unicode="&#x221a;" horiz-adv-x="1843" 
d="M1751 2833l-686 -3009h-238l-479 1394l-228 -90l-56 179l453 178l420 -1303l595 2651h219z" />
    <glyph glyph-name="ampersand" unicode="&#x26;" horiz-adv-x="2212" 
d="M2084 0h-303l-183 214c-161 -155 -381 -238 -692 -238c-508 0 -748 214 -748 650c0 335 235 513 526 651c-123 146 -267 321 -267 553c0 387 260 524 589 524c293 0 565 -131 565 -492c0 -339 -264 -503 -553 -634l574 -661c89 142 142 321 159 532l231 -10
c-31 -306 -106 -523 -233 -707zM1336 1827c0 252 -139 331 -341 331c-188 0 -343 -91 -343 -338c0 -184 135 -329 237 -444c223 110 447 228 447 451zM1452 384l-638 740c-226 -124 -405 -248 -405 -529c0 -329 285 -421 538 -421c220 0 387 90 505 210z" />
    <glyph glyph-name="numbersign" unicode="#" horiz-adv-x="1884" 
d="M229 1633h370c17 135 79 563 96 697h198l-96 -697h447c17 135 78 563 96 697h199l-97 -697h300v-193h-327l-74 -547h308v-192h-336l-97 -701h-199l98 701h-447l-97 -701h-199l97 701h-327v192h355l75 547h-343v193zM1143 893l74 547h-447l-74 -547h447z" />
    <glyph glyph-name="percent" unicode="%" horiz-adv-x="2740" 
d="M653 970c-406 0 -489 226 -489 686s83 686 489 686s490 -226 490 -686s-84 -686 -490 -686zM653 1119c296 0 309 218 309 537s-13 538 -309 538s-307 -219 -307 -538s11 -537 307 -537zM2074 -12c-405 0 -488 226 -488 686s83 686 488 686c407 0 490 -226 490 -686
s-83 -686 -490 -686zM2074 136c296 0 309 219 309 538s-13 538 -309 538c-295 0 -307 -219 -307 -538s12 -538 307 -538zM578 -48l1368 2426h201l-1369 -2426h-200z" />
    <glyph glyph-name="perthousand" unicode="&#x2030;" horiz-adv-x="3888" 
d="M653 970c-407 0 -489 226 -489 686s82 686 489 686c405 0 489 -226 489 -686s-84 -686 -489 -686zM653 1119c295 0 308 218 308 537s-13 538 -308 538c-297 0 -308 -219 -308 -538s12 -537 308 -537zM2075 -12c-406 0 -488 226 -488 686s82 686 488 686
s490 -226 490 -686s-84 -686 -490 -686zM2075 136c296 0 309 219 309 538s-13 538 -309 538s-307 -219 -307 -538s12 -538 307 -538zM3223 -12c-406 0 -488 226 -488 686s82 686 488 686c407 0 490 -226 490 -686s-83 -686 -490 -686zM3223 136c296 0 309 219 309 538
s-13 538 -309 538s-307 -219 -307 -538s11 -538 307 -538zM579 -48l1368 2426h201l-1369 -2426h-200z" />
    <glyph glyph-name="at" unicode="@" horiz-adv-x="3079" 
d="M2853 1296c26 -120 39 -256 39 -405c0 -844 -481 -1189 -1349 -1189c-872 0 -1347 345 -1347 1189c0 867 500 1189 1383 1189c336 0 613 -126 613 -532v-736c0 -104 -3 -206 -9 -305c-176 -89 -412 -142 -659 -142c-457 0 -644 173 -644 526c0 290 150 472 444 531
c145 29 437 44 629 51c0 306 -94 402 -391 402c-701 0 -1121 -231 -1121 -984c0 -742 410 -984 1102 -984c694 0 1105 242 1105 984c0 121 -10 241 -28 337zM1953 922v369c-148 -3 -429 -16 -543 -45c-192 -48 -289 -143 -289 -349c0 -263 150 -335 427 -335
c122 0 280 32 398 81c5 84 7 195 7 279z" />
    <glyph glyph-name="underscore" unicode="_" horiz-adv-x="1670" 
d="M-10 -470v167h1690v-167h-1690z" />
    <glyph glyph-name="slash" unicode="/" horiz-adv-x="1391" 
d="M96 -268l945 2680h230l-946 -2680h-229z" />
    <glyph glyph-name="backslash" unicode="\" horiz-adv-x="1390" 
d="M1066 -268l-946 2680h230l945 -2680h-229z" />
    <glyph glyph-name="bar" unicode="|" horiz-adv-x="794" 
d="M288 -656v3125h219v-3125h-219z" />
    <glyph glyph-name="brokenbar" unicode="&#xa6;" horiz-adv-x="732" 
d="M256 -471v1076h220v-1076h-220zM256 1209v1075h220v-1075h-220z" />
    <glyph glyph-name="asciicircum" unicode="^" horiz-adv-x="1655" 
d="M703 2330h249l550 -1229h-234l-440 973l-441 -973h-234z" />
    <glyph glyph-name="uni2192" unicode="&#x2192;" horiz-adv-x="2350" 
d="M2189 978l-730 -786h-258l571 674h-1610v225h1610l-571 673h258z" />
    <glyph glyph-name="uni2193" unicode="&#x2193;" horiz-adv-x="1895" 
d="M1734 953v-258l-786 -731l-786 731v258l674 -571v1610h225v-1610z" />
    <glyph glyph-name="uni2190" unicode="&#x2190;" horiz-adv-x="2350" 
d="M578 866l571 -674h-258l-729 786l729 786h258l-571 -673h1611v-225h-1611z" />
    <glyph glyph-name="uni2191" unicode="&#x2191;" horiz-adv-x="1895" 
d="M1061 1575v-1611h-225v1611l-674 -570v257l786 730l786 -730v-257z" />
    <glyph glyph-name="copyright" unicode="&#xa9;" horiz-adv-x="2748" 
d="M1774 896h190c-27 -283 -277 -461 -572 -461c-415 0 -615 327 -615 733c0 364 210 727 615 727c252 0 532 -132 572 -419h-190c-28 166 -186 254 -382 254c-235 0 -415 -203 -415 -562c0 -357 163 -560 415 -560c185 0 351 109 382 288zM1374 2354
c663 0 1189 -522 1189 -1186c0 -663 -526 -1192 -1189 -1192s-1189 529 -1189 1192c0 664 526 1186 1189 1186zM1374 2185c-565 0 -1009 -444 -1009 -1017c0 -579 444 -1023 1009 -1023c566 0 1010 444 1010 1023c0 573 -444 1017 -1010 1017z" />
    <glyph glyph-name="registered" unicode="&#xae;" horiz-adv-x="1788" 
d="M750 1576v-348h-135v837h295c233 0 325 -89 325 -242c0 -118 -62 -201 -175 -228l180 -367h-151l-168 348h-171zM171 1633c0 403 320 721 723 721c402 0 722 -318 722 -721s-320 -724 -722 -724c-403 0 -723 321 -723 724zM1486 1633c0 336 -260 596 -592 596
s-592 -260 -592 -596c0 -340 260 -600 592 -600s592 260 592 600zM894 1950h-144v-260h149c136 0 203 40 203 133c0 95 -71 127 -208 127z" />
    <glyph glyph-name="trademark" unicode="&#x2122;" horiz-adv-x="3243" 
d="M2952 934h-187v1173h-2l-502 -1173h-126l-501 1173h-2v-1173h-188v1396h290l469 -1100l462 1100h287v-1396zM1238 2330v-163h-452v-1233h-186v1233h-452v163h1090z" />
    <glyph glyph-name="uni2113" unicode="&#x2113;" horiz-adv-x="1606" 
d="M395 900c1 831 39 1492 579 1492c248 0 364 -213 364 -465c0 -401 -348 -792 -703 -1083c33 -442 116 -685 396 -685c150 0 245 84 364 205l95 -110c-134 -182 -309 -278 -514 -278c-387 0 -531 346 -573 724l-230 -142l-68 138zM631 1075c306 292 503 551 503 862
c0 134 -38 285 -178 285c-350 0 -311 -769 -325 -1147z" />
    <glyph glyph-name="degree" unicode="&#xb0;" horiz-adv-x="1265" 
d="M632 1419c-258 0 -467 210 -467 468c0 257 209 467 467 467s468 -210 468 -467c0 -258 -210 -468 -468 -468zM632 1592c164 0 295 130 295 295c0 163 -131 294 -295 294s-295 -131 -295 -294c0 -165 131 -295 295 -295z" />
    <glyph glyph-name="estimated" unicode="&#x212e;" horiz-adv-x="2768" 
d="M2241 496h206c-253 -308 -577 -520 -1055 -520c-721 0 -1212 472 -1212 1095c0 580 466 1095 1212 1095c761 0 1160 -471 1216 -1095h-1898v-741c184 -155 411 -236 682 -236c357 0 638 133 849 402zM710 1809v-619h1368v619c-200 159 -422 240 -686 240
c-266 0 -498 -81 -682 -240z" />
    <glyph glyph-name="lozenge" unicode="&#x25ca;" horiz-adv-x="1771" 
d="M1622 1168l-619 -1233h-233l-620 1233l620 1228h233zM886 167l488 1001l-488 1003l-488 -1003z" />
    <glyph glyph-name="dieresis" unicode="&#xa8;" horiz-adv-x="1252" 
d="M359 1968c-85 0 -153 67 -153 152s68 153 153 153s151 -68 151 -153s-66 -152 -151 -152zM895 1968c-86 0 -153 67 -153 152s67 153 153 153c85 0 151 -68 151 -153s-66 -152 -151 -152z" />
    <glyph glyph-name="acute" unicode="&#xb4;" horiz-adv-x="760" 
d="M114 1905l294 478h292l-389 -478h-197z" />
    <glyph glyph-name="grave" unicode="`" horiz-adv-x="761" 
d="M449 1905l-389 478h292l294 -478h-197z" />
    <glyph glyph-name="circumflex" unicode="&#x2c6;" horiz-adv-x="1098" 
d="M445 2383h201l319 -478h-199l-218 330l-220 -330h-195z" />
    <glyph glyph-name="caron" unicode="&#x2c7;" horiz-adv-x="1043" 
d="M105 2383h200l218 -330l219 330h196l-313 -478h-200z" />
    <glyph glyph-name="breve" unicode="&#x2d8;" horiz-adv-x="1084" 
d="M788 2343h157c-20 -220 -141 -399 -403 -399s-382 179 -402 399h156c18 -121 97 -231 246 -231c150 0 229 110 246 231z" />
    <glyph glyph-name="tilde" unicode="&#x2dc;" horiz-adv-x="1174" 
d="M839 2293h152c-20 -223 -128 -330 -236 -330c-187 0 -209 168 -309 168c-56 0 -92 -48 -110 -160h-153c21 222 129 329 237 329c186 0 209 -167 309 -167c57 0 92 47 110 160z" />
    <glyph glyph-name="hungarumlaut" unicode="&#x2dd;" horiz-adv-x="1203" 
d="M114 1893l279 478h285l-377 -478h-187zM578 1893l279 478h286l-377 -478h-188z" />
    <glyph glyph-name="ring" unicode="&#x2da;" horiz-adv-x="991" 
d="M495 1853c-179 0 -325 146 -325 326c0 179 146 325 325 325c180 0 326 -146 326 -325c0 -180 -146 -326 -326 -326zM495 1986c107 0 194 85 194 193c0 106 -87 192 -194 192s-193 -86 -193 -192c0 -108 86 -193 193 -193z" />
    <glyph glyph-name="dotaccent" unicode="&#x2d9;" horiz-adv-x="651" 
d="M326 1980c-89 0 -159 70 -159 159s70 158 159 158s158 -69 158 -158s-69 -159 -158 -159z" />
    <glyph glyph-name="macron" unicode="&#xaf;" horiz-adv-x="1388" 
d="M236 2026v175h915v-175h-915z" />
    <glyph glyph-name="cedilla" unicode="&#xb8;" horiz-adv-x="728" 
d="M158 -260l154 260h163l-110 -173c136 -7 257 -87 257 -228c0 -193 -168 -264 -346 -264c-82 0 -172 20 -235 55l46 122c60 -28 131 -45 191 -45c71 0 157 26 157 118c0 115 -181 155 -277 155z" />
    <glyph glyph-name="ogonek" unicode="&#x2db;" horiz-adv-x="714" 
d="M606 -461l46 -117c-71 -56 -174 -87 -259 -87c-164 0 -289 98 -289 264c0 161 128 317 225 401h149c-71 -71 -189 -207 -189 -334c0 -101 63 -167 164 -167c63 0 117 18 153 40z" />
    <glyph glyph-name="space" unicode=" " horiz-adv-x="950" 
 />
    <glyph glyph-name="uni200A" unicode="&#x200a;" horiz-adv-x="73" 
 />
    <glyph glyph-name="uni2070" unicode="&#x2070;" horiz-adv-x="1257" 
d="M629 1353c-407 0 -489 225 -489 686c0 460 82 685 489 685c405 0 489 -225 489 -685c0 -461 -84 -686 -489 -686zM629 1502c295 0 308 217 308 537c0 318 -13 537 -308 537c-297 0 -308 -219 -308 -537c0 -320 12 -537 308 -537z" />
    <glyph glyph-name="onesuperior" unicode="&#xb9;" horiz-adv-x="727" 
d="M372 1370v1156c-104 -29 -224 -53 -326 -68l-9 147c151 24 289 70 375 108h138v-1343h-178z" />
    <glyph glyph-name="twosuperior" unicode="&#xb2;" horiz-adv-x="1091" 
d="M124 2540l-17 141c124 22 269 41 413 41c276 0 467 -80 467 -323c0 -249 -148 -392 -392 -492c-217 -89 -269 -196 -299 -387h690v-155h-900c70 398 118 547 413 672c177 75 306 165 306 327c0 158 -97 206 -352 206c-108 0 -242 -17 -329 -30z" />
    <glyph glyph-name="threesuperior" unicode="&#xb3;" horiz-adv-x="1092" 
d="M467 2724c252 0 481 -50 481 -326c0 -153 -63 -262 -186 -323c109 -44 209 -144 209 -310c0 -317 -196 -412 -512 -412c-142 0 -270 15 -387 39l20 144c125 -17 231 -31 325 -31c248 0 368 52 368 250c0 136 -85 215 -208 229c-64 8 -129 9 -209 9h-80v138
c110 2 209 11 288 23c123 19 190 103 190 213c0 191 -133 207 -325 207c-110 0 -222 -13 -337 -30l-19 142c123 23 231 38 382 38z" />
    <glyph glyph-name="uni2074" unicode="&#x2074;" horiz-adv-x="1191" 
d="M744 1365v319h-545c-110 0 -137 46 -137 106c0 33 20 83 75 154l530 683c50 65 98 95 156 95c56 0 100 -34 100 -114v-781h181v-143h-181v-319h-179zM744 2470l-494 -643h494v643z" />
    <glyph glyph-name="uni2075" unicode="&#x2075;" horiz-adv-x="1107" 
d="M336 2558l-25 -373c34 2 99 4 120 4c332 0 570 -49 570 -404c0 -311 -176 -429 -497 -429c-139 0 -274 14 -404 40l20 144c108 -18 225 -30 331 -30c260 0 365 55 365 291c0 213 -183 242 -428 242c-88 0 -176 -2 -259 -7l46 676h789v-154h-628z" />
    <glyph glyph-name="uni2076" unicode="&#x2076;" horiz-adv-x="1216" 
d="M639 2200c295 0 476 -80 476 -417c0 -347 -201 -433 -508 -433c-388 0 -476 214 -476 554c0 623 137 819 750 819c15 0 46 -1 126 -2l15 -145c-308 -12 -661 15 -697 -400c101 12 225 24 314 24zM600 2056c-74 0 -194 -14 -286 -27c-4 -50 -4 -93 -4 -153
c0 -190 34 -376 292 -376c250 0 333 79 333 286c0 226 -115 270 -335 270z" />
    <glyph glyph-name="uni2077" unicode="&#x2077;" horiz-adv-x="1020" 
d="M952 2556l-545 -1188h-202l568 1190h-723v152h794c84 0 125 -35 125 -89c0 -19 -6 -41 -17 -65z" />
    <glyph glyph-name="uni2078" unicode="&#x2078;" horiz-adv-x="1223" 
d="M611 2724c273 0 471 -96 471 -332c0 -150 -40 -248 -193 -327c125 -59 214 -154 214 -334c0 -311 -225 -378 -492 -378c-283 0 -491 87 -491 379c0 180 86 271 213 332c-140 72 -192 172 -192 328c0 236 190 332 470 332zM611 1499c173 0 314 41 314 239
c0 173 -115 232 -344 250c-166 -21 -283 -78 -283 -250c0 -194 141 -239 313 -239zM641 2134c150 26 268 77 268 231c0 179 -138 216 -298 216c-158 0 -295 -35 -295 -216c0 -149 111 -216 325 -231z" />
    <glyph glyph-name="uni2079" unicode="&#x2079;" horiz-adv-x="1215" 
d="M572 1877c-296 0 -477 80 -477 417c0 347 202 433 508 433c389 0 477 -214 477 -554c0 -623 -137 -819 -751 -819c-14 0 -45 1 -125 2l-15 145c308 12 660 -15 697 400c-102 -12 -226 -24 -314 -24zM610 2021c75 0 195 14 287 27c3 50 3 93 3 153c0 190 -33 376 -292 376
c-250 0 -332 -79 -332 -286c0 -226 115 -270 334 -270z" />
    <glyph glyph-name="uni2080" unicode="&#x2080;" horiz-adv-x="1257" 
d="M629 -395c-407 0 -489 225 -489 686c0 460 82 685 489 685c405 0 489 -225 489 -685c0 -461 -84 -686 -489 -686zM629 -246c295 0 308 217 308 537c0 318 -13 537 -308 537c-297 0 -308 -219 -308 -537c0 -320 12 -537 308 -537z" />
    <glyph glyph-name="uni2081" unicode="&#x2081;" horiz-adv-x="727" 
d="M372 -378v1156c-104 -29 -224 -53 -326 -68l-9 147c151 24 289 70 375 108h138v-1343h-178z" />
    <glyph glyph-name="uni2082" unicode="&#x2082;" horiz-adv-x="1091" 
d="M124 792l-17 141c124 22 269 41 413 41c276 0 467 -80 467 -323c0 -249 -148 -392 -392 -492c-217 -89 -269 -196 -299 -387h690v-155h-900c70 398 118 547 413 672c177 75 306 165 306 327c0 158 -97 206 -352 206c-108 0 -242 -17 -329 -30z" />
    <glyph glyph-name="uni2083" unicode="&#x2083;" horiz-adv-x="1092" 
d="M467 976c252 0 481 -50 481 -326c0 -153 -63 -262 -186 -323c109 -44 209 -144 209 -310c0 -317 -196 -412 -512 -412c-142 0 -270 15 -387 39l20 144c125 -17 231 -31 325 -31c248 0 368 52 368 250c0 136 -85 215 -208 229c-64 8 -129 9 -209 9h-80v138
c110 2 209 11 288 23c123 19 190 103 190 213c0 191 -133 207 -325 207c-110 0 -222 -13 -337 -30l-19 142c123 23 231 38 382 38z" />
    <glyph glyph-name="uni2084" unicode="&#x2084;" horiz-adv-x="1191" 
d="M744 -383v319h-545c-110 0 -137 46 -137 106c0 33 20 83 75 154l530 683c50 65 98 95 156 95c56 0 100 -34 100 -114v-781h181v-143h-181v-319h-179zM744 722l-494 -643h494v643z" />
    <glyph glyph-name="uni2085" unicode="&#x2085;" horiz-adv-x="1107" 
d="M336 810l-25 -373c34 2 99 4 120 4c332 0 570 -49 570 -404c0 -311 -176 -429 -497 -429c-139 0 -274 14 -404 40l20 144c108 -18 225 -30 331 -30c260 0 365 55 365 291c0 213 -183 242 -428 242c-88 0 -176 -2 -259 -7l46 676h789v-154h-628z" />
    <glyph glyph-name="uni2086" unicode="&#x2086;" horiz-adv-x="1216" 
d="M639 452c295 0 476 -80 476 -417c0 -347 -201 -433 -508 -433c-388 0 -476 214 -476 554c0 623 137 819 750 819c15 0 46 -1 126 -2l15 -145c-308 -12 -661 15 -697 -400c101 12 225 24 314 24zM600 308c-74 0 -194 -14 -286 -27c-4 -50 -4 -93 -4 -153
c0 -190 34 -376 292 -376c250 0 333 79 333 286c0 226 -115 270 -335 270z" />
    <glyph glyph-name="uni2087" unicode="&#x2087;" horiz-adv-x="1020" 
d="M952 808l-545 -1188h-202l568 1190h-723v152h794c84 0 125 -35 125 -89c0 -19 -6 -41 -17 -65z" />
    <glyph glyph-name="uni2088" unicode="&#x2088;" horiz-adv-x="1223" 
d="M611 976c273 0 471 -96 471 -332c0 -150 -40 -248 -193 -327c125 -59 214 -154 214 -334c0 -311 -225 -378 -492 -378c-283 0 -491 87 -491 379c0 180 86 271 213 332c-140 72 -192 172 -192 328c0 236 190 332 470 332zM611 -249c173 0 314 41 314 239
c0 173 -115 232 -344 250c-166 -21 -283 -78 -283 -250c0 -194 141 -239 313 -239zM641 386c150 26 268 77 268 231c0 179 -138 216 -298 216c-158 0 -295 -35 -295 -216c0 -149 111 -216 325 -231z" />
    <glyph glyph-name="uni2089" unicode="&#x2089;" horiz-adv-x="1215" 
d="M572 129c-296 0 -477 80 -477 417c0 347 202 433 508 433c389 0 477 -214 477 -554c0 -623 -137 -819 -751 -819c-14 0 -45 1 -125 2l-15 145c308 12 660 -15 697 400c-102 -12 -226 -24 -314 -24zM610 273c75 0 195 14 287 27c3 50 3 93 3 153c0 190 -33 376 -292 376
c-250 0 -332 -79 -332 -286c0 -226 115 -270 334 -270z" />
    <glyph glyph-name="zero.numerator" horiz-adv-x="1257" 
d="M629 971c-407 0 -489 225 -489 686c0 460 82 685 489 685c405 0 489 -225 489 -685c0 -461 -84 -686 -489 -686zM629 1120c295 0 308 217 308 537c0 318 -13 537 -308 537c-297 0 -308 -219 -308 -537c0 -320 12 -537 308 -537z" />
    <glyph glyph-name="one.numerator" horiz-adv-x="727" 
d="M372 988v1156c-104 -29 -224 -53 -326 -68l-9 147c151 24 289 70 375 108h138v-1343h-178z" />
    <glyph glyph-name="two.numerator" horiz-adv-x="1091" 
d="M124 2158l-17 141c124 22 269 41 413 41c276 0 467 -80 467 -323c0 -249 -148 -392 -392 -492c-217 -89 -269 -196 -299 -387h690v-155h-900c70 398 118 547 413 672c177 75 306 165 306 327c0 158 -97 206 -352 206c-108 0 -242 -17 -329 -30z" />
    <glyph glyph-name="three.numerator" horiz-adv-x="1092" 
d="M467 2342c252 0 481 -50 481 -326c0 -153 -63 -262 -186 -323c109 -44 209 -144 209 -310c0 -317 -196 -412 -512 -412c-142 0 -270 15 -387 39l20 144c125 -17 231 -31 325 -31c248 0 368 52 368 250c0 136 -85 215 -208 229c-64 8 -129 9 -209 9h-80v138
c110 2 209 11 288 23c123 19 190 103 190 213c0 191 -133 207 -325 207c-110 0 -222 -13 -337 -30l-19 142c123 23 231 38 382 38z" />
    <glyph glyph-name="four.numerator" horiz-adv-x="1191" 
d="M744 983v319h-545c-110 0 -137 46 -137 106c0 33 20 83 75 154l530 683c50 65 98 95 156 95c56 0 100 -34 100 -114v-781h181v-143h-181v-319h-179zM744 2088l-494 -643h494v643z" />
    <glyph glyph-name="five.numerator" horiz-adv-x="1107" 
d="M336 2176l-25 -373c34 2 99 4 120 4c332 0 570 -49 570 -404c0 -311 -176 -429 -497 -429c-139 0 -274 14 -404 40l20 144c108 -18 225 -30 331 -30c260 0 365 55 365 291c0 213 -183 242 -428 242c-88 0 -176 -2 -259 -7l46 676h789v-154h-628z" />
    <glyph glyph-name="six.numerator" horiz-adv-x="1216" 
d="M639 1818c295 0 476 -80 476 -417c0 -347 -201 -433 -508 -433c-388 0 -476 214 -476 554c0 623 137 819 750 819c15 0 46 -1 126 -2l15 -145c-308 -12 -661 15 -697 -400c101 12 225 24 314 24zM600 1674c-74 0 -194 -14 -286 -27c-4 -50 -4 -93 -4 -153
c0 -190 34 -376 292 -376c250 0 333 79 333 286c0 226 -115 270 -335 270z" />
    <glyph glyph-name="seven.numerator" horiz-adv-x="1020" 
d="M952 2174l-545 -1188h-202l568 1190h-723v152h794c84 0 125 -35 125 -89c0 -19 -6 -41 -17 -65z" />
    <glyph glyph-name="eight.numerator" horiz-adv-x="1223" 
d="M611 2342c273 0 471 -96 471 -332c0 -150 -40 -248 -193 -327c125 -59 214 -154 214 -334c0 -311 -225 -378 -492 -378c-283 0 -491 87 -491 379c0 180 86 271 213 332c-140 72 -192 172 -192 328c0 236 190 332 470 332zM611 1117c173 0 314 41 314 239
c0 173 -115 232 -344 250c-166 -21 -283 -78 -283 -250c0 -194 141 -239 313 -239zM641 1752c150 26 268 77 268 231c0 179 -138 216 -298 216c-158 0 -295 -35 -295 -216c0 -149 111 -216 325 -231z" />
    <glyph glyph-name="nine.numerator" horiz-adv-x="1215" 
d="M572 1495c-296 0 -477 80 -477 417c0 347 202 433 508 433c389 0 477 -214 477 -554c0 -623 -137 -819 -751 -819c-14 0 -45 1 -125 2l-15 145c308 12 660 -15 697 400c-102 -12 -226 -24 -314 -24zM610 1639c75 0 195 14 287 27c3 50 3 93 3 153c0 190 -33 376 -292 376
c-250 0 -332 -79 -332 -286c0 -226 115 -270 334 -270z" />
    <glyph glyph-name="zero.denominator" horiz-adv-x="1257" 
d="M629 -12c-407 0 -489 225 -489 686c0 460 82 685 489 685c405 0 489 -225 489 -685c0 -461 -84 -686 -489 -686zM629 137c295 0 308 217 308 537c0 318 -13 537 -308 537c-297 0 -308 -219 -308 -537c0 -320 12 -537 308 -537z" />
    <glyph glyph-name="one.denominator" horiz-adv-x="727" 
d="M372 5v1156c-104 -29 -224 -53 -326 -68l-9 147c151 24 289 70 375 108h138v-1343h-178z" />
    <glyph glyph-name="two.denominator" horiz-adv-x="1091" 
d="M124 1175l-17 141c124 22 269 41 413 41c276 0 467 -80 467 -323c0 -249 -148 -392 -392 -492c-217 -89 -269 -196 -299 -387h690v-155h-900c70 398 118 547 413 672c177 75 306 165 306 327c0 158 -97 206 -352 206c-108 0 -242 -17 -329 -30z" />
    <glyph glyph-name="three.denominator" horiz-adv-x="1092" 
d="M467 1359c252 0 481 -50 481 -326c0 -153 -63 -262 -186 -323c109 -44 209 -144 209 -310c0 -317 -196 -412 -512 -412c-142 0 -270 15 -387 39l20 144c125 -17 231 -31 325 -31c248 0 368 52 368 250c0 136 -85 215 -208 229c-64 8 -129 9 -209 9h-80v138
c110 2 209 11 288 23c123 19 190 103 190 213c0 191 -133 207 -325 207c-110 0 -222 -13 -337 -30l-19 142c123 23 231 38 382 38z" />
    <glyph glyph-name="four.denominator" horiz-adv-x="1191" 
d="M744 0v319h-545c-110 0 -137 46 -137 106c0 33 20 83 75 154l530 683c50 65 98 95 156 95c56 0 100 -34 100 -114v-781h181v-143h-181v-319h-179zM744 1105l-494 -643h494v643z" />
    <glyph glyph-name="five.denominator" horiz-adv-x="1107" 
d="M336 1193l-25 -373c34 2 99 4 120 4c332 0 570 -49 570 -404c0 -311 -176 -429 -497 -429c-139 0 -274 14 -404 40l20 144c108 -18 225 -30 331 -30c260 0 365 55 365 291c0 213 -183 242 -428 242c-88 0 -176 -2 -259 -7l46 676h789v-154h-628z" />
    <glyph glyph-name="six.denominator" horiz-adv-x="1216" 
d="M639 835c295 0 476 -80 476 -417c0 -347 -201 -433 -508 -433c-388 0 -476 214 -476 554c0 623 137 819 750 819c15 0 46 -1 126 -2l15 -145c-308 -12 -661 15 -697 -400c101 12 225 24 314 24zM600 691c-74 0 -194 -14 -286 -27c-4 -50 -4 -93 -4 -153
c0 -190 34 -376 292 -376c250 0 333 79 333 286c0 226 -115 270 -335 270z" />
    <glyph glyph-name="seven.denominator" horiz-adv-x="1020" 
d="M952 1191l-545 -1188h-202l568 1190h-723v152h794c84 0 125 -35 125 -89c0 -19 -6 -41 -17 -65z" />
    <glyph glyph-name="eight.denominator" horiz-adv-x="1223" 
d="M611 1359c273 0 471 -96 471 -332c0 -150 -40 -248 -193 -327c125 -59 214 -154 214 -334c0 -311 -225 -378 -492 -378c-283 0 -491 87 -491 379c0 180 86 271 213 332c-140 72 -192 172 -192 328c0 236 190 332 470 332zM611 134c173 0 314 41 314 239
c0 173 -115 232 -344 250c-166 -21 -283 -78 -283 -250c0 -194 141 -239 313 -239zM641 769c150 26 268 77 268 231c0 179 -138 216 -298 216c-158 0 -295 -35 -295 -216c0 -149 111 -216 325 -231z" />
    <glyph glyph-name="nine.denominator" horiz-adv-x="1215" 
d="M572 512c-296 0 -477 80 -477 417c0 347 202 433 508 433c389 0 477 -214 477 -554c0 -623 -137 -819 -751 -819c-14 0 -45 1 -125 2l-15 145c308 12 660 -15 697 400c-102 -12 -226 -24 -314 -24zM610 656c75 0 195 14 287 27c3 50 3 93 3 153c0 190 -33 376 -292 376
c-250 0 -332 -79 -332 -286c0 -226 115 -270 334 -270z" />
    <glyph glyph-name="zero.onum" horiz-adv-x="1914" 
d="M957 -24c-617 0 -744 321 -744 973s126 973 744 973c619 0 745 -321 745 -973s-127 -973 -745 -973zM957 179c480 0 504 312 504 770s-24 770 -504 770s-502 -312 -502 -770s22 -770 502 -770z" />
    <glyph glyph-name="one.onum" horiz-adv-x="1123" 
d="M609 0v1639c-177 -51 -378 -94 -540 -117l-11 203c237 37 460 112 599 175h193v-1900h-241z" />
    <glyph glyph-name="two.onum" horiz-adv-x="1710" 
d="M194 1676l-26 192c187 29 412 54 646 54c434 0 733 -112 733 -455c0 -355 -240 -556 -624 -696c-361 -131 -461 -288 -507 -561h1130v-210h-1411c114 563 190 775 657 947c298 110 520 243 520 470c0 229 -167 298 -605 298c-179 0 -385 -22 -513 -39z" />
    <glyph glyph-name="three.onum" horiz-adv-x="1657" 
d="M707 1922c381 0 731 -77 731 -497c0 -243 -110 -415 -310 -506c176 -58 345 -210 345 -483c0 -485 -298 -631 -780 -631c-218 0 -411 24 -584 57l29 200c181 -24 342 -45 489 -45c401 0 595 83 595 404c0 220 -138 348 -342 371c-102 11 -206 15 -331 15
c-33 0 -67 -1 -103 -1v190c152 3 310 17 434 35c205 30 312 167 312 345c0 312 -215 338 -527 338c-173 0 -339 -19 -509 -44l-26 195c182 34 342 57 577 57z" />
    <glyph glyph-name="four.onum" horiz-adv-x="1815" 
d="M1160 -173v498h-871c-155 0 -194 68 -194 153c0 51 29 125 114 234l826 1067c76 99 146 143 230 143c76 0 134 -49 134 -164v-1235h283v-198h-283v-498h-239zM1161 1595l-823 -1072h823v1072z" />
    <glyph glyph-name="five.onum" horiz-adv-x="1677" 
d="M480 1686l-42 -611c46 2 173 7 209 7c507 0 870 -75 870 -619c0 -477 -267 -658 -756 -658c-216 0 -419 21 -610 59l28 199c156 -26 331 -44 499 -44c422 0 589 89 589 469c0 345 -294 392 -687 392c-138 0 -254 -3 -384 -11l70 1031h1195v-214h-981z" />
    <glyph glyph-name="six.onum" horiz-adv-x="1852" 
d="M974 1276c449 0 724 -121 724 -637c0 -533 -305 -663 -773 -663c-591 0 -725 329 -725 852c0 963 210 1265 1153 1265c22 0 54 0 177 -3l21 -201c-495 -20 -1054 23 -1089 -653c163 21 367 40 512 40zM914 1078c-122 0 -321 -23 -467 -43c-6 -89 -6 -163 -6 -251
c0 -305 55 -603 476 -603c407 0 540 128 540 462c0 365 -187 435 -543 435z" />
    <glyph glyph-name="seven.onum" horiz-adv-x="1551" 
d="M1449 1677l-849 -1850h-273l887 1861h-1138v212h1221c119 0 176 -49 176 -126c0 -29 -8 -61 -24 -97z" />
    <glyph glyph-name="eight.onum" horiz-adv-x="1861" 
d="M930 2093c417 0 716 -148 716 -507c0 -237 -67 -391 -316 -510c207 -88 349 -229 349 -522c0 -474 -342 -578 -749 -578c-430 0 -747 133 -747 581c0 292 138 427 345 518c-231 109 -312 264 -312 511c0 359 287 507 714 507zM930 178c282 0 510 66 510 387
c0 281 -184 376 -556 405c-268 -36 -463 -129 -463 -405c0 -315 229 -387 509 -387zM979 1170c239 42 437 126 437 375c0 290 -226 350 -486 350c-258 0 -480 -58 -480 -350c0 -242 180 -352 529 -375z" />
    <glyph glyph-name="nine.onum" horiz-adv-x="1847" 
d="M868 622c-449 0 -724 121 -724 637c0 533 305 663 773 663c591 0 725 -329 725 -852c0 -963 -210 -1265 -1153 -1265c-22 0 -53 0 -177 3l-21 201c495 20 1054 -23 1089 653c-163 -21 -367 -40 -512 -40zM928 820c122 0 321 23 467 43c6 89 6 163 6 251
c0 305 -55 603 -476 603c-407 0 -539 -128 -539 -462c0 -365 186 -435 542 -435z" />
    <glyph glyph-name="dollar.onum" horiz-adv-x="1530" 
d="M157 226c166 -26 352 -40 502 -40c290 0 497 65 497 366c0 241 -181 322 -452 405c-364 110 -585 210 -585 580s198 520 558 550v287h189v-281c173 -3 350 -23 491 -48l-23 -196c-128 19 -277 36 -416 36c-294 0 -558 -40 -558 -308c0 -272 137 -318 468 -413
c336 -97 577 -234 577 -601c0 -373 -198 -540 -558 -578v-291h-189v282c-217 1 -362 18 -526 50z" />
    <glyph glyph-name="cent.onum" horiz-adv-x="1326" 
d="M1193 455l22 -187c-112 -24 -221 -43 -354 -47v-280h-180v285c-437 51 -521 405 -521 826c0 463 93 735 521 789v288h180v-278c137 -1 252 -20 351 -46l-18 -179c-87 14 -190 27 -269 27c-486 0 -533 -170 -533 -601c0 -403 35 -633 529 -633c81 0 193 20 272 36z" />
    <glyph glyph-name="Euro.onum" horiz-adv-x="1626" 
d="M1322 1312l-39 -168h-674c-1 -36 -1 -72 -1 -110v-86h632l-37 -167h-589c22 -384 122 -597 517 -597c98 0 229 16 341 36l18 -193c-117 -30 -258 -51 -414 -51c-504 0 -673 248 -707 805h-234l37 167h191c-1 28 -1 56 -1 86c0 37 0 74 1 110h-210l38 168h179
c38 540 210 781 706 781c153 0 298 -20 415 -49l-20 -196c-106 19 -244 37 -340 37c-393 0 -493 -206 -516 -573h707z" />
    <glyph glyph-name="sterling.onum" horiz-adv-x="1762" 
d="M464 950h-316v194h286c-16 113 -30 239 -30 395c0 445 327 556 720 556c241 0 378 -80 509 -206l-127 -149c-112 92 -229 143 -371 143c-381 0 -485 -131 -485 -418c0 -105 15 -210 31 -321h483v-194h-456c8 -71 13 -146 13 -224c0 -211 -52 -348 -128 -513h531
c157 0 331 13 477 35l22 -198c-164 -29 -421 -50 -671 -50h-525c-88 0 -124 43 -124 99c0 91 182 291 182 600c0 87 -9 168 -21 251z" />
    <glyph glyph-name="yen.onum" horiz-adv-x="1635" 
d="M364 2073l453 -1001l463 1001h245l-503 -1079h282v-174h-363l-6 -14v-177h369v-174h-369v-455h-243v455h-361v174h361v177l-7 14h-354v174h274l-495 1079h254z" />
    <glyph glyph-name="zero.tnum" 
d="M984 -24c-672 0 -808 380 -808 1154s136 1154 808 1154s810 -380 810 -1154s-138 -1154 -810 -1154zM984 185c536 0 559 385 559 945c0 561 -23 945 -559 945s-557 -384 -557 -945c0 -560 21 -945 557 -945z" />
    <glyph glyph-name="one.tnum" 
d="M1036 0v1993c-184 -53 -394 -97 -561 -122l-12 207c245 39 475 117 621 182h200v-2260h-248z" />
    <glyph glyph-name="two.tnum" 
d="M288 2021l-24 198c197 35 433 65 677 65c456 0 770 -131 770 -532c0 -418 -246 -656 -654 -823c-397 -163 -483 -354 -533 -709h1186v-220h-1480c116 656 194 902 686 1110c314 133 544 294 544 582c0 289 -175 376 -633 376c-188 0 -405 -26 -539 -47z" />
    <glyph glyph-name="three.tnum" 
d="M851 2284c415 0 795 -83 795 -537c0 -276 -119 -463 -356 -557c197 -57 395 -224 395 -529c0 -527 -325 -685 -850 -685c-238 0 -446 25 -631 61l28 204c170 -22 358 -48 532 -48c445 0 661 92 661 451c0 248 -152 391 -383 415c-110 12 -240 16 -377 16
c-30 0 -61 -1 -92 -1v193c161 3 332 19 469 39c230 34 350 186 350 387c0 350 -240 378 -586 378c-191 0 -370 -21 -553 -47l-26 199c195 36 367 61 624 61z" />
    <glyph glyph-name="four.tnum" 
d="M1270 0v547h-965c-163 0 -205 71 -205 160c0 54 31 133 123 252l908 1171c83 106 157 154 246 154c79 0 140 -52 140 -172v-1364h310v-201h-310v-547h-247zM1271 1957l-929 -1209h929v1209z" />
    <glyph glyph-name="five.tnum" 
d="M584 2041l-48 -687c51 3 195 8 238 8c552 0 948 -81 948 -672c0 -517 -291 -714 -823 -714c-236 0 -456 23 -660 63l28 204c167 -28 357 -48 541 -48c468 0 655 98 655 524c0 386 -327 437 -763 437c-150 0 -270 -3 -412 -11l76 1115h1295v-219h-1075z" />
    <glyph glyph-name="six.tnum" 
d="M1038 1388c488 0 786 -133 786 -692c0 -578 -332 -720 -840 -720c-643 0 -788 358 -788 927c0 1051 229 1381 1258 1381c23 0 51 0 187 -3l21 -205c-534 -19 -1165 31 -1194 -734c179 23 408 46 570 46zM972 1186c-137 0 -359 -27 -520 -49c-8 -108 -8 -193 -8 -282
c0 -339 62 -669 531 -669c452 0 601 142 601 515c0 407 -209 485 -604 485z" />
    <glyph glyph-name="seven.tnum" 
d="M1716 2026l-929 -2026h-282l973 2043h-1253v217h1333c125 0 185 -51 185 -130c0 -31 -9 -65 -27 -104z" />
    <glyph glyph-name="eight.tnum" 
d="M984 2284c453 0 779 -160 779 -549c0 -262 -74 -429 -360 -560c229 -95 395 -251 395 -573c0 -514 -372 -626 -814 -626c-468 0 -812 145 -812 629c0 320 161 470 392 569c-261 119 -355 289 -355 561c0 388 311 549 775 549zM984 182c314 0 568 73 568 432
c0 315 -204 421 -620 452c-302 -38 -515 -141 -515 -452c0 -351 255 -432 567 -432zM1038 1271c274 46 487 138 487 419c0 326 -251 392 -541 392c-287 0 -535 -63 -535 -392c0 -270 199 -394 589 -419z" />
    <glyph glyph-name="nine.tnum" 
d="M924 872c-488 0 -786 133 -786 692c0 578 332 720 840 720c643 0 788 -358 788 -927c0 -1051 -229 -1381 -1257 -1381c-24 0 -52 0 -188 3l-21 205c535 19 1165 -31 1195 734c-180 -23 -409 -46 -571 -46zM990 1074c137 0 359 27 520 49c8 108 8 193 8 282
c0 339 -61 669 -531 669c-452 0 -601 -142 -601 -515c0 -407 209 -485 604 -485z" />
    <glyph glyph-name="dollar.tnum" 
d="M325 233c179 -27 380 -43 544 -43c323 0 553 74 553 411c0 281 -192 358 -501 451c-401 120 -637 226 -637 630c0 403 217 565 613 596v315h192v-309c192 -3 386 -25 538 -51l-23 -200c-137 21 -298 39 -450 39c-327 0 -621 -44 -621 -347c0 -297 130 -349 520 -461
c366 -104 627 -253 627 -652c0 -406 -217 -587 -612 -627v-318h-192v309c-240 0 -399 18 -576 53z" />
    <glyph glyph-name="cent.tnum" 
d="M1561 483l22 -189c-121 -25 -241 -46 -388 -50v-307h-181v312c-479 53 -573 439 -573 900c0 507 102 802 573 859v315h181v-305c151 0 277 -21 385 -50l-19 -180c-77 13 -195 29 -288 29c-540 0 -593 -189 -593 -668c0 -448 40 -702 589 -702c89 0 209 20 292 36z" />
    <glyph glyph-name="Euro.tnum" 
d="M1701 226l19 -196c-126 -31 -277 -54 -447 -54c-549 0 -733 272 -769 884h-254l37 167h211c-1 33 -1 68 -1 103c0 44 0 87 1 129h-228l37 168h199c40 593 227 857 767 857c167 0 321 -21 447 -52l-20 -199c-112 20 -259 39 -366 39c-442 0 -550 -232 -575 -645h773
l-37 -168h-742c-1 -42 -1 -85 -1 -129v-103h691l-37 -167h-648c23 -431 132 -672 576 -672c110 0 249 18 367 38z" />
    <glyph glyph-name="sterling.tnum" 
d="M536 1043h-346v196h316c-19 127 -35 267 -35 442c0 483 355 603 783 603c261 0 407 -85 548 -218l-129 -152c-121 99 -249 153 -407 153c-424 0 -540 -146 -540 -467c0 -120 17 -236 36 -361h528v-196h-502c9 -80 15 -164 15 -255c0 -233 -59 -388 -144 -570h595
c174 0 362 15 515 36l24 -200c-176 -32 -454 -54 -729 -54h-576c-90 0 -128 44 -128 101c0 95 200 319 200 659c0 99 -11 190 -24 283z" />
    <glyph glyph-name="yen.tnum" 
d="M483 2260l503 -1111l512 1111h252l-551 -1184h313v-176h-395l-10 -21v-205h405v-174h-405v-500h-251v500h-396v174h396v205l-10 21h-386v176h305l-544 1184h262z" />
    <glyph glyph-name="period.tnum" horiz-adv-x="985" 
d="M492 -24c-116 0 -146 45 -146 176s33 178 146 178s147 -47 147 -178s-31 -176 -147 -176z" />
    <glyph glyph-name="comma.tnum" horiz-adv-x="985" 
d="M210 -437l222 836h286l-299 -836h-209z" />
    <glyph glyph-name="colon.tnum" horiz-adv-x="985" 
d="M493 -24c-116 0 -146 45 -146 176s33 178 146 178s146 -47 146 -178s-30 -176 -146 -176zM493 1235c-116 0 -146 45 -146 176s33 178 146 178s146 -47 146 -178s-30 -176 -146 -176z" />
    <glyph glyph-name="semicolon.tnum" horiz-adv-x="985" 
d="M569 1235c-116 0 -146 45 -146 176s33 178 146 178s147 -47 147 -178s-31 -176 -147 -176zM199 -437l223 836h286l-299 -836h-210z" />
    <glyph glyph-name="zero.onum_tnum" horiz-adv-x="1810" 
d="M905 -24c-617 0 -744 321 -744 973s126 973 744 973c619 0 745 -321 745 -973s-127 -973 -745 -973zM905 179c480 0 504 312 504 770s-24 770 -504 770s-502 -312 -502 -770s22 -770 502 -770z" />
    <glyph glyph-name="one.onum_tnum" horiz-adv-x="1810" 
d="M953 0v1639c-177 -51 -378 -94 -540 -117l-11 203c237 37 460 112 599 175h193v-1900h-241z" />
    <glyph glyph-name="two.onum_tnum" horiz-adv-x="1810" 
d="M244 1676l-26 192c187 29 412 54 646 54c434 0 733 -112 733 -455c0 -355 -240 -556 -624 -696c-361 -131 -461 -288 -507 -561h1130v-210h-1411c114 563 190 775 657 947c298 110 520 243 520 470c0 229 -167 298 -605 298c-179 0 -385 -22 -513 -39z" />
    <glyph glyph-name="three.onum_tnum" horiz-adv-x="1810" 
d="M784 1922c381 0 731 -77 731 -497c0 -243 -110 -415 -310 -506c176 -58 345 -210 345 -483c0 -485 -298 -631 -780 -631c-218 0 -411 24 -584 57l29 200c181 -24 342 -45 489 -45c401 0 595 83 595 404c0 220 -138 348 -342 371c-102 11 -206 15 -331 15
c-33 0 -67 -1 -103 -1v190c152 3 310 17 434 35c205 30 312 167 312 345c0 312 -215 338 -527 338c-173 0 -339 -19 -509 -44l-26 195c182 34 342 57 577 57z" />
    <glyph glyph-name="four.onum_tnum" horiz-adv-x="1810" 
d="M1157 -173v498h-871c-155 0 -194 68 -194 153c0 51 29 125 114 234l826 1067c76 99 146 143 230 143c76 0 134 -49 134 -164v-1235h283v-198h-283v-498h-239zM1158 1595l-823 -1072h823v1072z" />
    <glyph glyph-name="five.onum_tnum" horiz-adv-x="1810" 
d="M547 1686l-42 -611c46 2 173 7 209 7c507 0 870 -75 870 -619c0 -477 -267 -658 -756 -658c-216 0 -419 21 -610 59l28 199c156 -26 331 -44 499 -44c422 0 589 89 589 469c0 345 -294 392 -687 392c-138 0 -254 -3 -384 -11l70 1031h1195v-214h-981z" />
    <glyph glyph-name="six.onum_tnum" horiz-adv-x="1810" 
d="M953 1276c449 0 724 -121 724 -637c0 -533 -305 -663 -773 -663c-591 0 -725 329 -725 852c0 963 210 1265 1153 1265c22 0 54 0 177 -3l21 -201c-495 -20 -1054 23 -1089 -653c163 21 367 40 512 40zM893 1078c-122 0 -321 -23 -467 -43c-6 -89 -6 -163 -6 -251
c0 -305 55 -603 476 -603c407 0 540 128 540 462c0 365 -187 435 -543 435z" />
    <glyph glyph-name="seven.onum_tnum" horiz-adv-x="1810" 
d="M1579 1677l-849 -1850h-273l887 1861h-1138v212h1221c119 0 176 -49 176 -126c0 -29 -8 -61 -24 -97z" />
    <glyph glyph-name="eight.onum_tnum" horiz-adv-x="1810" 
d="M904 2093c417 0 716 -148 716 -507c0 -237 -67 -391 -316 -510c207 -88 349 -229 349 -522c0 -474 -342 -578 -749 -578c-430 0 -747 133 -747 581c0 292 138 427 345 518c-231 109 -312 264 -312 511c0 359 287 507 714 507zM904 178c282 0 510 66 510 387
c0 281 -184 376 -556 405c-268 -36 -463 -129 -463 -405c0 -315 229 -387 509 -387zM953 1170c239 42 437 126 437 375c0 290 -226 350 -486 350c-258 0 -480 -58 -480 -350c0 -242 180 -352 529 -375z" />
    <glyph glyph-name="nine.onum_tnum" horiz-adv-x="1810" 
d="M849 622c-449 0 -724 121 -724 637c0 533 305 663 773 663c591 0 725 -329 725 -852c0 -963 -210 -1265 -1153 -1265c-22 0 -53 0 -177 3l-21 201c495 20 1054 -23 1089 653c-163 -21 -367 -40 -512 -40zM909 820c122 0 321 23 467 43c6 89 6 163 6 251
c0 305 -55 603 -476 603c-407 0 -539 -128 -539 -462c0 -365 186 -435 542 -435z" />
    <glyph glyph-name="dollar.onum_tnum" horiz-adv-x="1810" 
d="M297 226c166 -26 352 -40 502 -40c290 0 497 65 497 366c0 241 -181 322 -452 405c-364 110 -585 210 -585 580s198 520 558 550v287h189v-281c173 -3 350 -23 491 -48l-23 -196c-128 19 -277 36 -416 36c-294 0 -558 -40 -558 -308c0 -272 137 -318 468 -413
c336 -97 577 -234 577 -601c0 -373 -198 -540 -558 -578v-291h-189v282c-217 1 -362 18 -526 50z" />
    <glyph glyph-name="cent.onum_tnum" horiz-adv-x="1810" 
d="M1435 455l22 -187c-112 -24 -221 -43 -354 -47v-280h-180v285c-437 51 -521 405 -521 826c0 463 93 735 521 789v288h180v-278c137 -1 252 -20 351 -46l-18 -179c-87 14 -190 27 -269 27c-486 0 -533 -170 -533 -601c0 -403 35 -633 529 -633c81 0 193 20 272 36z" />
    <glyph glyph-name="Euro.onum_tnum" horiz-adv-x="1810" 
d="M1414 1312l-39 -168h-674c-1 -36 -1 -72 -1 -110v-86h632l-37 -167h-589c22 -384 122 -597 517 -597c98 0 229 16 341 36l18 -193c-117 -30 -258 -51 -414 -51c-504 0 -673 248 -707 805h-234l37 167h191c-1 28 -1 56 -1 86c0 37 0 74 1 110h-210l38 168h179
c38 540 210 781 706 781c153 0 298 -20 415 -49l-20 -196c-106 19 -244 37 -340 37c-393 0 -493 -206 -516 -573h707z" />
    <glyph glyph-name="sterling.onum_tnum" horiz-adv-x="1810" 
d="M488 950h-316v194h286c-16 113 -30 239 -30 395c0 445 327 556 720 556c241 0 378 -80 509 -206l-127 -149c-112 92 -229 143 -371 143c-381 0 -485 -131 -485 -418c0 -105 15 -210 31 -321h483v-194h-456c8 -71 13 -146 13 -224c0 -211 -52 -348 -128 -513h531
c157 0 331 13 477 35l22 -198c-164 -29 -421 -50 -671 -50h-525c-88 0 -124 43 -124 99c0 91 182 291 182 600c0 87 -9 168 -21 251z" />
    <glyph glyph-name="yen.onum_tnum" horiz-adv-x="1810" 
d="M452 2073l453 -1001l463 1001h245l-503 -1079h282v-174h-363l-6 -14v-177h369v-174h-369v-455h-243v455h-361v174h361v177l-7 14h-354v174h274l-495 1079h254z" />
    <glyph glyph-name="parenleft.case" horiz-adv-x="993" 
d="M712 2663l144 -120c-347 -343 -415 -948 -415 -1383c0 -434 68 -1039 415 -1382l-144 -120c-410 384 -520 943 -520 1502s110 1119 520 1503z" />
    <glyph glyph-name="parenright.case" horiz-adv-x="993" 
d="M282 -342l-144 120c347 343 415 948 415 1382c0 435 -68 1040 -415 1383l144 120c409 -384 520 -944 520 -1503s-111 -1118 -520 -1502z" />
    <glyph glyph-name="bracketleft.case" horiz-adv-x="989" 
d="M518 2446v-2559h351v-198h-581v2952h583v-195h-353z" />
    <glyph glyph-name="bracketright.case" horiz-adv-x="990" 
d="M118 2446v195h583v-2952h-581v198h351v2559h-353z" />
    <glyph glyph-name="braceleft.case" horiz-adv-x="1001" 
d="M617 551v-177c0 -250 60 -446 287 -486l-21 -179c-301 49 -492 186 -492 615c0 485 -49 705 -261 752v181c212 46 261 265 261 752c0 428 191 565 492 614l21 -178c-227 -41 -287 -239 -287 -487v-177c0 -216 -16 -520 -241 -615c218 -102 241 -405 241 -615z" />
    <glyph glyph-name="braceright.case" horiz-adv-x="1001" 
d="M870 1257v-181c-211 -47 -261 -267 -261 -752c0 -429 -191 -566 -491 -615l-21 179c226 40 286 236 286 486v177c0 210 24 513 242 615c-225 95 -242 399 -242 615v177c0 248 -60 446 -286 487l21 178c300 -49 491 -186 491 -614c0 -487 50 -706 261 -752z" />
    <glyph glyph-name="questiondown.case" horiz-adv-x="1676" 
d="M918 1639h213l5 -202c0 -20 1 -61 1 -84c0 -509 -739 -92 -739 -717c0 -361 129 -453 632 -453c179 0 348 20 505 48l43 -205c-188 -39 -388 -62 -611 -62c-498 0 -832 82 -832 660c0 824 771 416 779 823zM878 2166c0 131 30 176 147 176c115 0 145 -45 145 -176
s-33 -178 -145 -178c-114 0 -147 47 -147 178z" />
    <glyph glyph-name="exclamdown.case" horiz-adv-x="765" 
d="M383 1988c-114 0 -147 47 -147 178s30 176 147 176c115 0 145 -45 145 -176s-33 -178 -145 -178zM235 -12l42 1651h211l43 -1651h-296z" />
    <glyph glyph-name="at.case" horiz-adv-x="3079" 
d="M2853 1570c26 -120 39 -256 39 -405c0 -844 -481 -1189 -1349 -1189c-872 0 -1347 345 -1347 1189c0 867 500 1189 1383 1189c336 0 613 -126 613 -532v-736c0 -104 -3 -206 -9 -305c-176 -89 -412 -142 -659 -142c-457 0 -644 173 -644 526c0 290 150 472 444 531
c145 29 437 44 629 51c0 306 -94 402 -391 402c-701 0 -1121 -231 -1121 -984c0 -742 410 -984 1102 -984c694 0 1105 242 1105 984c0 121 -10 241 -28 337zM1953 1196v369c-148 -3 -429 -16 -543 -45c-192 -48 -289 -143 -289 -349c0 -263 150 -335 427 -335
c122 0 280 32 398 81c5 84 7 195 7 279z" />
    <glyph glyph-name="guilsinglleft.case" horiz-adv-x="1001" 
d="M408 1164l422 -655h-246l-464 655l464 656h246z" />
    <glyph glyph-name="guilsinglright.case" horiz-adv-x="1000" 
d="M880 1164l-464 -655h-246l422 655l-421 656h245z" />
    <glyph glyph-name="guillemotleft.case" horiz-adv-x="1606" 
d="M408 1164l422 -655h-246l-464 655l464 656h246zM1013 1164l423 -655h-247l-464 655l464 656h246z" />
    <glyph glyph-name="guillemotright.case" horiz-adv-x="1606" 
d="M880 1164l-464 -655h-246l422 655l-421 656h245zM1486 1164l-464 -655h-246l422 655l-422 656h246z" />
    <glyph glyph-name="hyphen.case" horiz-adv-x="1332" 
d="M238 1059v211h856v-211h-856z" />
    <glyph glyph-name="endash.case" horiz-adv-x="2083" 
d="M238 1066v198h1607v-198h-1607z" />
    <glyph glyph-name="emdash.case" horiz-adv-x="3636" 
d="M238 1066v198h3160v-198h-3160z" />
    <glyph glyph-name="periodcentered.case" horiz-adv-x="757" 
d="M378 988c-116 0 -146 45 -146 176s33 178 146 178s147 -47 147 -178s-31 -176 -147 -176z" />
    <glyph glyph-name="uni21E8" unicode="&#x21e8;" horiz-adv-x="2665" 
d="M1552 525h-1363v908h1363v555l1043 -1009l-1043 -1010v556zM2364 979l-649 617v-326h-1365v-582h1365v-326z" />
    <glyph glyph-name="uni03BC" unicode="&#x3bc;" horiz-adv-x="1986" 
d="M315 -656v2437h230v-1142c0 -245 123 -443 373 -443c309 0 474 314 474 737v848h232v-1170c0 -232 0 -408 153 -459v-176c-250 0 -327 191 -356 389h-2c-93 -250 -286 -389 -500 -389c-153 0 -266 56 -375 181v-813h-229z" />
    <glyph glyph-name="uni03A9" unicode="&#x3a9;" horiz-adv-x="2464" 
d="M185 0v210h480c-237 223 -431 584 -431 1032c0 655 439 1112 1011 1112c602 0 989 -522 989 -1099c0 -462 -204 -836 -435 -1045h480v-210h-815v166c257 167 524 530 524 1047c0 436 -250 929 -746 929c-470 0 -761 -414 -761 -936c0 -487 265 -875 523 -1040v-166h-819z
" />
    <glyph glyph-name="uni021A" unicode="&#x21a;" horiz-adv-x="1682" 
d="M1607 2330v-212h-638v-2118h-257v2118h-638v212h1533zM563 -839l170 638h214l-227 -638h-157z" />
    <glyph glyph-name="uni021B" unicode="&#x21b;" horiz-adv-x="1172" 
d="M411 2245l243 39v-503h397v-192h-397v-1114c0 -254 87 -300 303 -300c33 0 65 2 97 5l20 -185c-60 -10 -134 -19 -193 -19c-330 0 -470 142 -470 466v1147h-325v192h325v464zM474 -852l170 638h215l-228 -638h-157z" />
    <glyph glyph-name="uni2215" unicode="&#x2215;" horiz-adv-x="518" 
d="M-526 -48l1368 2426h202l-1369 -2426h-201z" />
    <glyph glyph-name="uni2219" unicode="&#x2219;" horiz-adv-x="757" 
d="M378 778c-116 0 -146 45 -146 176s33 178 146 178s147 -47 147 -178s-31 -176 -147 -176z" />
    <glyph glyph-name="uni00AD" unicode="&#xad;" horiz-adv-x="1332" 
d="M238 780v211h856v-211h-856z" />
    <glyph glyph-name="uni2010" unicode="&#x2010;" horiz-adv-x="1332" 
d="M238 780v211h856v-211h-856z" />
    <glyph glyph-name="uni02C9" unicode="&#x2c9;" horiz-adv-x="1388" 
d="M236 2026v175h915v-175h-915z" />
    <glyph glyph-name="uni00A0" unicode="&#xa0;" horiz-adv-x="950" 
 />
    </font>
</defs>
</svg>
