<svg width="20" height="20" viewBox="0 0 20 20" fill="none" xmlns="http://www.w3.org/2000/svg">
<path d="M13.3333 11.6666H6.66667C4.33333 11.6666 2.5 13.5 2.5 15.8333V17.5C2.5 18 2.83333 18.3333 3.33333 18.3333C3.83333 18.3333 4.16667 18 4.16667 17.5V15.8333C4.16667 14.4166 5.25 13.3333 6.66667 13.3333H13.3333C14.75 13.3333 15.8333 14.4166 15.8333 15.8333V17.5C15.8333 18 16.1667 18.3333 16.6667 18.3333C17.1667 18.3333 17.5 18 17.5 17.5V15.8333C17.5 13.5 15.6667 11.6666 13.3333 11.6666Z" fill="#828282"/>
<path d="M10 9.99996C12.3334 9.99996 14.1667 8.16663 14.1667 5.83329C14.1667 3.49996 12.3334 1.66663 10 1.66663C7.66671 1.66663 5.83337 3.49996 5.83337 5.83329C5.83337 8.16663 7.66671 9.99996 10 9.99996ZM10 3.33329C11.4167 3.33329 12.5 4.41663 12.5 5.83329C12.5 7.24996 11.4167 8.33329 10 8.33329C8.58337 8.33329 7.50004 7.24996 7.50004 5.83329C7.50004 4.41663 8.58337 3.33329 10 3.33329Z" fill="#828282"/>
</svg>
