<?xml version="1.0" standalone="no"?>
<!DOCTYPE svg PUBLIC "-//W3C//DTD SVG 1.1//EN" "http://www.w3.org/Graphics/SVG/1.1/DTD/svg11.dtd" >
<svg xmlns="http://www.w3.org/2000/svg" xmlns:xlink="http://www.w3.org/1999/xlink" version="1.1">
<metadata>
Created by FontForge 20190801 at Tue Jul 24 14:38:43 2012
 By root
 
</metadata>
<defs>
<font id="Flexo-Bold" horiz-adv-x="1970" >
  <font-face 
    font-family="Flexo"
    font-weight="700"
    font-stretch="normal"
    units-per-em="3333"
    panose-1="0 0 0 0 0 0 0 0 0 0"
    ascent="2633"
    descent="-700"
    x-height="1781"
    cap-height="2330"
    bbox="-567 -832 4237 3205"
    underline-thickness="167"
    underline-position="-396"
    stemh="348"
    stemv="443"
    unicode-range="U+0020-FB04"
  />
<missing-glyph horiz-adv-x="2081" 
d="M209 0v2400h1663v-2400h-1663zM941 1200l-565 874v-1748zM1606 171l-565 875l-566 -875h1131zM1606 2228h-1131l566 -874zM1706 2074l-565 -874l565 -874v1748z" />
    <glyph glyph-name="f_b" unicode="fb" horiz-adv-x="3210" 
d="M375 1781v155c0 353 187 557 574 557c326 0 648 -8 980 -24v-702c106 23 232 38 340 38c548 0 792 -224 792 -914c0 -700 -250 -915 -844 -915c-241 0 -516 48 -717 165c-10 114 -15 217 -15 338v1684h-434c-152 0 -233 -70 -233 -225v-157h366v-338h-366v-1443h-443
v1443h-294v338h294zM1940 371c67 -31 179 -47 277 -47c380 0 398 276 398 567c0 324 -11 564 -437 564c-77 0 -176 -16 -249 -39v-806c0 -80 3 -167 11 -239z" />
    <glyph glyph-name="f_f" unicode="ff" horiz-adv-x="2415" 
d="M81 1781h294v155c0 353 187 557 574 557c78 0 188 -8 272 -19l-33 -311h-137c-152 0 -233 -70 -233 -225v-157h713v155c0 353 187 557 574 557c78 0 188 -8 272 -19l-33 -311h-138c-151 0 -232 -70 -232 -225v-157h366v-338h-366v-1443h-443v1443h-713v-1443h-443v1443
h-294v338z" />
    <glyph glyph-name="f_f_b" unicode="ffb" horiz-adv-x="4365" 
d="M1974 1443v-1443h-443v1443h-713v-1443h-443v1443h-294v338h294v155c0 353 187 557 574 557c78 0 188 -8 272 -19l-33 -311h-137c-152 0 -233 -70 -233 -225v-157h713v155c0 353 187 557 574 557c326 0 648 -8 980 -24v-702c106 23 232 38 340 38
c548 0 791 -224 791 -914c0 -700 -249 -915 -843 -915c-241 0 -517 48 -717 165c-10 114 -15 217 -15 338v1684h-435c-151 0 -232 -70 -232 -225v-157h366v-338h-366zM3085 610c0 -80 3 -167 11 -239c67 -31 179 -47 277 -47c380 0 397 276 397 567c0 324 -10 564 -436 564
c-77 0 -176 -16 -249 -39v-806z" />
    <glyph glyph-name="f_f_h" unicode="ffh" horiz-adv-x="4388" 
d="M818 1781h713v155c0 353 187 557 574 557c326 0 648 -8 980 -24v-721c117 35 248 57 395 57c642 0 706 -304 706 -678v-1127h-445v1084c0 253 -45 360 -370 360c-98 0 -201 -20 -286 -56v-1388h-445v2163h-434c-151 0 -232 -70 -232 -225v-157h366v-338h-366v-1443h-443
v1443h-713v-1443h-443v1443h-294v338h294v155c0 353 187 557 574 557c78 0 188 -8 272 -19l-33 -311h-137c-152 0 -233 -70 -233 -225v-157z" />
    <glyph glyph-name="f_f_i" unicode="ffi" horiz-adv-x="3345" 
d="M375 1781v155c0 353 187 557 574 557c78 0 188 -8 272 -19l-33 -311h-137c-152 0 -233 -70 -233 -225v-157h713v155c0 353 187 557 574 557c78 0 188 -8 272 -19l-33 -311h-138c-151 0 -232 -70 -232 -225v-157h1137v-1781h-446v1443h-691v-1443h-443v1443h-713v-1443
h-443v1443h-294v338h294zM2887 1991c-201 0 -261 66 -261 251s63 251 261 251s262 -66 262 -251s-62 -251 -262 -251z" />
    <glyph glyph-name="f_f_j" unicode="ffj" horiz-adv-x="3420" 
d="M818 1443v-1443h-443v1443h-294v338h294v155c0 353 187 557 574 557c78 0 188 -8 272 -19l-33 -311h-137c-152 0 -233 -70 -233 -225v-157h713v155c0 353 187 557 574 557c78 0 188 -8 272 -19l-33 -311h-138c-151 0 -232 -70 -232 -225v-157h1208v-1755
c0 -514 -215 -706 -723 -706c-39 0 -80 1 -120 5l36 329c203 22 360 54 360 309v1480h-761v-1443h-443v1443h-713zM2696 2242c0 185 63 251 262 251c198 0 262 -66 262 -251s-62 -251 -262 -251c-201 0 -262 66 -262 251z" />
    <glyph glyph-name="f_f_k" unicode="ffk" horiz-adv-x="4271" 
d="M3085 1002l607 779h509l-669 -820l705 -961h-538l-614 886v-886h-442v2163h-437c-151 0 -232 -70 -232 -225v-157h366v-338h-366v-1443h-443v1443h-713v-1443h-443v1443h-294v338h294v155c0 353 187 557 574 557c78 0 188 -8 272 -19l-33 -311h-137
c-152 0 -233 -70 -233 -225v-157h713v155c0 353 187 557 574 557c326 0 648 -8 980 -24v-1467z" />
    <glyph glyph-name="f_f_l" unicode="ffl" horiz-adv-x="3327" 
d="M2340 1781v-338h-366v-1443h-443v1443h-713v-1443h-443v1443h-294v338h294v155c0 353 187 557 574 557c78 0 188 -8 272 -19l-33 -311h-137c-152 0 -233 -70 -233 -225v-157h713v155c0 353 187 557 574 557c326 0 648 -8 980 -24v-1983c0 -159 34 -267 124 -390
l-392 -184c-115 133 -177 293 -177 541v1710h-434c-151 0 -232 -70 -232 -225v-157h366z" />
    <glyph glyph-name="f_h" unicode="fh" horiz-adv-x="3232" 
d="M81 1443v338h294v155c0 353 187 557 574 557c326 0 648 -8 980 -24v-721c117 35 248 57 395 57c642 0 706 -304 706 -678v-1127h-444v1084c0 253 -46 360 -371 360c-98 0 -201 -20 -286 -56v-1388h-445v2163h-433c-152 0 -233 -70 -233 -225v-157h366v-338h-366v-1443
h-443v1443h-294z" />
    <glyph glyph-name="fi" unicode="fi" horiz-adv-x="2189" 
d="M1956 0h-447v1443h-691v-1443h-443v1443h-294v338h294v155c0 353 187 557 574 557c78 0 188 -8 272 -19l-33 -311h-137c-152 0 -233 -70 -233 -225v-157h1138v-1781zM1731 1991c-200 0 -261 66 -261 251s63 251 261 251s262 -66 262 -251s-61 -251 -262 -251z" />
    <glyph glyph-name="f_j" unicode="fj" horiz-adv-x="2264" 
d="M818 1781h1208v-1755c0 -514 -215 -706 -722 -706c-40 0 -81 1 -120 5l35 329c203 22 360 54 360 309v1480h-761v-1443h-443v1443h-294v338h294v155c0 353 187 557 574 557c78 0 188 -8 272 -19l-33 -311h-137c-152 0 -233 -70 -233 -225v-157zM1541 2242
c0 185 63 251 261 251s262 -66 262 -251s-62 -251 -262 -251c-201 0 -261 66 -261 251z" />
    <glyph glyph-name="f_k" unicode="fk" horiz-adv-x="3115" 
d="M81 1781h294v155c0 353 187 557 574 557c326 0 648 -8 980 -24v-1467l608 779h509l-669 -820l704 -961h-538l-614 886v-886h-442v2163h-436c-152 0 -233 -70 -233 -225v-157h366v-338h-366v-1443h-443v1443h-294v338z" />
    <glyph glyph-name="fl" unicode="fl" horiz-adv-x="2171" 
d="M81 1781h294v155c0 353 187 557 574 557c326 0 648 -8 980 -24v-1983c0 -159 34 -267 124 -390l-392 -184c-115 133 -177 293 -177 541v1710h-433c-152 0 -233 -70 -233 -225v-157h366v-338h-366v-1443h-443v1443h-294v338z" />
    <glyph glyph-name=".notdef" horiz-adv-x="2081" 
d="M209 0v2400h1663v-2400h-1663zM941 1200l-565 874v-1748zM1606 171l-565 875l-566 -875h1131zM1606 2228h-1131l566 -874zM1706 2074l-565 -874l565 -874v1748z" />
    <glyph glyph-name="A" unicode="A" horiz-adv-x="2239" 
d="M539 0h-488l693 2029c78 228 204 325 383 325c174 0 305 -103 380 -325l681 -2029h-502l-178 577h-795zM822 940h575l-290 942z" />
    <glyph glyph-name="B" unicode="B" horiz-adv-x="2139" 
d="M1011 2354c441 0 934 -83 934 -633c0 -232 -114 -442 -344 -529c214 -72 379 -235 379 -569c0 -545 -439 -647 -930 -647c-301 0 -567 22 -797 63v2250c188 36 479 65 758 65zM1027 1019h-305v-648c96 -13 197 -20 316 -20c278 0 472 44 472 327c0 295 -208 341 -483 341
zM723 1362h304c267 0 459 45 459 318s-187 303 -475 303c-86 0 -194 -7 -288 -19v-602z" />
    <glyph glyph-name="C" unicode="C" horiz-adv-x="1873" 
d="M1715 412l43 -366c-152 -41 -366 -70 -609 -70c-774 0 -965 362 -965 1189c0 828 192 1189 965 1189c244 0 457 -30 609 -71l-42 -365c-153 25 -314 40 -480 40c-560 0 -570 -335 -570 -793c0 -460 8 -793 570 -793c164 0 329 15 479 40z" />
    <glyph glyph-name="D" unicode="D" horiz-adv-x="2230" 
d="M947 1967c-86 0 -161 -8 -221 -16v-1572c60 -9 135 -17 221 -17c614 0 619 348 619 803s-5 802 -619 802zM253 40v2248c198 38 482 66 759 66c873 0 1028 -397 1028 -1189s-155 -1189 -1028 -1189c-280 0 -559 27 -759 64z" />
    <glyph glyph-name="E" unicode="E" horiz-adv-x="1896" 
d="M1683 2319v-367h-643c-279 0 -327 -58 -327 -315v-264h926v-376h-926v-302c0 -258 48 -317 327 -317h643v-366c-164 -8 -477 -18 -633 -18c-421 0 -809 23 -809 569v1205c0 546 388 568 809 568c169 0 472 -9 633 -17z" />
    <glyph glyph-name="F" unicode="F" horiz-adv-x="1800" 
d="M721 0h-473v1768c0 546 389 568 810 568c169 0 472 -10 633 -17v-367h-643c-279 0 -327 -58 -327 -315v-264h926v-376h-926v-997z" />
    <glyph glyph-name="G" unicode="G" horiz-adv-x="2150" 
d="M1121 939v365h828v-873c0 -429 -338 -455 -797 -455c-772 0 -966 362 -966 1189c0 837 194 1189 966 1189c263 0 508 -20 745 -69l-41 -365c-202 31 -416 41 -617 41c-560 0 -571 -337 -571 -796c0 -462 11 -797 569 -797c243 0 265 73 265 203v368h-381z" />
    <glyph glyph-name="H" unicode="H" horiz-adv-x="2297" 
d="M1568 1384v946h476v-2330h-476v997h-840v-997h-474v2330h474v-946h840z" />
    <glyph glyph-name="I" unicode="I" horiz-adv-x="974" 
d="M250 0v2330h474v-2330h-474z" />
    <glyph glyph-name="J" unicode="J" horiz-adv-x="1407" 
d="M693 707v1623h476v-1556c0 -571 -163 -798 -715 -798c-129 0 -303 26 -412 76l40 354c106 -35 206 -55 325 -55c140 0 286 69 286 356z" />
    <glyph glyph-name="K" unicode="K" horiz-adv-x="2112" 
d="M728 2330v-1080l775 1080h550l-836 -1115l850 -1215h-575l-764 1144v-1144h-474v2330h474z" />
    <glyph glyph-name="L" unicode="L" horiz-adv-x="1690" 
d="M1653 378v-368c-165 -7 -450 -16 -596 -16c-421 0 -809 23 -809 569v1767h474v-1635c0 -259 47 -317 326 -317h605z" />
    <glyph glyph-name="M" unicode="M" horiz-adv-x="2796" 
d="M936 2060l458 -1163l463 1156c80 199 207 301 343 301c209 0 288 -95 299 -346l90 -2008h-456l-57 1670h-2l-418 -1143c-53 -145 -137 -217 -259 -217c-124 0 -207 71 -262 217l-431 1139h-2l-56 -1666h-439l93 2010c11 238 94 344 299 344c135 0 256 -88 337 -294z" />
    <glyph glyph-name="N" unicode="N" horiz-adv-x="2361" 
d="M942 2048l740 -1427v1709h425v-1999c0 -248 -104 -355 -286 -355c-173 0 -282 75 -402 307l-739 1432v-1715h-425v2000c0 248 107 354 286 354c162 0 284 -81 401 -306z" />
    <glyph glyph-name="O" unicode="O" horiz-adv-x="2240" 
d="M1121 -24c-725 0 -932 345 -932 1189s207 1189 932 1189c724 0 931 -345 931 -1189s-207 -1189 -931 -1189zM1121 366c441 0 451 324 451 799s-10 800 -451 800c-442 0 -452 -325 -452 -800s10 -799 452 -799z" />
    <glyph glyph-name="P" unicode="P" horiz-adv-x="2055" 
d="M726 872v-872h-472v2290c202 37 479 64 758 64c519 0 936 -103 936 -740c0 -619 -376 -753 -911 -753c-102 0 -221 5 -311 11zM726 1964v-718c96 -12 191 -13 288 -13c298 0 465 77 465 381c0 265 -111 370 -455 370c-94 0 -202 -7 -298 -20z" />
    <glyph glyph-name="Q" unicode="Q" horiz-adv-x="2240" 
d="M1121 -24c-725 0 -932 345 -932 1189s207 1189 932 1189c724 0 931 -345 931 -1189c0 -631 -116 -983 -476 -1121c104 -150 228 -216 411 -313l-308 -220c-191 93 -441 194 -558 465zM1572 1165c0 475 -10 800 -451 800c-442 0 -452 -325 -452 -800s10 -799 452 -799
c441 0 451 324 451 799z" />
    <glyph glyph-name="R" unicode="R" horiz-adv-x="2146" 
d="M726 889v-889h-472v2290c202 37 479 64 758 64c515 0 936 -102 936 -732c0 -412 -173 -606 -447 -689l532 -933h-544l-478 879c-95 0 -203 5 -285 10zM726 1965v-700c96 -11 191 -12 288 -12c293 0 466 75 466 371c0 258 -116 361 -456 361c-93 0 -202 -7 -298 -20z" />
    <glyph glyph-name="S" unicode="S" horiz-adv-x="1843" 
d="M1103 1969c-188 0 -473 -8 -473 -241c0 -234 160 -266 428 -338c446 -121 638 -293 638 -715c0 -514 -313 -699 -865 -699c-262 0 -483 31 -673 72l46 373c171 -25 431 -52 610 -52c245 0 395 55 395 289c0 217 -171 266 -387 332c-418 128 -664 257 -664 697
c0 505 298 667 834 667c247 0 501 -37 667 -73l-43 -363c-151 24 -339 51 -513 51z" />
    <glyph glyph-name="T" unicode="T" horiz-adv-x="1736" 
d="M1677 2330v-382h-573v-1948h-475v1948h-570v382h1618z" />
    <glyph glyph-name="U" unicode="U" horiz-adv-x="2229" 
d="M1986 2330v-1545c0 -641 -345 -809 -874 -809c-530 0 -875 168 -875 809v1545h467v-1571c0 -277 106 -386 408 -386c300 0 407 109 407 386v1571h467z" />
    <glyph glyph-name="V" unicode="V" horiz-adv-x="2149" 
d="M2101 2330l-665 -2039c-73 -225 -189 -315 -359 -315c-174 0 -284 83 -360 315l-668 2039h504l528 -1798l534 1798h486z" />
    <glyph glyph-name="W" unicode="W" horiz-adv-x="2965" 
d="M94 2330h476l315 -1779h2l279 1181c59 249 169 338 324 338c156 0 265 -90 323 -339l273 -1177h2l320 1776h464l-433 -2021c-51 -238 -159 -333 -330 -333c-175 0 -288 91 -345 331l-285 1190l-277 -1190c-54 -233 -173 -331 -344 -331c-172 0 -280 95 -331 332z" />
    <glyph glyph-name="X" unicode="X" horiz-adv-x="2185" 
d="M1096 1578l466 752h511l-723 -1131l767 -1199h-545l-497 799l-483 -799h-525l758 1186l-730 1144h541z" />
    <glyph glyph-name="Y" unicode="Y" horiz-adv-x="2024" 
d="M1247 898v-898h-473v898l-750 1432h509l481 -966l494 966h491z" />
    <glyph glyph-name="Z" unicode="Z" horiz-adv-x="1890" 
d="M1684 1975l-946 -1583h996v-392h-1343c-173 0 -266 64 -266 180c0 50 18 109 58 175l951 1586h-941v389h1286c178 0 264 -68 264 -179c0 -52 -19 -109 -59 -176z" />
    <glyph glyph-name="a" unicode="a" horiz-adv-x="1854" 
d="M828 -24c-492 0 -686 191 -686 568c0 315 138 510 493 566c186 30 374 37 570 45c0 205 -95 298 -327 298c-215 0 -449 -23 -629 -46l-36 330c187 32 437 68 699 68c397 0 727 -111 727 -573v-753c0 -121 -5 -224 -15 -338c-206 -120 -474 -165 -796 -165zM1205 600v265
c-133 -7 -287 -11 -411 -40c-156 -37 -216 -88 -216 -275c0 -188 108 -237 302 -237c99 0 218 7 314 48c8 72 11 159 11 239z" />
    <glyph glyph-name="b" unicode="b" horiz-adv-x="1949" 
d="M225 479v1990h444v-702c106 23 232 38 340 38c548 0 791 -224 791 -914c0 -700 -249 -915 -843 -915c-241 0 -517 48 -717 165c-10 114 -15 217 -15 338zM669 1416v-806c0 -80 3 -167 11 -239c66 -31 179 -47 277 -47c380 0 397 276 397 567c0 324 -11 564 -436 564
c-77 0 -176 -16 -249 -39z" />
    <glyph glyph-name="c" unicode="c" horiz-adv-x="1584" 
d="M1402 379l39 -335c-155 -39 -346 -68 -583 -68c-597 0 -689 454 -689 931c0 583 137 898 792 898c202 0 353 -30 477 -68l-36 -326c-108 21 -214 41 -323 41c-416 0 -461 -123 -461 -545c0 -399 18 -570 465 -570c109 0 210 20 319 42z" />
    <glyph glyph-name="d" unicode="d" horiz-adv-x="1953" 
d="M1281 1767v702h444v-1990c0 -121 -5 -224 -15 -338c-201 -117 -476 -165 -717 -165c-594 0 -843 215 -843 915c0 690 243 914 791 914c108 0 234 -15 340 -38zM1281 1416c-73 23 -172 39 -249 39c-426 0 -436 -240 -436 -564c0 -291 17 -567 397 -567c98 0 210 16 277 47
c8 72 11 159 11 239v806z" />
    <glyph glyph-name="e" unicode="e" horiz-adv-x="1906" 
d="M924 -24c-604 0 -762 387 -762 915c0 646 203 914 799 914c650 0 784 -341 784 -880c0 -47 -2 -95 -6 -143c-203 -37 -598 -76 -843 -89l-293 -15c16 -278 164 -346 421 -346c240 0 459 24 642 47l37 -335c-188 -31 -434 -68 -779 -68zM590 982l306 15
c116 6 296 21 400 35c3 20 4 51 4 71c0 234 -87 362 -339 362c-327 0 -371 -204 -371 -483z" />
    <glyph glyph-name="f" unicode="f" horiz-adv-x="1259" 
d="M818 1938v-157h366v-338h-366v-1443h-443v1443h-294v338h294v155c0 353 187 557 574 557c78 0 188 -8 272 -19l-33 -311h-137c-152 0 -233 -70 -233 -225z" />
    <glyph glyph-name="g" unicode="g" horiz-adv-x="1957" 
d="M263 -605l36 329c178 -25 440 -52 646 -52c239 0 343 110 343 329v53c-107 -23 -232 -38 -340 -38c-541 0 -792 217 -792 894c0 684 263 895 844 895c241 0 516 -48 716 -165c11 -114 15 -217 15 -338v-1405c0 -465 -332 -577 -731 -577c-265 0 -550 42 -737 75z
M1000 1457c-367 0 -398 -269 -398 -547c0 -311 18 -544 436 -544c78 0 177 16 250 39v766c0 80 -3 167 -11 239c-67 31 -180 47 -277 47z" />
    <glyph glyph-name="h" unicode="h" horiz-adv-x="1978" 
d="M1776 0h-445v1084c0 253 -46 360 -370 360c-99 0 -202 -20 -287 -56v-1388h-444v2469h444v-721c117 35 249 57 396 57c641 0 706 -304 706 -678v-1127z" />
    <glyph glyph-name="i" unicode="i" horiz-adv-x="915" 
d="M457 1991c-201 0 -262 66 -262 251s63 251 262 251c198 0 262 -66 262 -251s-62 -251 -262 -251zM234 0v1781h447v-1781h-447z" />
    <glyph glyph-name="j" unicode="j" horiz-adv-x="923" 
d="M238 -37v1818h447v-1755c0 -514 -215 -706 -722 -706c-40 0 -80 1 -120 5l36 329c202 22 359 54 359 309zM461 1991c-200 0 -261 66 -261 251s63 251 261 251c199 0 262 -66 262 -251s-61 -251 -262 -251z" />
    <glyph glyph-name="k" unicode="k" horiz-adv-x="1858" 
d="M672 2469v-1467l608 779h509l-669 -820l704 -961h-538l-614 886v-886h-442v2469h442z" />
    <glyph glyph-name="l" unicode="l" horiz-adv-x="884" 
d="M197 453v2016h445v-1983c0 -159 35 -267 124 -390l-392 -184c-115 133 -177 293 -177 541z" />
    <glyph glyph-name="m" unicode="m" horiz-adv-x="2850" 
d="M668 1163v-1163h-442v1302c0 121 5 224 15 338c198 106 478 165 754 165c196 0 334 -38 430 -102c160 61 355 102 544 102c570 0 654 -307 654 -671v-1134h-443v1094c0 231 -55 355 -305 355c-69 0 -173 -18 -254 -59c18 -80 24 -166 24 -256v-1134h-443v1094
c0 227 -53 355 -296 355c-76 0 -172 -20 -227 -47c-8 -72 -11 -159 -11 -239z" />
    <glyph glyph-name="n" unicode="n" horiz-adv-x="1967" 
d="M667 1163v-1163h-442v1302c0 121 5 224 15 338c209 111 483 165 798 165c641 0 710 -287 710 -671v-1134h-442v1094c0 251 -46 355 -353 356c-97 0 -209 -17 -275 -48c-8 -72 -11 -159 -11 -239z" />
    <glyph glyph-name="o" unicode="o" horiz-adv-x="1926" 
d="M962 -24c-586 0 -798 249 -798 915c0 664 212 914 798 914c587 0 799 -258 799 -914c0 -658 -212 -915 -799 -915zM962 334c281 0 355 124 355 557c0 431 -74 557 -355 557c-280 0 -352 -112 -352 -557c0 -447 72 -557 352 -557z" />
    <glyph glyph-name="p" unicode="p" horiz-adv-x="1951" 
d="M670 14v-670h-443v1958c0 121 4 224 15 338c200 117 475 165 717 165c593 0 843 -215 843 -915c0 -690 -244 -914 -792 -914c-108 0 -233 15 -340 38zM670 365c73 -23 172 -39 250 -39c425 0 436 240 436 564c0 291 -17 567 -397 567c-98 0 -211 -16 -278 -47
c-8 -72 -11 -159 -11 -239v-806z" />
    <glyph glyph-name="q" unicode="q" horiz-adv-x="1952" 
d="M1725 1302v-1958h-444v670c-106 -23 -232 -38 -340 -38c-548 0 -791 224 -791 914c0 700 249 915 843 915c241 0 516 -48 717 -165c10 -114 15 -217 15 -338zM1281 1171c0 80 -3 167 -11 239c-67 31 -179 47 -277 47c-380 0 -397 -276 -397 -567c0 -324 10 -564 436 -564
c77 0 176 16 249 39v806z" />
    <glyph glyph-name="r" unicode="r" horiz-adv-x="1202" 
d="M664 0h-441v1302c0 121 4 224 15 338c200 117 475 165 716 165c65 0 124 -3 181 -9l-36 -356c-37 5 -83 7 -128 7c-104 0 -226 -19 -296 -55c-8 -72 -11 -159 -11 -239v-1153z" />
    <glyph glyph-name="s" unicode="s" horiz-adv-x="1633" 
d="M970 1459c-141 0 -355 -1 -355 -153c0 -156 185 -183 330 -232c297 -101 545 -161 545 -559c0 -422 -308 -539 -702 -539c-203 0 -451 28 -635 77l42 330c133 -25 347 -54 485 -54c135 0 361 -5 361 171c0 169 -159 185 -307 230c-278 85 -560 173 -560 557
c0 402 281 518 637 518c254 0 431 -23 653 -74l-42 -324c-141 28 -292 52 -452 52z" />
    <glyph glyph-name="t" unicode="t" horiz-adv-x="1300" 
d="M370 2212l443 72v-503h358v-337h-358v-921c0 -148 62 -206 211 -206c50 0 99 2 150 6l34 -316c-95 -17 -210 -31 -305 -31c-375 0 -533 164 -533 502v966h-291v337h291v431z" />
    <glyph glyph-name="u" unicode="u" horiz-adv-x="1958" 
d="M215 647v1134h443v-1094c0 -251 45 -356 349 -356c95 0 205 17 272 48c8 72 11 159 11 239v1163h441v-1302c0 -121 -4 -224 -15 -338c-208 -111 -481 -165 -794 -165c-639 0 -707 287 -707 671z" />
    <glyph glyph-name="v" unicode="v" horiz-adv-x="1900" 
d="M1832 1781l-548 -1533c-67 -188 -177 -272 -335 -272c-159 0 -267 84 -334 272l-546 1533h468l422 -1334l422 1334h451z" />
    <glyph glyph-name="w" unicode="w" horiz-adv-x="2709" 
d="M90 1781h452l276 -1326l251 901c55 198 150 287 293 287s238 -91 293 -287l250 -897l277 1322h437l-388 -1511c-51 -201 -154 -294 -309 -294c-154 0 -260 94 -320 293l-249 822l-242 -821c-59 -199 -167 -294 -322 -294c-157 0 -259 90 -312 296z" />
    <glyph glyph-name="x" unicode="x" horiz-adv-x="1954" 
d="M992 1248l353 533h477l-599 -853l648 -928h-519l-394 589l-388 -589h-488l645 919l-600 862h509z" />
    <glyph glyph-name="y" unicode="y" horiz-adv-x="1835" 
d="M968 682l348 1099h452l-829 -2437h-452l280 781l-716 1656h471z" />
    <glyph glyph-name="z" unicode="z" horiz-adv-x="1807" 
d="M1588 1484l-814 -1123h820v-361h-1266c-115 0 -183 57 -183 146c0 46 17 95 59 154l820 1135h-810v346h1250c112 0 182 -57 182 -146c0 -43 -18 -95 -58 -151z" />
    <glyph glyph-name="zero" unicode="0" horiz-adv-x="2074" 
d="M1037 -24c-701 0 -845 380 -845 1154s144 1154 845 1154s844 -380 844 -1154s-143 -1154 -844 -1154zM1037 345c374 0 382 313 382 785s-9 786 -382 786c-374 0 -383 -314 -383 -786s9 -785 383 -785z" />
    <glyph glyph-name="one" unicode="1" horiz-adv-x="1277" 
d="M570 0v1802c-123 -31 -327 -67 -498 -86l-20 365c274 41 471 113 613 179h361v-2260h-456z" />
    <glyph glyph-name="two" unicode="2" horiz-adv-x="1903" 
d="M216 1853l-43 354c214 41 471 77 743 77c456 0 808 -119 808 -577c0 -417 -220 -674 -660 -847c-320 -126 -376 -236 -408 -465h1067v-395h-1587c127 716 183 975 710 1199c282 120 414 219 414 428c0 226 -126 274 -538 274c-142 0 -349 -22 -506 -48z" />
    <glyph glyph-name="three" unicode="3" horiz-adv-x="1874" 
d="M847 2284c435 0 831 -92 831 -585c0 -225 -100 -406 -314 -509c229 -89 349 -233 349 -493c0 -554 -332 -721 -878 -721c-272 0 -492 37 -702 77l50 357c186 -24 394 -50 568 -50c330 0 484 50 484 320c0 181 -83 272 -243 292c-146 19 -289 25 -469 25h-41v337
c176 4 351 21 510 44c158 23 218 117 218 273c0 232 -169 256 -400 256c-199 0 -404 -24 -607 -50l-47 351c200 39 434 76 691 76z" />
    <glyph glyph-name="four" unicode="4" horiz-adv-x="1994" 
d="M1150 0v509h-760c-233 0 -300 97 -300 238c0 65 13 162 162 353l756 973c132 169 225 211 356 211s234 -88 234 -269v-1150h277v-356h-277v-509h-448zM1152 1678l-608 -813h608v813z" />
    <glyph glyph-name="five" unicode="5" horiz-adv-x="1899" 
d="M683 1868l-31 -445c48 3 103 4 142 4c541 0 939 -93 939 -710c0 -532 -303 -741 -855 -741c-253 0 -502 29 -727 79l49 357c184 -26 379 -51 572 -51c356 0 482 51 482 395c0 278 -277 312 -571 312c-167 0 -312 -4 -478 -12l83 1204h1391v-392h-996z" />
    <glyph glyph-name="six" unicode="6" horiz-adv-x="2021" 
d="M1052 1447c513 0 828 -140 828 -719c0 -604 -349 -752 -873 -752c-672 0 -826 364 -826 944c0 1037 225 1364 1245 1364c38 0 82 0 279 -5l36 -357c-409 -16 -1069 64 -1074 -504c108 15 250 29 385 29zM995 1100c-110 0 -253 -15 -352 -30c-6 -63 -7 -129 -7 -199
c0 -268 41 -525 362 -525c329 0 425 100 425 388c0 298 -160 366 -428 366z" />
    <glyph glyph-name="seven" unicode="7" horiz-adv-x="1748" 
d="M1658 1905l-858 -1905h-519l916 1866h-1100v394h1328c175 0 269 -82 269 -211c0 -45 -11 -89 -36 -144z" />
    <glyph glyph-name="eight" unicode="8" horiz-adv-x="2020" 
d="M1012 2284c372 0 817 -91 817 -569c0 -254 -58 -393 -324 -538c218 -123 354 -266 354 -546c0 -539 -382 -655 -847 -655c-500 0 -850 151 -850 654c0 275 129 407 357 540c-210 113 -324 259 -324 545c0 476 437 569 817 569zM1012 336c221 0 398 56 398 303
c0 231 -77 315 -495 357c-190 -39 -304 -148 -304 -357c0 -248 170 -303 401 -303zM1110 1347c193 50 291 120 291 311c0 234 -167 275 -389 275c-214 0 -383 -38 -383 -275c0 -172 65 -288 481 -311z" />
    <glyph glyph-name="nine" unicode="9" horiz-adv-x="2022" 
d="M967 813c-513 0 -828 140 -828 719c0 604 349 752 873 752c672 0 826 -364 826 -944c0 -1037 -225 -1364 -1245 -1364c-39 0 -82 0 -279 5l-36 357c409 16 1069 -64 1074 504c-108 -15 -250 -29 -385 -29zM1024 1160c110 0 253 15 352 30c6 63 7 129 7 199
c0 268 -41 525 -362 525c-329 0 -426 -100 -426 -388c0 -298 161 -366 429 -366z" />
    <glyph glyph-name="Aacute" unicode="&#xc1;" horiz-adv-x="2239" 
d="M539 0h-487l692 2029c78 228 204 325 383 325c174 0 305 -103 380 -325l682 -2029h-502l-178 577h-796zM940 2540l331 433h492l-460 -433h-363zM822 940h575l-290 942z" />
    <glyph glyph-name="Abreve" unicode="&#x102;" horiz-adv-x="2239" 
d="M1335 2945h248c-21 -227 -162 -410 -463 -410s-442 183 -463 410h247c16 -99 85 -189 216 -189c130 0 200 90 215 189zM52 0l692 2029c78 228 204 325 383 325c174 0 305 -103 380 -325l682 -2029h-502l-178 577h-796l-174 -577h-487zM1397 940l-290 942l-285 -942h575z
" />
    <glyph glyph-name="Acircumflex" unicode="&#xc2;" horiz-adv-x="2239" 
d="M539 0h-487l692 2029c78 228 204 325 383 325c174 0 305 -103 380 -325l682 -2029h-502l-178 577h-796zM981 2974h273l422 -435h-351l-203 231l-209 -231h-346zM822 940h575l-290 942z" />
    <glyph glyph-name="Adieresis" unicode="&#xc4;" horiz-adv-x="2239" 
d="M539 0h-488l693 2029c78 228 204 325 383 325c174 0 305 -103 380 -325l682 -2029h-503l-178 577h-795zM784 2532c-124 0 -223 95 -223 219s99 220 223 220s216 -96 216 -220s-92 -219 -216 -219zM1464 2532c-124 0 -221 95 -221 219s97 220 221 220s217 -96 217 -220
s-93 -219 -217 -219zM822 940h575l-290 942z" />
    <glyph glyph-name="Agrave" unicode="&#xc0;" horiz-adv-x="2238" 
d="M538 0h-487l693 2029c78 228 203 325 383 325c174 0 304 -103 379 -325l682 -2029h-502l-178 577h-796zM951 2560l-461 433h492l332 -433h-363zM822 940h575l-290 942z" />
    <glyph glyph-name="Aogonek" unicode="&#x104;" horiz-adv-x="2239" 
d="M2130 -431l65 -167c-83 -69 -206 -109 -306 -109c-190 0 -334 107 -334 290c0 163 130 324 236 417h-105l-178 577h-795l-174 -577h-488l693 2029c78 228 204 325 383 325c174 0 305 -103 380 -325l682 -2029h-154c-74 -73 -205 -218 -205 -345c0 -85 47 -141 125 -141
c72 0 130 21 175 55zM822 940h575l-290 942z" />
    <glyph glyph-name="Aring" unicode="&#xc5;" horiz-adv-x="2239" 
d="M539 0h-487l692 2029c78 228 204 325 383 325c174 0 305 -103 380 -325l682 -2029h-502l-178 577h-796zM1121 2508c-192 0 -349 156 -349 348c0 193 157 349 349 349s349 -156 349 -349c0 -192 -157 -348 -349 -348zM1121 2685c95 0 172 76 172 171s-77 173 -172 173
s-172 -78 -172 -173s77 -171 172 -171zM822 940h575l-290 942z" />
    <glyph glyph-name="Atilde" unicode="&#xc3;" horiz-adv-x="2239" 
d="M1366 2957h232c-21 -276 -159 -409 -295 -409c-203 0 -242 176 -328 176c-50 0 -83 -50 -101 -168h-232c21 276 159 410 295 410c204 0 241 -176 328 -176c50 0 83 50 101 167zM52 0l692 2029c78 228 204 325 383 325c174 0 305 -103 380 -325l682 -2029h-502l-178 577
h-796l-174 -577h-487zM1397 940l-290 942l-285 -942h575z" />
    <glyph glyph-name="AE" unicode="&#xc6;" horiz-adv-x="3048" 
d="M539 0h-488l690 2009c99 287 309 345 573 345c128 0 253 -30 346 -91c145 68 339 73 542 73c170 0 473 -9 633 -17v-367h-643c-279 0 -327 -58 -327 -315v-264h927v-376h-927v-302c0 -258 48 -317 327 -317h643v-366c-163 -8 -477 -18 -633 -18c-421 0 -809 23 -809 569
v14h-677zM1091 1800l-264 -860h566v841c0 130 -43 182 -131 182s-138 -54 -171 -163z" />
    <glyph glyph-name="Cacute" unicode="&#x106;" horiz-adv-x="1873" 
d="M1715 412l43 -366c-151 -41 -366 -70 -609 -70c-773 0 -965 362 -965 1189c0 828 193 1189 965 1189c245 0 458 -30 609 -71l-42 -365c-153 25 -314 40 -480 40c-560 0 -570 -335 -570 -793c0 -460 8 -793 570 -793c165 0 329 15 479 40zM1630 2961l-460 -433h-363
l332 433h491z" />
    <glyph glyph-name="Ccaron" unicode="&#x10c;" horiz-adv-x="1873" 
d="M1715 412l43 -366c-151 -41 -366 -70 -609 -70c-773 0 -965 362 -965 1189c0 828 193 1189 965 1189c245 0 458 -30 609 -71l-42 -365c-153 25 -314 40 -480 40c-560 0 -570 -335 -570 -793c0 -460 8 -793 570 -793c165 0 329 15 479 40zM1053 2731l209 231h346
l-414 -435h-273l-422 435h350z" />
    <glyph glyph-name="Ccedilla" unicode="&#xc7;" horiz-adv-x="1873" 
d="M1757 2283l-41 -365c-153 25 -314 40 -480 40c-560 0 -570 -335 -570 -793c0 -460 7 -793 570 -793c164 0 329 15 479 40l42 -366c-131 -36 -310 -62 -514 -68l-96 -150c129 -13 257 -98 257 -238c0 -212 -189 -291 -392 -291c-95 0 -204 28 -282 75l64 171
c82 -41 160 -57 214 -57c58 0 118 22 118 90c0 102 -190 128 -287 128l164 275c-653 45 -819 411 -819 1184c0 828 192 1189 965 1189c244 0 457 -30 608 -71z" />
    <glyph glyph-name="Dcaron" unicode="&#x10e;" horiz-adv-x="2231" 
d="M948 1967c-87 0 -162 -8 -222 -16v-1572c60 -9 135 -17 222 -17c613 0 618 348 618 803s-5 802 -618 802zM253 40v2248c198 38 482 66 759 66c873 0 1029 -397 1029 -1189s-156 -1189 -1029 -1189c-280 0 -559 27 -759 64zM1059 2734l209 231h346l-414 -435h-273
l-422 435h350z" />
    <glyph glyph-name="Dcroat" unicode="&#x110;" horiz-adv-x="2304" 
d="M326 1045h-181v310h181v933c198 38 483 66 760 66c873 0 1028 -397 1028 -1189s-155 -1189 -1028 -1189c-281 0 -560 27 -760 64v1005zM800 1045v-666c60 -9 134 -17 221 -17c613 0 619 348 619 803s-6 802 -619 802c-87 0 -161 -8 -221 -16v-596h338v-310h-338z" />
    <glyph glyph-name="Eacute" unicode="&#xc9;" horiz-adv-x="1896" 
d="M1683 2319v-367h-643c-279 0 -327 -58 -327 -315v-264h927v-376h-927v-302c0 -258 48 -317 327 -317h643v-366c-163 -8 -477 -18 -633 -18c-421 0 -809 23 -809 569v1205c0 546 388 568 809 568c169 0 473 -9 633 -17zM757 2522l332 433h492l-460 -433h-364z" />
    <glyph glyph-name="Ecaron" unicode="&#x11a;" horiz-adv-x="1896" 
d="M1683 2319v-367h-643c-279 0 -327 -58 -327 -315v-264h927v-376h-927v-302c0 -258 48 -317 327 -317h643v-366c-163 -8 -477 -18 -633 -18c-421 0 -809 23 -809 569v1205c0 546 388 568 809 568c169 0 472 -9 633 -17zM440 2956h350l204 -231l209 231h346l-414 -435h-273
z" />
    <glyph glyph-name="Ecircumflex" unicode="&#xca;" horiz-adv-x="1897" 
d="M1684 2319v-367h-644c-279 0 -326 -58 -326 -315v-264h926v-376h-926v-302c0 -258 47 -317 326 -317h644v-366c-164 -8 -477 -18 -634 -18c-421 0 -809 23 -809 569v1205c0 546 388 568 809 568c170 0 473 -9 634 -17zM873 2956h273l422 -435h-351l-203 231l-209 -231
h-346z" />
    <glyph glyph-name="Edieresis" unicode="&#xcb;" horiz-adv-x="1897" 
d="M1684 2319v-367h-644c-279 0 -326 -58 -326 -315v-264h926v-376h-926v-302c0 -258 47 -317 326 -317h644v-366c-164 -8 -477 -18 -634 -18c-421 0 -809 23 -809 569v1205c0 546 388 568 809 568c170 0 473 -9 634 -17zM679 2516c-124 0 -223 95 -223 219s99 220 223 220
c123 0 215 -96 215 -220s-92 -219 -215 -219zM1359 2516c-124 0 -221 95 -221 219s97 220 221 220s217 -96 217 -220s-93 -219 -217 -219z" />
    <glyph glyph-name="Egrave" unicode="&#xc8;" horiz-adv-x="1896" 
d="M1683 2319v-367h-643c-279 0 -327 -58 -327 -315v-264h927v-376h-927v-302c0 -258 48 -317 327 -317h643v-366c-163 -8 -477 -18 -633 -18c-421 0 -809 23 -809 569v1205c0 546 388 568 809 568c169 0 472 -9 633 -17zM981 2522l-460 433h491l332 -433h-363z" />
    <glyph glyph-name="Eogonek" unicode="&#x118;" horiz-adv-x="1896" 
d="M1683 1952h-643c-279 0 -327 -58 -327 -315v-264h927v-376h-927v-302c0 -258 48 -317 327 -317h643v-366c-54 -3 -124 -6 -200 -9c-74 -72 -209 -218 -209 -348c0 -85 48 -141 126 -141c72 0 129 22 175 56l65 -168c-83 -68 -206 -108 -306 -108
c-190 0 -334 107 -334 290c0 161 126 319 231 413c-69 -2 -133 -3 -181 -3c-421 0 -809 23 -809 569v1205c0 546 388 568 809 568c170 0 473 -9 633 -17v-367z" />
    <glyph glyph-name="Gbreve" unicode="&#x11e;" horiz-adv-x="2150" 
d="M1121 939v365h828v-873c0 -429 -338 -455 -797 -455c-772 0 -966 362 -966 1189c0 837 194 1189 966 1189c263 0 507 -20 745 -69l-41 -365c-202 31 -417 41 -618 41c-559 0 -570 -337 -570 -796c0 -462 11 -797 569 -797c243 0 265 73 265 203v368h-381zM660 2940h247
c16 -99 85 -189 216 -189c130 0 200 90 215 189h248c-21 -227 -162 -410 -463 -410s-443 183 -463 410z" />
    <glyph glyph-name="Iacute" unicode="&#xcd;" horiz-adv-x="975" 
d="M250 0v2330h475v-2330h-475zM284 2530l332 433h491l-460 -433h-363z" />
    <glyph glyph-name="Icircumflex" unicode="&#xce;" horiz-adv-x="975" 
d="M347 2948h273l422 -435h-350l-203 231l-209 -231h-346zM250 0v2330h475v-2330h-475z" />
    <glyph glyph-name="Idieresis" unicode="&#xcf;" horiz-adv-x="975" 
d="M150 2509c-124 0 -222 95 -222 219s98 220 222 220s216 -96 216 -220s-92 -219 -216 -219zM830 2509c-124 0 -221 95 -221 219s97 220 221 220s217 -96 217 -220s-93 -219 -217 -219zM250 0v2330h475v-2330h-475z" />
    <glyph glyph-name="Idotaccent" unicode="&#x130;" horiz-adv-x="975" 
d="M489 2509c-128 0 -229 99 -229 227c0 130 101 228 229 228c130 0 226 -98 226 -228c0 -128 -96 -227 -226 -227zM250 0v2330h475v-2330h-475z" />
    <glyph glyph-name="Igrave" unicode="&#xcc;" horiz-adv-x="975" 
d="M250 0v2330h475v-2330h-475zM328 2529l-460 434h491l332 -434h-363z" />
    <glyph glyph-name="Lacute" unicode="&#x139;" horiz-adv-x="1690" 
d="M1653 378v-368c-165 -7 -450 -16 -596 -16c-421 0 -809 23 -809 569v1767h474v-1635c0 -259 47 -317 326 -317h605zM1123 2963l-459 -433h-364l332 433h491z" />
    <glyph glyph-name="Lcaron" unicode="&#x13d;" horiz-adv-x="1690" 
d="M1653 378v-368c-165 -7 -450 -16 -595 -16c-422 0 -810 23 -810 569v1767h474v-1635c0 -259 47 -317 327 -317h604zM1479 2330l-256 -672h-273l159 672h370z" />
    <glyph glyph-name="Lslash" unicode="&#x141;" horiz-adv-x="1840" 
d="M398 1201v1129h474v-810l516 347v-338l-516 -347v-487c0 -259 48 -317 327 -317h604v-368c-165 -7 -450 -16 -595 -16c-421 0 -810 23 -810 569v300l-290 -195v338z" />
    <glyph glyph-name="Nacute" unicode="&#x143;" horiz-adv-x="2361" 
d="M942 2048l740 -1427v1709h425v-1999c0 -248 -104 -355 -286 -355c-173 0 -281 75 -401 307l-740 1432v-1715h-425v2000c0 248 108 354 286 354c162 0 284 -81 401 -306zM936 2525l332 433h491l-460 -433h-363z" />
    <glyph glyph-name="Ncaron" unicode="&#x147;" horiz-adv-x="2361" 
d="M942 2048l740 -1427v1709h425v-1999c0 -248 -104 -355 -286 -355c-173 0 -282 75 -402 307l-739 1432v-1715h-425v2000c0 248 108 354 286 354c162 0 284 -81 401 -306zM626 2949h351l203 -231l209 231h346l-414 -435h-273z" />
    <glyph glyph-name="Ntilde" unicode="&#xd1;" horiz-adv-x="2361" 
d="M942 2048l740 -1427v1709h425v-1999c0 -248 -104 -355 -286 -355c-173 0 -282 75 -402 307l-739 1432v-1715h-425v2000c0 248 107 354 286 354c162 0 284 -81 401 -306zM1436 2955h232c-20 -276 -159 -409 -295 -409c-203 0 -242 176 -328 176c-50 0 -83 -50 -101 -168
h-232c21 276 160 410 295 410c204 0 241 -176 328 -176c50 0 83 50 101 167z" />
    <glyph glyph-name="Oacute" unicode="&#xd3;" horiz-adv-x="2240" 
d="M1121 -24c-725 0 -932 345 -932 1189s207 1189 932 1189c724 0 931 -345 931 -1189s-207 -1189 -931 -1189zM1121 366c441 0 451 324 451 799s-10 800 -451 800c-442 0 -452 -325 -452 -800s10 -799 452 -799zM858 2529l332 433h491l-459 -433h-364z" />
    <glyph glyph-name="Ocircumflex" unicode="&#xd4;" horiz-adv-x="2241" 
d="M1121 -24c-724 0 -932 345 -932 1189s208 1189 932 1189c725 0 932 -345 932 -1189s-207 -1189 -932 -1189zM1121 366c442 0 452 324 452 799s-10 800 -452 800c-441 0 -451 -325 -451 -800s10 -799 451 -799zM981 2963h273l422 -435h-350l-204 231l-208 -231h-346z" />
    <glyph glyph-name="Odieresis" unicode="&#xd6;" horiz-adv-x="2240" 
d="M785 2502c-124 0 -223 95 -223 219s99 220 223 220c123 0 215 -96 215 -220s-92 -219 -215 -219zM1121 -24c-725 0 -932 345 -932 1189s207 1189 932 1189s931 -345 931 -1189s-206 -1189 -931 -1189zM1121 366c441 0 452 324 452 799s-11 800 -452 800
s-451 -325 -451 -800s10 -799 451 -799zM1465 2502c-124 0 -221 95 -221 219s97 220 221 220s216 -96 216 -220s-92 -219 -216 -219z" />
    <glyph glyph-name="Ograve" unicode="&#xd2;" horiz-adv-x="2240" 
d="M1121 -24c-724 0 -932 345 -932 1189s208 1189 932 1189c725 0 931 -345 931 -1189s-206 -1189 -931 -1189zM1121 366c442 0 452 324 452 799s-10 800 -452 800c-441 0 -451 -325 -451 -800s10 -799 451 -799zM1038 2529l-460 433h491l332 -433h-363z" />
    <glyph glyph-name="Ohungarumlaut" unicode="&#x150;" horiz-adv-x="2240" 
d="M1121 -24c-724 0 -932 345 -932 1189s208 1189 932 1189c725 0 931 -345 931 -1189s-206 -1189 -931 -1189zM1121 366c442 0 452 324 452 799s-10 800 -452 800c-441 0 -451 -325 -451 -800s10 -799 451 -799zM562 2537l315 432h474l-437 -432h-352zM1223 2537l315 432
h476l-438 -432h-353z" />
    <glyph glyph-name="Otilde" unicode="&#xd5;" horiz-adv-x="2240" 
d="M1367 2930h232c-21 -276 -159 -409 -295 -409c-203 0 -242 176 -328 176c-50 0 -83 -50 -101 -168h-232c21 276 159 410 295 410c204 0 241 -176 328 -176c50 0 83 50 101 167zM1121 2354c725 0 931 -345 931 -1189s-206 -1189 -931 -1189c-724 0 -932 345 -932 1189
s208 1189 932 1189zM1121 1965c-441 0 -451 -325 -451 -800s10 -799 451 -799c442 0 452 324 452 799s-10 800 -452 800z" />
    <glyph glyph-name="Oslash" unicode="&#xd8;" horiz-adv-x="2240" 
d="M687 37l-146 -267l-273 171l148 272c-167 189 -227 498 -227 952c0 844 207 1189 932 1189c172 0 315 -20 433 -61l146 267l274 -171l-149 -273c167 -189 227 -498 227 -951c0 -844 -207 -1189 -931 -1189c-173 0 -316 20 -434 61zM1121 1965c-441 0 -451 -325 -451 -800
c0 -171 1 -322 23 -446l657 1202c-59 28 -134 44 -229 44zM1549 1612l-658 -1202c59 -29 134 -44 230 -44c441 0 452 324 452 799c0 171 -2 323 -24 447z" />
    <glyph glyph-name="OE" unicode="&#x152;" horiz-adv-x="3228" 
d="M3015 1952h-644c-279 0 -326 -58 -326 -315v-264h926v-376h-926v-302c0 -258 47 -317 326 -317h644v-366c-164 -8 -477 -18 -634 -18c-255 0 -497 8 -647 139c-141 -108 -340 -157 -613 -157c-725 0 -932 345 -932 1189s207 1189 932 1189c273 0 471 -49 612 -157
c150 130 393 139 648 139c170 0 473 -9 634 -17v-367zM1121 366c441 0 451 324 451 799s-10 800 -451 800c-442 0 -452 -325 -452 -800s10 -799 452 -799z" />
    <glyph glyph-name="Racute" unicode="&#x154;" horiz-adv-x="2146" 
d="M726 889v-889h-472v2290c202 37 479 64 758 64c515 0 936 -102 936 -732c0 -411 -173 -606 -447 -689l532 -933h-544l-478 879c-96 0 -203 5 -285 10zM726 1965v-700c96 -11 191 -12 288 -12c293 0 465 75 465 371c0 258 -116 361 -455 361c-94 0 -202 -7 -298 -20z
M1117 2964h492l-460 -434h-364z" />
    <glyph glyph-name="Rcaron" unicode="&#x158;" horiz-adv-x="2146" 
d="M726 889v-889h-472v2290c202 37 479 64 758 64c515 0 936 -102 936 -732c0 -411 -173 -606 -447 -689l532 -933h-544l-478 879c-96 0 -203 5 -285 10zM726 1965v-700c96 -11 191 -12 288 -12c293 0 465 75 465 371c0 258 -116 361 -455 361c-94 0 -202 -7 -298 -20z
M1056 2734l209 231h346l-414 -435h-273l-421 435h350z" />
    <glyph glyph-name="Sacute" unicode="&#x15a;" horiz-adv-x="1843" 
d="M1102 1969c-187 0 -472 -8 -472 -241c0 -234 160 -266 428 -338c445 -121 638 -293 638 -715c0 -514 -314 -699 -865 -699c-263 0 -483 31 -674 72l46 373c171 -25 431 -52 611 -52c245 0 394 55 394 289c0 217 -171 266 -386 332c-418 128 -664 257 -664 697
c0 505 298 667 833 667c247 0 501 -37 667 -73l-42 -363c-151 24 -339 51 -514 51zM1549 2971l-460 -433h-363l332 433h491z" />
    <glyph glyph-name="Scaron" unicode="&#x160;" horiz-adv-x="1843" 
d="M1102 1969c-187 0 -472 -8 -472 -241c0 -234 160 -266 428 -338c445 -121 638 -293 638 -715c0 -514 -313 -699 -865 -699c-263 0 -483 31 -674 72l46 373c171 -25 431 -52 611 -52c245 0 394 55 394 289c0 217 -171 266 -386 332c-418 128 -664 257 -664 697
c0 505 298 667 834 667c246 0 500 -37 666 -73l-42 -363c-151 24 -339 51 -514 51zM955 2741l209 231h346l-414 -435h-273l-422 435h350z" />
    <glyph glyph-name="Scedilla" unicode="&#x15e;" horiz-adv-x="1842" 
d="M1658 2281l-43 -363c-151 24 -339 51 -513 51c-188 0 -472 -8 -472 -241c0 -234 159 -266 427 -338c446 -121 638 -293 638 -715c0 -421 -210 -621 -588 -679l-108 -168c129 -13 257 -98 257 -239c0 -211 -189 -290 -392 -290c-95 0 -204 28 -282 75l64 171
c82 -41 160 -57 214 -57c58 0 118 22 118 90c0 102 -190 127 -287 127l161 272c-7 0 -15 -1 -22 -1c-262 0 -483 31 -673 72l46 373c171 -25 431 -52 610 -52c245 0 395 55 395 289c0 217 -171 266 -386 332c-419 128 -665 257 -665 697c0 505 298 667 834 667
c247 0 501 -37 667 -73z" />
    <glyph glyph-name="uni0218" unicode="&#x218;" horiz-adv-x="1843" 
d="M1103 1969c-188 0 -473 -8 -473 -241c0 -234 160 -266 428 -338c446 -121 638 -293 638 -715c0 -514 -313 -699 -865 -699c-262 0 -483 31 -673 72l46 373c171 -25 431 -52 610 -52c245 0 395 55 395 289c0 217 -172 266 -387 332c-418 128 -664 257 -664 697
c0 505 298 667 834 667c246 0 501 -37 667 -73l-43 -363c-151 24 -339 51 -513 51zM1172 -205l-238 -624h-254l147 624h345z" />
    <glyph glyph-name="Tcaron" unicode="&#x164;" horiz-adv-x="1736" 
d="M1678 2330v-382h-574v-1948h-475v1948h-569v382h1618zM314 2929h351l203 -231l209 231h346l-414 -435h-273z" />
    <glyph glyph-name="uni0162" unicode="&#x162;" horiz-adv-x="1736" 
d="M1677 2330v-382h-573v-1948h-475v1948h-570v382h1618zM556 -819l147 624h345l-238 -624h-254z" />
    <glyph glyph-name="Uacute" unicode="&#xda;" horiz-adv-x="2229" 
d="M1986 2330v-1545c0 -641 -345 -809 -874 -809c-530 0 -875 168 -875 809v1545h467v-1571c0 -277 106 -386 408 -386c300 0 407 109 407 386v1571h467zM858 2513l332 433h491l-460 -433h-363z" />
    <glyph glyph-name="Ucircumflex" unicode="&#xdb;" horiz-adv-x="2229" 
d="M1986 2330v-1545c0 -641 -345 -809 -875 -809c-529 0 -874 168 -874 809v1545h467v-1571c0 -277 106 -386 407 -386s408 109 408 386v1571h467zM988 2947h273l421 -435h-350l-203 231l-209 -231h-346z" />
    <glyph glyph-name="Udieresis" unicode="&#xdc;" horiz-adv-x="2229" 
d="M1986 2330v-1545c0 -641 -345 -809 -874 -809c-530 0 -875 168 -875 809v1545h467v-1571c0 -277 106 -386 408 -386c300 0 407 109 407 386v1571h467zM775 2510c-125 0 -223 95 -223 219s98 220 223 220c123 0 215 -96 215 -220s-92 -219 -215 -219zM1454 2510
c-124 0 -221 95 -221 219s97 220 221 220s217 -96 217 -220s-93 -219 -217 -219z" />
    <glyph glyph-name="Ugrave" unicode="&#xd9;" horiz-adv-x="2229" 
d="M1986 2330v-1545c0 -641 -345 -809 -874 -809c-530 0 -875 168 -875 809v1545h467v-1571c0 -277 106 -386 408 -386c300 0 407 109 407 386v1571h467zM1021 2513l-460 433h491l332 -433h-363z" />
    <glyph glyph-name="Uhungarumlaut" unicode="&#x170;" horiz-adv-x="2229" 
d="M1986 2330v-1545c0 -641 -345 -809 -874 -809c-530 0 -875 168 -875 809v1545h467v-1571c0 -277 106 -386 408 -386c300 0 407 109 407 386v1571h467zM526 2541l315 432h475l-437 -432h-353zM1188 2541l315 432h475l-437 -432h-353z" />
    <glyph glyph-name="Uring" unicode="&#x16e;" horiz-adv-x="2229" 
d="M1986 2330v-1545c0 -641 -345 -809 -875 -809s-874 168 -874 809v1545h467v-1571c0 -277 105 -386 407 -386c301 0 408 109 408 386v1571h467zM1111 2452c-192 0 -349 156 -349 348c0 193 157 349 349 349c193 0 349 -156 349 -349c0 -192 -156 -348 -349 -348z
M1111 2629c96 0 173 76 173 171s-77 173 -173 173c-95 0 -172 -78 -172 -173s77 -171 172 -171z" />
    <glyph glyph-name="Yacute" unicode="&#xdd;" horiz-adv-x="2024" 
d="M1247 898v-898h-473v898l-750 1432h510l480 -966l495 966h491zM774 2503l331 433h492l-460 -433h-363z" />
    <glyph glyph-name="Ydieresis" unicode="&#x178;" horiz-adv-x="2024" 
d="M694 2499c-124 0 -223 95 -223 219s99 220 223 220s216 -96 216 -220s-92 -219 -216 -219zM1374 2499c-124 0 -221 95 -221 219s97 220 221 220s217 -96 217 -220s-93 -219 -217 -219zM1247 898v-898h-474v898l-749 1432h509l480 -966l495 966h491z" />
    <glyph glyph-name="Zacute" unicode="&#x179;" horiz-adv-x="1890" 
d="M1684 1975l-946 -1583h995v-392h-1343c-172 0 -265 64 -265 180c0 50 18 109 58 175l951 1586h-941v389h1286c178 0 263 -68 263 -179c0 -52 -18 -109 -58 -176zM698 2513l332 433h491l-460 -433h-363z" />
    <glyph glyph-name="Zcaron" unicode="&#x17d;" horiz-adv-x="1890" 
d="M1684 1975l-946 -1583h996v-392h-1343c-173 0 -266 64 -266 180c0 50 18 109 58 175l951 1586h-941v389h1286c178 0 264 -68 264 -179c0 -52 -19 -109 -59 -176zM412 2947h350l203 -231l209 231h346l-414 -435h-273z" />
    <glyph glyph-name="Zdotaccent" unicode="&#x17b;" horiz-adv-x="1889" 
d="M1683 1975l-946 -1583h996v-392h-1343c-173 0 -266 64 -266 180c0 50 19 108 59 175l951 1586h-942v389h1286c178 0 264 -68 264 -179c0 -52 -19 -109 -59 -176zM951 2510c-128 0 -229 99 -229 227c0 130 101 228 229 228c130 0 226 -98 226 -228
c0 -128 -96 -227 -226 -227z" />
    <glyph glyph-name="Eth" unicode="&#xd0;" horiz-adv-x="2304" 
d="M326 1045h-181v310h181v933c198 38 483 66 760 66c873 0 1028 -397 1028 -1189s-155 -1189 -1028 -1189c-281 0 -560 27 -760 64v1005zM800 1045v-666c60 -9 134 -17 221 -17c613 0 619 348 619 803s-6 802 -619 802c-87 0 -161 -8 -221 -16v-596h338v-310h-338z" />
    <glyph glyph-name="Thorn" unicode="&#xde;" horiz-adv-x="2009" 
d="M228 0v2330h473v-389c93 7 190 10 286 10c512 0 936 -95 936 -720c0 -606 -383 -732 -912 -732c-101 0 -220 5 -310 10v-509h-473zM701 1561v-678c95 -12 190 -13 287 -13c292 0 466 69 466 361c0 254 -118 350 -455 350c-94 0 -202 -7 -298 -20z" />
    <glyph glyph-name="aacute" unicode="&#xe1;" horiz-adv-x="1854" 
d="M829 -24c-492 0 -687 191 -687 568c0 315 138 510 493 566c186 30 375 37 571 45c0 205 -96 298 -327 298c-215 0 -450 -23 -629 -46l-36 330c187 32 436 68 698 68c397 0 727 -111 727 -573v-753c0 -121 -4 -224 -15 -338c-206 -120 -473 -165 -795 -165zM1206 600v265
c-134 -7 -288 -11 -411 -40c-157 -37 -216 -88 -216 -275c0 -188 108 -237 301 -237c100 0 218 7 315 48c8 72 11 159 11 239zM1469 2536l-430 -535h-339l310 535h459z" />
    <glyph glyph-name="abreve" unicode="&#x103;" horiz-adv-x="1854" 
d="M828 -24c-492 0 -686 191 -686 568c0 315 138 510 493 566c186 30 374 37 571 45c0 205 -96 298 -328 298c-215 0 -449 -23 -629 -46l-36 330c187 32 437 68 699 68c397 0 727 -111 727 -573v-753c0 -121 -5 -224 -15 -338c-206 -120 -474 -165 -796 -165zM1206 600v265
c-134 -7 -288 -11 -412 -40c-156 -37 -215 -88 -215 -275c0 -188 107 -237 301 -237c99 0 218 7 315 48c8 72 11 159 11 239zM955 2016c-301 0 -443 211 -464 471h248c15 -114 85 -217 216 -217c130 0 200 103 215 217h248c-21 -260 -162 -471 -463 -471z" />
    <glyph glyph-name="acircumflex" unicode="&#xe2;" horiz-adv-x="1854" 
d="M828 -24c-492 0 -686 191 -686 568c0 315 138 510 493 566c186 30 374 37 571 45c0 205 -96 298 -328 298c-215 0 -449 -23 -629 -46l-36 330c187 32 437 68 699 68c397 0 727 -111 727 -573v-753c0 -121 -5 -224 -15 -338c-206 -120 -474 -165 -796 -165zM1206 600v265
c-134 -7 -288 -11 -412 -40c-156 -37 -215 -88 -215 -275c0 -188 107 -237 301 -237c99 0 218 7 315 48c8 72 11 159 11 239zM1453 1991h-328l-190 284l-195 -284h-324l387 536h255z" />
    <glyph glyph-name="adieresis" unicode="&#xe4;" horiz-adv-x="1854" 
d="M828 -24c-492 0 -686 191 -686 568c0 315 138 510 493 566c186 30 375 37 571 45c0 205 -96 298 -328 298c-215 0 -449 -23 -628 -46l-37 330c188 32 437 68 699 68c397 0 727 -111 727 -573v-753c0 -121 -5 -224 -15 -338c-206 -120 -474 -165 -796 -165zM1206 600v265
c-134 -7 -288 -11 -411 -40c-157 -37 -216 -88 -216 -275c0 -188 107 -237 301 -237c99 0 218 7 315 48c8 72 11 159 11 239zM597 2474c124 0 216 -96 216 -220s-92 -219 -216 -219s-222 95 -222 219s98 220 222 220zM1277 2474c124 0 217 -96 217 -220s-93 -219 -217 -219
s-221 95 -221 219s97 220 221 220z" />
    <glyph glyph-name="agrave" unicode="&#xe0;" horiz-adv-x="1854" 
d="M829 -24c-492 0 -687 191 -687 568c0 315 138 510 493 566c186 30 375 37 571 45c0 205 -96 298 -328 298c-215 0 -449 -23 -628 -46l-37 330c188 32 437 68 699 68c397 0 727 -111 727 -573v-753c0 -121 -4 -224 -15 -338c-206 -120 -474 -165 -795 -165zM1206 600v265
c-134 -7 -288 -11 -411 -40c-157 -37 -216 -88 -216 -275c0 -188 108 -237 301 -237c99 0 218 7 315 48c8 72 11 159 11 239zM816 2539l310 -535h-339l-430 535h459z" />
    <glyph glyph-name="aogonek" unicode="&#x105;" horiz-adv-x="1855" 
d="M1640 1232v-753c0 -121 -5 -224 -15 -338c-60 -35 -124 -63 -193 -86c-77 -76 -193 -211 -193 -332c0 -85 48 -141 126 -141c72 0 129 22 175 56l65 -168c-83 -68 -206 -108 -306 -108c-190 0 -334 107 -334 290c0 124 76 247 158 340c-92 -11 -190 -16 -294 -16
c-492 0 -687 191 -687 568c0 315 138 510 493 566c186 30 375 37 571 45c0 205 -95 298 -327 298c-215 0 -449 -23 -629 -46l-36 330c187 32 436 68 698 68c397 0 728 -111 728 -573zM1206 600v265c-134 -7 -288 -11 -411 -40c-157 -37 -216 -88 -216 -275
c0 -188 108 -237 302 -237c99 0 217 7 314 48c8 72 11 159 11 239z" />
    <glyph glyph-name="aring" unicode="&#xe5;" horiz-adv-x="1854" 
d="M829 -24c-492 0 -687 191 -687 568c0 315 138 510 493 566c186 30 375 37 571 45c0 205 -96 298 -328 298c-214 0 -449 -23 -628 -46l-36 330c187 32 436 68 698 68c397 0 727 -111 727 -573v-753c0 -121 -4 -224 -15 -338c-206 -120 -474 -165 -795 -165zM1206 600v265
c-134 -7 -288 -11 -411 -40c-157 -37 -216 -88 -216 -275c0 -188 108 -237 301 -237c100 0 218 7 315 48c8 72 11 159 11 239zM921 2658c192 0 349 -156 349 -349c0 -192 -157 -348 -349 -348s-349 156 -349 348c0 193 157 349 349 349zM921 2482c-95 0 -172 -78 -172 -173
s77 -171 172 -171s172 76 172 171s-77 173 -172 173z" />
    <glyph glyph-name="atilde" unicode="&#xe3;" horiz-adv-x="1854" 
d="M828 -24c-492 0 -686 191 -686 568c0 315 138 510 493 566c186 30 374 37 570 45c0 205 -95 298 -327 298c-215 0 -449 -23 -629 -46l-36 330c187 32 437 68 698 68c398 0 728 -111 728 -573v-753c0 -121 -5 -224 -15 -338c-206 -120 -474 -165 -796 -165zM1176 2477h232
c-21 -288 -159 -426 -295 -426c-203 0 -242 182 -328 182c-50 0 -83 -52 -101 -174h-232c21 287 159 426 295 426c204 0 241 -182 328 -182c50 0 83 51 101 174zM578 550c0 -188 108 -237 302 -237c99 0 218 7 314 48c8 72 11 159 11 239v265c-133 -7 -287 -11 -411 -40
c-156 -37 -216 -88 -216 -275z" />
    <glyph glyph-name="ae" unicode="&#xe6;" horiz-adv-x="2950" 
d="M2710 379l37 -335c-188 -31 -434 -68 -779 -68c-194 0 -341 39 -452 112c-186 -80 -417 -112 -687 -112c-492 0 -687 191 -687 568c0 315 138 510 493 566c186 30 375 37 571 45c0 205 -95 298 -327 298c-215 0 -449 -23 -629 -46l-36 330c187 32 436 68 698 68
c218 0 416 -34 548 -143c124 98 302 143 545 143c650 0 784 -341 784 -880c0 -47 -2 -95 -6 -143c-203 -37 -598 -77 -843 -89l-294 -15c16 -278 165 -346 421 -346c241 0 460 24 643 47zM1206 865c-134 -7 -288 -11 -411 -40c-157 -37 -216 -88 -216 -275
c0 -188 108 -237 302 -237c99 0 217 7 314 48c8 72 11 159 11 239v265zM2340 1032c3 20 4 51 4 71c0 234 -87 362 -339 362c-327 0 -371 -204 -371 -483l305 15c117 6 296 21 401 35z" />
    <glyph glyph-name="cacute" unicode="&#x107;" horiz-adv-x="1584" 
d="M1402 379l39 -335c-155 -39 -345 -68 -582 -68c-597 0 -690 454 -690 931c0 583 137 898 793 898c202 0 352 -30 476 -68l-35 -326c-108 21 -215 41 -323 41c-417 0 -462 -123 -462 -545c0 -399 18 -570 465 -570c109 0 210 20 319 42zM1369 2536l-430 -535h-339l310 535
h459z" />
    <glyph glyph-name="ccaron" unicode="&#x10d;" horiz-adv-x="1583" 
d="M1402 379l38 -335c-155 -39 -345 -68 -582 -68c-597 0 -689 454 -689 931c0 583 136 898 792 898c202 0 352 -30 476 -68l-35 -326c-108 21 -214 41 -323 41c-417 0 -462 -123 -462 -545c0 -399 19 -570 465 -570c110 0 210 20 320 42zM859 2255l196 285h323l-387 -536
h-255l-395 536h328z" />
    <glyph glyph-name="ccedilla" unicode="&#xe7;" horiz-adv-x="1583" 
d="M1438 1737l-36 -326c-108 21 -214 41 -323 41c-417 0 -462 -123 -462 -545c0 -399 19 -570 466 -570c109 0 209 20 319 42l39 -335c-113 -28 -243 -51 -396 -62l-98 -154c129 -13 256 -98 256 -239c0 -211 -189 -290 -391 -290c-96 0 -205 28 -283 75l64 171
c82 -41 160 -57 214 -57c58 0 118 22 118 90c0 102 -190 127 -287 127l162 273c-545 28 -631 468 -631 929c0 583 137 898 792 898c202 0 352 -30 477 -68z" />
    <glyph glyph-name="dcaron" unicode="&#x10f;" horiz-adv-x="1953" 
d="M1281 1767v702h444v-1990c0 -121 -5 -224 -15 -338c-200 -117 -476 -165 -717 -165c-594 0 -843 215 -843 915c0 690 243 914 791 914c108 0 234 -15 340 -38zM1281 1416c-73 23 -172 39 -249 39c-425 0 -436 -240 -436 -564c0 -291 17 -567 397 -567c98 0 211 16 277 47
c8 72 11 159 11 239v806zM2398 2469l-256 -672h-273l159 672h370z" />
    <glyph glyph-name="dcroat" unicode="&#x111;" horiz-adv-x="1954" 
d="M943 1991v248h339v230h444v-230h220v-248h-220v-1512c0 -121 -5 -224 -15 -338c-201 -117 -476 -165 -717 -165c-594 0 -844 215 -844 915c0 690 244 914 792 914c108 0 234 -15 340 -38v224h-339zM1282 1416c-73 23 -172 39 -249 39c-426 0 -437 -240 -437 -564
c0 -291 18 -567 398 -567c98 0 210 16 277 47c8 72 11 159 11 239v806z" />
    <glyph glyph-name="eacute" unicode="&#xe9;" horiz-adv-x="1906" 
d="M924 -24c-603 0 -762 387 -762 915c0 646 203 914 800 914c649 0 783 -341 783 -880c0 -47 -2 -95 -6 -143c-203 -37 -598 -76 -843 -89l-293 -15c16 -278 164 -346 421 -346c240 0 459 24 642 47l37 -335c-188 -31 -433 -68 -779 -68zM590 982l306 15
c116 6 296 21 400 35c3 20 4 51 4 71c0 234 -87 362 -338 362c-328 0 -372 -204 -372 -483zM1543 2531l-430 -535h-340l311 535h459z" />
    <glyph glyph-name="ecaron" unicode="&#x11b;" horiz-adv-x="1906" 
d="M924 -24c-603 0 -762 387 -762 915c0 646 203 914 800 914c649 0 783 -341 783 -880c0 -47 -2 -95 -6 -143c-202 -37 -598 -76 -843 -89l-293 -15c16 -278 164 -346 421 -346c240 0 459 24 642 47l37 -335c-188 -31 -433 -68 -779 -68zM591 982l305 15
c117 6 296 21 401 35c2 20 3 51 3 71c0 234 -86 362 -338 362c-328 0 -371 -204 -371 -483zM953 2245l196 285h323l-387 -536h-255l-395 536h328z" />
    <glyph glyph-name="ecircumflex" unicode="&#xea;" horiz-adv-x="1906" 
d="M924 -24c-603 0 -762 387 -762 915c0 646 203 914 800 914c649 0 783 -341 783 -880c0 -47 -2 -95 -6 -143c-202 -37 -598 -76 -843 -89l-293 -15c16 -278 164 -346 421 -346c240 0 459 24 642 47l37 -335c-188 -31 -433 -68 -779 -68zM591 982l305 15
c117 6 296 21 401 35c2 20 3 51 3 71c0 234 -86 362 -338 362c-327 0 -371 -204 -371 -483zM1503 1991h-327l-190 284l-196 -284h-323l387 536h255z" />
    <glyph glyph-name="edieresis" unicode="&#xeb;" horiz-adv-x="1906" 
d="M924 -24c-603 0 -762 387 -762 915c0 646 203 914 800 914c649 0 783 -341 783 -880c0 -47 -2 -95 -6 -143c-203 -37 -598 -76 -843 -89l-293 -15c16 -278 164 -346 421 -346c240 0 459 24 642 47l37 -335c-188 -31 -433 -68 -779 -68zM664 2474c124 0 216 -96 216 -220
s-92 -219 -216 -219s-223 95 -223 219s99 220 223 220zM590 982l306 15c116 6 296 21 400 35c3 20 4 51 4 71c0 234 -87 362 -338 362c-328 0 -372 -204 -372 -483zM1344 2474c124 0 217 -96 217 -220s-93 -219 -217 -219s-221 95 -221 219s97 220 221 220z" />
    <glyph glyph-name="egrave" unicode="&#xe8;" horiz-adv-x="1905" 
d="M924 -24c-604 0 -762 387 -762 915c0 646 202 914 799 914c650 0 783 -341 783 -880c0 -47 -1 -95 -5 -143c-203 -37 -599 -77 -843 -89l-294 -15c16 -278 165 -346 421 -346c241 0 459 24 642 47l38 -335c-189 -31 -434 -68 -779 -68zM590 982l305 15
c117 6 296 21 401 35c3 20 4 51 4 71c0 234 -87 362 -339 362c-327 0 -371 -204 -371 -483zM933 2539l311 -535h-340l-430 535h459z" />
    <glyph glyph-name="eogonek" unicode="&#x119;" horiz-adv-x="1905" 
d="M1665 379l38 -335c-93 -16 -199 -32 -325 -45c-76 -76 -194 -212 -194 -334c0 -85 47 -141 125 -141c73 0 130 22 176 56l64 -168c-82 -68 -206 -108 -306 -108c-190 0 -334 107 -334 290c0 146 105 290 203 386c-59 -3 -122 -4 -188 -4c-604 0 -762 387 -762 915
c0 646 202 914 799 914c650 0 783 -341 783 -880c0 -47 -1 -95 -5 -143c-203 -37 -598 -77 -843 -89l-294 -15c16 -278 165 -346 421 -346c241 0 459 24 642 47zM961 1465c-327 0 -371 -204 -371 -483l305 15c117 6 296 21 401 35c3 20 4 51 4 71c0 234 -87 362 -339 362z
" />
    <glyph glyph-name="gbreve" unicode="&#x11f;" horiz-adv-x="1957" 
d="M263 -605l36 329c178 -25 440 -52 646 -52c239 0 343 110 343 329v53c-107 -23 -233 -38 -340 -38c-542 0 -792 217 -792 894c0 684 263 895 843 895c241 0 517 -48 717 -165c10 -114 15 -217 15 -338v-1405c0 -465 -332 -577 -731 -577c-265 0 -551 42 -737 75z
M999 1457c-367 0 -397 -269 -397 -547c0 -311 18 -544 436 -544c78 0 176 16 250 39v766c0 80 -3 167 -11 239c-67 31 -180 47 -278 47zM1214 2487h248c-21 -260 -162 -471 -464 -471c-300 0 -442 211 -463 471h248c15 -114 85 -217 215 -217c131 0 201 103 216 217z" />
    <glyph glyph-name="iacute" unicode="&#xed;" horiz-adv-x="915" 
d="M234 0v1781h447v-1781h-447zM285 2027l310 535h460l-430 -535h-340z" />
    <glyph glyph-name="icircumflex" unicode="&#xee;" horiz-adv-x="915" 
d="M327 2573h255l394 -536h-328l-189 284l-196 -284h-324zM234 0v1781h447v-1781h-447z" />
    <glyph glyph-name="idieresis" unicode="&#xef;" horiz-adv-x="915" 
d="M121 2050c-124 0 -223 95 -223 219s99 220 223 220c123 0 215 -96 215 -220s-92 -219 -215 -219zM801 2050c-124 0 -221 95 -221 219s97 220 221 220s217 -96 217 -220s-93 -219 -217 -219zM234 0v1781h447v-1781h-447z" />
    <glyph glyph-name="igrave" unicode="&#xec;" horiz-adv-x="915" 
d="M234 0v1781h447v-1781h-447zM290 2026l-429 536h458l310 -536h-339z" />
    <glyph glyph-name="dotlessi" unicode="&#x131;" horiz-adv-x="915" 
d="M234 0v1781h447v-1781h-447z" />
    <glyph glyph-name="lacute" unicode="&#x13a;" horiz-adv-x="884" 
d="M197 453v2016h445v-1983c0 -159 34 -267 124 -390l-392 -184c-115 133 -177 293 -177 541zM243 2619l331 433h492l-460 -433h-363z" />
    <glyph glyph-name="lcaron" unicode="&#x13e;" horiz-adv-x="884" 
d="M197 453v2016h445v-1983c0 -159 34 -267 124 -390l-392 -184c-115 133 -177 293 -177 541zM785 1797l159 672h371l-256 -672h-274z" />
    <glyph glyph-name="lslash" unicode="&#x142;" horiz-adv-x="1036" 
d="M734 1308v-822c0 -159 34 -267 124 -390l-392 -184c-116 133 -177 293 -177 541v511l-291 -224v349l291 225v1155h445v-811l304 235v-350z" />
    <glyph glyph-name="nacute" unicode="&#x144;" horiz-adv-x="1967" 
d="M667 1163v-1163h-442v1302c0 121 5 224 15 338c208 111 482 165 797 165c642 0 711 -287 711 -671v-1134h-442v1094c0 251 -46 355 -353 356c-98 0 -209 -17 -275 -48c-8 -72 -11 -159 -11 -239zM753 2009l310 535h460l-430 -535h-340z" />
    <glyph glyph-name="ncaron" unicode="&#x148;" horiz-adv-x="1967" 
d="M666 1163v-1163h-441v1302c0 121 4 224 15 338c208 111 482 165 797 165c641 0 711 -287 711 -671v-1134h-443v1094c0 251 -46 355 -353 356c-97 0 -209 -17 -275 -48c-8 -72 -11 -159 -11 -239zM468 2537h328l189 -285l196 285h324l-388 -536h-255z" />
    <glyph glyph-name="ntilde" unicode="&#xf1;" horiz-adv-x="1967" 
d="M667 1163v-1163h-442v1302c0 121 5 224 15 338c209 111 483 165 798 165c641 0 710 -287 710 -671v-1134h-442v1094c0 251 -46 355 -353 356c-97 0 -209 -17 -275 -48c-8 -72 -11 -159 -11 -239zM1247 2487h232c-20 -288 -159 -426 -294 -426c-204 0 -242 182 -329 182
c-50 0 -83 -52 -101 -174h-232c21 287 160 426 295 426c204 0 241 -182 329 -182c49 0 82 51 100 174z" />
    <glyph glyph-name="oacute" unicode="&#xf3;" horiz-adv-x="1925" 
d="M962 -24c-587 0 -798 249 -798 915c0 664 211 914 798 914s798 -258 798 -914c0 -658 -211 -915 -798 -915zM962 334c281 0 354 124 354 557c0 431 -73 557 -354 557c-280 0 -353 -112 -353 -557c0 -447 72 -557 353 -557zM720 2018l310 535h459l-429 -535h-340z" />
    <glyph glyph-name="ocircumflex" unicode="&#xf4;" horiz-adv-x="1925" 
d="M962 -24c-587 0 -798 249 -798 915c0 664 211 914 798 914s798 -258 798 -914c0 -658 -211 -915 -798 -915zM962 334c281 0 354 124 354 557c0 431 -73 557 -354 557c-280 0 -352 -112 -352 -557c0 -447 71 -557 352 -557zM832 2537h255l394 -536h-328l-190 284
l-195 -284h-324z" />
    <glyph glyph-name="odieresis" unicode="&#xf6;" horiz-adv-x="1925" 
d="M626 2035c-124 0 -223 95 -223 219s99 220 223 220c123 0 215 -96 215 -220s-92 -219 -215 -219zM962 -24c-587 0 -798 249 -798 915c0 664 211 914 798 914s798 -258 798 -914c0 -658 -211 -915 -798 -915zM962 334c281 0 354 124 354 557c0 431 -73 557 -354 557
c-280 0 -353 -112 -353 -557c0 -447 72 -557 353 -557zM1306 2035c-124 0 -221 95 -221 219s97 220 221 220s216 -96 216 -220s-92 -219 -216 -219z" />
    <glyph glyph-name="ograve" unicode="&#xf2;" horiz-adv-x="1925" 
d="M962 -24c-587 0 -798 249 -798 915c0 664 211 914 798 914s798 -258 798 -914c0 -658 -211 -915 -798 -915zM962 334c281 0 354 124 354 557c0 431 -73 557 -354 557s-353 -112 -353 -557c0 -447 72 -557 353 -557zM879 2004l-430 535h460l310 -535h-340z" />
    <glyph glyph-name="ohungarumlaut" unicode="&#x151;" horiz-adv-x="1926" 
d="M962 -24c-586 0 -798 249 -798 915c0 664 212 914 798 914c587 0 799 -258 799 -914c0 -658 -212 -915 -799 -915zM962 334c281 0 355 124 355 557c0 431 -74 557 -355 557c-280 0 -352 -112 -352 -557c0 -447 72 -557 352 -557zM421 2031l295 534h444l-409 -534h-330z
M1040 2031l294 534h444l-408 -534h-330z" />
    <glyph glyph-name="otilde" unicode="&#xf5;" horiz-adv-x="1925" 
d="M1207 2467h232c-20 -288 -159 -426 -295 -426c-203 0 -241 182 -328 182c-50 0 -83 -52 -101 -174h-232c21 287 160 426 295 426c204 0 241 -182 328 -182c50 0 83 51 101 174zM961 1805c588 0 799 -258 799 -914c0 -658 -211 -915 -799 -915c-586 0 -797 249 -797 915
c0 664 211 914 797 914zM961 1448c-280 0 -352 -112 -352 -557c0 -447 72 -557 352 -557c282 0 355 124 355 557c0 431 -74 557 -355 557z" />
    <glyph glyph-name="oslash" unicode="&#xf8;" horiz-adv-x="1925" 
d="M585 27l-132 -227l-184 117l125 215c-163 141 -230 384 -230 759c0 664 211 914 798 914c148 0 273 -17 376 -52l133 228l184 -117l-127 -218c164 -142 232 -385 232 -755c0 -658 -211 -915 -798 -915c-149 0 -274 16 -377 51zM962 1448c-281 0 -353 -112 -353 -557
c0 -148 8 -259 28 -341l506 868c-48 21 -107 30 -181 30zM1285 1230l-505 -869c47 -19 107 -27 182 -27c281 0 354 124 354 557c0 145 -9 256 -31 339z" />
    <glyph glyph-name="oe" unicode="&#x153;" horiz-adv-x="3060" 
d="M962 1805c264 0 451 -53 577 -172c125 118 310 172 577 172c650 0 783 -341 783 -880c0 -47 -2 -95 -6 -143c-202 -37 -598 -76 -843 -89l-293 -15c16 -278 164 -346 421 -346c240 0 459 24 642 47l37 -335c-188 -31 -433 -68 -779 -68c-245 0 -416 65 -532 178
c-126 -124 -315 -178 -584 -178c-587 0 -798 249 -798 915c0 664 211 914 798 914zM962 1448c-280 0 -353 -112 -353 -557c0 -447 72 -557 353 -557s354 124 354 557c0 431 -73 557 -354 557zM1745 982l305 15c117 6 296 21 401 35c2 20 3 51 3 71c0 234 -86 362 -338 362
c-327 0 -371 -204 -371 -483z" />
    <glyph glyph-name="racute" unicode="&#x155;" horiz-adv-x="1203" 
d="M665 0h-442v1302c0 121 5 224 15 338c201 117 476 165 717 165c64 0 124 -3 180 -9l-35 -356c-38 5 -83 7 -128 7c-105 0 -226 -19 -297 -55c-7 -72 -10 -159 -10 -239v-1153zM717 2546h459l-430 -535h-339z" />
    <glyph glyph-name="rcaron" unicode="&#x159;" horiz-adv-x="1203" 
d="M665 0h-442v1302c0 121 5 224 15 338c201 117 476 165 717 165c64 0 124 -3 180 -9l-35 -356c-38 5 -83 7 -129 7c-104 0 -225 -19 -296 -55c-7 -72 -10 -159 -10 -239v-1153zM492 2537l190 -285l195 285h324l-387 -536h-255l-395 536h328z" />
    <glyph glyph-name="sacute" unicode="&#x15b;" horiz-adv-x="1633" 
d="M971 1459c-141 0 -355 -1 -355 -153c0 -156 184 -183 329 -232c297 -101 545 -161 545 -559c0 -422 -308 -539 -701 -539c-204 0 -452 28 -636 77l43 330c133 -25 347 -54 484 -54c135 0 362 -5 362 171c0 169 -160 185 -308 230c-277 85 -560 173 -560 557
c0 402 282 518 637 518c254 0 431 -23 654 -74l-42 -324c-142 28 -292 52 -452 52zM1404 2556l-430 -535h-340l311 535h459z" />
    <glyph glyph-name="scaron" unicode="&#x161;" horiz-adv-x="1633" 
d="M971 1459c-141 0 -355 -1 -355 -153c0 -156 184 -183 329 -232c297 -101 545 -161 545 -559c0 -422 -308 -539 -701 -539c-204 0 -452 28 -636 77l42 330c134 -25 348 -54 485 -54c135 0 362 -5 362 171c0 169 -160 185 -308 230c-277 85 -560 173 -560 557
c0 402 282 518 637 518c254 0 431 -23 654 -74l-42 -324c-142 28 -293 52 -452 52zM821 2255l196 285h323l-387 -536h-255l-395 536h328z" />
    <glyph glyph-name="scedilla" unicode="&#x15f;" horiz-adv-x="1633" 
d="M1464 1731l-42 -324c-142 28 -292 52 -452 52c-141 0 -355 -1 -355 -153c0 -156 185 -183 330 -232c297 -101 545 -161 545 -559c0 -337 -197 -480 -477 -523l-105 -165c129 -13 257 -98 257 -239c0 -211 -190 -290 -392 -290c-95 0 -204 28 -282 75l64 171
c82 -41 159 -57 214 -57c57 0 118 22 118 90c0 102 -190 127 -287 127l161 272c-198 3 -433 30 -608 77l42 330c133 -25 347 -54 485 -54c135 0 361 -5 361 171c0 169 -159 185 -307 230c-278 85 -560 173 -560 557c0 402 281 518 637 518c253 0 431 -23 653 -74z" />
    <glyph glyph-name="uni0219" unicode="&#x219;" horiz-adv-x="1633" 
d="M971 1459c-141 0 -356 -1 -356 -153c0 -156 185 -183 330 -232c297 -101 545 -161 545 -559c0 -422 -308 -539 -701 -539c-204 0 -452 28 -636 77l42 330c134 -25 348 -54 485 -54c135 0 362 -5 362 171c0 169 -160 185 -308 230c-277 85 -560 173 -560 557
c0 402 282 518 637 518c254 0 431 -23 654 -74l-42 -324c-142 28 -293 52 -452 52zM1070 -198l-239 -624h-253l147 624h345z" />
    <glyph glyph-name="germandbls" unicode="&#xdf;" horiz-adv-x="2115" 
d="M667 1569v-1569h-445v1569c0 664 239 924 834 924c567 0 803 -252 803 -580c0 -465 -516 -434 -516 -665c0 -296 663 -97 663 -727c0 -405 -269 -545 -615 -545c-160 0 -384 30 -554 82l38 329c129 -28 321 -59 435 -59c84 0 246 14 246 182c0 358 -656 129 -656 741
c0 462 514 375 514 676c0 117 -104 207 -352 207c-286 0 -395 -134 -395 -565z" />
    <glyph glyph-name="tcaron" unicode="&#x165;" horiz-adv-x="1300" 
d="M370 2212l443 72v-503h358v-337h-358v-921c0 -148 63 -206 211 -206c50 0 99 2 150 6l34 -316c-95 -17 -210 -31 -305 -31c-374 0 -533 164 -533 502v966h-291v337h291v431zM984 1992l159 672h370l-256 -672h-273z" />
    <glyph glyph-name="uni0163" unicode="&#x163;" horiz-adv-x="1300" 
d="M370 2212l443 72v-503h358v-337h-358v-921c0 -148 63 -206 212 -206c49 0 98 2 149 6l35 -316c-95 -17 -210 -31 -305 -31c-375 0 -534 164 -534 502v966h-290v337h290v431zM474 -832l147 624h345l-238 -624h-254z" />
    <glyph glyph-name="uacute" unicode="&#xfa;" horiz-adv-x="1958" 
d="M215 647v1134h443v-1094c0 -251 45 -356 349 -356c96 0 206 17 272 48c8 72 11 159 11 239v1163h441v-1302c0 -121 -4 -224 -15 -338c-208 -111 -480 -165 -794 -165c-638 0 -707 287 -707 671zM754 2047l310 535h460l-430 -535h-340z" />
    <glyph glyph-name="ucircumflex" unicode="&#xfb;" horiz-adv-x="1958" 
d="M215 647v1134h442v-1094c0 -251 46 -356 350 -356c95 0 205 17 272 48c8 72 11 159 11 239v1163h441v-1302c0 -121 -4 -224 -15 -338c-208 -111 -481 -165 -794 -165c-639 0 -707 287 -707 671zM842 2593h255l395 -536h-328l-190 284l-195 -284h-324z" />
    <glyph glyph-name="udieresis" unicode="&#xfc;" horiz-adv-x="1958" 
d="M215 647v1134h443v-1094c0 -251 45 -356 349 -356c96 0 206 17 272 48c8 72 11 159 11 239v1163h441v-1302c0 -121 -4 -224 -15 -338c-208 -111 -480 -165 -793 -165c-639 0 -708 287 -708 671zM636 2071c-124 0 -223 95 -223 219s99 220 223 220s216 -96 216 -220
s-92 -219 -216 -219zM1316 2071c-124 0 -221 95 -221 219s97 220 221 220s217 -96 217 -220s-93 -219 -217 -219z" />
    <glyph glyph-name="ugrave" unicode="&#xf9;" horiz-adv-x="1958" 
d="M215 647v1134h443v-1094c0 -251 45 -356 349 -356c96 0 206 17 272 48c8 72 11 159 11 239v1163h441v-1302c0 -121 -4 -224 -15 -338c-208 -111 -480 -165 -793 -165c-639 0 -708 287 -708 671zM867 2027l-430 535h459l310 -535h-339z" />
    <glyph glyph-name="uhungarumlaut" unicode="&#x171;" horiz-adv-x="1959" 
d="M215 647v1134h443v-1094c0 -251 45 -356 350 -356c95 0 205 17 271 48c8 72 11 159 11 239v1163h442v-1302c0 -121 -5 -224 -15 -338c-208 -111 -481 -165 -794 -165c-639 0 -708 287 -708 671zM449 2057l294 534h444l-409 -534h-329zM1067 2057l295 534h444l-409 -534
h-330z" />
    <glyph glyph-name="uring" unicode="&#x16f;" horiz-adv-x="1958" 
d="M215 647v1134h443v-1094c0 -251 45 -356 349 -356c95 0 205 17 272 48c8 72 11 159 11 239v1163h441v-1302c0 -121 -4 -224 -15 -338c-208 -111 -481 -165 -794 -165c-639 0 -707 287 -707 671zM974 1937c-192 0 -349 156 -349 348c0 193 157 349 349 349
s349 -156 349 -349c0 -192 -157 -348 -349 -348zM974 2114c95 0 172 76 172 171s-77 173 -172 173s-173 -78 -173 -173s78 -171 173 -171z" />
    <glyph glyph-name="yacute" unicode="&#xfd;" horiz-adv-x="1835" 
d="M968 682l348 1099h452l-829 -2437h-452l280 781l-716 1656h471zM723 2007l310 535h460l-430 -535h-340z" />
    <glyph glyph-name="ydieresis" unicode="&#xff;" horiz-adv-x="1835" 
d="M606 2041c-125 0 -223 95 -223 219s98 220 223 220c123 0 215 -96 215 -220s-92 -219 -215 -219zM1285 2041c-124 0 -221 95 -221 219s97 220 221 220s217 -96 217 -220s-93 -219 -217 -219zM968 682l348 1099h452l-829 -2437h-452l280 781l-716 1656h471z" />
    <glyph glyph-name="zacute" unicode="&#x17a;" horiz-adv-x="1808" 
d="M1589 1484l-814 -1123h820v-361h-1266c-115 0 -183 57 -183 146c0 46 17 95 59 154l819 1135h-809v346h1250c112 0 182 -57 182 -146c0 -43 -18 -95 -58 -151zM691 2027l310 535h459l-429 -535h-340z" />
    <glyph glyph-name="zcaron" unicode="&#x17e;" horiz-adv-x="1807" 
d="M1588 1484l-814 -1123h820v-361h-1266c-114 0 -183 57 -183 146c0 46 18 95 60 154l819 1135h-809v346h1250c111 0 182 -57 182 -146c0 -43 -18 -95 -59 -151zM408 2563h328l189 -285l196 285h323l-387 -536h-255z" />
    <glyph glyph-name="zdotaccent" unicode="&#x17c;" horiz-adv-x="1807" 
d="M1588 1484l-814 -1123h820v-361h-1266c-115 0 -183 57 -183 146c0 46 17 95 59 154l820 1135h-810v346h1250c112 0 182 -57 182 -146c0 -43 -17 -95 -58 -151zM904 2011c-128 0 -229 99 -229 227c0 130 101 228 229 228c130 0 226 -98 226 -228
c0 -128 -96 -227 -226 -227z" />
    <glyph glyph-name="eth" unicode="&#xf0;" horiz-adv-x="1903" 
d="M1264 2313l284 104l125 -206l-267 -98c221 -359 328 -788 328 -1222c0 -658 -211 -915 -798 -915s-798 249 -798 915c0 627 211 874 796 874c78 0 150 -9 212 -27c-35 78 -78 157 -127 233l-282 -103l-124 208l262 95c-55 68 -112 133 -170 193l392 129
c60 -57 115 -117 167 -180zM1290 891c0 392 -74 517 -354 517c-281 0 -353 -111 -353 -517c0 -447 72 -557 353 -557s354 124 354 557z" />
    <glyph glyph-name="thorn" unicode="&#xfe;" horiz-adv-x="1942" 
d="M217 -656v2986h444v-563c106 23 232 38 340 38c548 0 791 -225 791 -915s-243 -914 -791 -914c-108 0 -234 15 -340 38v-670h-444zM661 1416v-1051c73 -23 172 -39 249 -39c425 0 436 240 436 564s-10 565 -436 565c-77 0 -176 -16 -249 -39z" />
    <glyph glyph-name="ordfeminine" unicode="&#xaa;" horiz-adv-x="1391" 
d="M636 1043c-340 0 -475 131 -475 389c0 212 103 348 341 387c123 20 257 24 388 29c0 144 -65 208 -221 208c-147 0 -310 -16 -435 -32l-24 224c129 22 302 47 482 47c274 0 502 -76 502 -392v-515c0 -83 -3 -153 -10 -230c-142 -83 -327 -115 -548 -115zM890 1470v183
c-108 -5 -201 -9 -278 -27c-104 -25 -145 -61 -145 -190c0 -130 73 -164 204 -164c66 0 147 5 214 33c3 51 5 111 5 165z" />
    <glyph glyph-name="ordmasculine" unicode="&#xba;" horiz-adv-x="1423" 
d="M710 1043c-404 0 -550 171 -550 627c0 454 146 625 550 625c406 0 552 -176 552 -625c0 -451 -146 -627 -552 -627zM710 1286c191 0 240 85 240 384c0 296 -49 382 -240 382c-189 0 -238 -77 -238 -382c0 -308 49 -384 238 -384z" />
    <glyph glyph-name="onequarter" unicode="&#xbc;" horiz-adv-x="2536" 
d="M1950 0v299h-425c-154 0 -198 62 -198 156c0 40 13 102 100 214l444 573c81 104 141 129 227 129c88 0 159 -56 159 -171v-664h163v-237h-163v-299h-307zM465 2328h239v-1357h-310v1054c-75 -17 -188 -35 -292 -46l-14 240c172 26 292 69 377 109zM2061 2378l-1368 -2426
h-307l1368 2426h307zM1648 536h303v406z" />
    <glyph glyph-name="onehalf" unicode="&#xbd;" horiz-adv-x="2821" 
d="M1748 1087l-29 235c137 26 297 49 460 49c280 0 496 -72 496 -353c0 -250 -136 -406 -402 -511c-167 -67 -206 -129 -224 -248h626v-259h-979c78 437 112 595 434 732c157 67 230 122 230 239c0 122 -70 148 -296 148c-81 0 -213 -14 -316 -32zM93 2219
c172 26 292 69 377 109h239v-1357h-310v1054c-75 -17 -189 -35 -292 -46zM1758 2378h308l-1368 -2426h-307z" />
    <glyph glyph-name="threequarters" unicode="&#xbe;" horiz-adv-x="2768" 
d="M2185 0v299h-426c-153 0 -198 62 -198 156c0 40 13 102 100 214l445 573c80 104 140 129 226 129c89 0 159 -56 159 -171v-664h163v-237h-163v-299h-306zM567 2342c268 0 512 -57 512 -358c0 -126 -57 -232 -172 -298c127 -57 192 -144 192 -291
c0 -337 -204 -438 -538 -438c-159 0 -294 22 -436 48l33 237c119 -16 252 -33 353 -33c180 0 263 28 263 176c0 98 -42 149 -123 159c-78 10 -151 14 -276 14h-43v224c121 3 225 12 318 26c79 12 110 63 110 148c0 124 -90 137 -214 137c-115 0 -246 -15 -377 -32l-31 232
c128 25 276 49 429 49zM2297 2378l-1368 -2426h-307l1367 2426h308zM1882 536h304v406z" />
    <glyph glyph-name="period" unicode="." horiz-adv-x="883" 
d="M441 -24c-203 0 -262 63 -262 256c0 194 62 256 262 256c201 0 263 -62 263 -256c0 -193 -59 -256 -263 -256z" />
    <glyph glyph-name="comma" unicode="," horiz-adv-x="909" 
d="M81 -433l209 888h492l-339 -888h-362z" />
    <glyph glyph-name="colon" unicode=":" horiz-adv-x="987" 
d="M493 -24c-204 0 -262 63 -262 256c0 194 61 256 262 256s263 -62 263 -256c0 -193 -59 -256 -263 -256zM493 1143c-204 0 -262 62 -262 256s61 256 262 256s263 -62 263 -256s-59 -256 -263 -256z" />
    <glyph glyph-name="semicolon" unicode=";" horiz-adv-x="983" 
d="M577 1143c-204 0 -262 62 -262 256s61 256 262 256s263 -62 263 -256s-59 -256 -263 -256zM113 -433l209 888h493l-339 -888h-363z" />
    <glyph glyph-name="exclam" unicode="!" horiz-adv-x="982" 
d="M490 -24c-200 0 -261 66 -261 251s63 251 261 251s262 -66 262 -251s-62 -251 -262 -251zM298 682l-69 1648h522l-70 -1648h-383z" />
    <glyph glyph-name="question" unicode="?" horiz-adv-x="1769" 
d="M926 682h-389l-8 219c-1 19 -3 63 -3 81c0 580 643 136 643 670c0 235 -95 307 -439 307c-215 0 -410 -22 -557 -51l-79 367c193 46 446 79 690 79c520 0 871 -89 871 -704c0 -799 -708 -492 -721 -784zM470 227c0 185 63 251 262 251c198 0 262 -66 262 -251
s-62 -251 -262 -251c-201 0 -262 66 -262 251z" />
    <glyph glyph-name="exclamdown" unicode="&#xa1;" horiz-adv-x="956" 
d="M478 1281c-198 0 -262 66 -262 251s62 251 262 251c201 0 262 -66 262 -251s-63 -251 -262 -251zM217 -571l70 1648h383l70 -1648h-523z" />
    <glyph glyph-name="questiondown" unicode="&#xbf;" horiz-adv-x="1769" 
d="M843 1077h389l8 -219c1 -19 3 -63 3 -81c0 -580 -643 -136 -643 -670c0 -235 95 -307 439 -307c215 0 410 22 557 51l79 -367c-193 -46 -445 -79 -690 -79c-520 0 -871 89 -871 704c0 799 711 492 722 784zM775 1532c0 185 62 251 262 251c201 0 262 -66 262 -251
s-63 -251 -262 -251c-198 0 -262 66 -262 251z" />
    <glyph glyph-name="quoteleft" unicode="&#x2018;" horiz-adv-x="847" 
d="M121 1625l322 844h344l-199 -844h-467z" />
    <glyph glyph-name="quoteright" unicode="&#x2019;" horiz-adv-x="847" 
d="M121 1625l198 844h468l-322 -844h-344z" />
    <glyph glyph-name="quotedblleft" unicode="&#x201c;" horiz-adv-x="1514" 
d="M121 1625l322 844h344l-199 -844h-467zM786 1625l321 844h346l-199 -844h-468z" />
    <glyph glyph-name="quotedblright" unicode="&#x201d;" horiz-adv-x="1514" 
d="M121 1625l199 844h467l-321 -844h-345zM787 1625l198 844h468l-322 -844h-344z" />
    <glyph glyph-name="quotesinglbase" unicode="&#x201a;" horiz-adv-x="864" 
d="M77 -411l199 844h467l-322 -844h-344z" />
    <glyph glyph-name="quotedblbase" unicode="&#x201e;" horiz-adv-x="1530" 
d="M77 -411l199 844h467l-321 -844h-345zM743 -411l199 844h467l-322 -844h-344z" />
    <glyph glyph-name="quotesingle" unicode="'" horiz-adv-x="758" 
d="M216 1524l-32 945h390l-31 -945h-327z" />
    <glyph glyph-name="quotedbl" unicode="&#x22;" horiz-adv-x="1366" 
d="M216 1524l-32 945h390l-32 -945h-326zM824 1524l-32 945h390l-31 -945h-327z" />
    <glyph glyph-name="guilsinglleft" unicode="&#x2039;" horiz-adv-x="1114" 
d="M544 862l443 -690h-414l-488 690l488 690h414z" />
    <glyph glyph-name="guilsinglright" unicode="&#x203a;" horiz-adv-x="1115" 
d="M1030 862l-489 -690h-413l443 690l-443 690h413z" />
    <glyph glyph-name="guillemotleft" unicode="&#xab;" horiz-adv-x="1881" 
d="M544 862l444 -690h-414l-489 690l489 690h414zM1311 862l443 -690h-414l-489 690l489 690h414z" />
    <glyph glyph-name="guillemotright" unicode="&#xbb;" horiz-adv-x="1881" 
d="M1030 862l-488 -690h-414l443 690l-443 690h414zM1796 862l-488 -690h-415l445 690l-445 690h415z" />
    <glyph glyph-name="hyphen" unicode="-" horiz-adv-x="1298" 
d="M209 708v356h880v-356h-880z" />
    <glyph glyph-name="endash" unicode="&#x2013;" horiz-adv-x="2025" 
d="M209 717v337h1607v-337h-1607z" />
    <glyph glyph-name="emdash" unicode="&#x2014;" horiz-adv-x="3578" 
d="M209 717v337h3160v-337h-3160z" />
    <glyph glyph-name="ellipsis" unicode="&#x2026;" horiz-adv-x="3015" 
d="M441 -24c-204 0 -262 63 -262 256c0 194 61 256 262 256c200 0 262 -62 262 -256c0 -193 -59 -256 -262 -256zM1508 -24c-204 0 -262 63 -262 256c0 194 61 256 262 256c200 0 262 -62 262 -256c0 -193 -59 -256 -262 -256zM2574 -24c-204 0 -262 63 -262 256
c0 194 61 256 262 256c200 0 262 -62 262 -256c0 -193 -59 -256 -262 -256z" />
    <glyph glyph-name="parenleft" unicode="(" horiz-adv-x="1080" 
d="M724 2430l253 -209c-316 -309 -373 -887 -373 -1293c0 -408 50 -986 372 -1293l-252 -210c-451 374 -570 941 -570 1503s118 1128 570 1502z" />
    <glyph glyph-name="parenright" unicode=")" horiz-adv-x="1080" 
d="M356 -575l-253 210c322 307 373 885 373 1293c0 406 -57 984 -373 1293l253 209c452 -374 570 -940 570 -1502s-119 -1129 -570 -1503z" />
    <glyph glyph-name="bracketleft" unicode="[" horiz-adv-x="1091" 
d="M665 2068v-2268h324v-344h-738v2952h740v-340h-326z" />
    <glyph glyph-name="bracketright" unicode="]" horiz-adv-x="1091" 
d="M100 2068v340h740v-2952h-738v344h324v2268h-326z" />
    <glyph glyph-name="braceleft" unicode="{" horiz-adv-x="1100" 
d="M748 352v-167c0 -206 12 -371 272 -402l-37 -307c-427 34 -638 151 -638 662c0 458 -39 623 -241 643v305c201 19 241 186 241 643c0 510 211 627 638 661l37 -306c-260 -32 -272 -195 -272 -403v-167c0 -213 3 -493 -210 -582c197 -97 210 -373 210 -580z" />
    <glyph glyph-name="braceright" unicode="}" horiz-adv-x="1101" 
d="M997 1086v-305c-202 -20 -241 -185 -241 -643c0 -511 -212 -628 -638 -662l-38 307c260 31 273 196 273 402v167c0 207 13 483 210 580c-214 89 -210 369 -210 582v167c0 208 -13 371 -273 403l38 306c426 -34 638 -151 638 -661c0 -457 40 -624 241 -643z" />
    <glyph glyph-name="periodcentered" unicode="&#xb7;" horiz-adv-x="929" 
d="M464 699c-204 0 -262 62 -262 256s61 256 262 256s263 -62 263 -256s-59 -256 -263 -256z" />
    <glyph glyph-name="asterisk" unicode="*" horiz-adv-x="1510" 
d="M952 1134l-198 341l-198 -341l-250 140l200 347h-398v282h397l-200 347l251 142l198 -345l198 345l251 -142l-204 -347h403v-282h-402l200 -350z" />
    <glyph glyph-name="dagger" unicode="&#x2020;" horiz-adv-x="1864" 
d="M707 1784v592h441v-592h603v-374h-603v-1830h-441v1830h-594v374h594z" />
    <glyph glyph-name="daggerdbl" unicode="&#x2021;" horiz-adv-x="1938" 
d="M747 -420v1090h-594v371h594v442h-594v376h594v517h438v-517h599v-376h-599v-442h599v-371h-599v-1090h-438z" />
    <glyph glyph-name="section" unicode="&#xa7;" horiz-adv-x="1862" 
d="M1105 1499c286 -116 625 -263 625 -638c0 -194 -112 -333 -264 -431c102 -104 142 -220 142 -342c0 -443 -416 -572 -781 -572c-254 0 -434 22 -658 74l43 333c179 -35 364 -56 560 -56c145 0 389 -3 389 200c0 148 -181 219 -385 302c-299 120 -641 259 -641 664
c0 198 110 345 257 443c-76 86 -120 185 -120 306c0 333 256 572 695 572c255 0 434 -23 659 -75l-42 -325c-177 34 -371 56 -562 56c-197 0 -310 -67 -310 -199c0 -148 196 -232 393 -312zM796 775c124 -58 268 -92 392 -153c81 48 134 110 134 203c0 120 -88 208 -302 307
c-114 53 -242 87 -359 147c-75 -43 -131 -114 -131 -210c0 -110 68 -200 266 -294z" />
    <glyph glyph-name="paragraph" unicode="&#xb6;" horiz-adv-x="2156" 
d="M1208 2041v-2554h-335v1439c-458 15 -778 320 -778 691c0 479 341 713 883 713h919v-2843h-333v2554h-356z" />
    <glyph glyph-name="bullet" unicode="&#x2022;" horiz-adv-x="1236" 
d="M617 653c-258 0 -466 208 -466 466c0 257 208 466 466 466c257 0 466 -209 466 -466c0 -258 -209 -466 -466 -466z" />
    <glyph glyph-name="dollar" unicode="$" horiz-adv-x="1727" 
d="M161 408c166 -25 419 -51 593 -51c237 0 383 53 383 281c0 211 -167 258 -375 322c-406 125 -644 250 -644 677c0 418 211 594 596 636v313h316v-304c204 -8 405 -39 543 -69l-41 -352c-147 23 -329 49 -498 49c-182 0 -459 -7 -459 -233c0 -227 156 -259 415 -329
c433 -118 619 -285 619 -694c0 -417 -213 -611 -596 -663v-317h-316v303c-223 5 -413 33 -580 69z" />
    <glyph glyph-name="cent" unicode="&#xa2;" horiz-adv-x="1474" 
d="M1336 635l37 -326c-109 -27 -237 -50 -386 -60v-306h-295v307c-474 57 -551 467 -551 896c0 494 101 791 551 857v314h295v-301c157 -6 279 -33 383 -65l-34 -316c-105 20 -207 41 -312 41c-405 0 -449 -120 -449 -530c0 -387 18 -553 452 -553c105 0 203 20 309 42z" />
    <glyph glyph-name="Euro" unicode="&#x20ac;" horiz-adv-x="1842" 
d="M137 1220l54 248h173c49 565 252 816 804 816c204 0 386 -31 519 -74l-35 -354c-137 27 -276 44 -406 44c-309 0 -399 -171 -425 -432h698l-54 -248h-655v-162h619l-53 -247h-557c23 -274 109 -451 427 -451c129 0 270 17 405 44l36 -356c-133 -42 -316 -72 -519 -72
c-559 0 -759 256 -805 835h-247l53 247h183v72c0 30 0 60 1 90h-216z" />
    <glyph glyph-name="sterling" unicode="&#xa3;" horiz-adv-x="1985" 
d="M454 975h-322v336h275c-12 96 -20 204 -20 329c0 515 371 644 819 644c329 0 462 -116 642 -288l-231 -274c-123 109 -229 180 -399 180c-291 0 -371 -106 -371 -337c0 -82 7 -165 17 -254h491v-336h-457c3 -52 5 -105 5 -161c0 -121 -45 -304 -93 -428h396
c196 0 409 17 568 42l39 -358c-158 -40 -464 -70 -776 -70h-522c-162 0 -228 82 -228 179c0 138 180 290 180 609c0 63 -5 125 -13 187z" />
    <glyph glyph-name="yen" unicode="&#xa5;" horiz-adv-x="1903" 
d="M555 2260l398 -922l413 922h447l-467 -1019h243v-275h-369l-43 -94v-121h412v-271h-412v-480h-455v480h-408v271h408v122l-43 93h-365v275h240l-464 1019h465z" />
    <glyph glyph-name="florin" unicode="&#x192;" horiz-adv-x="1620" 
d="M600 1445l41 306c49 369 313 533 657 533c91 0 184 -10 266 -26l-47 -342c-60 9 -116 15 -172 15c-217 0 -262 -175 -287 -356l-18 -130h415l-46 -338h-415l-119 -871c-63 -463 -324 -689 -754 -689c-46 0 -86 2 -131 8l46 340h52c211 0 318 97 345 300l122 912h-358
l45 338h358z" />
    <glyph glyph-name="currency" unicode="&#xa4;" horiz-adv-x="2126" 
d="M1729 705l247 -238l-257 -256l-245 248c-122 -74 -265 -117 -412 -117c-155 0 -296 43 -415 116l-245 -248l-253 257l247 240c-76 119 -118 259 -118 407c0 154 44 296 119 416l-248 244l253 253l248 -249c120 74 262 117 412 117c152 0 293 -42 412 -114l245 245
l257 -252l-248 -240c79 -122 124 -267 124 -420c0 -152 -46 -292 -123 -409zM1062 698c218 0 416 181 416 417c0 231 -181 424 -416 424c-222 0 -412 -184 -412 -424c0 -224 178 -417 412 -417z" />
    <glyph glyph-name="plus" unicode="+" horiz-adv-x="1917" 
d="M765 1169v637h385v-637h636v-377h-636v-641h-385v641h-634v377h634z" />
    <glyph glyph-name="minus" unicode="&#x2212;" horiz-adv-x="1917" 
d="M131 789v379h1655v-379h-1655z" />
    <glyph glyph-name="multiply" unicode="&#xd7;" horiz-adv-x="1772" 
d="M1144 981l486 -486l-257 -261l-488 487l-485 -487l-258 258l486 486l-486 487l262 257l484 -484l485 485l254 -258z" />
    <glyph glyph-name="divide" unicode="&#xf7;" horiz-adv-x="1917" 
d="M958 53c-140 0 -252 113 -252 254c0 142 112 254 252 254c141 0 255 -112 255 -254c0 -141 -114 -254 -255 -254zM958 1396c-140 0 -252 113 -252 254s112 253 252 253c141 0 255 -112 255 -253s-114 -254 -255 -254zM131 789v379h1655v-379h-1655z" />
    <glyph glyph-name="equal" unicode="=" horiz-adv-x="2097" 
d="M221 431v379h1655v-379h-1655zM221 1147v379h1655v-379h-1655z" />
    <glyph glyph-name="notequal" unicode="&#x2260;" horiz-adv-x="2097" 
d="M221 431v379h603l147 337h-750v379h916l211 482h301l-211 -482h438v-379h-604l-147 -337h751v-379h-917l-210 -482h-301l210 482h-437z" />
    <glyph glyph-name="approxequal" unicode="&#x2248;" horiz-adv-x="2154" 
d="M1933 896v-377c-127 -133 -324 -190 -487 -190c-322 0 -443 206 -738 206c-162 0 -360 -57 -487 -190v378c127 132 325 190 487 190c321 0 444 -207 738 -207c163 0 360 57 487 190zM1933 1611v-378c-127 -133 -324 -190 -487 -190c-322 0 -443 207 -738 207
c-162 0 -360 -57 -487 -190v377c127 133 325 190 487 190c321 0 444 -206 738 -206c163 0 360 57 487 190z" />
    <glyph glyph-name="plusminus" unicode="&#xb1;" horiz-adv-x="1969" 
d="M788 1438v521h395v-521h629v-376h-629v-523h-395v523h-631v376h631zM157 -2v378h1655v-378h-1655z" />
    <glyph glyph-name="less" unicode="&#x3c;" horiz-adv-x="2053" 
d="M125 810v338l1698 705v-396l-1169 -478l1169 -479v-396z" />
    <glyph glyph-name="greater" unicode="&#x3e;" horiz-adv-x="2053" 
d="M230 500l1168 479l-1168 478v396l1698 -705v-338l-1698 -706v396z" />
    <glyph glyph-name="lessequal" unicode="&#x2264;" horiz-adv-x="2094" 
d="M171 1080v311l1701 651v-389l-1140 -418l1140 -417v-390zM171 -85v378h1701v-378h-1701z" />
    <glyph glyph-name="greaterequal" unicode="&#x2265;" horiz-adv-x="2096" 
d="M223 818l1140 417l-1140 418v389l1702 -651v-311l-1702 -652v390zM223 -85v378h1702v-378h-1702z" />
    <glyph glyph-name="fraction" unicode="&#x2044;" horiz-adv-x="542" 
d="M-567 -48l1368 2426h308l-1369 -2426h-307z" />
    <glyph glyph-name="logicalnot" unicode="&#xac;" horiz-adv-x="2080" 
d="M1833 1340v-1048h-398v669h-1257v379h1655z" />
    <glyph glyph-name="asciitilde" unicode="~" horiz-adv-x="2050" 
d="M1522 1385h365c-39 -446 -245 -661 -489 -661c-400 0 -461 284 -678 284c-98 0 -160 -88 -192 -271h-365c39 445 245 660 489 660c398 0 463 -284 678 -284c97 0 159 88 192 272z" />
    <glyph glyph-name="infinity" unicode="&#x221e;" horiz-adv-x="2783" 
d="M699 1586c207 0 404 -113 583 -317c177 214 376 442 675 442c420 0 658 -349 658 -733c0 -382 -238 -732 -658 -732c-299 0 -498 225 -675 438c-179 -203 -377 -309 -583 -309c-326 0 -561 290 -561 603c0 314 235 608 561 608zM699 730c103 0 210 59 366 248
c-156 190 -263 252 -366 252c-118 0 -208 -94 -208 -252c0 -157 90 -248 208 -248zM1957 605c169 0 296 132 296 373c0 242 -127 374 -296 374c-174 0 -346 -215 -455 -374c109 -158 281 -373 455 -373z" />
    <glyph glyph-name="mu" unicode="&#xb5;" horiz-adv-x="2124" 
d="M271 -656v2437h410v-1075c0 -216 107 -372 304 -372c289 0 387 276 387 672v775h412v-1091c0 -216 -1 -370 157 -422v-292c-303 0 -437 145 -492 302c-117 -211 -269 -302 -467 -302c-116 0 -223 41 -302 121v-753h-409z" />
    <glyph glyph-name="pi" unicode="&#x3c0;" horiz-adv-x="2292" 
d="M619 1781h1586c-13 -121 -26 -240 -40 -360h-404c-27 -174 -38 -395 -38 -586c0 -339 120 -526 398 -526l-30 -333c-649 0 -780 322 -780 744c0 211 18 467 50 701h-421c-43 -657 -115 -1163 -197 -1421h-448c137 453 194 856 242 1418h-67c-123 0 -196 -28 -307 -86
l-103 242c130 138 315 207 559 207z" />
    <glyph glyph-name="partialdiff" unicode="&#x2202;" horiz-adv-x="1846" 
d="M780 -24c-441 0 -659 346 -659 733c0 500 290 856 785 856c148 0 267 -68 339 -130c-18 449 -153 713 -440 713c-161 0 -267 -44 -400 -129l-80 266c149 104 326 184 563 184c547 0 791 -472 791 -1159c0 -785 -328 -1334 -899 -1334zM926 1250
c-236 0 -364 -263 -364 -541c0 -212 80 -429 255 -429c272 0 387 417 416 779c-74 111 -165 191 -307 191z" />
    <glyph glyph-name="Delta" unicode="&#x2206;" horiz-adv-x="2263" 
d="M2160 251v-251h-2057v245l811 2085h452zM1674 344l-546 1438l-550 -1438h1096z" />
    <glyph glyph-name="Omega" unicode="&#x2126;" horiz-adv-x="2560" 
d="M152 0v355h391c-194 214 -344 514 -344 884c0 656 475 1115 1094 1115c653 0 1071 -525 1071 -1104c0 -380 -155 -687 -345 -895h390v-355h-987v265c257 154 502 483 502 945c0 366 -216 789 -634 789c-397 0 -649 -357 -649 -795c0 -435 245 -787 501 -939v-265h-990z
" />
    <glyph glyph-name="summation" unicode="&#x2211;" horiz-adv-x="2076" 
d="M116 2400h1817v-360h-1216l767 -1015l-836 -1079h1338v-389h-1908v262l894 1158l-856 1150v273z" />
    <glyph glyph-name="product" unicode="&#x220f;" horiz-adv-x="2613" 
d="M2511 2400v-374h-369v-2469h-450v2469h-768v-2469h-450v2469h-372v374h2409z" />
    <glyph glyph-name="integral" unicode="&#x222b;" horiz-adv-x="1282" 
d="M1268 2357c-58 43 -125 76 -213 76c-226 0 -254 -316 -254 -572c0 -530 59 -1049 59 -1597c0 -353 -121 -870 -615 -870c-127 0 -290 59 -363 106l77 298c58 -40 151 -75 253 -75c197 0 247 199 247 556c0 501 -57 1109 -57 1610c0 391 102 860 634 860
c119 0 245 -56 314 -101z" />
    <glyph glyph-name="radical" unicode="&#x221a;" horiz-adv-x="1936" 
d="M1890 2866l-703 -3076h-366l-462 1345l-227 -88l-90 289l595 234l351 -1086l535 2382h367z" />
    <glyph glyph-name="ampersand" unicode="&#x26;" horiz-adv-x="2284" 
d="M2225 0h-542l-139 162c-155 -137 -349 -186 -632 -186c-532 0 -788 225 -788 684c0 317 173 494 450 616c-110 140 -215 267 -215 509c0 419 284 569 648 569c325 0 624 -144 624 -537c0 -324 -215 -515 -468 -627l369 -404c38 88 55 191 64 320l403 -17
c-24 -253 -76 -443 -187 -630zM1217 1782c0 179 -92 234 -221 234c-122 0 -222 -65 -222 -239c0 -142 73 -233 162 -330c127 64 281 163 281 335zM1295 451l-492 556c-154 -100 -236 -185 -236 -372c0 -220 198 -318 384 -318c168 0 280 73 344 134z" />
    <glyph glyph-name="numbersign" unicode="#" horiz-adv-x="1959" 
d="M586 1671l97 659h314l-97 -659h333l98 659h313l-97 -659h291v-308h-335l-57 -393h298v-308h-344l-98 -662h-314l98 662h-334l-97 -662h-314l98 662h-318v308h364l57 393h-334v308h378zM799 970h334l57 393h-334z" />
    <glyph glyph-name="percent" unicode="%" horiz-adv-x="2873" 
d="M640 957c-431 0 -519 228 -519 692c0 465 88 693 519 693c430 0 518 -228 518 -693c0 -464 -88 -692 -518 -692zM640 1201c199 0 204 178 204 448c0 269 -6 449 -204 449c-199 0 -204 -180 -204 -449c0 -270 4 -448 204 -448zM2219 -12c-429 0 -518 228 -518 693
c0 464 89 693 518 693c431 0 519 -229 519 -693c0 -465 -88 -693 -519 -693zM2219 233c200 0 204 178 204 448s-4 449 -204 449c-198 0 -203 -179 -203 -449s5 -448 203 -448zM592 -48l1367 2426h308l-1368 -2426h-307z" />
    <glyph glyph-name="perthousand" unicode="&#x2030;" horiz-adv-x="4089" 
d="M640 957c-431 0 -519 228 -519 692c0 465 88 693 519 693c430 0 518 -228 518 -693c0 -464 -88 -692 -518 -692zM640 1201c199 0 204 178 204 448c0 269 -5 449 -204 449s-204 -180 -204 -449c0 -270 4 -448 204 -448zM2223 -12c-430 0 -518 228 -518 693
c0 464 88 693 518 693s518 -229 518 -693c0 -465 -88 -693 -518 -693zM2223 233c199 0 204 178 204 448s-5 449 -204 449s-204 -179 -204 -449s5 -448 204 -448zM3436 -12c-431 0 -519 228 -519 693c0 464 88 693 519 693c430 0 518 -229 518 -693
c0 -465 -88 -693 -518 -693zM3436 233c198 0 204 178 204 448s-6 449 -204 449c-200 0 -204 -179 -204 -449s4 -448 204 -448zM593 -48l1367 2426h308l-1368 -2426h-307z" />
    <glyph glyph-name="at" unicode="@" horiz-adv-x="2970" 
d="M2764 1353c40 -133 61 -287 61 -462c0 -844 -475 -1189 -1333 -1189c-863 0 -1335 345 -1335 1189c0 867 493 1189 1368 1189c357 0 656 -135 656 -567v-693c0 -119 -5 -222 -16 -331c-146 -95 -413 -159 -701 -159c-487 0 -677 192 -677 561c0 316 137 500 486 564
c146 27 347 37 513 46c0 196 -67 257 -278 257c-595 0 -946 -197 -946 -867c0 -659 341 -866 930 -866c591 0 931 206 931 866c0 134 -15 252 -42 351zM1786 921v314c-101 -3 -273 -15 -363 -41c-174 -49 -237 -96 -237 -294c0 -215 116 -266 337 -266c61 0 195 23 253 57
c7 69 10 153 10 230z" />
    <glyph glyph-name="underscore" unicode="_" horiz-adv-x="1670" 
d="M-10 -470v167h1690v-167h-1690z" />
    <glyph glyph-name="slash" unicode="/" horiz-adv-x="1505" 
d="M80 -268l945 2680h380l-945 -2680h-380z" />
    <glyph glyph-name="backslash" unicode="\" horiz-adv-x="1505" 
d="M1046 -268l-946 2680h380l945 -2680h-379z" />
    <glyph glyph-name="bar" unicode="|" horiz-adv-x="864" 
d="M250 -656v3125h365v-3125h-365z" />
    <glyph glyph-name="brokenbar" unicode="&#xa6;" horiz-adv-x="799" 
d="M217 -471v1076h365v-1076h-365zM217 1209v1075h365v-1075h-365z" />
    <glyph glyph-name="asciicircum" unicode="^" horiz-adv-x="1723" 
d="M692 2330h339l577 -1333h-395l-351 822l-352 -822h-396z" />
    <glyph glyph-name="uni2192" unicode="&#x2192;" horiz-adv-x="2332" 
d="M2201 978l-753 -807h-430l494 618h-1381v379h1381l-494 617h430z" />
    <glyph glyph-name="uni2193" unicode="&#x2193;" horiz-adv-x="1876" 
d="M1745 1126v-429l-807 -754l-807 754v429l618 -494v1382h379v-1382z" />
    <glyph glyph-name="uni2190" unicode="&#x2190;" horiz-adv-x="2332" 
d="M820 789l494 -618h-430l-753 807l753 807h430l-494 -617h1381v-379h-1381z" />
    <glyph glyph-name="uni2191" unicode="&#x2191;" horiz-adv-x="1877" 
d="M1128 1325v-1382h-378v1382l-619 -493v429l807 753l808 -753v-429z" />
    <glyph glyph-name="copyright" unicode="&#xa9;" horiz-adv-x="2659" 
d="M1633 969h276c-28 -310 -278 -503 -567 -503c-408 0 -608 306 -608 703c0 354 209 695 608 695c246 0 524 -145 567 -466h-276c-25 152 -138 234 -291 234c-186 0 -314 -172 -314 -463c0 -289 117 -458 314 -458c144 0 263 97 291 258zM1330 2354
c657 0 1189 -528 1189 -1185c0 -658 -532 -1193 -1189 -1193s-1189 535 -1189 1193c0 657 532 1185 1189 1185zM1330 2105c-522 0 -927 -408 -927 -936c0 -535 405 -943 927 -943s927 408 927 943c0 528 -405 936 -927 936z" />
    <glyph glyph-name="registered" unicode="&#xae;" horiz-adv-x="1697" 
d="M761 1561v-308h-182v790h287c224 0 313 -86 313 -239c0 -104 -47 -182 -143 -214l165 -337h-204l-147 308h-89zM126 1633c0 400 323 721 723 721c399 0 722 -321 722 -721s-323 -725 -722 -725c-400 0 -723 325 -723 725zM1391 1633c0 309 -237 548 -542 548
s-543 -239 -543 -548c0 -313 238 -552 543 -552s542 239 542 552zM842 1891h-81v-178h84c110 0 155 30 155 91c0 64 -48 87 -158 87z" />
    <glyph glyph-name="trademark" unicode="&#x2122;" horiz-adv-x="3192" 
d="M2937 932h-284v964h-2l-376 -964h-188l-376 963h-2v-963h-285v1398h395l367 -933l361 933h390v-1398zM1233 2330v-247h-415v-1151h-285v1151h-415v247h1115z" />
    <glyph glyph-name="uni2113" unicode="&#x2113;" horiz-adv-x="1728" 
d="M381 941c1 833 49 1505 653 1505c300 0 440 -233 440 -509c0 -398 -328 -771 -687 -1063c30 -384 95 -612 327 -612c117 0 223 79 367 220l158 -176c-163 -217 -368 -330 -602 -330c-404 0 -573 304 -632 659l-207 -125l-117 228zM783 1272c215 224 350 432 350 675
c0 124 -28 230 -126 230c-232 0 -216 -555 -224 -905z" />
    <glyph glyph-name="degree" unicode="&#xb0;" horiz-adv-x="1306" 
d="M652 1298c-291 0 -528 237 -528 528s237 528 528 528s529 -237 529 -528s-238 -528 -529 -528zM652 1551c154 0 276 121 276 275c0 153 -122 275 -276 275c-153 0 -275 -122 -275 -275c0 -154 122 -275 275 -275z" />
    <glyph glyph-name="estimated" unicode="&#x212e;" horiz-adv-x="2703" 
d="M2206 496h206c-253 -308 -577 -520 -1055 -520c-721 0 -1212 472 -1212 1095c0 580 466 1095 1212 1095c761 0 1160 -471 1216 -1095h-1898v-741c184 -155 411 -236 682 -236c357 0 638 133 849 402zM675 1809v-619h1368v619c-200 159 -422 240 -686 240
c-266 0 -498 -81 -682 -240z" />
    <glyph glyph-name="lozenge" unicode="&#x25ca;" horiz-adv-x="1920" 
d="M1798 1167l-669 -1260h-336l-670 1260l670 1256h336zM961 340l421 827l-421 829l-422 -829z" />
    <glyph glyph-name="dieresis" unicode="&#xa8;" horiz-adv-x="1449" 
d="M388 1901c-124 0 -223 95 -223 219s99 220 223 220c123 0 215 -96 215 -220s-92 -219 -215 -219zM1068 1901c-124 0 -221 95 -221 219s97 220 221 220s216 -96 216 -220s-92 -219 -216 -219z" />
    <glyph glyph-name="acute" unicode="&#xb4;" horiz-adv-x="878" 
d="M87 1876l310 535h460l-430 -535h-340z" />
    <glyph glyph-name="grave" unicode="`" horiz-adv-x="878" 
d="M451 1876l-429 535h459l310 -535h-340z" />
    <glyph glyph-name="circumflex" unicode="&#x2c6;" horiz-adv-x="1213" 
d="M476 2412h255l394 -536h-328l-190 284l-195 -284h-324z" />
    <glyph glyph-name="caron" unicode="&#x2c7;" horiz-adv-x="1139" 
d="M51 2412h327l190 -285l196 285h323l-387 -536h-255z" />
    <glyph glyph-name="breve" unicode="&#x2d8;" horiz-adv-x="1108" 
d="M770 2379h247c-20 -260 -162 -471 -463 -471s-442 211 -463 471h248c15 -114 85 -217 215 -217c131 0 201 103 216 217z" />
    <glyph glyph-name="tilde" unicode="&#x2dc;" horiz-adv-x="1234" 
d="M863 2341h232c-21 -288 -159 -426 -295 -426c-203 0 -242 182 -328 182c-50 0 -83 -52 -101 -174h-232c21 287 159 426 295 426c204 0 241 -182 328 -182c50 0 83 51 101 174z" />
    <glyph glyph-name="hungarumlaut" unicode="&#x2dd;" horiz-adv-x="1466" 
d="M87 1865l294 534h444l-408 -534h-330zM705 1865l295 534h444l-409 -534h-330z" />
    <glyph glyph-name="ring" unicode="&#x2da;" horiz-adv-x="945" 
d="M472 1830c-192 0 -349 156 -349 348c0 193 157 349 349 349c193 0 349 -156 349 -349c0 -192 -156 -348 -349 -348zM472 2007c96 0 173 76 173 171s-77 173 -173 173c-95 0 -172 -78 -172 -173s77 -171 172 -171z" />
    <glyph glyph-name="dotaccent" unicode="&#x2d9;" horiz-adv-x="709" 
d="M356 1911c-128 0 -229 99 -229 227c0 130 101 228 229 228c130 0 226 -98 226 -228c0 -128 -96 -227 -226 -227z" />
    <glyph glyph-name="macron" unicode="&#xaf;" horiz-adv-x="1438" 
d="M208 1975v277h1021v-277h-1021z" />
    <glyph glyph-name="cedilla" unicode="&#xb8;" horiz-adv-x="732" 
d="M100 -311l185 311h243l-120 -188c129 -13 257 -98 257 -239c0 -211 -190 -290 -392 -290c-95 0 -204 28 -282 75l64 171c82 -41 159 -57 214 -57c57 0 118 22 118 90c0 102 -190 127 -287 127z" />
    <glyph glyph-name="ogonek" unicode="&#x2db;" horiz-adv-x="728" 
d="M625 -441l65 -167c-83 -69 -206 -109 -306 -109c-190 0 -334 107 -334 290c0 169 141 336 248 427h243c-72 -70 -217 -222 -217 -355c0 -85 48 -141 126 -141c72 0 129 21 175 55z" />
    <glyph glyph-name="space" unicode=" " horiz-adv-x="850" 
 />
    <glyph glyph-name="uni200A" unicode="&#x200a;" horiz-adv-x="73" 
 />
    <glyph glyph-name="uni2070" unicode="&#x2070;" horiz-adv-x="1273" 
d="M637 1346c-431 0 -519 228 -519 692c0 465 88 693 519 693c430 0 518 -228 518 -693c0 -464 -88 -692 -518 -692zM637 1591c199 0 204 177 204 447s-6 449 -204 449c-200 0 -204 -179 -204 -449s4 -447 204 -447z" />
    <glyph glyph-name="onesuperior" unicode="&#xb9;" horiz-adv-x="808" 
d="M339 1361v1054c-75 -17 -189 -35 -292 -47l-14 241c172 25 292 69 377 108h239v-1356h-310z" />
    <glyph glyph-name="twosuperior" unicode="&#xb2;" horiz-adv-x="1176" 
d="M137 2445l-29 235c136 26 297 49 460 49c280 0 497 -73 497 -353c0 -250 -137 -406 -402 -511c-168 -67 -207 -130 -225 -248h626v-259h-980c78 437 113 596 434 732c158 67 231 121 231 239c0 122 -69 148 -296 148c-81 0 -213 -15 -316 -32z" />
    <glyph glyph-name="threesuperior" unicode="&#xb3;" horiz-adv-x="1155" 
d="M524 2731c267 0 511 -56 511 -357c0 -127 -56 -233 -172 -299c128 -56 193 -144 193 -291c0 -336 -205 -438 -539 -438c-159 0 -294 22 -435 49l33 236c119 -16 252 -32 353 -32c179 0 263 27 263 175c0 98 -42 149 -124 159c-78 10 -151 14 -276 14h-43v224
c121 3 225 13 318 26c80 12 111 63 111 148c0 125 -91 138 -215 138c-115 0 -245 -16 -376 -33l-31 233c127 24 275 48 429 48z" />
    <glyph glyph-name="uni2074" unicode="&#x2074;" horiz-adv-x="1222" 
d="M679 1358v300h-426c-154 0 -198 61 -198 154c0 40 13 102 100 214l444 573c81 105 141 130 227 130c89 0 159 -56 159 -172v-663h164v-236h-164v-300h-306zM680 2300l-304 -406h304v406z" />
    <glyph glyph-name="uni2075" unicode="&#x2075;" horiz-adv-x="1170" 
d="M449 2462l-16 -234c22 0 45 1 62 1c330 0 573 -56 573 -431c0 -323 -186 -449 -525 -449c-151 0 -305 18 -450 50l32 236c120 -17 244 -33 356 -33c194 0 263 28 263 219c0 151 -153 170 -316 170c-98 0 -204 -3 -303 -8l51 736h861v-257h-588z" />
    <glyph glyph-name="uni2076" unicode="&#x2076;" horiz-adv-x="1241" 
d="M645 2234c316 0 509 -85 509 -437c0 -366 -214 -456 -535 -456c-413 0 -508 220 -508 569c0 621 137 817 754 817c23 0 69 -1 185 -3l24 -236c-220 -12 -601 39 -633 -268c59 7 134 14 204 14zM612 2002c-57 0 -131 -7 -187 -14c-3 -33 -3 -69 -3 -107
c0 -151 21 -294 192 -294c177 0 228 54 228 214c0 164 -86 201 -230 201z" />
    <glyph glyph-name="uni2077" unicode="&#x2077;" horiz-adv-x="1076" 
d="M1019 2489l-508 -1128h-349l538 1098h-640v258h803c116 0 180 -53 180 -137c0 -27 -8 -56 -24 -91z" />
    <glyph glyph-name="uni2078" unicode="&#x2078;" horiz-adv-x="1240" 
d="M621 2731c229 0 503 -55 503 -348c0 -147 -33 -231 -182 -317c123 -74 199 -161 199 -321c0 -329 -234 -399 -520 -399c-307 0 -522 92 -522 398c0 158 73 239 202 318c-118 69 -182 157 -182 321c0 291 269 348 502 348zM621 1585c118 0 213 30 213 165
c0 125 -42 172 -268 196c-100 -22 -160 -82 -160 -196c0 -136 92 -165 215 -165zM676 2179c102 28 153 66 153 171c0 126 -89 148 -208 148c-114 0 -204 -20 -204 -148c0 -94 35 -157 259 -171z" />
    <glyph glyph-name="uni2079" unicode="&#x2079;" horiz-adv-x="1241" 
d="M594 1843c-315 0 -509 85 -509 437c0 366 215 456 536 456c413 0 507 -219 507 -569c0 -621 -136 -817 -754 -817c-23 0 -68 1 -184 4l-25 235c221 12 602 -39 634 268c-60 -7 -134 -14 -205 -14zM628 2075c57 0 131 7 187 15c2 33 3 68 3 106c0 151 -22 295 -192 295
c-177 0 -229 -55 -229 -214c0 -165 86 -202 231 -202z" />
    <glyph glyph-name="uni2080" unicode="&#x2080;" horiz-adv-x="1273" 
d="M637 -402c-431 0 -519 228 -519 692c0 465 88 693 519 693c430 0 518 -228 518 -693c0 -464 -88 -692 -518 -692zM637 -157c199 0 204 177 204 447s-6 449 -204 449c-200 0 -204 -179 -204 -449s4 -447 204 -447z" />
    <glyph glyph-name="uni2081" unicode="&#x2081;" horiz-adv-x="808" 
d="M339 -387v1054c-75 -17 -189 -35 -292 -47l-14 241c172 25 292 69 377 108h239v-1356h-310z" />
    <glyph glyph-name="uni2082" unicode="&#x2082;" horiz-adv-x="1176" 
d="M137 697l-29 235c136 26 297 49 460 49c280 0 497 -73 497 -353c0 -250 -137 -406 -402 -511c-168 -67 -207 -130 -225 -248h626v-259h-980c78 437 113 596 434 732c158 67 231 121 231 239c0 122 -69 148 -296 148c-81 0 -213 -15 -316 -32z" />
    <glyph glyph-name="uni2083" unicode="&#x2083;" horiz-adv-x="1155" 
d="M524 983c267 0 511 -56 511 -357c0 -127 -56 -233 -172 -299c128 -56 193 -144 193 -291c0 -336 -205 -438 -539 -438c-159 0 -294 22 -435 49l33 236c119 -16 252 -32 353 -32c179 0 263 27 263 175c0 98 -42 149 -124 159c-78 10 -151 14 -276 14h-43v224
c121 3 225 13 318 26c80 12 111 63 111 148c0 125 -91 138 -215 138c-115 0 -245 -16 -376 -33l-31 233c127 24 275 48 429 48z" />
    <glyph glyph-name="uni2084" unicode="&#x2084;" horiz-adv-x="1222" 
d="M679 -390v300h-426c-154 0 -198 61 -198 154c0 40 13 102 100 214l444 573c81 105 141 130 227 130c89 0 159 -56 159 -172v-663h164v-236h-164v-300h-306zM680 552l-304 -406h304v406z" />
    <glyph glyph-name="uni2085" unicode="&#x2085;" horiz-adv-x="1170" 
d="M449 714l-16 -234c22 0 45 1 62 1c330 0 573 -56 573 -431c0 -323 -186 -449 -525 -449c-151 0 -305 18 -450 50l32 236c120 -17 244 -33 356 -33c194 0 263 28 263 219c0 151 -153 170 -316 170c-98 0 -204 -3 -303 -8l51 736h861v-257h-588z" />
    <glyph glyph-name="uni2086" unicode="&#x2086;" horiz-adv-x="1241" 
d="M645 486c316 0 509 -85 509 -437c0 -366 -214 -456 -535 -456c-413 0 -508 220 -508 569c0 621 137 817 754 817c23 0 69 -1 185 -3l24 -236c-220 -12 -601 39 -633 -268c59 7 134 14 204 14zM612 254c-57 0 -131 -7 -187 -14c-3 -33 -3 -69 -3 -107
c0 -151 21 -294 192 -294c177 0 228 54 228 214c0 164 -86 201 -230 201z" />
    <glyph glyph-name="uni2087" unicode="&#x2087;" horiz-adv-x="1076" 
d="M1019 741l-508 -1128h-349l538 1098h-640v258h803c116 0 180 -53 180 -137c0 -27 -8 -56 -24 -91z" />
    <glyph glyph-name="uni2088" unicode="&#x2088;" horiz-adv-x="1240" 
d="M621 983c229 0 503 -55 503 -348c0 -147 -33 -231 -182 -317c123 -74 199 -161 199 -321c0 -329 -234 -399 -520 -399c-307 0 -522 92 -522 398c0 158 73 239 202 318c-118 69 -182 157 -182 321c0 291 269 348 502 348zM621 -163c118 0 213 30 213 165
c0 125 -42 172 -268 196c-100 -22 -160 -82 -160 -196c0 -136 92 -165 215 -165zM676 431c102 28 153 66 153 171c0 126 -89 148 -208 148c-114 0 -204 -20 -204 -148c0 -94 35 -157 259 -171z" />
    <glyph glyph-name="uni2089" unicode="&#x2089;" horiz-adv-x="1241" 
d="M594 95c-315 0 -509 85 -509 437c0 366 215 456 536 456c413 0 507 -219 507 -569c0 -621 -136 -817 -754 -817c-23 0 -68 1 -184 4l-25 235c221 12 602 -39 634 268c-60 -7 -134 -14 -205 -14zM628 327c57 0 131 7 187 15c2 33 3 68 3 106c0 151 -22 295 -192 295
c-177 0 -229 -55 -229 -214c0 -165 86 -202 231 -202z" />
    <glyph glyph-name="zero.numerator" horiz-adv-x="1273" 
d="M637 957c-431 0 -519 228 -519 692c0 465 88 693 519 693c430 0 518 -228 518 -693c0 -464 -88 -692 -518 -692zM637 1202c199 0 204 177 204 447s-6 449 -204 449c-200 0 -204 -179 -204 -449s4 -447 204 -447z" />
    <glyph glyph-name="one.numerator" horiz-adv-x="808" 
d="M339 972v1054c-75 -17 -189 -35 -292 -47l-14 241c172 25 292 69 377 108h239v-1356h-310z" />
    <glyph glyph-name="two.numerator" horiz-adv-x="1176" 
d="M137 2056l-29 235c136 26 297 49 460 49c280 0 497 -73 497 -353c0 -250 -137 -406 -402 -511c-168 -67 -207 -130 -225 -248h626v-259h-980c78 437 113 596 434 732c158 67 231 121 231 239c0 122 -69 148 -296 148c-81 0 -213 -15 -316 -32z" />
    <glyph glyph-name="three.numerator" horiz-adv-x="1155" 
d="M524 2342c267 0 511 -56 511 -357c0 -127 -56 -233 -172 -299c128 -56 193 -144 193 -291c0 -336 -205 -438 -539 -438c-159 0 -294 22 -435 49l33 236c119 -16 252 -32 353 -32c179 0 263 27 263 175c0 98 -42 149 -124 159c-78 10 -151 14 -276 14h-43v224
c121 3 225 13 318 26c80 12 111 63 111 148c0 125 -91 138 -215 138c-115 0 -245 -16 -376 -33l-31 233c127 24 275 48 429 48z" />
    <glyph glyph-name="four.numerator" horiz-adv-x="1222" 
d="M679 969v300h-426c-154 0 -198 61 -198 154c0 40 13 102 100 214l444 573c81 105 141 130 227 130c89 0 159 -56 159 -172v-663h164v-236h-164v-300h-306zM680 1911l-304 -406h304v406z" />
    <glyph glyph-name="five.numerator" horiz-adv-x="1170" 
d="M449 2073l-16 -234c22 0 45 1 62 1c330 0 573 -56 573 -431c0 -323 -186 -449 -525 -449c-151 0 -305 18 -450 50l32 236c120 -17 244 -33 356 -33c194 0 263 28 263 219c0 151 -153 170 -316 170c-98 0 -204 -3 -303 -8l51 736h861v-257h-588z" />
    <glyph glyph-name="six.numerator" horiz-adv-x="1241" 
d="M645 1845c316 0 509 -85 509 -437c0 -366 -214 -456 -535 -456c-413 0 -508 220 -508 569c0 621 137 817 754 817c23 0 69 -1 185 -3l24 -236c-220 -12 -601 39 -633 -268c59 7 134 14 204 14zM612 1613c-57 0 -131 -7 -187 -14c-3 -33 -3 -69 -3 -107
c0 -151 21 -294 192 -294c177 0 228 54 228 214c0 164 -86 201 -230 201z" />
    <glyph glyph-name="seven.numerator" horiz-adv-x="1076" 
d="M1019 2100l-508 -1128h-349l538 1098h-640v258h803c116 0 180 -53 180 -137c0 -27 -8 -56 -24 -91z" />
    <glyph glyph-name="eight.numerator" horiz-adv-x="1240" 
d="M621 2342c229 0 503 -55 503 -348c0 -147 -33 -231 -182 -317c123 -74 199 -161 199 -321c0 -329 -234 -399 -520 -399c-307 0 -522 92 -522 398c0 158 73 239 202 318c-118 69 -182 157 -182 321c0 291 269 348 502 348zM621 1196c118 0 213 30 213 165
c0 125 -42 172 -268 196c-100 -22 -160 -82 -160 -196c0 -136 92 -165 215 -165zM676 1790c102 28 153 66 153 171c0 126 -89 148 -208 148c-114 0 -204 -20 -204 -148c0 -94 35 -157 259 -171z" />
    <glyph glyph-name="nine.numerator" horiz-adv-x="1241" 
d="M594 1454c-315 0 -509 85 -509 437c0 366 215 456 536 456c413 0 507 -219 507 -569c0 -621 -136 -817 -754 -817c-23 0 -68 1 -184 4l-25 235c221 12 602 -39 634 268c-60 -7 -134 -14 -205 -14zM628 1686c57 0 131 7 187 15c2 33 3 68 3 106c0 151 -22 295 -192 295
c-177 0 -229 -55 -229 -214c0 -165 86 -202 231 -202z" />
    <glyph glyph-name="zero.denominator" horiz-adv-x="1273" 
d="M637 -12c-431 0 -519 228 -519 692c0 465 88 693 519 693c430 0 518 -228 518 -693c0 -464 -88 -692 -518 -692zM637 233c199 0 204 177 204 447s-6 449 -204 449c-200 0 -204 -179 -204 -449s4 -447 204 -447z" />
    <glyph glyph-name="one.denominator" horiz-adv-x="808" 
d="M339 3v1054c-75 -17 -189 -35 -292 -47l-14 241c172 25 292 69 377 108h239v-1356h-310z" />
    <glyph glyph-name="two.denominator" horiz-adv-x="1176" 
d="M137 1087l-29 235c136 26 297 49 460 49c280 0 497 -73 497 -353c0 -250 -137 -406 -402 -511c-168 -67 -207 -130 -225 -248h626v-259h-980c78 437 113 596 434 732c158 67 231 121 231 239c0 122 -69 148 -296 148c-81 0 -213 -15 -316 -32z" />
    <glyph glyph-name="three.denominator" horiz-adv-x="1155" 
d="M524 1373c267 0 511 -56 511 -357c0 -127 -56 -233 -172 -299c128 -56 193 -144 193 -291c0 -336 -205 -438 -539 -438c-159 0 -294 22 -435 49l33 236c119 -16 252 -32 353 -32c179 0 263 27 263 175c0 98 -42 149 -124 159c-78 10 -151 14 -276 14h-43v224
c121 3 225 13 318 26c80 12 111 63 111 148c0 125 -91 138 -215 138c-115 0 -245 -16 -376 -33l-31 233c127 24 275 48 429 48z" />
    <glyph glyph-name="four.denominator" horiz-adv-x="1222" 
d="M679 0v300h-426c-154 0 -198 61 -198 154c0 40 13 102 100 214l444 573c81 105 141 130 227 130c89 0 159 -56 159 -172v-663h164v-236h-164v-300h-306zM680 942l-304 -406h304v406z" />
    <glyph glyph-name="five.denominator" horiz-adv-x="1170" 
d="M449 1104l-16 -234c22 0 45 1 62 1c330 0 573 -56 573 -431c0 -323 -186 -449 -525 -449c-151 0 -305 18 -450 50l32 236c120 -17 244 -33 356 -33c194 0 263 28 263 219c0 151 -153 170 -316 170c-98 0 -204 -3 -303 -8l51 736h861v-257h-588z" />
    <glyph glyph-name="six.denominator" horiz-adv-x="1241" 
d="M645 876c316 0 509 -85 509 -437c0 -366 -214 -456 -535 -456c-413 0 -508 220 -508 569c0 621 137 817 754 817c23 0 69 -1 185 -3l24 -236c-220 -12 -601 39 -633 -268c59 7 134 14 204 14zM612 644c-57 0 -131 -7 -187 -14c-3 -33 -3 -69 -3 -107
c0 -151 21 -294 192 -294c177 0 228 54 228 214c0 164 -86 201 -230 201z" />
    <glyph glyph-name="seven.denominator" horiz-adv-x="1076" 
d="M1019 1131l-508 -1128h-349l538 1098h-640v258h803c116 0 180 -53 180 -137c0 -27 -8 -56 -24 -91z" />
    <glyph glyph-name="eight.denominator" horiz-adv-x="1240" 
d="M621 1373c229 0 503 -55 503 -348c0 -147 -33 -231 -182 -317c123 -74 199 -161 199 -321c0 -329 -234 -399 -520 -399c-307 0 -522 92 -522 398c0 158 73 239 202 318c-118 69 -182 157 -182 321c0 291 269 348 502 348zM621 227c118 0 213 30 213 165
c0 125 -42 172 -268 196c-100 -22 -160 -82 -160 -196c0 -136 92 -165 215 -165zM676 821c102 28 153 66 153 171c0 126 -89 148 -208 148c-114 0 -204 -20 -204 -148c0 -94 35 -157 259 -171z" />
    <glyph glyph-name="nine.denominator" horiz-adv-x="1241" 
d="M594 485c-315 0 -509 85 -509 437c0 366 215 456 536 456c413 0 507 -219 507 -569c0 -621 -136 -817 -754 -817c-23 0 -68 1 -184 4l-25 235c221 12 602 -39 634 268c-60 -7 -134 -14 -205 -14zM628 717c57 0 131 7 187 15c2 33 3 68 3 106c0 151 -22 295 -192 295
c-177 0 -229 -55 -229 -214c0 -165 86 -202 231 -202z" />
    <glyph glyph-name="zero.onum" horiz-adv-x="1907" 
d="M954 -24c-644 0 -777 321 -777 972c0 653 132 974 777 974s776 -321 776 -974c0 -651 -131 -972 -776 -972zM954 331c329 0 337 245 337 617c0 374 -8 619 -337 619s-337 -245 -337 -619c0 -372 9 -617 337 -617z" />
    <glyph glyph-name="one.onum" horiz-adv-x="1186" 
d="M518 0v1461c-112 -27 -294 -59 -451 -76l-19 352c255 37 437 103 565 163h340v-1900h-435z" />
    <glyph glyph-name="two.onum" horiz-adv-x="1724" 
d="M203 1521l-45 337c195 34 430 64 676 64c411 0 728 -102 728 -497c0 -358 -203 -575 -596 -718c-267 -97 -329 -178 -358 -337h953v-370h-1438c121 621 174 846 646 1030c252 98 371 175 371 329c0 166 -113 202 -482 202c-127 0 -313 -19 -455 -40z" />
    <glyph glyph-name="three.onum" horiz-adv-x="1727" 
d="M783 1922c400 0 764 -85 764 -542c0 -200 -86 -362 -270 -460c199 -83 302 -216 302 -449c0 -510 -306 -664 -806 -664c-242 0 -443 32 -650 71l49 344c172 -22 366 -46 524 -46c293 0 429 44 429 280c0 158 -72 238 -211 256c-124 16 -243 22 -430 22h-43v326
c168 3 329 19 473 40c136 20 189 103 189 237c0 203 -150 223 -354 223c-180 0 -370 -22 -560 -47l-45 339c186 36 404 70 639 70z" />
    <glyph glyph-name="four.onum" horiz-adv-x="1833" 
d="M1045 -171v462h-679c-220 0 -283 92 -283 226c0 60 14 152 149 326l687 884c122 157 209 195 331 195c125 0 222 -83 222 -254v-1034h252v-343h-252v-462h-427zM1047 1331l-521 -697h521v697z" />
    <glyph glyph-name="five.onum" horiz-adv-x="1750" 
d="M642 1523l-26 -382c40 1 87 3 118 3c498 0 863 -86 863 -655c0 -491 -279 -683 -787 -683c-231 0 -461 28 -671 73l47 344c172 -26 353 -48 528 -48c316 0 427 46 427 349c0 244 -247 273 -508 273c-152 0 -294 -3 -445 -12l77 1115h1283v-377h-906z" />
    <glyph glyph-name="six.onum" horiz-adv-x="1860" 
d="M968 1332c471 0 762 -129 762 -663c0 -556 -321 -693 -803 -693c-619 0 -760 335 -760 868c0 949 206 1248 1141 1248c34 0 83 0 261 -5l36 -343c-395 -20 -952 45 -976 -436c96 12 220 24 339 24zM916 996c-96 0 -222 -12 -310 -25c-5 -55 -6 -112 -6 -173
c0 -238 37 -466 319 -466c290 0 376 88 376 343c0 262 -142 321 -379 321z" />
    <glyph glyph-name="seven.onum" horiz-adv-x="1608" 
d="M1525 1563l-782 -1735h-493l830 1694h-991v378h1215c164 0 254 -79 254 -201c0 -43 -10 -84 -33 -136z" />
    <glyph glyph-name="eight.onum" horiz-adv-x="1858" 
d="M931 2092c343 0 752 -85 752 -528c0 -228 -52 -357 -284 -488c196 -112 311 -240 311 -495c0 -498 -351 -605 -779 -605c-460 0 -782 139 -782 605c0 249 112 369 314 490c-189 104 -284 234 -284 493c0 442 403 528 752 528zM931 324c195 0 351 48 351 265
c0 201 -69 276 -437 314c-162 -37 -268 -135 -268 -314c0 -218 151 -265 354 -265zM1019 1241c160 45 255 110 255 273c0 203 -147 239 -343 239c-189 0 -337 -34 -337 -239c0 -151 58 -253 425 -273z" />
    <glyph glyph-name="nine.onum" horiz-adv-x="1859" 
d="M889 566c-471 0 -761 129 -761 663c0 556 320 693 802 693c619 0 760 -335 760 -868c0 -949 -206 -1248 -1141 -1248c-34 0 -83 0 -261 5l-36 343c395 20 952 -45 977 436c-97 -12 -221 -24 -340 -24zM942 902c95 0 221 12 309 25c5 55 6 112 6 173
c0 238 -37 466 -318 466c-291 0 -377 -88 -377 -343c0 -262 142 -321 380 -321z" />
    <glyph glyph-name="dollar.onum" horiz-adv-x="1593" 
d="M151 389c154 -23 389 -47 547 -47c209 0 338 47 338 245c0 176 -138 223 -334 283c-373 114 -593 230 -593 624c0 384 192 546 542 587v285h307v-277c184 -8 367 -36 495 -64l-40 -339c-137 21 -306 46 -461 46c-160 0 -407 -6 -407 -202c0 -206 175 -235 370 -288
c392 -108 569 -265 569 -640c0 -383 -193 -562 -541 -611v-289h-307v275c-200 6 -375 31 -528 65z" />
    <glyph glyph-name="cent.onum" horiz-adv-x="1363" 
d="M1234 597l36 -316c-101 -26 -217 -47 -352 -56v-278h-288v279c-431 56 -500 431 -500 823c0 451 92 723 500 786v286h288v-273c141 -7 253 -32 349 -61l-33 -306c-126 23 -209 38 -292 38c-359 0 -397 -106 -397 -470c0 -345 15 -493 400 -493c91 0 181 18 289 41z" />
    <glyph glyph-name="Euro.onum" horiz-adv-x="1701" 
d="M127 1105l54 246h156c46 513 232 741 739 741c187 0 357 -29 482 -70l-34 -341c-131 25 -261 42 -377 42c-268 0 -351 -146 -376 -372h637l-54 -246h-593v-126h565l-54 -244h-502c22 -237 100 -390 377 -390c115 0 247 17 377 42l34 -343c-125 -39 -296 -68 -482 -68
c-514 0 -698 233 -741 759h-228l54 244h164v126h-198z" />
    <glyph glyph-name="sterling.onum" horiz-adv-x="1830" 
d="M415 885h-293v325h247c-9 85 -16 179 -16 288c0 477 341 595 753 595c304 0 429 -109 598 -270l-223 -264c-114 101 -212 167 -364 167c-255 0 -325 -93 -325 -295c0 -72 6 -145 14 -221h446v-325h-414c2 -44 4 -89 4 -136c0 -106 -40 -265 -81 -378h345
c178 0 374 15 526 40l37 -345c-149 -37 -431 -66 -716 -66h-474c-154 0 -217 78 -217 172c0 131 164 266 164 554c0 53 -4 106 -11 159z" />
    <glyph glyph-name="yen.onum" horiz-adv-x="1761" 
d="M526 2072l356 -822l368 822h428l-424 -925h215v-270h-339l-35 -77v-98h374v-266h-374v-436h-433v436h-371v266h371v98l-35 77h-336v270h213l-421 925h443z" />
    <glyph glyph-name="zero.tnum" 
d="M985 -24c-701 0 -845 380 -845 1154s144 1154 845 1154s844 -380 844 -1154s-143 -1154 -844 -1154zM985 345c374 0 382 313 382 785s-9 786 -382 786c-374 0 -383 -314 -383 -786s9 -785 383 -785z" />
    <glyph glyph-name="one.tnum" 
d="M917 0v1802c-123 -31 -327 -67 -498 -86l-20 365c274 41 471 113 613 179h361v-2260h-456z" />
    <glyph glyph-name="two.tnum" 
d="M250 1853l-43 354c214 41 471 77 743 77c456 0 808 -119 808 -577c0 -417 -220 -674 -660 -847c-320 -126 -376 -236 -408 -465h1067v-395h-1587c127 716 183 975 710 1199c282 120 414 219 414 428c0 226 -126 274 -538 274c-142 0 -349 -22 -506 -48z" />
    <glyph glyph-name="three.tnum" 
d="M895 2284c435 0 831 -92 831 -585c0 -225 -100 -406 -314 -509c229 -89 349 -233 349 -493c0 -554 -332 -721 -878 -721c-272 0 -492 37 -702 77l50 357c186 -24 394 -50 568 -50c330 0 484 50 484 320c0 181 -83 272 -243 292c-146 19 -289 25 -469 25h-41v337
c176 4 351 21 510 44c158 23 218 117 218 273c0 232 -169 256 -400 256c-199 0 -404 -24 -607 -50l-47 351c200 39 434 76 691 76z" />
    <glyph glyph-name="four.tnum" 
d="M1138 0v509h-760c-233 0 -300 97 -300 238c0 65 13 162 162 353l756 973c132 169 225 211 356 211s234 -88 234 -269v-1150h277v-356h-277v-509h-448zM1140 1678l-608 -813h608v813z" />
    <glyph glyph-name="five.tnum" 
d="M719 1868l-31 -445c48 3 103 4 142 4c541 0 939 -93 939 -710c0 -532 -303 -741 -855 -741c-253 0 -502 29 -727 79l49 357c184 -26 379 -51 572 -51c356 0 482 51 482 395c0 278 -277 312 -571 312c-167 0 -312 -4 -478 -12l83 1204h1391v-392h-996z" />
    <glyph glyph-name="six.tnum" 
d="M1026 1447c513 0 828 -140 828 -719c0 -604 -349 -752 -873 -752c-672 0 -826 364 -826 944c0 1037 225 1364 1245 1364c38 0 82 0 279 -5l36 -357c-409 -16 -1069 64 -1074 -504c108 15 250 29 385 29zM969 1100c-110 0 -253 -15 -352 -30c-6 -63 -7 -129 -7 -199
c0 -268 41 -525 362 -525c329 0 425 100 425 388c0 298 -160 366 -428 366z" />
    <glyph glyph-name="seven.tnum" 
d="M1769 1905l-858 -1905h-519l916 1866h-1100v394h1328c175 0 269 -82 269 -211c0 -45 -11 -89 -36 -144z" />
    <glyph glyph-name="eight.tnum" 
d="M987 2284c372 0 817 -91 817 -569c0 -254 -58 -393 -324 -538c218 -123 354 -266 354 -546c0 -539 -382 -655 -847 -655c-500 0 -850 151 -850 654c0 275 129 407 357 540c-210 113 -324 259 -324 545c0 476 437 569 817 569zM987 336c221 0 398 56 398 303
c0 231 -77 315 -495 357c-190 -39 -304 -148 -304 -357c0 -248 170 -303 401 -303zM1085 1347c193 50 291 120 291 311c0 234 -167 275 -389 275c-214 0 -383 -38 -383 -275c0 -172 65 -288 481 -311z" />
    <glyph glyph-name="nine.tnum" 
d="M941 813c-513 0 -828 140 -828 719c0 604 349 752 873 752c672 0 826 -364 826 -944c0 -1037 -225 -1364 -1245 -1364c-39 0 -82 0 -279 5l-36 357c409 16 1069 -64 1074 504c-108 -15 -250 -29 -385 -29zM998 1160c110 0 253 15 352 30c6 63 7 129 7 199
c0 268 -41 525 -362 525c-329 0 -426 -100 -426 -388c0 -298 161 -366 429 -366z" />
    <glyph glyph-name="dollar.tnum" 
d="M283 408c166 -25 419 -51 593 -51c237 0 383 53 383 281c0 211 -167 258 -375 322c-406 125 -644 250 -644 677c0 418 211 594 596 636v313h316v-304c204 -8 405 -39 543 -69l-41 -352c-147 23 -329 49 -498 49c-182 0 -459 -7 -459 -233c0 -227 156 -259 415 -329
c433 -118 619 -285 619 -694c0 -417 -213 -611 -596 -663v-317h-316v303c-223 5 -413 33 -580 69z" />
    <glyph glyph-name="cent.tnum" 
d="M1584 635l37 -326c-109 -27 -237 -50 -386 -60v-306h-295v307c-474 57 -551 467 -551 896c0 494 101 791 551 857v314h295v-301c157 -6 279 -33 383 -65l-34 -316c-105 20 -207 41 -312 41c-405 0 -449 -120 -449 -530c0 -387 18 -553 452 -553c105 0 203 20 309 42z" />
    <glyph glyph-name="Euro.tnum" 
d="M201 1220l54 248h173c49 565 252 816 804 816c204 0 386 -31 519 -74l-35 -354c-137 27 -276 44 -406 44c-309 0 -399 -171 -425 -432h698l-54 -248h-655v-162h619l-53 -247h-557c23 -274 109 -451 427 -451c129 0 270 17 405 44l36 -356c-133 -42 -316 -72 -519 -72
c-559 0 -759 256 -805 835h-247l53 247h183v72c0 30 0 60 1 90h-216z" />
    <glyph glyph-name="sterling.tnum" 
d="M446 975h-322v336h275c-12 96 -20 204 -20 329c0 515 371 644 819 644c329 0 462 -116 642 -288l-231 -274c-123 109 -229 180 -399 180c-291 0 -371 -106 -371 -337c0 -82 7 -165 17 -254h491v-336h-457c3 -52 5 -105 5 -161c0 -121 -45 -304 -93 -428h396
c196 0 409 17 568 42l39 -358c-158 -40 -464 -70 -776 -70h-522c-162 0 -228 82 -228 179c0 138 180 290 180 609c0 63 -5 125 -13 187z" />
    <glyph glyph-name="yen.tnum" 
d="M589 2260l398 -922l413 922h447l-467 -1019h243v-275h-369l-43 -94v-121h412v-271h-412v-480h-455v480h-408v271h408v122l-43 93h-365v275h240l-464 1019h465z" />
    <glyph glyph-name="period.tnum" horiz-adv-x="985" 
d="M492 -24c-203 0 -262 63 -262 256c0 194 62 256 262 256c201 0 263 -62 263 -256c0 -193 -59 -256 -263 -256z" />
    <glyph glyph-name="comma.tnum" horiz-adv-x="985" 
d="M119 -433l209 888h492l-339 -888h-362z" />
    <glyph glyph-name="colon.tnum" horiz-adv-x="985" 
d="M492 -24c-204 0 -262 63 -262 256c0 194 61 256 262 256s263 -62 263 -256c0 -193 -59 -256 -263 -256zM492 1143c-204 0 -262 62 -262 256s61 256 262 256s263 -62 263 -256s-59 -256 -263 -256z" />
    <glyph glyph-name="semicolon.tnum" horiz-adv-x="985" 
d="M578 1143c-204 0 -262 62 -262 256s61 256 262 256s263 -62 263 -256s-59 -256 -263 -256zM114 -433l209 888h493l-339 -888h-363z" />
    <glyph glyph-name="zero.onum_tnum" horiz-adv-x="1810" 
d="M905 -24c-644 0 -777 321 -777 972c0 653 132 974 777 974s776 -321 776 -974c0 -651 -131 -972 -776 -972zM905 331c329 0 337 245 337 617c0 374 -8 619 -337 619s-337 -245 -337 -619c0 -372 9 -617 337 -617z" />
    <glyph glyph-name="one.onum_tnum" horiz-adv-x="1810" 
d="M830 0v1461c-112 -27 -294 -59 -451 -76l-19 352c255 37 437 103 565 163h340v-1900h-435z" />
    <glyph glyph-name="two.onum_tnum" horiz-adv-x="1810" 
d="M246 1521l-45 337c195 34 430 64 676 64c411 0 728 -102 728 -497c0 -358 -203 -575 -596 -718c-267 -97 -329 -178 -358 -337h953v-370h-1438c121 621 174 846 646 1030c252 98 371 175 371 329c0 166 -113 202 -482 202c-127 0 -313 -19 -455 -40z" />
    <glyph glyph-name="three.onum_tnum" horiz-adv-x="1810" 
d="M825 1922c400 0 764 -85 764 -542c0 -200 -86 -362 -270 -460c199 -83 302 -216 302 -449c0 -510 -306 -664 -806 -664c-242 0 -443 32 -650 71l49 344c172 -22 366 -46 524 -46c293 0 429 44 429 280c0 158 -72 238 -211 256c-124 16 -243 22 -430 22h-43v326
c168 3 329 19 473 40c136 20 189 103 189 237c0 203 -150 223 -354 223c-180 0 -370 -22 -560 -47l-45 339c186 36 404 70 639 70z" />
    <glyph glyph-name="four.onum_tnum" horiz-adv-x="1810" 
d="M1033 -171v462h-679c-220 0 -283 92 -283 226c0 60 14 152 149 326l687 884c122 157 209 195 331 195c125 0 222 -83 222 -254v-1034h252v-343h-252v-462h-427zM1035 1331l-521 -697h521v697z" />
    <glyph glyph-name="five.onum_tnum" horiz-adv-x="1810" 
d="M672 1523l-26 -382c40 1 87 3 118 3c498 0 863 -86 863 -655c0 -491 -279 -683 -787 -683c-231 0 -461 28 -671 73l47 344c172 -26 353 -48 528 -48c316 0 427 46 427 349c0 244 -247 273 -508 273c-152 0 -294 -3 -445 -12l77 1115h1283v-377h-906z" />
    <glyph glyph-name="six.onum_tnum" horiz-adv-x="1810" 
d="M943 1332c471 0 762 -129 762 -663c0 -556 -321 -693 -803 -693c-619 0 -760 335 -760 868c0 949 206 1248 1141 1248c34 0 83 0 261 -5l36 -343c-395 -20 -952 45 -976 -436c96 12 220 24 339 24zM891 996c-96 0 -222 -12 -310 -25c-5 -55 -6 -112 -6 -173
c0 -238 37 -466 319 -466c290 0 376 88 376 343c0 262 -142 321 -379 321z" />
    <glyph glyph-name="seven.onum_tnum" horiz-adv-x="1810" 
d="M1626 1563l-782 -1735h-493l830 1694h-991v378h1215c164 0 254 -79 254 -201c0 -43 -10 -84 -33 -136z" />
    <glyph glyph-name="eight.onum_tnum" horiz-adv-x="1810" 
d="M907 2092c343 0 752 -85 752 -528c0 -228 -52 -357 -284 -488c196 -112 311 -240 311 -495c0 -498 -351 -605 -779 -605c-460 0 -782 139 -782 605c0 249 112 369 314 490c-189 104 -284 234 -284 493c0 442 403 528 752 528zM907 324c195 0 351 48 351 265
c0 201 -69 276 -437 314c-162 -37 -268 -135 -268 -314c0 -218 151 -265 354 -265zM995 1241c160 45 255 110 255 273c0 203 -147 239 -343 239c-189 0 -337 -34 -337 -239c0 -151 58 -253 425 -273z" />
    <glyph glyph-name="nine.onum_tnum" horiz-adv-x="1810" 
d="M864 566c-471 0 -761 129 -761 663c0 556 320 693 802 693c619 0 760 -335 760 -868c0 -949 -206 -1248 -1141 -1248c-34 0 -83 0 -261 5l-36 343c395 20 952 -45 977 436c-97 -12 -221 -24 -340 -24zM917 902c95 0 221 12 309 25c5 55 6 112 6 173
c0 238 -37 466 -318 466c-291 0 -377 -88 -377 -343c0 -262 142 -321 380 -321z" />
    <glyph glyph-name="dollar.onum_tnum" horiz-adv-x="1810" 
d="M260 389c154 -23 389 -47 547 -47c209 0 338 47 338 245c0 176 -138 223 -334 283c-373 114 -593 230 -593 624c0 384 192 546 542 587v285h307v-277c184 -8 367 -36 495 -64l-40 -339c-137 21 -306 46 -461 46c-160 0 -407 -6 -407 -202c0 -206 175 -235 370 -288
c392 -108 569 -265 569 -640c0 -383 -193 -562 -541 -611v-289h-307v275c-200 6 -375 31 -528 65z" />
    <glyph glyph-name="cent.onum_tnum" horiz-adv-x="1810" 
d="M1458 597l36 -316c-101 -26 -217 -47 -352 -56v-278h-288v279c-431 56 -500 431 -500 823c0 451 92 723 500 786v286h288v-273c141 -7 253 -32 349 -61l-33 -306c-126 23 -209 38 -292 38c-359 0 -397 -106 -397 -470c0 -345 15 -493 400 -493c91 0 181 18 289 41z" />
    <glyph glyph-name="Euro.onum_tnum" horiz-adv-x="1810" 
d="M182 1105l54 246h156c46 513 232 741 739 741c187 0 357 -29 482 -70l-34 -341c-131 25 -261 42 -377 42c-268 0 -351 -146 -376 -372h637l-54 -246h-593v-126h565l-54 -244h-502c22 -237 100 -390 377 -390c115 0 247 17 377 42l34 -343c-125 -39 -296 -68 -482 -68
c-514 0 -698 233 -741 759h-228l54 244h164v126h-198z" />
    <glyph glyph-name="sterling.onum_tnum" horiz-adv-x="1810" 
d="M405 885h-293v325h247c-9 85 -16 179 -16 288c0 477 341 595 753 595c304 0 429 -109 598 -270l-223 -264c-114 101 -212 167 -364 167c-255 0 -325 -93 -325 -295c0 -72 6 -145 14 -221h446v-325h-414c2 -44 4 -89 4 -136c0 -106 -40 -265 -81 -378h345
c178 0 374 15 526 40l37 -345c-149 -37 -431 -66 -716 -66h-474c-154 0 -217 78 -217 172c0 131 164 266 164 554c0 53 -4 106 -11 159z" />
    <glyph glyph-name="yen.onum_tnum" horiz-adv-x="1810" 
d="M551 2072l356 -822l368 822h428l-424 -925h215v-270h-339l-35 -77v-98h374v-266h-374v-436h-433v436h-371v266h371v98l-35 77h-336v270h213l-421 925h443z" />
    <glyph glyph-name="parenleft.case" horiz-adv-x="1080" 
d="M724 2663l253 -209c-316 -309 -373 -887 -373 -1293c0 -408 50 -986 372 -1293l-252 -210c-451 374 -570 941 -570 1503s118 1128 570 1502z" />
    <glyph glyph-name="parenright.case" horiz-adv-x="1080" 
d="M356 -342l-253 210c322 307 373 885 373 1293c0 406 -57 984 -373 1293l253 209c452 -374 570 -940 570 -1502s-119 -1129 -570 -1503z" />
    <glyph glyph-name="bracketleft.case" horiz-adv-x="1091" 
d="M665 2301v-2268h324v-344h-738v2952h740v-340h-326z" />
    <glyph glyph-name="bracketright.case" horiz-adv-x="1091" 
d="M100 2301v340h740v-2952h-738v344h324v2268h-326z" />
    <glyph glyph-name="braceleft.case" horiz-adv-x="1100" 
d="M748 585v-167c0 -206 12 -371 272 -402l-37 -307c-427 34 -638 151 -638 662c0 458 -39 623 -241 643v305c201 19 241 186 241 643c0 510 211 627 638 661l37 -306c-260 -32 -272 -195 -272 -403v-167c0 -213 3 -493 -210 -582c197 -97 210 -373 210 -580z" />
    <glyph glyph-name="braceright.case" horiz-adv-x="1101" 
d="M997 1319v-305c-202 -20 -241 -185 -241 -643c0 -511 -212 -628 -638 -662l-38 307c260 31 273 196 273 402v167c0 207 13 483 210 580c-214 89 -210 369 -210 582v167c0 208 -13 371 -273 403l38 306c426 -34 638 -151 638 -661c0 -457 40 -624 241 -643z" />
    <glyph glyph-name="questiondown.case" horiz-adv-x="1769" 
d="M843 1636h389l8 -219c1 -19 3 -63 3 -81c0 -580 -643 -136 -643 -670c0 -235 95 -307 439 -307c215 0 410 22 557 51l79 -367c-193 -46 -445 -79 -690 -79c-520 0 -871 89 -871 704c0 799 711 492 722 784zM775 2091c0 185 62 251 262 251c201 0 262 -66 262 -251
s-63 -251 -262 -251c-198 0 -262 66 -262 251z" />
    <glyph glyph-name="exclamdown.case" horiz-adv-x="956" 
d="M478 1840c-198 0 -262 66 -262 251s62 251 262 251c201 0 262 -66 262 -251s-63 -251 -262 -251zM217 -12l70 1648h383l70 -1648h-523z" />
    <glyph glyph-name="at.case" horiz-adv-x="2970" 
d="M2764 1627c40 -133 61 -287 61 -462c0 -844 -475 -1189 -1333 -1189c-863 0 -1335 345 -1335 1189c0 867 493 1189 1368 1189c357 0 656 -135 656 -567v-693c0 -119 -5 -222 -16 -331c-146 -95 -413 -159 -701 -159c-487 0 -677 192 -677 561c0 316 137 500 486 564
c146 27 347 37 513 46c0 196 -67 257 -278 257c-595 0 -946 -197 -946 -867c0 -659 341 -866 930 -866c591 0 931 206 931 866c0 134 -15 252 -42 351zM1786 1195v314c-101 -3 -273 -15 -363 -41c-174 -49 -237 -96 -237 -294c0 -215 116 -266 337 -266c61 0 195 23 253 57
c7 69 10 153 10 230z" />
    <glyph glyph-name="guilsinglleft.case" horiz-adv-x="1114" 
d="M544 1165l443 -690h-414l-488 690l488 690h414z" />
    <glyph glyph-name="guilsinglright.case" horiz-adv-x="1115" 
d="M1030 1165l-489 -690h-413l443 690l-443 690h413z" />
    <glyph glyph-name="guillemotleft.case" horiz-adv-x="1881" 
d="M544 1165l444 -690h-414l-489 690l489 690h414zM1311 1165l443 -690h-414l-489 690l489 690h414z" />
    <glyph glyph-name="guillemotright.case" horiz-adv-x="1881" 
d="M1030 1165l-488 -690h-414l443 690l-443 690h414zM1796 1165l-488 -690h-415l445 690l-445 690h415z" />
    <glyph glyph-name="hyphen.case" horiz-adv-x="1298" 
d="M209 987v356h880v-356h-880z" />
    <glyph glyph-name="endash.case" horiz-adv-x="2025" 
d="M209 996v337h1607v-337h-1607z" />
    <glyph glyph-name="emdash.case" horiz-adv-x="3578" 
d="M209 996v337h3160v-337h-3160z" />
    <glyph glyph-name="periodcentered.case" horiz-adv-x="929" 
d="M464 909c-204 0 -262 62 -262 256s61 256 262 256s263 -62 263 -256s-59 -256 -263 -256z" />
    <glyph glyph-name="uni21E8" unicode="&#x21e8;" horiz-adv-x="2665" 
d="M1552 525h-1363v908h1363v555l1043 -1009l-1043 -1010v556zM2364 979l-649 617v-326h-1365v-582h1365v-326z" />
    <glyph glyph-name="uni03BC" unicode="&#x3bc;" horiz-adv-x="2124" 
d="M271 -656v2437h410v-1075c0 -216 107 -372 304 -372c289 0 387 276 387 672v775h412v-1091c0 -216 -1 -370 157 -422v-292c-303 0 -437 145 -492 302c-117 -211 -269 -302 -467 -302c-116 0 -223 41 -302 121v-753h-409z" />
    <glyph glyph-name="uni03A9" unicode="&#x3a9;" horiz-adv-x="2560" 
d="M152 0v355h391c-194 214 -344 514 -344 884c0 656 475 1115 1094 1115c653 0 1071 -525 1071 -1104c0 -380 -155 -687 -345 -895h390v-355h-987v265c257 154 502 483 502 945c0 366 -216 789 -634 789c-397 0 -649 -357 -649 -795c0 -435 245 -787 501 -939v-265h-990z
" />
    <glyph glyph-name="uni021A" unicode="&#x21a;" horiz-adv-x="1736" 
d="M1677 2330v-382h-573v-1948h-475v1948h-570v382h1618zM556 -819l147 624h345l-238 -624h-254z" />
    <glyph glyph-name="uni021B" unicode="&#x21b;" horiz-adv-x="1300" 
d="M369 2212l443 72v-503h358v-337h-358v-921c0 -148 63 -206 212 -206c49 0 98 2 149 6l35 -316c-95 -17 -210 -31 -305 -31c-375 0 -534 164 -534 502v966h-290v337h290v431zM473 -832l147 624h345l-238 -624h-254z" />
    <glyph glyph-name="uni2215" unicode="&#x2215;" horiz-adv-x="542" 
d="M-567 -48l1368 2426h308l-1369 -2426h-307z" />
    <glyph glyph-name="uni2219" unicode="&#x2219;" horiz-adv-x="929" 
d="M464 699c-204 0 -262 62 -262 256s61 256 262 256s263 -62 263 -256s-59 -256 -263 -256z" />
    <glyph glyph-name="uni00AD" unicode="&#xad;" horiz-adv-x="1298" 
d="M209 708v356h880v-356h-880z" />
    <glyph glyph-name="uni2010" unicode="&#x2010;" horiz-adv-x="1298" 
d="M209 708v356h880v-356h-880z" />
    <glyph glyph-name="uni02C9" unicode="&#x2c9;" horiz-adv-x="1438" 
d="M208 1975v277h1021v-277h-1021z" />
    <glyph glyph-name="uni00A0" unicode="&#xa0;" horiz-adv-x="850" 
 />
    </font>
</defs>
</svg>
