<svg width="1600" height="513" viewBox="0 0 1600 513" fill="none" xmlns="http://www.w3.org/2000/svg">
<g style="mix-blend-mode:overlay" opacity="0.35">
<path d="M970.028 511.505L1481.11 5.59113C1485.94 0.802957 1493.78 0.802957 1498.61 5.59113L2009.68 511.505" stroke="#E9E9E9" stroke-width="2.4" stroke-linejoin="round"/>
<path d="M805.362 513L1179.91 138.797C1207.55 111.187 1252.35 111.187 1279.98 138.797L1654.52 513" stroke="#E9E9E9" stroke-width="2.4" stroke-linejoin="round"/>
<path d="M1493.09 513L1905.64 102.468C1914.95 93.2005 1930.06 93.2005 1939.37 102.468L2351.93 513" stroke="#E9E9E9" stroke-width="2.4" stroke-linejoin="round"/>
<path d="M1228.33 511.505L1643.14 108.732C1701.14 52.4149 1795.17 52.4149 1853.17 108.732L2267.98 511.505" stroke="#E9E9E9" stroke-width="2.4" stroke-linejoin="round"/>
</g>
<g style="mix-blend-mode:overlay" opacity="0.35">
<path d="M-584.269 511.505L-73.1909 5.59113C-68.3539 0.802957 -60.5156 0.802957 -55.6896 5.59113L455.388 511.505" stroke="#E9E9E9" stroke-width="2.4" stroke-linejoin="round"/>
<path d="M-748.935 513L-374.386 138.797C-346.751 111.187 -301.948 111.187 -274.314 138.797L100.225 513" stroke="#E9E9E9" stroke-width="2.4" stroke-linejoin="round"/>
<path d="M-61.2117 513L351.339 102.468C360.652 93.2005 375.761 93.2005 385.074 102.468L797.635 513" stroke="#E9E9E9" stroke-width="2.4" stroke-linejoin="round"/>
<path d="M-325.969 511.505L88.8402 108.732C146.841 52.4149 240.877 52.4149 298.878 108.732L713.687 511.505" stroke="#E9E9E9" stroke-width="2.4" stroke-linejoin="round"/>
</g>
</svg>
