<svg width="17" height="19" viewBox="0 0 17 19" fill="none" xmlns="http://www.w3.org/2000/svg">
<path d="M8.4521 6.07668H7.09443V11.4259L11.3937 13.9667L12.0726 12.8701L8.4521 10.7572V6.07668ZM12.8301 0.558105L17 3.98604L15.8415 5.35454L11.6689 1.92839L12.8301 0.558105ZM3.16895 0.558105L4.32931 1.9275L0.158546 5.35454L-1 3.98515L3.16895 0.558105ZM7.99955 2.51056C3.50113 2.51056 -0.146478 6.10343 -0.146478 10.5343C-0.146478 14.9652 3.50113 18.5581 7.99955 18.5581C12.498 18.5581 16.1456 14.9652 16.1456 10.5343C16.1456 6.10343 12.498 2.51056 7.99955 2.51056ZM7.99955 16.775C4.50581 16.775 1.66375 13.9756 1.66375 10.5343C1.66375 7.09302 4.50581 4.29362 7.99955 4.29362C11.4933 4.29362 14.3353 7.09302 14.3353 10.5343C14.3353 13.9756 11.4933 16.775 7.99955 16.775Z" fill="black"/>
</svg>
