<svg width="18" height="19" viewBox="0 0 18 19" fill="none" xmlns="http://www.w3.org/2000/svg">
<path d="M9.4521 6.17965H8.09443V11.5288L12.3937 14.0697L13.0726 12.9731L9.4521 10.8602V6.17965ZM13.8301 0.661072L18 4.08901L16.8415 5.45751L12.6689 2.03135L13.8301 0.661072ZM4.16895 0.661072L5.32931 2.03046L1.15855 5.45751L0 4.08811L4.16895 0.661072ZM8.99955 2.61352C4.50113 2.61352 0.853522 6.20639 0.853522 10.6373C0.853522 15.0682 4.50113 18.6611 8.99955 18.6611C13.498 18.6611 17.1456 15.0682 17.1456 10.6373C17.1456 6.20639 13.498 2.61352 8.99955 2.61352ZM8.99955 16.878C5.50581 16.878 2.66375 14.0786 2.66375 10.6373C2.66375 7.19599 5.50581 4.39658 8.99955 4.39658C12.4933 4.39658 15.3353 7.19599 15.3353 10.6373C15.3353 14.0786 12.4933 16.878 8.99955 16.878Z" fill="#E9E9E9"/>
</svg>
